<svg xmlns="http://www.w3.org/2000/svg" width="110" height="97.602" viewBox="0 0 110 97.602"><defs><clipPath id="a"><path fill="#269be0" d="M0 0h110v97.601H0z"/></clipPath></defs><g clip-path="url(#a)" fill="#269be0"><path d="M65.098 21.2a7.438 7.438 0 003.222.435 10.335 10.335 0 006.684-1.964 10.778 10.778 0 004.955-8.215l1.242.883a28.2 28.2 0 013.611 4.051 22.275 22.275 0 012.212 5.136 18.458 18.458 0 01.434 6.724c-.109.858.383 1.424 1.335 1.518a1.384 1.384 0 001.634-1.361 21.754 21.754 0 00.2-3.129 19.981 19.981 0 00-5.295-12.826 14.372 14.372 0 00-3.886-3.427 3.512 3.512 0 00-.662-.5A3.958 3.958 0 0178.8 6.293a8.479 8.479 0 00-3.652-4.1A9.623 9.623 0 0069.422.136a8.923 8.923 0 00-4.529.447 10.786 10.786 0 00-7.962 10.486 10.835 10.835 0 008.169 10.13m26.917 10.939a6.986 6.986 0 00-3.258-.987.745.745 0 00-.225-.051 12.445 12.445 0 00-6.892 1.081 10.5 10.5 0 00-6.257 9.422c-.023.467.26 1.042-.4 1.347a30.153 30.153 0 01-4.954 1.016 28.153 28.153 0 01-5.938-.4 1.377 1.377 0 00-1.766 1.063 1.4 1.4 0 001.245 1.7 16.757 16.757 0 004.752.441 17.759 17.759 0 006.881-1.01.915.915 0 011.268.6 10.2 10.2 0 005.172 5.059 7.682 7.682 0 003.434 1.042 7.407 7.407 0 003.442.045.729.729 0 00.237-.051 7.364 7.364 0 003.254-.989 10.517 10.517 0 00.009-19.329m-37.002-.011a7.629 7.629 0 00-3.441-1c-.166-.05-.344-.163-.5-.138-1.061.171-1.344-.429-1.449-1.243-.133-1.032-.347-2.059-.409-3.094a17.929 17.929 0 012.615-10.056 26.331 26.331 0 013.528-4 1.4 1.4 0 00.062-2.148 1.561 1.561 0 00-2.183.17c-.662.6-1.269 1.261-1.9 1.895a16.851 16.851 0 00-3.236 5.042 3.993 3.993 0 00-.312.519 19.464 19.464 0 00-1.072 12.276c.166.687.085 1.005-.69 1.251a9.77 9.77 0 00-4.34 2.653 10.274 10.274 0 000 15.112 11.146 11.146 0 007.276 3.25 7.141 7.141 0 002.608-.121 7.581 7.581 0 003.437-1.016 8.718 8.718 0 003.64-2.683 10.265 10.265 0 000-13.99 8.73 8.73 0 00-3.636-2.683"/><path d="M107.075 50.429a8.2 8.2 0 00-5.242.812c-2.663 1.035-4.81 2.819-7.118 4.368a101.562 101.562 0 00-6.435 4.279c-.334.193-.678.371-1 .581q-2.951 1.927-5.893 3.867l-2.97-.718a14.89 14.89 0 00-3.195-.445l-6.859-1.227-9.255-2.209a1.263 1.263 0 00-.224-.069l-3.671-1.138c-.614-.245-1.219-.515-1.845-.731a21.325 21.325 0 00-5.03-1.5 21.5 21.5 0 00-6.66-.8 20.989 20.989 0 00-6.455.637 26.763 26.763 0 00-10.307 4.616 25.063 25.063 0 00-3.23 2.405l-3.435 1.828a34.616 34.616 0 01-1.759-3.08 1.545 1.545 0 00-2.113-.8 16.482 16.482 0 00-2.806 1.412 26.735 26.735 0 00-3.443 1.67 20.761 20.761 0 00-3.4 1.645c-.908.419-1.82.832-2.724 1.259A4.2 4.2 0 000 68.463v1.014c.357.217.434.6.612.924 1.328 2.389 2.64 4.786 3.957 7.18L8 83.867q1.671 3.322 3.588 6.524c1 2.222 2.284 4.306 3.46 6.442a1.426 1.426 0 002 .587c.416-.184.812-.41 1.217-.618a30.773 30.773 0 003.647-1.786 28.324 28.324 0 003.266-1.595c1.748-.829 3.508-1.637 5.24-2.495a1.349 1.349 0 00.706-2.1 10.684 10.684 0 00-.682-1.258c-.336-.5-.291-.741.329-1.042a7.623 7.623 0 014.251-.65l6.862 1.6 6.458 1.461 6.647 1.574 3.657.83c.934.219 1.863.457 2.8.655a8.951 8.951 0 007.091-1.435 73.706 73.706 0 006.6-3.67 70.537 70.537 0 006.532-3.56c.269-.151.53-.317.809-.45a65.786 65.786 0 005.848-3.208 32.314 32.314 0 003.82-2.095 12.856 12.856 0 006.628-5.673c1.389-1.946 2.8-3.879 4.16-5.843a25.3 25.3 0 002.323-3.478c.281-.346.579-.681.842-1.039a29.241 29.241 0 003.9-6.46v-2.027a3.912 3.912 0 00-2.925-2.627m-.2 4.262c-.425 1.5-1.535 2.651-2.265 4a173.496 173.496 0 00-6.2 8.786c-.863 1.188-1.814 2.329-2.568 3.575a9.683 9.683 0 01-4.1 3.56l-3.653 2.017-6.452 3.57q-3.407 1.7-6.657 3.661v.02l-.019-.011q-3.509 1.779-6.878 3.784v.009h-.011c-2.79 2.062-5.872 1.842-9.03 1.019-.2-.053-.395-.131-.592-.2a18.592 18.592 0 00-3.416-.777 48.985 48.985 0 00-6.214-1.428 66.049 66.049 0 00-6.906-1.607 57.222 57.222 0 00-6.222-1.423h-.01a8.365 8.365 0 00-5.965.65c-.889.456-1.18.2-1.56-.533-.9-1.746-1.891-3.451-2.845-5.172a64.787 64.787 0 00-3.393-6.082 26.918 26.918 0 00-1.976-3.85c-.3-.565-.267-.868.338-1.155.5-.237.955-.557 1.429-.84a10.792 10.792 0 003.676-2.456 33.157 33.157 0 017.307-4c.77-.27 1.551-.51 2.327-.764a28.761 28.761 0 017.431-.782l-.012-.025c.034.008.064.018.1.025a41.44 41.44 0 015.8.832L55 61.341a17.376 17.376 0 003.437 1.034 64.261 64.261 0 009.661 2.261 46.146 46.146 0 006.873 1.226 23.037 23.037 0 003.446.533 2.712 2.712 0 012.594 1.87 2.3 2.3 0 01-.812 2.519 2.346 2.346 0 01-1.761.559L51.5 70.067a4.844 4.844 0 00-1.384-.03 1.052 1.052 0 00-.967.938 1 1 0 00.765 1.086 2.488 2.488 0 00.623.141l27.951 1.958a4.319 4.319 0 003.317-1.036 4.792 4.792 0 002.017-5.853.966.966 0 01.484-1.385c1.451-.915 2.844-1.913 4.261-2.877a90.255 90.255 0 006.406-4.246c0-.01 0-.02-.008-.03.011.007.022.008.033.014l7.253-4.681a13.671 13.671 0 013.153-.949c1.326-.157 1.815.361 1.471 1.574"/></g></svg>