<svg xmlns="http://www.w3.org/2000/svg" width="934" height="1154" viewBox="0 0 934 1154"><g data-name="グループ 3839" transform="translate(-50 -1087)"><rect data-name="長方形 2663" width="767" height="503" rx="13" transform="translate(217 1643)" fill="#f5f9fc"/><path data-name="長方形 2663 - アウトライン" d="M230 1645a11 11 0 00-11 11v477a11 11 0 0011 11h741a11 11 0 0011-11v-477a11 11 0 00-11-11H230m0-2h741a13 13 0 0113 13v477a13 13 0 01-13 13H230a13 13 0 01-13-13v-477a13 13 0 0113-13z" fill="#1370a5"/><rect data-name="長方形 2650" width="440" height="258" rx="13" transform="translate(50 1205)" fill="#f5f9fc"/><path data-name="長方形 2650 - アウトライン" d="M63 1207a11 11 0 00-11 11v232a11 11 0 0011 11h414a11 11 0 0011-11v-232a11 11 0 00-11-11H63m0-2h414a13 13 0 0113 13v232a13 13 0 01-13 13H63a13 13 0 01-13-13v-232a13 13 0 0113-13z" fill="#1370a5"/><rect data-name="長方形 2653" width="313" height="258" rx="13" transform="translate(525 1205)" fill="#f5f9fc"/><path data-name="長方形 2653 - アウトライン" d="M538 1207a11 11 0 00-11 11v232a11 11 0 0011 11h287a11 11 0 0011-11v-232a11 11 0 00-11-11H538m0-2h287a13 13 0 0113 13v232a13 13 0 01-13 13H538a13 13 0 01-13-13v-232a13 13 0 0113-13z" fill="#1370a5"/><rect data-name="長方形 2687" width="125" height="36" rx="4" transform="translate(549 1187)" fill="#f5f9fc"/><path data-name="長方形 2687 - アウトライン" d="M553 1189a2 2 0 00-2 2v28a2 2 0 002 2h117a2 2 0 002-2v-28a2 2 0 00-2-2H553m0-2h117a4 4 0 014 4v28a4 4 0 01-4 4H553a4 4 0 01-4-4v-28a4 4 0 014-4z" fill="#1370a5"/><rect data-name="長方形 2689" width="125" height="36" rx="4" transform="translate(767 1625)" fill="#f5f9fc"/><path data-name="長方形 2689 - アウトライン" d="M771 1627a2 2 0 00-2 2v28a2 2 0 002 2h117a2 2 0 002-2v-28a2 2 0 00-2-2H771m0-2h117a4 4 0 014 4v28a4 4 0 01-4 4H771a4 4 0 01-4-4v-28a4 4 0 014-4z" fill="#1370a5"/><rect data-name="長方形 2688" width="90" height="36" rx="4" transform="translate(377 1188)" fill="#f5f9fc"/><path data-name="長方形 2688 - アウトライン" d="M381 1190a2 2 0 00-2 2v28a2 2 0 002 2h82a2 2 0 002-2v-28a2 2 0 00-2-2h-82m0-2h82a4 4 0 014 4v28a4 4 0 01-4 4h-82a4 4 0 01-4-4v-28a4 4 0 014-4z" fill="#1370a5"/><rect data-name="長方形 2598" width="934" height="49" rx="13" transform="translate(50 1087)" fill="#0073bd"/><text transform="translate(521.973 1118.5)" fill="#fff" font-size="16" font-family="YuGothicUI-Bold, Yu Gothic UI" font-weight="700"><tspan x="-32" y="0">株主総会</tspan></text><rect data-name="長方形 2648" width="236" height="106" rx="13" transform="translate(551 1279)" fill="#fff"/><path data-name="長方形 2648 - アウトライン" d="M564 1283a9.01 9.01 0 00-9 9v80a9.01 9.01 0 009 9h210a9.01 9.01 0 009-9v-80a9.01 9.01 0 00-9-9H564m0-4h210a13 13 0 0113 13v80a13 13 0 01-13 13H564a13 13 0 01-13-13v-80a13 13 0 0113-13z" fill="#269be0"/><rect data-name="長方形 2654" width="223" height="64" rx="13" transform="translate(702 1514)" fill="#fff"/><path data-name="長方形 2654 - アウトライン" d="M715 1519a8.009 8.009 0 00-8 8v38a8.009 8.009 0 008 8h197a8.009 8.009 0 008-8v-38a8.009 8.009 0 00-8-8H715m0-5h197a13 13 0 0113 13v38a13 13 0 01-13 13H715a13 13 0 01-13-13v-38a13 13 0 0113-13z" fill="#269be0"/><rect data-name="長方形 2656" width="219" height="64" rx="13" transform="translate(336 1708)" fill="#fff"/><path data-name="長方形 2656 - アウトライン" d="M349 1712a9.01 9.01 0 00-9 9v38a9.01 9.01 0 009 9h193a9.01 9.01 0 009-9v-38a9.01 9.01 0 00-9-9H349m0-4h193a13 13 0 0113 13v38a13 13 0 01-13 13H349a13 13 0 01-13-13v-38a13 13 0 0113-13z" fill="#269be0"/><rect data-name="長方形 2661" width="251" height="64" rx="13" transform="translate(268 2177)" fill="#fff"/><path data-name="長方形 2661 - アウトライン" d="M281 2181a9.01 9.01 0 00-9 9v38a9.01 9.01 0 009 9h225a9.01 9.01 0 009-9v-38a9.01 9.01 0 00-9-9H281m0-4h225a13 13 0 0113 13v38a13 13 0 01-13 13H281a13 13 0 01-13-13v-38a13 13 0 0113-13z" fill="#269be0"/><rect data-name="長方形 2662" width="251" height="120" rx="13" transform="translate(558 1978)" fill="#fff"/><path data-name="長方形 2662 - アウトライン" d="M571 1982a9.01 9.01 0 00-9 9v94a9.01 9.01 0 009 9h225a9.01 9.01 0 009-9v-94a9.01 9.01 0 00-9-9H571m0-4h225a13 13 0 0113 13v94a13 13 0 01-13 13H571a13 13 0 01-13-13v-94a13 13 0 0113-13z" fill="#269be0"/><rect data-name="長方形 2658" width="153" height="64" rx="13" transform="translate(575 1708)" fill="#fff"/><path data-name="長方形 2658 - アウトライン" d="M588 1712a9.01 9.01 0 00-9 9v38a9.01 9.01 0 009 9h127a9.01 9.01 0 009-9v-38a9.01 9.01 0 00-9-9H588m0-4h127a13 13 0 0113 13v38a13 13 0 01-13 13H588a13 13 0 01-13-13v-38a13 13 0 0113-13z" fill="#269be0"/><rect data-name="長方形 2659" width="153" height="64" rx="13" transform="translate(575 1781)" fill="#fff"/><path data-name="長方形 2659 - アウトライン" d="M588 1785a9.01 9.01 0 00-9 9v38a9.01 9.01 0 009 9h127a9.01 9.01 0 009-9v-38a9.01 9.01 0 00-9-9H588m0-4h127a13 13 0 0113 13v38a13 13 0 01-13 13H588a13 13 0 01-13-13v-38a13 13 0 0113-13z" fill="#269be0"/><rect data-name="長方形 2660" width="153" height="64" rx="13" transform="translate(575 1854)" fill="#fff"/><path data-name="長方形 2660 - アウトライン" d="M588 1858a9.01 9.01 0 00-9 9v38a9.01 9.01 0 009 9h127a9.01 9.01 0 009-9v-38a9.01 9.01 0 00-9-9H588m0-4h127a13 13 0 0113 13v38a13 13 0 01-13 13H588a13 13 0 01-13-13v-38a13 13 0 0113-13z" fill="#269be0"/><rect data-name="長方形 2657" width="160" height="100" rx="13" transform="translate(391 1844)" fill="#fff"/><path data-name="長方形 2657 - アウトライン" d="M404 1848a9.01 9.01 0 00-9 9v74a9.01 9.01 0 009 9h134a9.01 9.01 0 009-9v-74a9.01 9.01 0 00-9-9H404m0-4h134a13 13 0 0113 13v74a13 13 0 01-13 13H404a13 13 0 01-13-13v-74a13 13 0 0113-13z" fill="#269be0"/><rect data-name="長方形 2655" width="164" height="94" rx="13" transform="translate(137 1693)" fill="#fff"/><path data-name="長方形 2655 - アウトライン" d="M150 1697a9.01 9.01 0 00-9 9v68a9.01 9.01 0 009 9h138a9.01 9.01 0 009-9v-68a9.01 9.01 0 00-9-9H150m0-4h138a13 13 0 0113 13v68a13 13 0 01-13 13H150a13 13 0 01-13-13v-68a13 13 0 0113-13z" fill="#269be0"/><text data-name="取締役会 [取締役]" transform="translate(669 1326)" fill="#269be0" font-size="16" font-family="YuGothicUI-Bold, Yu Gothic UI" font-weight="700"><tspan x="-32" y="0">取締役会</tspan><tspan font-family="SegoeUI-Bold, Segoe UI"><tspan x="-29.906" y="24">[</tspan><tspan y="24" font-family="YuGothicUI-Bold, Yu Gothic UI">取締役</tspan><tspan y="24">]</tspan></tspan></text><text data-name="指名・報酬諮問委員会" transform="translate(812 1553)" fill="#269be0" font-size="16" font-family="YuGothicUI-Bold, Yu Gothic UI" font-weight="700"><tspan x="-76" y="0">指名・報酬諮問委員会</tspan></text><text transform="translate(446 1746)" fill="#269be0" font-size="16" font-family="YuGothicUI-Bold, Yu Gothic UI" font-weight="700"><tspan x="-72.262" y="0">コンプライアンス推進室</tspan></text><text transform="translate(394 2215)" fill="#269be0" font-size="16" font-family="YuGothicUI-Bold, Yu Gothic UI" font-weight="700"><tspan x="-40" y="0">内部監査部</tspan></text><text data-name="業務執行部門 [生産・技術・営業・ 管理各部門、子会社]" transform="translate(684 2020)" fill="#269be0" font-size="16" font-family="YuGothicUI-Bold, Yu Gothic UI" font-weight="700"><tspan x="-48" y="0">業務執行部門</tspan><tspan font-family="SegoeUI-Bold, Segoe UI"><tspan x="-62.953" y="24">[</tspan><tspan y="24" font-family="YuGothicUI-Bold, Yu Gothic UI">生産・技術・営業・</tspan></tspan><tspan x="-72.266" y="48">管理各部門、子会社</tspan><tspan y="48" font-family="SegoeUI-Bold, Segoe UI">]</tspan></text><text transform="translate(652 1746)" fill="#269be0" font-size="16" font-family="YuGothicUI-Bold, Yu Gothic UI" font-weight="700"><tspan x="-40" y="0">代表取締役</tspan></text><text transform="translate(651 1819)" fill="#269be0" font-size="16" font-family="YuGothicUI-Bold, Yu Gothic UI" font-weight="700"><tspan x="-56" y="0">業務担当取締役</tspan></text><text transform="translate(651 1892)" fill="#269be0" font-size="16" font-family="YuGothicUI-Bold, Yu Gothic UI" font-weight="700"><tspan x="-32" y="0">執行役員</tspan></text><text data-name="コンプライアンス 委員会" transform="translate(471 1888)" fill="#269be0" font-size="16" font-family="YuGothicUI-Bold, Yu Gothic UI" font-weight="700"><tspan x="-48.262" y="0">コンプライアンス</tspan><tspan x="-24" y="24">委員会</tspan></text><text data-name="通報窓口 （社内・社外）" transform="translate(217 1733)" fill="#269be0" font-size="16" font-family="YuGothicUI-Bold, Yu Gothic UI" font-weight="700"><tspan x="-32" y="0">通報窓口</tspan><tspan x="-52" y="21">（社内・社外）</tspan></text><rect data-name="長方形 2650" width="217" height="106" rx="13" transform="translate(250 1279)" fill="#fff"/><path data-name="長方形 2650 - アウトライン" d="M263 1283a9.01 9.01 0 00-9 9v80a9.01 9.01 0 009 9h191a9.01 9.01 0 009-9v-80a9.01 9.01 0 00-9-9H263m0-4h191a13 13 0 0113 13v80a13 13 0 01-13 13H263a13 13 0 01-13-13v-80a13 13 0 0113-13z" fill="#269be0"/><text data-name="監査役会 監査役" transform="translate(359 1326)" fill="#269be0" font-size="16" font-family="YuGothicUI-Bold, Yu Gothic UI" font-weight="700"><tspan x="-32" y="0">監査役会</tspan><tspan x="-24" y="24">監査役</tspan></text><g data-name="グループ 3248" transform="translate(13 -32)"><rect data-name="長方形 2651" width="52" height="211" rx="13" transform="translate(50 1258)" fill="#269be0"/><text data-name="会 計監 査人" transform="translate(75.5 1320)" fill="#fff" font-size="16" font-family="YuGothicUI-Bold, Yu Gothic UI" font-weight="700"><tspan x="-8" y="0">会</tspan><tspan x="-8" y="25">計</tspan><tspan x="-8" y="50">監</tspan><tspan x="-8" y="75">査</tspan><tspan x="-8" y="100">人</tspan></text></g><g data-name="グループ 3251" transform="translate(0 -32)"><rect data-name="長方形 2652" width="52" height="211" rx="13" transform="translate(932 1258)" fill="#269be0"/><text data-name="顧 問弁 護士" transform="translate(957.5 1320)" fill="#fff" font-size="16" font-family="YuGothicUI-Bold, Yu Gothic UI" font-weight="700"><tspan x="-8" y="0">顧</tspan><tspan x="-8" y="25">問</tspan><tspan x="-8" y="50">弁</tspan><tspan x="-8" y="75">護</tspan><tspan x="-8" y="100">士</tspan></text></g><rect data-name="長方形 2652" width="158" height="64" rx="13" transform="translate(759 1781)" fill="#fff"/><path data-name="長方形 2652 - アウトライン" d="M772 1785a9.01 9.01 0 00-9 9v38a9.01 9.01 0 009 9h132a9.01 9.01 0 009-9v-38a9.01 9.01 0 00-9-9H772m0-4h132a13 13 0 0113 13v38a13 13 0 01-13 13H772a13 13 0 01-13-13v-38a13 13 0 0113-13z" fill="#269be0"/><text transform="translate(838 1819)" fill="#269be0" font-size="16" font-family="YuGothicUI-Bold, Yu Gothic UI" font-weight="700"><tspan x="-32" y="0">経営会議</tspan></text><path data-name="線 756" d="M653.5 1979h-3v-61h3z" fill="#269be0"/><path data-name="線 753" d="M336 1742.5h-35v-3h35z" fill="#269be0"/><path data-name="線 757" d="M761 1816.5h-35v-3h35z" fill="#269be0"/><path data-name="線 763" d="M576 1887.5h-28v-3h28z" fill="#269be0"/><path data-name="線 754" d="M653.5 1784h-3v-15h3z" fill="#269be0"/><path data-name="線 755" d="M653.5 1859h-3v-15h3z" fill="#269be0"/><g data-name="グループ 3254" fill="#269be0"><path data-name="線 752" d="M273.365 1281a1.5 1.5 0 01-1.5-1.5v-143a1.5 1.5 0 011.5-1.5 1.5 1.5 0 011.5 1.5v143a1.5 1.5 0 01-1.5 1.5z"/><g data-name="グループ 3253"><path data-name="線 758" d="M273.364 1281a1.494 1.494 0 01-.951-.341l-6.278-5.155a1.5 1.5 0 01-.207-2.111 1.5 1.5 0 012.111-.207l6.278 5.159a1.5 1.5 0 01-.953 2.659z"/><path data-name="線 759" d="M273.365 1281a1.5 1.5 0 01-1.16-.548 1.5 1.5 0 01.208-2.107l6.278-5.159a1.5 1.5 0 012.111.207 1.5 1.5 0 01-.207 2.111l-6.278 5.155a1.494 1.494 0 01-.952.341z"/></g></g><g data-name="グループ 3267" fill="#269be0"><path data-name="線 752" d="M410.366 1644.5a1.5 1.5 0 01-1.5-1.5v-258a1.5 1.5 0 011.5-1.5 1.5 1.5 0 011.5 1.5v258a1.5 1.5 0 01-1.5 1.5z"/><g data-name="グループ 3253"><path data-name="線 758" d="M410.365 1644.501a1.494 1.494 0 01-.951-.341l-6.278-5.155a1.5 1.5 0 01-.207-2.111 1.5 1.5 0 012.111-.207l6.278 5.159a1.5 1.5 0 01-.953 2.659z"/><path data-name="線 759" d="M410.366 1644.501a1.5 1.5 0 01-1.16-.548 1.5 1.5 0 01.208-2.107l6.278-5.159a1.5 1.5 0 012.111.207 1.5 1.5 0 01-.207 2.111l-6.278 5.155a1.494 1.494 0 01-.952.341z"/></g></g><g data-name="グループ 3258" fill="#269be0"><path data-name="線 752" d="M715.365 1281a1.5 1.5 0 01-1.5-1.5v-143a1.5 1.5 0 011.5-1.5 1.5 1.5 0 011.5 1.5v143a1.5 1.5 0 01-1.5 1.5z"/><g data-name="グループ 3253"><path data-name="線 758" d="M715.364 1281a1.494 1.494 0 01-.951-.341l-6.278-5.155a1.5 1.5 0 01-.207-2.111 1.5 1.5 0 012.111-.207l6.278 5.159a1.5 1.5 0 01-.953 2.659z"/><path data-name="線 759" d="M715.365 1281a1.5 1.5 0 01-1.16-.548 1.5 1.5 0 01.208-2.107l6.278-5.159a1.5 1.5 0 012.111.207 1.5 1.5 0 01-.207 2.111l-6.278 5.155a1.494 1.494 0 01-.952.341z"/></g></g><g data-name="グループ 3261" fill="#269be0"><path data-name="線 752" d="M725.588 1515.45a1.5 1.5 0 01-1.5-1.5V1385a1.5 1.5 0 011.5-1.5 1.5 1.5 0 011.5 1.5v128.95a1.5 1.5 0 01-1.5 1.5z"/><g data-name="グループ 3253"><path data-name="線 758" d="M725.587 1515.451a1.494 1.494 0 01-.951-.341l-6.278-5.155a1.5 1.5 0 01-.207-2.111 1.5 1.5 0 012.111-.207l6.278 5.159a1.5 1.5 0 01-.953 2.659z"/><path data-name="線 759" d="M725.588 1515.451a1.5 1.5 0 01-1.16-.548 1.5 1.5 0 01.208-2.107l6.278-5.159a1.5 1.5 0 012.111.207 1.5 1.5 0 01-.207 2.111l-6.278 5.155a1.494 1.494 0 01-.952.341z"/></g></g><g data-name="グループ 3264" fill="#269be0"><path data-name="線 752" d="M606.278 1709.5a1.5 1.5 0 01-1.5-1.5v-323a1.5 1.5 0 011.5-1.5 1.5 1.5 0 011.5 1.5v323a1.5 1.5 0 01-1.5 1.5z"/><g data-name="グループ 3253"><path data-name="線 758" d="M606.277 1709.5a1.494 1.494 0 01-.951-.341l-6.278-5.155a1.5 1.5 0 01-.207-2.111 1.5 1.5 0 012.111-.207l6.278 5.159a1.5 1.5 0 01-.953 2.659z"/><path data-name="線 759" d="M606.278 1709.5a1.5 1.5 0 01-1.16-.548 1.5 1.5 0 01.208-2.107l6.278-5.159a1.5 1.5 0 012.111.207 1.5 1.5 0 01-.207 2.111l-6.278 5.155a1.494 1.494 0 01-.952.341z"/></g></g><g data-name="グループ 3281" fill="#269be0"><path data-name="線 752" d="M958.278 1644.5a1.5 1.5 0 01-1.5-1.5v-208a1.5 1.5 0 011.5-1.5 1.5 1.5 0 011.5 1.5v208a1.5 1.5 0 01-1.5 1.5z"/><g data-name="グループ 3253"><path data-name="線 758" d="M958.277 1644.5a1.494 1.494 0 01-.951-.341l-6.278-5.155a1.5 1.5 0 01-.207-2.111 1.5 1.5 0 012.111-.207l6.278 5.159a1.5 1.5 0 01-.953 2.659z"/><path data-name="線 759" d="M958.278 1644.5a1.5 1.5 0 01-1.16-.548 1.5 1.5 0 01.208-2.107l6.278-5.159a1.5 1.5 0 012.111.207 1.5 1.5 0 01-.207 2.111l-6.278 5.155a1.494 1.494 0 01-.952.341z"/></g></g><g data-name="グループ 3262" fill="#269be0"><path data-name="線 752" d="M778.06 1515.45a1.5 1.5 0 01-1.5-1.5V1385a1.5 1.5 0 011.5-1.5 1.5 1.5 0 011.5 1.5v128.95a1.5 1.5 0 01-1.5 1.5z"/><g data-name="グループ 3253"><path data-name="線 758" d="M771.782 1391.655a1.5 1.5 0 01-1.16-.548 1.5 1.5 0 01.208-2.107l6.278-5.159a1.5 1.5 0 012.111.207 1.5 1.5 0 01-.207 2.111l-6.278 5.155a1.494 1.494 0 01-.952.341z"/><path data-name="線 759" d="M784.337 1391.655a1.494 1.494 0 01-.951-.341l-6.278-5.155a1.5 1.5 0 01-.207-2.111 1.5 1.5 0 012.111-.207l6.278 5.159a1.5 1.5 0 01-.953 2.659z"/></g></g><g data-name="グループ 3280" fill="#269be0"><path data-name="線 752" d="M686.001 2210.5a1.5 1.5 0 01-1.5-1.5v-111a1.5 1.5 0 011.5-1.5 1.5 1.5 0 011.5 1.5v111a1.5 1.5 0 01-1.5 1.5z"/><g data-name="グループ 3253"><path data-name="線 758" d="M679.723 2104.655a1.5 1.5 0 01-1.16-.548 1.5 1.5 0 01.208-2.107l6.278-5.159a1.5 1.5 0 012.111.207 1.5 1.5 0 01-.207 2.111l-6.278 5.155a1.494 1.494 0 01-.952.341z"/><path data-name="線 759" d="M692.278 2104.655a1.494 1.494 0 01-.951-.341l-6.278-5.155a1.5 1.5 0 01-.207-2.111 1.5 1.5 0 012.111-.207l6.278 5.159a1.5 1.5 0 01-.953 2.659z"/></g></g><g data-name="グループ 3278" fill="#269be0"><path data-name="線 752" d="M365.501 2178.5a1.5 1.5 0 01-1.5-1.5v-405a1.5 1.5 0 011.5-1.5 1.5 1.5 0 011.5 1.5v405a1.5 1.5 0 01-1.5 1.5z"/><g data-name="グループ 3253"><path data-name="線 758" d="M359.223 1778.655a1.5 1.5 0 01-1.16-.548 1.5 1.5 0 01.208-2.107l6.278-5.159a1.5 1.5 0 012.111.207 1.5 1.5 0 01-.207 2.111l-6.278 5.155a1.494 1.494 0 01-.952.341z"/><path data-name="線 759" d="M371.778 1778.655a1.494 1.494 0 01-.951-.341l-6.278-5.155a1.5 1.5 0 01-.207-2.111 1.5 1.5 0 012.111-.207l6.278 5.159a1.5 1.5 0 01-.953 2.659z"/></g></g><g data-name="グループ 3273" fill="#269be0"><path data-name="線 752" d="M566.278 1585.092a1.5 1.5 0 01-1.5-1.5V1385a1.5 1.5 0 011.5-1.5 1.5 1.5 0 011.5 1.5v198.592a1.5 1.5 0 01-1.5 1.5z"/><g data-name="グループ 3253"><path data-name="線 758" d="M560 1391.655a1.5 1.5 0 01-1.16-.548 1.5 1.5 0 01.208-2.107l6.278-5.159a1.5 1.5 0 012.111.207 1.5 1.5 0 01-.207 2.111l-6.278 5.155a1.494 1.494 0 01-.952.341z"/><path data-name="線 759" d="M572.555 1391.655a1.494 1.494 0 01-.951-.341l-6.278-5.155a1.5 1.5 0 01-.207-2.111 1.5 1.5 0 012.111-.207l6.278 5.159a1.5 1.5 0 01-.953 2.659z"/></g></g><g data-name="グループ 3263" fill="#269be0"><path data-name="線 752" d="M657.893 1709.5a1.5 1.5 0 01-1.5-1.5v-323a1.5 1.5 0 011.5-1.5 1.5 1.5 0 011.5 1.5v323a1.5 1.5 0 01-1.5 1.5z"/><g data-name="グループ 3253"><path data-name="線 758" d="M651.615 1391.655a1.5 1.5 0 01-1.16-.548 1.5 1.5 0 01.208-2.107l6.278-5.159a1.5 1.5 0 012.111.207 1.5 1.5 0 01-.207 2.111l-6.278 5.155a1.494 1.494 0 01-.952.341z"/><path data-name="線 759" d="M664.17 1391.655a1.494 1.494 0 01-.951-.341l-6.278-5.155a1.5 1.5 0 01-.207-2.111 1.5 1.5 0 012.111-.207l6.278 5.159a1.5 1.5 0 01-.953 2.659z"/></g></g><g data-name="グループ 3259" fill="#269be0"><path data-name="線 752" d="M784.5 1332a1.5 1.5 0 011.5-1.5h143a1.5 1.5 0 011.5 1.5 1.5 1.5 0 01-1.5 1.5H786a1.5 1.5 0 01-1.5-1.5z"/><g data-name="グループ 3253"><path data-name="線 758" d="M784.5 1332a1.5 1.5 0 01.548-1.16 1.5 1.5 0 012.107.208l5.159 6.278a1.5 1.5 0 01-.207 2.111 1.5 1.5 0 01-2.111-.207l-5.155-6.278a1.494 1.494 0 01-.341-.952z"/><path data-name="線 759" d="M784.5 1331.999a1.494 1.494 0 01.341-.951l5.155-6.278a1.5 1.5 0 012.111-.207 1.5 1.5 0 01.207 2.111l-5.159 6.278a1.5 1.5 0 01-2.659-.953z"/></g></g><g data-name="グループ 3266" fill="#269be0"><path data-name="線 752" d="M113.5 1332.278a1.5 1.5 0 011.5-1.5h135a1.5 1.5 0 011.5 1.5 1.5 1.5 0 01-1.5 1.5H115a1.5 1.5 0 01-1.5-1.5z"/><g data-name="グループ 3253"><path data-name="線 758" d="M113.5 1332.278a1.5 1.5 0 01.581-1.187 1.5 1.5 0 012.1.267l4.871 6.279a1.5 1.5 0 01-.267 2.1 1.5 1.5 0 01-2.1-.267l-4.871-6.273a1.494 1.494 0 01-.314-.919z"/><path data-name="線 761" d="M241.222 1337.85a1.5 1.5 0 01.578-1.186l6.281-4.867a1.5 1.5 0 012.1.267 1.5 1.5 0 01-.267 2.1l-6.273 4.871a1.5 1.5 0 01-2.419-1.185z"/><path data-name="線 759" d="M113.5 1332.277a1.493 1.493 0 01.315-.918l4.865-6.278a1.5 1.5 0 012.1-.267 1.5 1.5 0 01.267 2.1l-4.862 6.286a1.5 1.5 0 01-2.686-.92z"/><path data-name="線 760" d="M241.222 1326.706a1.493 1.493 0 01.315-.918 1.5 1.5 0 012.1-.267l6.282 4.866a1.5 1.5 0 01.267 2.1 1.5 1.5 0 01-2.1.267l-6.286-4.862a1.5 1.5 0 01-.578-1.186z"/></g></g><g data-name="グループ 3279" fill="#269be0"><path data-name="線 752" d="M469.278 1770.5a1.5 1.5 0 011.5 1.5v72a1.5 1.5 0 01-1.5 1.5 1.5 1.5 0 01-1.5-1.5v-72a1.5 1.5 0 011.5-1.5z"/><g data-name="グループ 3253"><path data-name="線 758" d="M469.278 1770.5a1.5 1.5 0 011.187.581 1.5 1.5 0 01-.267 2.1l-6.279 4.871a1.5 1.5 0 01-2.1-.267 1.5 1.5 0 01.267-2.1l6.273-4.871a1.494 1.494 0 01.919-.314z"/><path data-name="線 761" d="M463.706 1835.222a1.5 1.5 0 011.186.578l4.867 6.281a1.5 1.5 0 01-.267 2.1 1.5 1.5 0 01-2.1-.267l-4.871-6.273a1.5 1.5 0 011.185-2.419z"/><path data-name="線 759" d="M469.279 1770.5a1.493 1.493 0 01.918.315l6.278 4.865a1.5 1.5 0 01.267 2.1 1.5 1.5 0 01-2.1.267l-6.286-4.862a1.5 1.5 0 01.92-2.686z"/><path data-name="線 760" d="M474.85 1835.222a1.493 1.493 0 01.918.315 1.5 1.5 0 01.267 2.1l-4.866 6.282a1.5 1.5 0 01-2.1.267 1.5 1.5 0 01-.267-2.1l4.862-6.286a1.5 1.5 0 011.186-.578z"/></g></g><path data-name="線 752" d="M318.5 1383.5a1.5 1.5 0 011.5 1.5v792a1.5 1.5 0 01-1.5 1.5 1.5 1.5 0 01-1.5-1.5v-792a1.5 1.5 0 011.5-1.5z" fill="#269be0"/><path data-name="線 758" d="M318.5 1383.5a1.5 1.5 0 011.187.581 1.5 1.5 0 01-.267 2.1l-6.279 4.871a1.5 1.5 0 01-2.1-.267 1.5 1.5 0 01.267-2.1l6.273-4.871a1.494 1.494 0 01.919-.314z" fill="#269be0"/><path data-name="線 761" d="M312.927 2168.222a1.5 1.5 0 011.186.578l4.867 6.281a1.5 1.5 0 01-.267 2.1 1.5 1.5 0 01-2.1-.267l-4.871-6.273a1.5 1.5 0 011.185-2.419z" fill="#269be0"/><path data-name="線 759" d="M318.5 1383.5a1.493 1.493 0 01.918.315l6.278 4.865a1.5 1.5 0 01.267 2.1 1.5 1.5 0 01-2.1.267l-6.286-4.862a1.5 1.5 0 01.92-2.686z" fill="#269be0"/><path data-name="線 760" d="M324.072 2168.222a1.493 1.493 0 01.918.315 1.5 1.5 0 01.267 2.1l-4.866 6.282a1.5 1.5 0 01-2.1.267 1.5 1.5 0 01-.267-2.1l4.862-6.286a1.5 1.5 0 011.186-.578z" fill="#269be0"/><g data-name="グループ 3664" fill="#269be0"><path data-name="線 796" d="M359.927 2168.222a1.5 1.5 0 011.186.578l4.867 6.281a1.5 1.5 0 01-.267 2.1 1.5 1.5 0 01-2.1-.267l-4.871-6.273a1.5 1.5 0 011.185-2.419z"/><path data-name="線 795" d="M371.072 2168.222a1.493 1.493 0 01.918.315 1.5 1.5 0 01.267 2.1l-4.866 6.282a1.5 1.5 0 01-2.1.267 1.5 1.5 0 01-.267-2.1l4.862-6.286a1.5 1.5 0 011.186-.578z"/></g><g data-name="グループ 3265" fill="#269be0"><path data-name="線 752" d="M465.5 1304.139a1.5 1.5 0 011.5-1.5h84a1.5 1.5 0 011.5 1.5 1.5 1.5 0 01-1.5 1.5h-84a1.5 1.5 0 01-1.5-1.5z"/><g data-name="グループ 3253"><path data-name="線 758" d="M546.652 1308.137a1.493 1.493 0 01.264-.849l2.848-4.138a1.5 1.5 0 012.086-.386 1.5 1.5 0 01.386 2.086l-2.848 4.139a1.5 1.5 0 01-2.736-.852z"/><path data-name="線 759" d="M546.652 1299.861a1.5 1.5 0 01.648-1.236 1.5 1.5 0 012.088.386l2.848 4.139a1.5 1.5 0 01-.386 2.086 1.5 1.5 0 01-2.086-.386l-2.847-4.139a1.493 1.493 0 01-.265-.85z"/></g></g><g data-name="グループ 3275" fill="#269be0"><path data-name="線 752" d="M101.21 1910.434a1.5 1.5 0 011.5-1.5H217a1.5 1.5 0 011.5 1.5 1.5 1.5 0 01-1.5 1.5H102.71a1.5 1.5 0 01-1.5-1.5z"/><g data-name="グループ 3253"><path data-name="線 758" d="M212.652 1914.432a1.493 1.493 0 01.264-.849l2.848-4.138a1.5 1.5 0 012.086-.386 1.5 1.5 0 01.386 2.086l-2.848 4.139a1.5 1.5 0 01-2.736-.852z"/><path data-name="線 759" d="M212.652 1906.156a1.5 1.5 0 01.648-1.236 1.5 1.5 0 012.088.386l2.848 4.139a1.5 1.5 0 01-.386 2.086 1.5 1.5 0 01-2.086-.386l-2.847-4.139a1.493 1.493 0 01-.265-.85z"/></g></g><g data-name="グループ 3277" fill="#269be0"><path data-name="線 752" d="M75.501 2209.139a1.5 1.5 0 011.5-1.5h189.724a1.5 1.5 0 011.5 1.5 1.5 1.5 0 01-1.5 1.5H77.001a1.5 1.5 0 01-1.5-1.5z"/><g data-name="グループ 3253"><path data-name="線 758" d="M262.377 2213.137a1.493 1.493 0 01.264-.849l2.848-4.138a1.5 1.5 0 012.086-.386 1.5 1.5 0 01.386 2.086l-2.848 4.139a1.5 1.5 0 01-2.736-.852z"/><path data-name="線 759" d="M262.377 2204.861a1.5 1.5 0 01.648-1.236 1.5 1.5 0 012.088.386l2.848 4.139a1.5 1.5 0 01-.386 2.086 1.5 1.5 0 01-2.086-.386l-2.847-4.139a1.493 1.493 0 01-.265-.85z"/></g></g><path data-name="線 752" d="M318.588 1477.139a1.5 1.5 0 011.5-1.5H507a1.5 1.5 0 011.5 1.5 1.5 1.5 0 01-1.5 1.5H320.088a1.5 1.5 0 01-1.5-1.5z" fill="#269be0"/><path data-name="線 764" d="M686 2210.5H517a1.5 1.5 0 01-1.5-1.5 1.5 1.5 0 011.5-1.5h169a1.5 1.5 0 011.5 1.5 1.5 1.5 0 01-1.5 1.5z" fill="#269be0"/><path data-name="線 762" d="M565.5 1585.092H467a1.5 1.5 0 01-1.5-1.5 1.5 1.5 0 011.5-1.5h98.5a1.5 1.5 0 011.5 1.5 1.5 1.5 0 01-1.5 1.5z" fill="#269be0"/><g data-name="グループ 3270"><path data-name="線 752" d="M507.001 1478.639a1.5 1.5 0 01-1.5-1.5v-124.881a1.5 1.5 0 011.5-1.5 1.5 1.5 0 011.5 1.5v124.881a1.5 1.5 0 01-1.5 1.5z" fill="#269be0"/></g><g data-name="グループ 3272"><path data-name="線 752" d="M467.001 1709.973a1.5 1.5 0 01-1.5-1.5v-124.881a1.5 1.5 0 011.5-1.5 1.5 1.5 0 011.5 1.5v124.881a1.5 1.5 0 01-1.5 1.5z" fill="#269be0"/></g><g data-name="グループ 3274"><path data-name="線 752" d="M101.001 1911.795a1.5 1.5 0 01-1.5-1.5v-475.32a1.5 1.5 0 011.5-1.5 1.5 1.5 0 011.5 1.5v475.32a1.5 1.5 0 01-1.5 1.5z" fill="#269be0"/></g><g data-name="グループ 3276"><path data-name="線 752" d="M77.001 2210.5a1.5 1.5 0 01-1.5-1.5v-774.025a1.5 1.5 0 011.5-1.5 1.5 1.5 0 011.5 1.5V2209a1.5 1.5 0 01-1.5 1.5z" fill="#269be0"/></g><g data-name="グループ 3271" fill="#269be0"><path data-name="線 752" d="M505.638 1351.397a1.5 1.5 0 011.5-1.5h42.518a1.5 1.5 0 011.5 1.5 1.5 1.5 0 01-1.5 1.5h-42.518a1.5 1.5 0 01-1.5-1.5z"/><g data-name="グループ 3253"><path data-name="線 758" d="M545.308 1355.395a1.493 1.493 0 01.264-.849l2.848-4.138a1.5 1.5 0 012.086-.386 1.5 1.5 0 01.386 2.086l-2.848 4.139a1.5 1.5 0 01-2.736-.852z"/><path data-name="線 759" d="M545.308 1347.119a1.5 1.5 0 01.648-1.236 1.5 1.5 0 012.088.386l2.848 4.139a1.5 1.5 0 01-.386 2.086 1.5 1.5 0 01-2.086-.386l-2.847-4.139a1.493 1.493 0 01-.265-.85z"/></g></g><g data-name="グループ 3256" fill="#269be0"><path data-name="線 752" d="M89.366 1227.5a1.5 1.5 0 01-1.5-1.5v-89a1.5 1.5 0 011.5-1.5 1.5 1.5 0 011.5 1.5v89a1.5 1.5 0 01-1.5 1.5z"/><g data-name="グループ 3253"><path data-name="線 758" d="M89.365 1227.5a1.494 1.494 0 01-.951-.341l-6.278-5.155a1.5 1.5 0 01-.207-2.111 1.5 1.5 0 012.111-.207l6.278 5.159a1.5 1.5 0 01-.953 2.659z"/><path data-name="線 759" d="M89.366 1227.5a1.5 1.5 0 01-1.16-.548 1.5 1.5 0 01.208-2.107l6.278-5.159a1.5 1.5 0 012.111.207 1.5 1.5 0 01-.207 2.111l-6.278 5.155a1.494 1.494 0 01-.952.341z"/></g></g><g data-name="グループ 3255" fill="#269be0"><path data-name="線 752" d="M322.945 1281a1.5 1.5 0 01-1.5-1.5v-143a1.5 1.5 0 011.5-1.5 1.5 1.5 0 011.5 1.5v143a1.5 1.5 0 01-1.5 1.5z"/><g data-name="グループ 3253"><path data-name="線 758" d="M316.667 1143.155a1.5 1.5 0 01-1.16-.548 1.5 1.5 0 01.208-2.107l6.278-5.159a1.5 1.5 0 012.111.207 1.5 1.5 0 01-.207 2.111l-6.278 5.155a1.494 1.494 0 01-.952.341z"/><path data-name="線 759" d="M329.222 1143.155a1.494 1.494 0 01-.951-.341l-6.278-5.155a1.5 1.5 0 01-.207-2.111 1.5 1.5 0 012.111-.207l6.278 5.159a1.5 1.5 0 01-.953 2.659z"/></g></g><g data-name="グループ 3257" fill="#269be0"><path data-name="線 752" d="M763.945 1280.5a1.5 1.5 0 01-1.5-1.5v-143a1.5 1.5 0 011.5-1.5 1.5 1.5 0 011.5 1.5v143a1.5 1.5 0 01-1.5 1.5z"/><g data-name="グループ 3253"><path data-name="線 758" d="M757.667 1142.655a1.5 1.5 0 01-1.16-.548 1.5 1.5 0 01.208-2.107l6.278-5.159a1.5 1.5 0 012.111.207 1.5 1.5 0 01-.207 2.111l-6.278 5.155a1.494 1.494 0 01-.952.341z"/><path data-name="線 759" d="M770.222 1142.655a1.494 1.494 0 01-.951-.341l-6.278-5.155a1.5 1.5 0 01-.207-2.111 1.5 1.5 0 012.111-.207l6.278 5.159a1.5 1.5 0 01-.953 2.659z"/></g></g><rect data-name="長方形 2664" width="46" height="30" rx="5" transform="translate(300 1185)" fill="#ffffe8"/><path data-name="長方形 2664 - アウトライン" d="M305 1188a2 2 0 00-2 2v20a2 2 0 002 2h36a2 2 0 002-2v-20a2 2 0 00-2-2h-36m0-3h36a5 5 0 015 5v20a5 5 0 01-5 5h-36a5 5 0 01-5-5v-20a5 5 0 015-5z" fill="#269be0"/><rect data-name="長方形 2667" width="46" height="30" rx="5" transform="translate(741 1184.5)" fill="#ffffe8"/><path data-name="長方形 2667 - アウトライン" d="M746 1187.5a2 2 0 00-2 2v20a2 2 0 002 2h36a2 2 0 002-2v-20a2 2 0 00-2-2h-36m0-3h36a5 5 0 015 5v20a5 5 0 01-5 5h-36a5 5 0 01-5-5v-20a5 5 0 015-5z" fill="#269be0"/><rect data-name="長方形 2670" width="46" height="30" rx="5" transform="translate(754 1435)" fill="#ffffe8"/><path data-name="長方形 2670 - アウトライン" d="M759 1438a2 2 0 00-2 2v20a2 2 0 002 2h36a2 2 0 002-2v-20a2 2 0 00-2-2h-36m0-3h36a5 5 0 015 5v20a5 5 0 01-5 5h-36a5 5 0 01-5-5v-20a5 5 0 015-5z" fill="#269be0"/><rect data-name="長方形 2683" width="46" height="30" rx="5" transform="translate(342 1961)" fill="#ffffe8"/><path data-name="長方形 2683 - アウトライン" d="M347 1964a2 2 0 00-2 2v20a2 2 0 002 2h36a2 2 0 002-2v-20a2 2 0 00-2-2h-36m0-3h36a5 5 0 015 5v20a5 5 0 01-5 5h-36a5 5 0 01-5-5v-20a5 5 0 015-5z" fill="#269be0"/><rect data-name="長方形 2684" width="46" height="30" rx="5" transform="translate(446 1793)" fill="#ffffe8"/><path data-name="長方形 2684 - アウトライン" d="M451 1796a2 2 0 00-2 2v20a2 2 0 002 2h36a2 2 0 002-2v-20a2 2 0 00-2-2h-36m0-3h36a5 5 0 015 5v20a5 5 0 01-5 5h-36a5 5 0 01-5-5v-20a5 5 0 015-5z" fill="#269be0"/><rect data-name="長方形 2672" width="46" height="77" rx="5" transform="translate(635 1523)" fill="#ffffe8"/><path data-name="長方形 2672 - アウトライン" d="M640 1526a2 2 0 00-2 2v67a2 2 0 002 2h36a2 2 0 002-2v-67a2 2 0 00-2-2h-36m0-3h36a5 5 0 015 5v67a5 5 0 01-5 5h-36a5 5 0 01-5-5v-67a5 5 0 015-5z" fill="#269be0"/><rect data-name="長方形 2665" width="46" height="30" rx="5" transform="translate(250 1185)" fill="#ffffe8"/><path data-name="長方形 2665 - アウトライン" d="M255 1188a2 2 0 00-2 2v20a2 2 0 002 2h36a2 2 0 002-2v-20a2 2 0 00-2-2h-36m0-3h36a5 5 0 015 5v20a5 5 0 01-5 5h-36a5 5 0 01-5-5v-20a5 5 0 015-5z" fill="#269be0"/><rect data-name="長方形 2676" width="46" height="30" rx="5" transform="translate(387 1523)" fill="#ffffe8"/><path data-name="長方形 2676 - アウトライン" d="M392 1526a2 2 0 00-2 2v20a2 2 0 002 2h36a2 2 0 002-2v-20a2 2 0 00-2-2h-36m0-3h36a5 5 0 015 5v20a5 5 0 01-5 5h-36a5 5 0 01-5-5v-20a5 5 0 015-5z" fill="#269be0"/><rect data-name="長方形 2681" width="92" height="30" rx="5" transform="translate(112 1895)" fill="#ffffe8"/><path data-name="長方形 2681 - アウトライン" d="M117 1898a2 2 0 00-2 2v20a2 2 0 002 2h82a2 2 0 002-2v-20a2 2 0 00-2-2h-82m0-3h82a5 5 0 015 5v20a5 5 0 01-5 5h-82a5 5 0 01-5-5v-20a5 5 0 015-5z" fill="#269be0"/><path data-name="パス 943" d="M146 2194h53a5 5 0 015 5v20a5 5 0 01-5 5h-53a5 5 0 01-5-5v-20a5 5 0 015-5z" fill="#ffffe8"/><path data-name="パス 943 - アウトライン" d="M146 2197a2 2 0 00-2 2v20a2 2 0 002 2h53a2 2 0 002-2v-20a2 2 0 00-2-2h-53m0-3h53a5 5 0 015 5v20a5 5 0 01-5 5h-53a5 5 0 01-5-5v-20a5 5 0 015-5z" fill="#269be0"/><rect data-name="長方形 2685" width="91" height="30" rx="5" transform="translate(566 2194)" fill="#ffffe8"/><path data-name="長方形 2685 - アウトライン" d="M571 2197a2 2 0 00-2 2v20a2 2 0 002 2h81a2 2 0 002-2v-20a2 2 0 00-2-2h-81m0-3h81a5 5 0 015 5v20a5 5 0 01-5 5h-81a5 5 0 01-5-5v-20a5 5 0 015-5z" fill="#269be0"/><rect data-name="長方形 2677" width="46" height="30" rx="5" transform="translate(296 1561)" fill="#ffffe8"/><path data-name="長方形 2677 - アウトライン" d="M301 1564a2 2 0 00-2 2v20a2 2 0 002 2h36a2 2 0 002-2v-20a2 2 0 00-2-2h-36m0-3h36a5 5 0 015 5v20a5 5 0 01-5 5h-36a5 5 0 01-5-5v-20a5 5 0 015-5z" fill="#269be0"/><rect data-name="長方形 2679" width="46" height="30" rx="5" transform="translate(296 1413)" fill="#ffffe8"/><path data-name="長方形 2679 - アウトライン" d="M301 1416a2 2 0 00-2 2v20a2 2 0 002 2h36a2 2 0 002-2v-20a2 2 0 00-2-2h-36m0-3h36a5 5 0 015 5v20a5 5 0 01-5 5h-36a5 5 0 01-5-5v-20a5 5 0 015-5z" fill="#269be0"/><rect data-name="長方形 2668" width="46" height="30" rx="5" transform="translate(692 1185)" fill="#ffffe8"/><path data-name="長方形 2668 - アウトライン" d="M697 1188a2 2 0 00-2 2v20a2 2 0 002 2h36a2 2 0 002-2v-20a2 2 0 00-2-2h-36m0-3h36a5 5 0 015 5v20a5 5 0 01-5 5h-36a5 5 0 01-5-5v-20a5 5 0 015-5z" fill="#269be0"/><rect data-name="長方形 2671" width="46" height="30" rx="5" transform="translate(702 1435)" fill="#ffffe8"/><path data-name="長方形 2671 - アウトライン" d="M707 1438a2 2 0 00-2 2v20a2 2 0 002 2h36a2 2 0 002-2v-20a2 2 0 00-2-2h-36m0-3h36a5 5 0 015 5v20a5 5 0 01-5 5h-36a5 5 0 01-5-5v-20a5 5 0 015-5z" fill="#269be0"/><rect data-name="長方形 2673" width="46" height="77.185" rx="5" transform="translate(583 1523)" fill="#ffffe8"/><path data-name="長方形 2673 - アウトライン" d="M588 1526a2 2 0 00-2 2v67.185a2 2 0 002 2h36a2 2 0 002-2V1528a2 2 0 00-2-2h-36m0-3h36a5 5 0 015 5v67.185a5 5 0 01-5 5h-36a5 5 0 01-5-5V1528a5 5 0 015-5z" fill="#269be0"/><rect data-name="長方形 2686" width="46" height="77.185" rx="5" transform="translate(935 1490)" fill="#ffffe8"/><path data-name="長方形 2686 - アウトライン" d="M940 1493a2 2 0 00-2 2v67.185a2 2 0 002 2h36a2 2 0 002-2V1495a2 2 0 00-2-2h-36m0-3h36a5 5 0 015 5v67.185a5 5 0 01-5 5h-36a5 5 0 01-5-5V1495a5 5 0 015-5z" fill="#269be0"/><rect data-name="長方形 2669" width="95" height="30" rx="5" transform="translate(810 1317)" fill="#ffffe8"/><path data-name="長方形 2669 - アウトライン" d="M815 1320a2 2 0 00-2 2v20a2 2 0 002 2h85a2 2 0 002-2v-20a2 2 0 00-2-2h-85m0-3h85a5 5 0 015 5v20a5 5 0 01-5 5h-85a5 5 0 01-5-5v-20a5 5 0 015-5z" fill="#269be0"/><rect data-name="長方形 2675" width="88.685" height="30" rx="5" transform="translate(138 1317)" fill="#ffffe8"/><path data-name="長方形 2675 - アウトライン" d="M143 1320a2 2 0 00-2 2v20a2 2 0 002 2h78.685a2 2 0 002-2v-20a2 2 0 00-2-2H143m0-3h78.685a5 5 0 015 5v20a5 5 0 01-5 5H143a5 5 0 01-5-5v-20a5 5 0 015-5z" fill="#269be0"/><rect data-name="長方形 2674" width="52.483" height="30" rx="5" transform="translate(481 1289)" fill="#ffffe8"/><path data-name="長方形 2674 - アウトライン" d="M486 1292a2 2 0 00-2 2v20a2 2 0 002 2h42.483a2 2 0 002-2v-20a2 2 0 00-2-2H486m0-3h42.483a5 5 0 015 5v20a5 5 0 01-5 5H486a5 5 0 01-5-5v-20a5 5 0 015-5z" fill="#269be0"/><rect data-name="長方形 2666" width="46" height="30" rx="5" transform="translate(66 1162)" fill="#ffffe8"/><path data-name="長方形 2666 - アウトライン" d="M71 1165a2 2 0 00-2 2v20a2 2 0 002 2h36a2 2 0 002-2v-20a2 2 0 00-2-2H71m0-3h36a5 5 0 015 5v20a5 5 0 01-5 5H71a5 5 0 01-5-5v-20a5 5 0 015-5z" fill="#269be0"/><text transform="translate(308 1206)" font-size="15" font-family="YuGothicUI-Regular, Yu Gothic UI"><tspan x="0" y="0">報告</tspan></text><text data-name="報告" transform="translate(749 1191.5)" font-size="15" font-family="YuGothicUI-Regular, Yu Gothic UI"><tspan x="0" y="16">報告</tspan></text><text transform="translate(762 1456)" font-size="15" font-family="YuGothicUI-Regular, Yu Gothic UI"><tspan x="0" y="0">答申</tspan></text><text transform="translate(350 1982)" font-size="15" font-family="YuGothicUI-Regular, Yu Gothic UI"><tspan x="0" y="0">連携</tspan></text><text data-name="連携" transform="translate(454 1814)" font-size="15" font-family="YuGothicUI-Regular, Yu Gothic UI"><tspan x="0" y="0">連携</tspan></text><text transform="translate(258 1206)" font-size="15" font-family="YuGothicUI-Regular, Yu Gothic UI"><tspan x="0" y="0">選任</tspan></text><text transform="translate(395 1544)" font-size="15" font-family="YuGothicUI-Regular, Yu Gothic UI"><tspan x="0" y="0">監査</tspan></text><text data-name="連携" transform="translate(304 1582)" font-size="15" font-family="YuGothicUI-Regular, Yu Gothic UI"><tspan x="0" y="0">連携</tspan></text><text transform="translate(128 1916)" font-size="15" font-family="YuGothicUI-Regular, Yu Gothic UI"><tspan x="0" y="0">合計監査</tspan></text><text data-name="連携" transform="translate(158 2215)" font-size="15" font-family="YuGothicUI-Regular, Yu Gothic UI"><tspan x="0" y="0">連携</tspan></text><text transform="translate(582 2215)" font-size="15" font-family="YuGothicUI-Regular, Yu Gothic UI"><tspan x="0" y="0">内部監査</tspan></text><text data-name="報告" transform="translate(304 1433)" font-size="15" font-family="YuGothicUI-Regular, Yu Gothic UI"><tspan x="0" y="0">報告</tspan></text><text data-name="選任" transform="translate(700 1193)" font-size="15" font-family="YuGothicUI-Regular, Yu Gothic UI"><tspan x="0" y="16">選任</tspan></text><text transform="translate(566 1198)" fill="#1370a5" font-size="15" font-family="YuGothicUI-Bold, Yu Gothic UI" font-weight="700"><tspan x="0" y="16">意思決定機関</tspan></text><text transform="translate(784 1636)" fill="#1370a5" font-size="15" font-family="YuGothicUI-Bold, Yu Gothic UI" font-weight="700"><tspan x="0" y="16">業務執行機関</tspan></text><text transform="translate(390 1199)" fill="#1370a5" font-size="15" font-family="YuGothicUI-Bold, Yu Gothic UI" font-weight="700"><tspan x="0" y="16">監査機関</tspan></text><text transform="translate(710 1456)" font-size="15" font-family="YuGothicUI-Regular, Yu Gothic UI"><tspan x="0" y="0">諮問</tspan></text><text data-name="選任 ・監督" transform="translate(606 1553)" font-size="15" font-family="YuGothicUI-Regular, Yu Gothic UI"><tspan x="-15" y="0">選任</tspan><tspan x="-3.75" y="14">・</tspan><tspan x="-15" y="28">監督</tspan></text><text data-name="助言 ・指導" transform="translate(958 1520)" font-size="15" font-family="YuGothicUI-Regular, Yu Gothic UI"><tspan x="-15" y="0">助言</tspan><tspan x="-3.75" y="14">・</tspan><tspan x="-15" y="28">指導</tspan></text><text data-name="付議 ・報告" transform="translate(658 1553)" font-size="15" font-family="YuGothicUI-Regular, Yu Gothic UI"><tspan x="-15" y="0">付議</tspan><tspan x="-3.75" y="14">・</tspan><tspan x="-15" y="28">報告</tspan></text><text data-name="助言・指導" transform="translate(820 1338)" font-size="15" font-family="YuGothicUI-Regular, Yu Gothic UI"><tspan x="0" y="0">助言・指導</tspan></text><text data-name="報告・連携" transform="translate(145 1338)" font-size="15" font-family="YuGothicUI-Regular, Yu Gothic UI"><tspan x="0" y="0">報告・連携</tspan></text><text data-name="監査" transform="translate(492 1310)" font-size="15" font-family="YuGothicUI-Regular, Yu Gothic UI"><tspan x="0" y="0">監査</tspan></text><text data-name="選任" transform="translate(74 1183)" font-size="15" font-family="YuGothicUI-Regular, Yu Gothic UI"><tspan x="0" y="0">選任</tspan></text><rect data-name="長方形 2678" width="46" height="30" rx="5" transform="translate(484 1400)" fill="#ffffe8"/><path data-name="長方形 2678 - アウトライン" d="M489 1403a2 2 0 00-2 2v20a2 2 0 002 2h36a2 2 0 002-2v-20a2 2 0 00-2-2h-36m0-3h36a5 5 0 015 5v20a5 5 0 01-5 5h-36a5 5 0 01-5-5v-20a5 5 0 015-5z" fill="#269be0"/><rect data-name="長方形 2680" width="46" height="30" rx="5" transform="translate(543 1472)" fill="#ffffe8"/><path data-name="長方形 2680 - アウトライン" d="M548 1475a2 2 0 00-2 2v20a2 2 0 002 2h36a2 2 0 002-2v-20a2 2 0 00-2-2h-36m0-3h36a5 5 0 015 5v20a5 5 0 01-5 5h-36a5 5 0 01-5-5v-20a5 5 0 015-5z" fill="#269be0"/><text data-name="報告" transform="translate(492 1421)" font-size="15" font-family="YuGothicUI-Regular, Yu Gothic UI"><tspan x="0" y="0">報告</tspan></text><text data-name="報告" transform="translate(551 1493)" font-size="15" font-family="YuGothicUI-Regular, Yu Gothic UI"><tspan x="0" y="0">報告</tspan></text><g data-name="グループ 3663" fill="#269be0"><path data-name="線 758" d="M77 1435.5a1.5 1.5 0 011.187.581 1.5 1.5 0 01-.267 2.1l-6.279 4.871a1.5 1.5 0 01-2.1-.267 1.5 1.5 0 01.267-2.1l6.273-4.871a1.494 1.494 0 01.919-.314z"/><path data-name="線 759" d="M77.001 1435.5a1.493 1.493 0 01.918.315l6.278 4.865a1.5 1.5 0 01.267 2.1 1.5 1.5 0 01-2.1.267l-6.286-4.862a1.5 1.5 0 01.92-2.686z"/></g></g></svg>