<svg xmlns="http://www.w3.org/2000/svg" width="984" height="560" viewBox="0 0 984 560"><defs><clipPath id="a"><path data-name="多角形 3" d="M316.5 0L633 527H0z" transform="translate(50 6164)" fill="#fff"/></clipPath></defs><g data-name="グループ 4132" transform="translate(-50 -6360)"><text data-name="TAKADAグループとしての全社計画・活動推進を協議し、決定するための組織" transform="translate(569 6360)" fill="#f7942a" font-size="18" font-family="SegoeUI, Segoe UI" letter-spacing=".03em"><tspan x="0" y="19">TAKADA</tspan><tspan y="19" font-family="YuGothicUI-Regular, Yu Gothic UI">グループとしての全社計画・活動推進を協議</tspan></text><text data-name="TAKADAグループとしての全社計画・活動推進の徹底を図るための組織" transform="translate(569 6555)" fill="#8c103e" font-size="18" font-family="SegoeUI, Segoe UI" letter-spacing=".03em"><tspan x="0" y="19">TAKADA</tspan><tspan y="19" font-family="YuGothicUI-Regular, Yu Gothic UI">グループとしての全社計画・活動推進の徹底を</tspan></text><text data-name="委員長 : 社長 副委員長 : コンプライアンス担当役員 常任委員 : 執行役員以上" font-size="16" font-family="YuGothicUI-Regular, Yu Gothic UI" letter-spacing=".03em" transform="translate(600 6437)"><tspan x="0" y="17">委員長</tspan><tspan y="17" font-family="SegoeUI, Segoe UI"> : </tspan><tspan y="17">社長</tspan><tspan x="0" y="42">副委員長</tspan><tspan y="42" font-family="SegoeUI, Segoe UI"> : </tspan><tspan y="42">コンプライアンス担当役員</tspan><tspan x="0" y="67">常任委員</tspan><tspan y="67" font-family="SegoeUI, Segoe UI"> : </tspan><tspan y="67">執行役員以上</tspan></text><g data-name="h3"><text data-name="各事業所・各部門・子会社の長 ※所属におけるコンプライアンス責任者" font-size="16" font-family="YuGothicUI-Regular, Yu Gothic UI" letter-spacing=".03em" transform="translate(600 6627)"><tspan x="0" y="17">各事業所・各部門・子会社の長</tspan><tspan font-family="SegoeUISymbol, Segoe UI Symbol"><tspan x="0" y="42">※</tspan><tspan y="42" font-family="YuGothicUI-Regular, Yu Gothic UI">所属におけるコンプライアンス責任者</tspan></tspan></text></g><g data-name="h3"><text data-name="コンプライアンス委員会メンバーによる勉強会コンプライアンスの意識付け、高揚を図るため 輪番制によるコンプライアンスをテーマとした 発表、討論会" fill="#8c103e" font-size="14" font-family="YuGothicUI-Regular, Yu Gothic UI" letter-spacing=".03em" transform="translate(683 6715)"><tspan x="0" y="15">コンプライアンス委員会メンバーによる勉強会</tspan><tspan fill="#000"><tspan x="0" y="55">コンプライアンスの意識付け、高揚を図るため</tspan><tspan x="0" y="75">輪番制によるコンプライアンスをテーマとした</tspan></tspan></text></g><g data-name="h3"><text data-name="各所属における日々の 啓蒙活動と教育" fill="#095380" font-size="18" font-family="YuGothicUI-Regular, Yu Gothic UI" letter-spacing=".03em" transform="translate(737 6838)"><tspan x="0" y="19">各所属における日々の</tspan><tspan x="0" y="44">啓蒙活動と教育</tspan></text></g><g data-name="マスクグループ 48" transform="translate(0 213)" clip-path="url(#a)"><g data-name="グループ 3283"><path data-name="長方形 2698" fill="#68d1da" d="M50 6164h633v542H50z"/><path data-name="長方形 2699" fill="#095380" d="M50 6164h633v439H50z"/><path data-name="長方形 2700" fill="#8c103e" d="M50 6164h633v340H50z"/><path data-name="長方形 2701" fill="#f7942a" d="M50 6164h633v169H50z"/></g></g><g data-name="h3"><text data-name="常任委員会 （年2回・定期開催）" transform="translate(367 6496)" fill="#fff" font-size="16" font-family="YuGothicUI-Regular, Yu Gothic UI" letter-spacing=".03em"><tspan x="-40.96" y="0">常任委員会</tspan><tspan x="-74.472" y="31">（年</tspan><tspan y="31" font-family="SegoeUI, Segoe UI">2</tspan><tspan y="31">回・定期開催）</tspan></text></g><g data-name="h3"><text data-name="コンプライアンス委員会 （年2回・定期開催）" transform="translate(367 6576)" fill="#fff" font-size="16" font-family="YuGothicUI-Regular, Yu Gothic UI" letter-spacing=".03em"><tspan x="-73.486" y="0">コンプライアンス委員会</tspan><tspan x="-74.472" y="31">（年</tspan><tspan y="31" font-family="SegoeUI, Segoe UI">2</tspan><tspan y="31">回・定期開催）</tspan></text></g><g data-name="h3"><text data-name="各所属・子会社社員 （コンプライアンスの実践）" transform="translate(368 6757)" fill="#fff" font-size="16" font-family="YuGothicUI-Regular, Yu Gothic UI" letter-spacing=".03em"><tspan x="-69.92" y="0">各所属・子会社社員</tspan><tspan x="-88.493" y="31">（コンプライアンスの実践）</tspan></text></g><g data-name="h3"><text data-name="コンプライアンス推進室・委員会事務局 ＝相談窓口" transform="translate(367 6852)" fill="#fff" font-size="16" font-family="YuGothicUI-Regular, Yu Gothic UI" letter-spacing=".03em"><tspan x="-127.166" y="0">コンプライアンス推進室・委員会事務局</tspan><tspan x="-40.96" y="31">＝相談窓口</tspan></text></g><path data-name="長方形 2702" d="M242 6628v66h251v-66H242m-1-1h253v68H241z" fill="#fff"/><path data-name="長方形 2703" d="M570 6422v99h409v-99H570m-1-1h411v101H569z" fill="#f7942a"/><path data-name="長方形 2704" d="M570 6617v65h409v-65H570m-1-1h411v67H569z" fill="#8c103e"/><text data-name="コンプライアンス推進会議 （年4回・定期開催）" transform="translate(253 6640)" fill="#fff" font-size="16" font-family="YuGothicUI-Regular, Yu Gothic UI"><tspan x="34.914" y="17">コンプライアンス推進会議</tspan><tspan x="41.688" y="38">（年</tspan><tspan y="38" font-family="SegoeUI, Segoe UI">4</tspan><tspan y="38">回・定期開催）</tspan></text><path data-name="線 765" d="M551.747 6415.246H368.5v-1h183.247z" fill="#ce6a00"/><path data-name="線 766" d="M551.501 6576h-74.124v-1h74.124z" fill="#ff5594"/><circle data-name="楕円形 95" cx="3.5" cy="3.5" r="3.5" transform="translate(363 6411)" fill="#ce6a00"/><path data-name="楕円形 95 - アウトライン" d="M366.5 6412a2.5 2.5 0 102.5 2.5 2.5 2.5 0 00-2.5-2.5m0-1a3.5 3.5 0 11-3.5 3.5 3.5 3.5 0 013.5-3.5z" fill="#ce6a00"/><circle data-name="楕円形 97" cx="3.5" cy="3.5" r="3.5" transform="translate(472 6572)" fill="#ff5594"/><path data-name="楕円形 97 - アウトライン" d="M475.5 6573a2.5 2.5 0 102.5 2.5 2.5 2.5 0 00-2.5-2.5m0-1a3.5 3.5 0 11-3.5 3.5 3.5 3.5 0 013.5-3.5z" fill="#ff5594"/><circle data-name="楕円形 98" cx="3.5" cy="3.5" r="3.5" transform="translate(548 6572)" fill="#ff5594"/><path data-name="楕円形 98 - アウトライン" d="M551.5 6573a2.5 2.5 0 102.5 2.5 2.5 2.5 0 00-2.5-2.5m0-1a3.5 3.5 0 11-3.5 3.5 3.5 3.5 0 013.5-3.5z" fill="#ff5594"/><path data-name="線 767" d="M669.298 6738.957l-173.282-76.28.4-.916 173.285 76.281z" fill="#ff5594"/><path data-name="線 768" d="M719.289 6854.953l-123.284-57.281.422-.906 123.284 57.28z" fill="#009fff"/><circle data-name="楕円形 99" cx="3.5" cy="3.5" r="3.5" transform="rotate(30 -12174.543 4248.78)" fill="#ff5594"/><path data-name="楕円形 99 - アウトライン" d="M495.842 6659.116a2.5 2.5 0 10.915 3.415 2.5 2.5 0 00-.915-3.415m.5-.866a3.5 3.5 0 11-4.781 1.281 3.5 3.5 0 014.781-1.281z" fill="#ff5594"/><circle data-name="楕円形 101" cx="3.5" cy="3.5" r="3.5" transform="rotate(30 -12377.893 4504.522)" fill="#009fff"/><path data-name="楕円形 101 - アウトライン" d="M596.47 6795.054a2.5 2.5 0 10.914 3.415 2.5 2.5 0 00-.915-3.415m.5-.866a3.5 3.5 0 11-4.781 1.281 3.5 3.5 0 014.781-1.281z" fill="#009fff"/><circle data-name="楕円形 100" cx="3.5" cy="3.5" r="3.5" transform="rotate(30 -12230.702 4613.463)" fill="#ff5594"/><path data-name="楕円形 100 - アウトライン" d="M670.66 6736.054a2.5 2.5 0 10.914 3.415 2.5 2.5 0 00-.915-3.415m.5-.866a3.5 3.5 0 11-4.781 1.281 3.5 3.5 0 014.781-1.281z" fill="#ff5594"/><circle data-name="楕円形 102" cx="3.5" cy="3.5" r="3.5" transform="rotate(30 -12422.64 4765.074)" fill="#009fff"/><path data-name="楕円形 102 - アウトライン" d="M720.75 6852.335a2.5 2.5 0 10.915 3.415 2.5 2.5 0 00-.915-3.415m.5-.866a3.5 3.5 0 11-4.781 1.281 3.5 3.5 0 014.781-1.281z" fill="#009fff"/><circle data-name="楕円形 96" cx="3.5" cy="3.5" r="3.5" transform="translate(548 6411)" fill="#ce6a00"/><path data-name="楕円形 96 - アウトライン" d="M551.5 6412a2.5 2.5 0 102.5 2.5 2.5 2.5 0 00-2.5-2.5m0-1a3.5 3.5 0 11-3.5 3.5 3.5 3.5 0 013.5-3.5z" fill="#ce6a00"/><g data-name="グループ 3665" fill="#269bdf"><path data-name="線 797" d="M70.008 6821.5a1.5 1.5 0 01-1.5-1.5v-443a1.5 1.5 0 011.5-1.5 1.5 1.5 0 011.5 1.5v443a1.5 1.5 0 01-1.5 1.5z"/><path data-name="線 798" d="M70.008 6821.5a1.5 1.5 0 01-1.093-.473l-6.49-6.87a1.5 1.5 0 01.06-2.12 1.5 1.5 0 012.12.06l6.493 6.873a1.5 1.5 0 01-1.09 2.53z"/><path data-name="線 799" d="M70.008 6821.5a1.5 1.5 0 01-1.03-.41 1.5 1.5 0 01-.06-2.12l6.49-6.873a1.5 1.5 0 012.12-.06 1.5 1.5 0 01.06 2.12l-6.49 6.87a1.5 1.5 0 01-1.09.473z"/></g><text transform="translate(77 6586)" fill="#269bdf" font-size="18" font-family="YuGothicUI-Bold, Yu Gothic UI" font-weight="700"><tspan x="0" y="0">浸透</tspan></text></g></svg>