<svg xmlns="http://www.w3.org/2000/svg" width="934" height="433" viewBox="0 0 934 433"><g transform="translate(80.299)"><ellipse cx="67" cy="18" rx="67" ry="18" transform="translate(-.299)" fill="#fdd7b2"/><path d="M66.701 1a231.161 231.161 0 00-25.967 1.408 146.046 146.046 0 00-21.15 3.83c-6.055 1.627-10.793 3.511-14.083 5.6a13.953 13.953 0 00-3.645 3.141A5.007 5.007 0 00.701 18a5.007 5.007 0 001.157 3.022 13.953 13.953 0 003.643 3.14c3.289 2.089 8.027 3.973 14.082 5.6a146.046 146.046 0 0021.15 3.83A231.161 231.161 0 0066.701 35a231.16 231.16 0 0025.967-1.408 146.046 146.046 0 0021.15-3.83c6.055-1.627 10.793-3.511 14.082-5.6a13.953 13.953 0 003.645-3.141A5.007 5.007 0 00132.701 18a5.007 5.007 0 00-1.157-3.022 13.953 13.953 0 00-3.645-3.141c-3.289-2.089-8.027-3.973-14.082-5.6a146.046 146.046 0 00-21.15-3.83A231.16 231.16 0 0066.701 1m0-1c37 0 67 8.059 67 18s-30 18-67 18-67-8.059-67-18 30-18 67-18z" fill="#707070"/><ellipse cx="67" cy="18" rx="67" ry="18" transform="translate(210.701 5)" fill="#fdd7b2"/><path d="M277.701 6a231.161 231.161 0 00-25.967 1.408 146.046 146.046 0 00-21.15 3.83c-6.055 1.627-10.793 3.511-14.083 5.6a13.953 13.953 0 00-3.645 3.141A5.007 5.007 0 00211.701 23a5.007 5.007 0 001.157 3.022 13.953 13.953 0 003.643 3.14c3.289 2.089 8.027 3.973 14.082 5.6a146.046 146.046 0 0021.15 3.83A231.161 231.161 0 00277.701 40a231.16 231.16 0 0025.967-1.408 146.046 146.046 0 0021.15-3.83c6.055-1.627 10.793-3.511 14.082-5.6a13.953 13.953 0 003.645-3.141A5.007 5.007 0 00343.701 23a5.007 5.007 0 00-1.157-3.022 13.953 13.953 0 00-3.645-3.141c-3.289-2.089-8.027-3.973-14.082-5.6a146.046 146.046 0 00-21.15-3.83A231.16 231.16 0 00277.701 6m0-1c37 0 67 8.059 67 18s-30 18-67 18-67-8.059-67-18 30-18 67-18z" fill="#101010"/><ellipse cx="61.5" cy="13" rx="61.5" ry="13" transform="translate(5.701 93)" fill="#fdd7b2"/><path d="M67.201 94c-16.36 0-31.73 1.345-43.28 3.786a56.113 56.113 0 00-12.94 4.048c-2.76 1.38-4.28 2.859-4.28 4.166s1.52 2.786 4.28 4.166a56.113 56.113 0 0012.94 4.048c11.55 2.441 26.92 3.786 43.28 3.786s31.73-1.345 43.28-3.786a56.113 56.113 0 0012.94-4.048c2.76-1.38 4.28-2.859 4.28-4.166s-1.52-2.786-4.28-4.166a56.113 56.113 0 00-12.94-4.048C98.931 95.345 83.561 94 67.201 94m0-1c33.966 0 61.5 5.82 61.5 13s-27.534 13-61.5 13-61.5-5.82-61.5-13 27.534-13 61.5-13z" fill="#707070"/><ellipse cx="61.5" cy="13" rx="61.5" ry="13" transform="translate(215.701 95)" fill="#fdd7b2"/><path d="M277.201 96c-16.36 0-31.73 1.345-43.28 3.786a56.113 56.113 0 00-12.94 4.048c-2.76 1.38-4.28 2.859-4.28 4.166s1.52 2.786 4.28 4.166a56.113 56.113 0 0012.94 4.048c11.55 2.441 26.92 3.786 43.28 3.786s31.73-1.345 43.28-3.786a56.113 56.113 0 0012.94-4.048c2.76-1.38 4.28-2.859 4.28-4.166s-1.52-2.786-4.28-4.166a56.113 56.113 0 00-12.94-4.048c-11.55-2.441-26.92-3.786-43.28-3.786m0-1c33.966 0 61.5 5.82 61.5 13s-27.534 13-61.5 13-61.5-5.82-61.5-13 27.534-13 61.5-13z" fill="#707070"/><path d="M33.701 146h17v-23h34v23h17l-34 9z" fill="#1175ba"/><path fill="#63d0ce" d="M6.701 157h122v36h-122z"/><text transform="translate(26.701 23)" font-size="13" font-family="Yu Gothic, YuGothic" font-weight="700"><tspan x="0" y="0">経済産業大臣</tspan></text><text transform="translate(250.701 28)" font-size="13" font-family="Yu Gothic, YuGothic" font-weight="700"><tspan x="0" y="0">都道府県</tspan></text><text transform="translate(159.701 89)" font-size="13" font-family="Yu Gothic, YuGothic" font-weight="700"><tspan x="0" y="0">契約</tspan></text><text transform="translate(138.701 130)" font-size="13" font-family="Yu Gothic, YuGothic" font-weight="700"><tspan x="0" y="0">認定書発行</tspan></text><text transform="translate(189.701 66)" font-size="13" font-family="Yu Gothic, YuGothic" font-weight="700"><tspan x="0" y="0">製造許可</tspan><tspan x="0" y="15">申請</tspan></text><text transform="translate(263.701 73)" font-size="13" font-family="Yu Gothic, YuGothic" font-weight="700"><tspan x="0" y="0">許可</tspan></text><text transform="translate(312.701 73)" font-size="13" font-family="Yu Gothic, YuGothic" font-weight="700"><tspan x="0" y="0">完成検査</tspan></text><text transform="translate(192.701 191)" font-size="13" font-family="Yu Gothic, YuGothic" font-weight="700"><tspan x="0" y="0">納品</tspan></text><text transform="translate(26.701 180)" font-size="13" font-family="Yu Gothic, YuGothic" font-weight="700"><tspan x="0" y="0">高圧ガス配管</tspan></text><text transform="translate(55.701 135)" fill="#fff" font-size="11" font-family="Yu Gothic, YuGothic" font-weight="700"><tspan x="0" y="0">認定</tspan><tspan x="0" y="13">業務</tspan></text><text transform="translate(45.701 59)" font-size="13" font-family="Yu Gothic, YuGothic" font-weight="700"><tspan x="0" y="0">年</tspan><tspan x="0" y="15">次</tspan><tspan x="0" y="30">届</tspan></text><text transform="translate(58.701 107)" font-size="15" font-family="Yu Gothic, YuGothic" font-weight="700" letter-spacing=".1em"><tspan x="0" y="0">...</tspan></text><text transform="translate(255.701 113)" font-size="13" font-family="Yu Gothic, YuGothic" font-weight="700" letter-spacing=".1em"><tspan x="0" y="0">設置者</tspan></text><path d="M69.149 92.856h-2V80.909h2zm0-13.947h-2v-13h2zm0-15h-2v-13h2zM67.702 41l4 7h-8z" fill="#1175ba"/><path d="M275.317 177H128.701v-3h146.616v-48h-4.216l5.8-8 5.8 8h-4.222v51zm-80.024-69l8.408 5.5-8.408 5.5zm-53.592 7v-3h53.592v3z" fill="#0073bd"/><path d="M244.701 47l6-8 6 8zm7.634 51h-3.272V47h3.272zm48.366-8l6 8 6-8zm7.634-51h-3.272v51h3.272zm-25.634 49l-6 8-6-8zm-7.637-14h3.273v14h-3.273zm0-33h3.273v14h-3.273z"/><path fill="#0073bd" d="M197.701 96h-54v-3h54z"/><path d="M198.201 96h-51v4l-8.5-5.5 8.5-5.5v4h51v-4l8.5 5.5-8.5 5.5z" fill="#0073bd"/></g><g transform="translate(527.224)"><text transform="translate(129.777 191)" font-size="16" font-family="YuGo-Medium, YuGothic" font-weight="500"><tspan x="0" y="0">認定降板</tspan></text><rect width="328" height="160" rx="10" transform="translate(-.224)" fill="#a9a7ac"/><rect width="312" height="140" rx="10" transform="translate(8.776 10)" fill="#19372d"/><ellipse cx="10.5" cy="10" rx="10.5" ry="10" transform="translate(5.776 5)" fill="#fff"/><path d="M16.276 6a9.271 9.271 0 00-9.5 9 9.271 9.271 0 009.5 9 9.271 9.271 0 009.5-9 9.271 9.271 0 00-9.5-9m0-1a10.259 10.259 0 0110.5 10 10.259 10.259 0 01-10.5 10 10.259 10.259 0 01-10.5-10 10.259 10.259 0 0110.5-10z" fill="#a9a7ac"/><ellipse cx="11" cy="10" rx="11" ry="10" transform="translate(302.776 5)" fill="#fff"/><path d="M313.776 6c-5.514 0-10 4.037-10 9s4.486 9 10 9 10-4.037 10-9-4.486-9-10-9m0-1c6.075 0 11 4.477 11 10s-4.925 10-11 10-11-4.477-11-10 4.925-10 11-10z" fill="#a9a7ac"/><ellipse cx="10.5" cy="10" rx="10.5" ry="10" transform="translate(5.776 135)" fill="#fff"/><path d="M16.276 136a9.271 9.271 0 00-9.5 9 9.271 9.271 0 009.5 9 9.271 9.271 0 009.5-9 9.271 9.271 0 00-9.5-9m0-1a10.259 10.259 0 0110.5 10 10.259 10.259 0 01-10.5 10 10.259 10.259 0 01-10.5-10 10.259 10.259 0 0110.5-10z" fill="#a9a7ac"/><ellipse cx="11" cy="10" rx="11" ry="10" transform="translate(302.776 135)" fill="#fff"/><path d="M313.776 136c-5.514 0-10 4.037-10 9s4.486 9 10 9 10-4.037 10-9-4.486-9-10-9m0-1c6.075 0 11 4.477 11 10s-4.925 10-11 10-11-4.477-11-10 4.925-10 11-10z" fill="#a9a7ac"/><text transform="translate(89.777 40)" fill="#fff" font-size="21" font-family="Yu Gothic, YuGothic" font-weight="700" letter-spacing=".1em"><tspan x="0" y="0">高圧ガス設備</tspan></text><text transform="translate(29.777 70)" fill="#fff" font-size="21" font-family="Yu Gothic, YuGothic" font-weight="700" letter-spacing=".2em"><tspan x="0" y="0">経済産業大臣認定番号</tspan></text><text transform="translate(44.777 104)" fill="#fff" font-size="25" font-family="Yu Gothic, YuGothic" font-weight="700" letter-spacing=".3em"><tspan x="0" y="0">MAB – 434-M</tspan></text><text transform="translate(41.777 133)" fill="#fff" font-size="23" font-family="Yu Gothic, YuGothic" font-weight="700" letter-spacing=".2em"><tspan x="0" y="0">機器番号</tspan></text><path fill="#a9a7ac" d="M163.776 108h132v34h-132z"/></g><path fill="#fff" d="M0 233h934v200H0z"/><g transform="translate(350.25 283)"><rect width="110.939" height="76" rx="10" transform="translate(380.362)" fill="#5ed0cf"/><text transform="translate(14.792 34)" font-size="13" font-family="Yu Gothic, YuGothic" font-weight="700"><tspan x="0" y="0">MPa</tspan></text><text transform="translate(0 133)" font-size="13" font-family="Yu Gothic, YuGothic" font-weight="700"><tspan x="0" y="0">上記の他に、低温用炭素鋼・低音用低合金鋼・銅及び銅合金剛の認定を保有しています。</tspan></text><text transform="translate(388.814 19)" font-size="13" font-family="Yu Gothic, YuGothic" font-weight="700"><tspan x="0" y="0">ステンレス鋼</tspan></text><text transform="translate(28.226 46)" font-size="12" font-family="Yu Gothic, YuGothic" font-weight="700"><tspan x="-23.976" y="0">24.6</tspan></text><text transform="translate(473.701 36)" font-size="12" font-family="Yu Gothic, YuGothic" font-weight="700"><tspan x="-86.736" y="0">G1:-196~400℃</tspan></text><text transform="translate(473.701 51)" font-size="12" font-family="Yu Gothic, YuGothic" font-weight="700"><tspan x="-86.736" y="0">G4:-269~800℃</tspan></text><text transform="translate(473.701 65)" font-size="12" font-family="Yu Gothic, YuGothic" font-weight="700"><tspan x="-86.736" y="0">G6:-196~800℃</tspan></text><text transform="translate(28.226 62)" font-size="12" font-family="Yu Gothic, YuGothic" font-weight="700"><tspan x="-23.976" y="0">14.8</tspan></text><text transform="translate(28.622 82)" font-size="12" font-family="Yu Gothic, YuGothic" font-weight="700"><tspan x="-17.1" y="0">9.9</tspan></text><text transform="translate(28.622 99)" font-size="12" font-family="Yu Gothic, YuGothic" font-weight="700"><tspan x="-17.1" y="0">1.5</tspan></text><path fill="#bccaca" d="M35.923 95h455.378v16H35.923z"/><path d="M36.923 96v14h453.378V96H36.923m-1-1h455.378v16H35.923z"/><text transform="translate(70.602 108)" font-size="12" font-family="Yu Gothic, YuGothic" font-weight="700"><tspan x="-21.984" y="0">50A</tspan></text><text transform="translate(180.088 108)" font-size="12" font-family="Yu Gothic, YuGothic" font-weight="700"><tspan x="-28.86" y="0">300A</tspan></text><text transform="translate(329.063 108)" font-size="12" font-family="Yu Gothic, YuGothic" font-weight="700"><tspan x="-28.86" y="0">700A</tspan></text><text transform="translate(486.095 108)" font-size="12" font-family="Yu Gothic, YuGothic" font-weight="700"><tspan x="-35.736" y="0">1000A</tspan></text><path fill="#c7ffff" d="M35.923 40h19.018v14H35.923z"/><path d="M36.923 41v12h17.018V41H36.923m-1-1h19.018v14H35.923z"/><path fill="#5ed0cf" d="M35.923 53h135.24v26H35.923z"/><path d="M36.923 54v24h133.24V54H36.923m-1-1h135.24v26H35.923z"/><path fill="#5ed07d" d="M35.923 78h283.158v18H35.923z"/><path d="M36.923 79v16h281.158V79H36.923m-1-1h283.158v18H35.923z"/></g><text transform="translate(38.565 259)" font-size="13" font-family="Yu Gothic, YuGothic" font-weight="700"><tspan x="0" y="0">【当社の主要認定仕様範囲】</tspan></text><g transform="translate(37.508 281)"><rect width="100.373" height="81" rx="10" transform="translate(187.011)" fill="#1ca5fc"/><text transform="translate(11.622 25)" font-size="13" font-family="Yu Gothic, YuGothic" font-weight="700"><tspan x="0" y="0">MPa</tspan></text><text transform="translate(195.464 17)" font-size="13" font-family="Yu Gothic, YuGothic" font-weight="700"><tspan x="0" y="0">炭素鋼</tspan></text><text transform="translate(24 37)" font-size="12" font-family="Yu Gothic, YuGothic" font-weight="700"><tspan x="-23.976" y="0">34.4</tspan></text><text transform="translate(266.351 32)" font-size="12" font-family="Yu Gothic, YuGothic" font-weight="700"><tspan x="-72.984" y="0">G2:-5~350℃</tspan></text><text transform="translate(273.351 47)" font-size="12" font-family="Yu Gothic, YuGothic" font-weight="700"><tspan x="-79.86" y="0">G3:-30~350℃</tspan></text><text transform="translate(273.351 61)" font-size="12" font-family="Yu Gothic, YuGothic" font-weight="700"><tspan x="-79.86" y="0">G4:-10~450℃</tspan></text><text transform="translate(274.482 75)" font-size="12" font-family="Yu Gothic, YuGothic" font-weight="700"><tspan x="-60.156" y="0">-10~350℃</tspan></text><text transform="translate(24 50)" font-size="12" font-family="Yu Gothic, YuGothic" font-weight="700"><tspan x="-23.976" y="0">24.6</tspan></text><text transform="translate(24.396 90)" font-size="12" font-family="Yu Gothic, YuGothic" font-weight="700"><tspan x="-17.1" y="0">3.0</tspan></text><text transform="translate(24.396 103)" font-size="12" font-family="Yu Gothic, YuGothic" font-weight="700"><tspan x="-17.1" y="0">2.0</tspan></text><path fill="#bccaca" d="M32.753 95h255.688v16H32.753z"/><path d="M33.753 96v14h253.688V96H33.753m-1-1h255.688v16H32.753z"/><path fill="#81d0ff" d="M32.753 33h30.64v12h-30.64z"/><path d="M33.753 34v10h28.64V34h-28.64m-1-1h30.64v12h-30.64z"/><path fill="#0fa5ff" d="M32.753 44H95.09v43H32.753z"/><path d="M33.753 45v41H94.09V45H33.753m-1-1H95.09v43H32.753z"/><path fill="#0073bd" d="M32.753 86h185.955v9H32.753z"/><path d="M33.753 87v7h183.955v-7H33.753m-1-1h185.955v9H32.753z"/><text transform="translate(67.432 107)" font-size="12" font-family="Yu Gothic, YuGothic" font-weight="700"><tspan x="-21.984" y="0">80A</tspan></text><text transform="translate(109.299 107)" font-size="12" font-family="Yu Gothic, YuGothic" font-weight="700"><tspan x="-28.86" y="0">200A</tspan></text><text transform="translate(224.464 107)" font-size="12" font-family="Yu Gothic, YuGothic" font-weight="700"><tspan x="-28.86" y="0">350A</tspan></text><text transform="translate(282.575 107)" font-size="12" font-family="Yu Gothic, YuGothic" font-weight="700"><tspan x="-28.86" y="0">500A</tspan></text></g></svg>