<svg xmlns="http://www.w3.org/2000/svg" width="852" height="1535" viewBox="0 0 852 1535"><g transform="translate(.206)"><rect width="153" height="851" rx="10" transform="rotate(90 -236.103 1086.897)" fill="#d8ca55" opacity=".099"/><rect width="129" height="851" rx="10" transform="rotate(90 -161.603 1012.397)" fill="#064285" opacity=".099"/><rect width="190" height="851" rx="10" transform="rotate(90 -56.103 907.897)" fill="#19a0c5" opacity=".099"/><rect width="195" height="851" rx="10" transform="rotate(90 137.397 713.397)" fill="#61b93b" opacity=".099"/><rect width="153" height="851" rx="10" transform="rotate(90 29.897 820.897)" fill="#52bca2" opacity=".099"/><g opacity=".097" transform="rotate(90 248.397 602.397)" fill="#43d586"><rect width="202" height="851" rx="10"/><path d="M10 3a7.008 7.008 0 00-7 7v831a7.008 7.008 0 007 7h182a7.008 7.008 0 007-7V10a7.008 7.008 0 00-7-7H10m0-3h182a10 10 0 0110 10v831a10 10 0 01-10 10H10a10 10 0 01-10-10V10A10 10 0 0110 0z"/></g><path fill="#e3eff6" d="M515.794 184v1313h-181V184zm-367-179v174h553V5h-553m-5-5h563v184h-563z"/><path fill="#269be0" d="M143.794 0h563v53h-563z"/><text transform="translate(420.794 35)" fill="#fff" font-size="22" font-family="Yu Gothic, YuGothic" font-weight="700"><tspan x="-87.56" y="0">プロジェクト管理</tspan></text><text transform="translate(156.794 83)" font-size="17" font-family="YuGo-Medium, YuGothic" font-weight="500"><tspan x="0" y="0">・プロジェクト体制編成</tspan><tspan x="0" y="24">・プロジェクト遂行要領書作成</tspan><tspan x="0" y="48">・プロジェクト総合管理調整</tspan><tspan x="0" y="72">・工程管理・コスト管理・品質管理・安全管理</tspan></text><path d="M223.215 325.942c-28.627-1.272-51.422-23.593-51.422-50.942 0-28.166 24.173-51 54-51s54 22.834 54 51c0 27-22.228 49.108-50.348 50.883L226.321 336z" fill="#5ed0cf"/><text transform="translate(199.793 282)" font-size="17" font-family="YuGo-Medium, YuGothic" font-weight="500"><tspan x="0" y="0">お客様</tspan></text><path d="M623.216 325.941c-28.627-1.271-51.422-23.592-51.422-50.941 0-28.167 24.173-51 54-51s54 22.833 54 51c0 27-22.228 49.107-50.348 50.883L626.322 336z" fill="#0073bd"/><text transform="translate(590.794 282)" fill="#fff" font-size="17" font-family="YuGo-Medium, YuGothic" font-weight="500"><tspan x="0" y="0">TAKADA</tspan></text><g transform="translate(311.686 256)"><rect width="228" height="48" rx="10" transform="translate(.108)" fill="#333"/><text transform="translate(42.108 30)" fill="#fff" font-size="17" font-family="Yu Gothic, YuGothic" font-weight="500"><tspan x="0" y="0">プロジェクト業務</tspan></text></g><g font-weight="500"><text transform="translate(165.794 389)" fill="#5ed0cf" font-size="17" font-family="Yu Gothic, YuGothic"><tspan x="0" y="0">基本条件の提示</tspan></text><text transform="translate(178.794 413)" font-family="YuGo-Medium, YuGothic"><tspan x="0" y="0">・基本方針</tspan><tspan x="0" y="20">・生産品目</tspan><tspan x="0" y="40">・生産量</tspan><tspan x="0" y="60">・設備規模</tspan><tspan x="0" y="80">・要員計画</tspan><tspan x="0" y="100">・概算予算</tspan><tspan x="0" y="120">・スケジュール</tspan></text></g><g font-weight="500"><text transform="translate(582.793 399)" fill="#0073bd" font-size="17" font-family="Yu Gothic, YuGothic"><tspan x="0" y="0">基礎調査協力</tspan></text><text transform="translate(559.793 423)" font-size="14" font-family="YuGo-Medium, YuGothic"><tspan x="0" y="0">・敷地条件(土質調査)</tspan><tspan x="0" y="20">・法令制約条件</tspan><tspan x="0" y="40">・自然環境条件</tspan><tspan x="0" y="60">・社会環境条件(交通・</tspan><tspan x="0" y="80"> 労働力・流通条件等)</tspan><tspan x="0" y="100">・現状分析</tspan></text></g><g transform="translate(348.665 410)"><rect width="154" height="32" rx="10" transform="translate(.129)" fill="#fff"/><text transform="translate(14.129 23)" font-size="17" font-family="Yu Gothic, YuGothic" font-weight="500"><tspan x="0" y="0">総合企画</tspan><tspan y="0" font-family="Helvetica"> </tspan><tspan y="0">･</tspan><tspan y="0" font-family="Helvetica"> </tspan><tspan y="0">調査</tspan></text><text transform="translate(74.129 63)" font-size="17" font-family="Yu Gothic, YuGothic" font-weight="500"><tspan x="-59.5" y="0">土建設計データ</tspan><tspan x="-51" y="24">施設調査報告</tspan></text></g><path d="M327.794 454.5l-15 12.5v-25z" fill="#5ed0cf"/><path d="M523.794 454.5l15-12.5v25z" fill="#0073bd"/><g font-weight="500"><text transform="translate(93.795 648)" fill="#5ed0cf" font-size="17" font-family="Yu Gothic, YuGothic"><tspan x="0" y="0">プロセス設計条件の決定</tspan></text><text transform="translate(84.795 672)" font-size="14" font-family="YuGo-Medium, YuGothic"><tspan x="0" y="0">・基本設計データの提示</tspan><tspan x="0" y="20">・プロセス設計条件の提示</tspan><tspan x="0" y="40">・プロセス設計図書の提示</tspan></text></g><g font-weight="500"><text transform="translate(574.795 617)" fill="#0073bd" font-size="17" font-family="Yu Gothic, YuGothic"><tspan x="0" y="0">プロセス設計図書の作成協力</tspan></text><g font-size="13" font-family="YuGo-Medium, YuGothic"><text transform="translate(549.795 644)"><tspan x="0" y="0">・プロセスフロー</tspan><tspan x="0" y="20">・マテリアルバランス</tspan><tspan x="0" y="40">・タイムスケジュール</tspan><tspan x="0" y="60">・制御システム計画</tspan><tspan x="0" y="80">・要員計画</tspan><tspan x="0" y="100">・機器選定</tspan></text><text transform="translate(694.795 644)"><tspan x="0" y="0">・計器選定</tspan><tspan x="0" y="20">・レイアウトプラン</tspan><tspan x="0" y="40">・土木・建築設備</tspan><tspan x="0" y="60">・環境・公害対策設備</tspan><tspan x="0" y="80">・情報処理設備</tspan><tspan x="0" y="100">・安全対策</tspan></text></g></g><g transform="translate(348.665 617)"><rect width="154" height="32" rx="10" transform="translate(.129)" fill="#fff"/><text transform="translate(23.129 23)" font-size="17" font-family="Yu Gothic, YuGothic" font-weight="500"><tspan x="0" y="0">プロセス設計</tspan></text><text transform="translate(73.129 63)" font-size="17" font-family="Yu Gothic, YuGothic" font-weight="500"><tspan x="-67.66" y="0">プロジェクト計画</tspan><tspan x="-51" y="24">プロセス設計</tspan><tspan x="-59.5" y="48">レイアウト設計</tspan></text></g><path d="M327.794 673.5l-15 12.5v-25z" fill="#5ed0cf"/><path d="M523.794 673.5l15-12.5v25z" fill="#0073bd"/><g transform="translate(348.665 811)"><rect width="154" height="32" rx="10" transform="translate(.129)" fill="#fff"/><text transform="translate(41.129 23)" font-size="17" font-family="Yu Gothic, YuGothic" font-weight="500"><tspan x="0" y="0">基本設計</tspan></text><text transform="translate(74.129 63)" font-size="17" font-family="Yu Gothic, YuGothic" font-weight="500"><tspan x="-51" y="0">基本設計図書</tspan><tspan x="-25.5" y="24">工程表</tspan><tspan x="-34" y="48">官庁申請</tspan></text></g><g font-weight="500"><text transform="translate(129.794 842)" fill="#5ed0cf" font-size="17" font-family="Yu Gothic, YuGothic"><tspan x="0" y="0">基本設計条件の決定</tspan></text><text transform="translate(120.794 866)" font-size="14" font-family="YuGo-Medium, YuGothic"><tspan x="0" y="0">・基本設計条件の提示</tspan><tspan x="0" y="20">・基本設計図書の提示</tspan><tspan x="0" y="40">・予算調整</tspan></text></g><g font-weight="500"><text transform="translate(569.793 831)" fill="#0073bd" font-size="17" font-family="Yu Gothic, YuGothic"><tspan x="0" y="0">基本設計図書の作成協力</tspan></text><g font-size="13" font-family="YuGo-Medium, YuGothic"><text transform="translate(559.793 858)"><tspan x="0" y="0">・機器計画</tspan><tspan x="0" y="20">・配管計画</tspan><tspan x="0" y="40">・土木・建築設計</tspan><tspan x="0" y="60">・計装設備計画</tspan></text><text transform="translate(700.793 858)"><tspan x="0" y="0">・電気設備計画</tspan><tspan x="0" y="20">・特殊設備計画</tspan><tspan x="0" y="40">・工程表</tspan><tspan x="0" y="60">・概算見積</tspan></text></g></g><path d="M327.794 867.5l-15 12.5v-25z" fill="#5ed0cf"/><path d="M523.794 867.5l15-12.5v25z" fill="#0073bd"/><g transform="translate(348.665 991)"><rect width="154" height="32" rx="10" transform="translate(.129)" fill="#fff"/><text transform="translate(41.129 23)" font-size="17" font-family="Yu Gothic, YuGothic" font-weight="500"><tspan x="0" y="0">詳細設計</tspan></text><text transform="translate(74.129 63)" font-size="17" font-family="Yu Gothic, YuGothic" font-weight="500"><tspan x="-51" y="0">詳細設計図書</tspan><tspan x="-51" y="24">各種申請図書</tspan><tspan x="-42.5" y="48">詳細見積書</tspan><tspan x="-42.5" y="72">詳細工程表</tspan></text></g><g font-weight="500"><text transform="translate(129.794 1014)" fill="#5ed0cf" font-size="17" font-family="Yu Gothic, YuGothic"><tspan x="0" y="0">詳細設計図書の作成</tspan></text><text transform="translate(137.794 1038)" font-size="14" font-family="YuGo-Medium, YuGothic"><tspan x="0" y="0">・詳細設計条件の提示</tspan><tspan x="0" y="20">・詳細設計図書の検討</tspan><tspan x="0" y="40"> ・承認</tspan><tspan x="0" y="60">・発注先検討</tspan><tspan x="0" y="80">・ペンダーの承認</tspan></text></g><g font-weight="500"><text transform="translate(586.793 999)" fill="#0073bd" font-size="17" font-family="Yu Gothic, YuGothic"><tspan x="0" y="0">詳細設計図書の作成</tspan></text><text transform="translate(559.793 1132)" fill="#0073bd" font-size="17" font-family="Yu Gothic, YuGothic"><tspan x="0" y="0">調達計画および仕様書作成</tspan></text><g font-size="14" font-family="YuGo-Medium, YuGothic"><text transform="translate(566.794 1023)"><tspan x="0" y="0">・詳細設計</tspan><tspan x="0" y="20"> - 機器設計</tspan><tspan x="0" y="40"> - 配管設計</tspan><tspan x="0" y="60"> - 電気設計</tspan><tspan x="0" y="80"> - 計装設計</tspan></text><text transform="translate(660.794 1023)"><tspan x="0" y="0">- 保温(冷)設計</tspan><tspan x="0" y="20"> - 土木設計</tspan><tspan x="0" y="40"> - 建築設計</tspan><tspan x="0" y="60">･ 詳細見積</tspan></text></g></g><path d="M327.794 1059.5l-15 12.5v-25z" fill="#5ed0cf"/><path d="M523.794 1059.5l15-12.5v25z" fill="#0073bd"/><g transform="translate(348.665 1194)"><rect width="154" height="32" rx="10" transform="translate(.129)" fill="#fff"/><text transform="translate(33.129 23)" font-size="17" font-family="Yu Gothic, YuGothic" font-weight="500"><tspan x="0" y="0">調達・工事</tspan></text><text transform="translate(75.129 63)" font-size="17" font-family="Yu Gothic, YuGothic" font-weight="500"><tspan x="-42.5" y="0">工事要領書</tspan><tspan x="-42.5" y="24">検査要領書</tspan></text></g><text transform="translate(201.794 1245)" fill="#5ed0cf" font-size="17" font-family="Yu Gothic, YuGothic" font-weight="500"><tspan x="0" y="0">工事の検収</tspan></text><g fill="#0073bd" font-size="17" font-family="Yu Gothic, YuGothic" font-weight="500"><text transform="translate(559.793 1209)"><tspan x="0" y="0">資機材の調達</tspan><tspan x="0" y="24">土木・建築工事</tspan><tspan x="0" y="48">機器製作</tspan><tspan x="0" y="72">機器設置工事</tspan></text><text transform="translate(706.793 1209)"><tspan x="0" y="0">機器設置工事</tspan><tspan x="0" y="24">配管工事</tspan><tspan x="0" y="48">電気・計装工事</tspan><tspan x="0" y="72">断熱工事</tspan></text></g><path d="M327.794 1238.5l-15 12.5v-25z" fill="#5ed0cf"/><path d="M523.794 1238.5l15-12.5v25z" fill="#0073bd"/><g transform="translate(347.61 1343)"><rect width="154" height="32" rx="10" transform="translate(.185)" fill="#fff"/><text transform="translate(51.185 23)" font-size="17" font-family="Yu Gothic, YuGothic" font-weight="500"><tspan x="0" y="0">試運転</tspan></text><text transform="translate(75.185 63)" font-size="17" font-family="Yu Gothic, YuGothic" font-weight="500"><tspan x="-42.5" y="0">検査報告書</tspan><tspan x="-42.5" y="24">取扱説明書</tspan><tspan x="-34" y="48">完成図書</tspan></text></g><text transform="translate(183.794 1406)" fill="#5ed0cf" font-size="17" font-family="Yu Gothic, YuGothic" font-weight="500"><tspan x="0" y="0">試運転・調整</tspan></text><text transform="translate(559.794 1394)" fill="#0073bd" font-size="17" font-family="Yu Gothic, YuGothic" font-weight="500"><tspan x="0" y="0">試運転・調整</tspan><tspan x="0" y="24">完成・引き渡し</tspan></text><path d="M327.794 1399.5l-15 12.5v-25z" fill="#5ed0cf"/><path d="M523.794 1399.5l15-12.5v25z" fill="#0073bd"/><path d="M425.294 1535l-90.5-38h181z" fill="#e3eff6"/></g></svg>