<svg xmlns="http://www.w3.org/2000/svg" width="344" height="693.822" viewBox="0 0 344 693.822"><g transform="translate(.299)"><ellipse cx="64" cy="17" rx="64" ry="17" transform="translate(-.299)" fill="#fdd7b2"/><path d="M63.701 1a223.264 223.264 0 00-24.8 1.33 140.906 140.906 0 00-20.2 3.616A50.219 50.219 0 005.262 11.23a13.238 13.238 0 00-3.469 2.955A4.638 4.638 0 00.701 17a4.638 4.638 0 001.092 2.816 13.238 13.238 0 003.469 2.954 50.219 50.219 0 0013.439 5.284 140.906 140.906 0 0020.2 3.616 223.264 223.264 0 0024.8 1.33 223.264 223.264 0 0024.8-1.33 140.906 140.906 0 0020.2-3.616 50.219 50.219 0 0013.441-5.284 13.238 13.238 0 003.469-2.955 4.638 4.638 0 001.09-2.815 4.638 4.638 0 00-1.092-2.816 13.238 13.238 0 00-3.469-2.955 50.219 50.219 0 00-13.439-5.283 140.906 140.906 0 00-20.2-3.616A223.264 223.264 0 0063.701 1m0-1c35.346 0 64 7.611 64 17s-28.654 17-64 17-64-7.611-64-17 28.654-17 64-17z" fill="#707070"/><ellipse cx="64" cy="17" rx="64" ry="17" transform="translate(201.701 5)" fill="#fdd7b2"/><path d="M265.701 6a223.264 223.264 0 00-24.8 1.33 140.906 140.906 0 00-20.2 3.616 50.219 50.219 0 00-13.439 5.284 13.238 13.238 0 00-3.469 2.955A4.638 4.638 0 00202.701 22a4.638 4.638 0 001.092 2.816 13.238 13.238 0 003.469 2.954 50.219 50.219 0 0013.439 5.284 140.906 140.906 0 0020.2 3.616 223.264 223.264 0 0024.8 1.33 223.264 223.264 0 0024.8-1.33 140.906 140.906 0 0020.2-3.616 50.219 50.219 0 0013.441-5.284 13.238 13.238 0 003.469-2.955 4.638 4.638 0 001.09-2.815 4.638 4.638 0 00-1.092-2.816 13.238 13.238 0 00-3.469-2.955 50.219 50.219 0 00-13.439-5.283 140.906 140.906 0 00-20.2-3.616 223.264 223.264 0 00-24.8-1.33m0-1c35.346 0 64 7.611 64 17s-28.654 17-64 17-64-7.611-64-17 28.654-17 64-17z" fill="#101010"/><ellipse cx="59" cy="12.5" rx="59" ry="12.5" transform="translate(5.701 89)" fill="#fdd7b2"/><path d="M64.701 90c-15.692 0-30.434 1.293-41.512 3.639a53.705 53.705 0 00-12.4 3.889c-2.637 1.32-4.088 2.73-4.088 3.972s1.451 2.652 4.084 3.971a53.705 53.705 0 0012.4 3.889c11.082 2.347 25.824 3.64 41.516 3.64s30.434-1.293 41.512-3.639a53.705 53.705 0 0012.4-3.889c2.637-1.32 4.088-2.73 4.088-3.972s-1.451-2.652-4.084-3.971a53.705 53.705 0 00-12.4-3.889C95.135 91.293 80.393 90 64.701 90m0-1c32.585 0 59 5.6 59 12.5s-26.415 12.5-59 12.5-59-5.6-59-12.5 26.415-12.5 59-12.5z" fill="#707070"/><ellipse cx="59" cy="12.5" rx="59" ry="12.5" transform="translate(206.701 91)" fill="#fdd7b2"/><path d="M265.701 92c-15.692 0-30.434 1.293-41.512 3.639a53.705 53.705 0 00-12.4 3.889c-2.637 1.32-4.088 2.73-4.088 3.972s1.451 2.652 4.084 3.971a53.705 53.705 0 0012.4 3.889c11.082 2.347 25.824 3.64 41.516 3.64s30.434-1.293 41.512-3.639a53.705 53.705 0 0012.4-3.889c2.637-1.32 4.088-2.73 4.088-3.972s-1.451-2.652-4.084-3.971a53.705 53.705 0 00-12.4-3.889C296.135 93.293 281.393 92 265.701 92m0-1c32.585 0 59 5.6 59 12.5s-26.415 12.5-59 12.5-59-5.6-59-12.5 26.415-12.5 59-12.5z" fill="#707070"/><path d="M31.701 139.564h16.5V118h33v21.564h16.5l-33 8.436z" fill="#1175ba"/><path fill="#63d0ce" d="M6.701 151h117v34h-117z"/><text transform="translate(24.701 22)" font-size="11" font-family="Yu Gothic, YuGothic" font-weight="700"><tspan x="0" y="0">経済産業大臣</tspan></text><text transform="translate(239.701 27)" font-size="11" font-family="Yu Gothic, YuGothic" font-weight="700"><tspan x="0" y="0">都道府県</tspan></text><text transform="translate(152.701 85)" font-size="12" font-family="Yu Gothic, YuGothic" font-weight="700"><tspan x="0" y="0">契約</tspan></text><text transform="translate(132.701 124)" font-size="11" font-family="Yu Gothic, YuGothic" font-weight="700"><tspan x="0" y="0">認定書発行</tspan></text><text transform="translate(181.701 63)" font-size="11" font-family="Yu Gothic, YuGothic" font-weight="700"><tspan x="0" y="0">製造許可</tspan><tspan x="0" y="13">申請</tspan></text><text transform="translate(252.701 71)" font-size="12" font-family="Yu Gothic, YuGothic" font-weight="700"><tspan x="0" y="0">許可</tspan></text><text transform="translate(299.701 70)" font-size="11" font-family="Yu Gothic, YuGothic" font-weight="700"><tspan x="0" y="0">完成検査</tspan></text><text transform="translate(184.701 184)" font-size="12" font-family="Yu Gothic, YuGothic" font-weight="700"><tspan x="0" y="0">納品</tspan></text><text transform="translate(24.701 172)" font-size="11" font-family="Yu Gothic, YuGothic" font-weight="700"><tspan x="0" y="0">高圧ガス配管</tspan></text><text transform="translate(53.701 129)" fill="#fff" font-size="10" font-family="Yu Gothic, YuGothic" font-weight="700"><tspan x="0" y="0">認定</tspan><tspan x="0" y="12">業務</tspan></text><text transform="translate(43.701 56)" font-size="11" font-family="Yu Gothic, YuGothic" font-weight="700"><tspan x="0" y="0">年</tspan><tspan x="0" y="13">次</tspan><tspan x="0" y="26">届</tspan></text><text transform="translate(56.701 103)" font-size="15" font-family="Yu Gothic, YuGothic" font-weight="700" letter-spacing=".1em"><tspan x="0" y="0">...</tspan></text><text transform="translate(244.701 108)" font-size="11" font-family="Yu Gothic, YuGothic" font-weight="700" letter-spacing=".1em"><tspan x="0" y="0">設置者</tspan></text><path d="M66.324 89.025h-2V78.808h2zm0-12.217h-2v-13h2zm0-15h-2v-13h2zM65.201 39l3.5 7h-7z" fill="#1175ba"/><path d="M264.601 170h-140.9v-2.9h140.9v-46.371h-4.056l5.579-7.729 5.577 7.729h-4.057V170zm-77.037-66l8.137 5.5-8.137 5.5zm-51.863 7v-3h51.863v3z" fill="#0073bd"/><path d="M234.701 44.729l6-7.729 6 7.729zM242.334 94h-3.272V44.729h3.272zm45.367-7.729l6 7.729 6-7.729zM295.335 37h-3.272v49.271h3.272zm-23.634 47.291l-6 7.709-6-7.709zM264.064 70.8h3.273v13.491h-3.273zm0-31.8h3.273v13.49h-3.273z"/><path fill="#0073bd" d="M189.701 92h-52v-3h52z"/><path d="M190.45 92h-49.501v4l-8.248-5.5 8.248-5.5v4h49.5v-4l8.252 5.5-8.251 5.5z" fill="#0073bd"/></g><g transform="translate(11.225 240)"><text transform="translate(129.777 191)" font-size="16" font-family="YuGo-Medium, YuGothic" font-weight="500"><tspan x="0" y="0">認定降板</tspan></text><rect width="328" height="160" rx="10" transform="translate(-.224)" fill="#a9a7ac"/><rect width="312" height="140" rx="10" transform="translate(8.776 10)" fill="#19372d"/><ellipse cx="10.5" cy="10" rx="10.5" ry="10" transform="translate(5.776 5)" fill="#fff"/><path d="M16.276 6a9.271 9.271 0 00-9.5 9 9.271 9.271 0 009.5 9 9.271 9.271 0 009.5-9 9.271 9.271 0 00-9.5-9m0-1a10.259 10.259 0 0110.5 10 10.259 10.259 0 01-10.5 10 10.259 10.259 0 01-10.5-10 10.259 10.259 0 0110.5-10z" fill="#a9a7ac"/><ellipse cx="11" cy="10" rx="11" ry="10" transform="translate(302.776 5)" fill="#fff"/><path d="M313.776 6c-5.514 0-10 4.037-10 9s4.486 9 10 9 10-4.037 10-9-4.486-9-10-9m0-1c6.075 0 11 4.477 11 10s-4.925 10-11 10-11-4.477-11-10 4.925-10 11-10z" fill="#a9a7ac"/><ellipse cx="10.5" cy="10" rx="10.5" ry="10" transform="translate(5.776 135)" fill="#fff"/><path d="M16.276 136a9.271 9.271 0 00-9.5 9 9.271 9.271 0 009.5 9 9.271 9.271 0 009.5-9 9.271 9.271 0 00-9.5-9m0-1a10.259 10.259 0 0110.5 10 10.259 10.259 0 01-10.5 10 10.259 10.259 0 01-10.5-10 10.259 10.259 0 0110.5-10z" fill="#a9a7ac"/><ellipse cx="11" cy="10" rx="11" ry="10" transform="translate(302.776 135)" fill="#fff"/><path d="M313.776 136c-5.514 0-10 4.037-10 9s4.486 9 10 9 10-4.037 10-9-4.486-9-10-9m0-1c6.075 0 11 4.477 11 10s-4.925 10-11 10-11-4.477-11-10 4.925-10 11-10z" fill="#a9a7ac"/><text transform="translate(89.777 40)" fill="#fff" font-size="21" font-family="Yu Gothic, YuGothic" font-weight="700" letter-spacing=".1em"><tspan x="0" y="0">高圧ガス設備</tspan></text><text transform="translate(29.777 70)" fill="#fff" font-size="21" font-family="Yu Gothic, YuGothic" font-weight="700" letter-spacing=".2em"><tspan x="0" y="0">経済産業大臣認定番号</tspan></text><text transform="translate(44.777 104)" fill="#fff" font-size="25" font-family="Yu Gothic, YuGothic" font-weight="700" letter-spacing=".3em"><tspan x="0" y="0">MAB – 434-M</tspan></text><text transform="translate(41.777 133)" fill="#fff" font-size="23" font-family="Yu Gothic, YuGothic" font-weight="700" letter-spacing=".2em"><tspan x="0" y="0">機器番号</tspan></text><path fill="#a9a7ac" d="M163.776 108h132v34h-132z"/></g><g transform="translate(8.683 597.475)"><rect width="72.153" height="49.429" rx="10" transform="translate(247.383)" fill="#5ed0cf"/><text transform="translate(9.62 21.959)" font-size="8" font-family="Yu Gothic, YuGothic" font-weight="700"><tspan x="0" y="0">MPa</tspan></text><text transform="translate(1.535 95.347)" font-size="8" font-family="Yu Gothic, YuGothic" font-weight="700"><tspan x="0" y="0">上記の他に、低温用炭素鋼・低音用低合金鋼・銅及び銅合金剛の認定を保有しています。</tspan></text><text transform="translate(252.88 12.203)" font-size="8" font-family="Yu Gothic, YuGothic" font-weight="700"><tspan x="0" y="0">ステンレス鋼</tspan></text><text transform="translate(16.749 28.764)" font-size="7" font-family="Yu Gothic, YuGothic" font-weight="700"><tspan x="-13.986" y="0">24.6</tspan></text><text transform="translate(302.506 22.26)" font-size="7" font-family="Yu Gothic, YuGothic" font-weight="700"><tspan x="-50.596" y="0">G1:-196~400℃</tspan></text><text transform="translate(302.506 32.015)" font-size="7" font-family="Yu Gothic, YuGothic" font-weight="700"><tspan x="-50.596" y="0">G4:-269~800℃</tspan></text><text transform="translate(302.506 41.121)" font-size="7" font-family="Yu Gothic, YuGothic" font-weight="700"><tspan x="-50.596" y="0">G6:-196~800℃</tspan></text><text transform="translate(16.749 39.17)" font-size="7" font-family="Yu Gothic, YuGothic" font-weight="700"><tspan x="-13.986" y="0">14.8</tspan></text><text transform="translate(17.559 52.177)" font-size="7" font-family="Yu Gothic, YuGothic" font-weight="700"><tspan x="-9.975" y="0">9.9</tspan></text><text transform="translate(17.559 63.234)" font-size="7" font-family="Yu Gothic, YuGothic" font-weight="700"><tspan x="-9.975" y="0">1.5</tspan></text><path fill="#bccaca" d="M23.364 61.787h296.172v10.406H23.364z"/><path d="M24.364 62.787v8.406h294.172v-8.406H24.364m-1-1h296.172v10.406H23.364z"/><text transform="translate(44.61 69.088)" font-size="7" font-family="Yu Gothic, YuGothic" font-weight="700"><tspan x="-12.824" y="0">50A</tspan></text><text transform="translate(115.266 69.088)" font-size="7" font-family="Yu Gothic, YuGothic" font-weight="700"><tspan x="-16.835" y="0">300A</tspan></text><text transform="translate(212.157 69.088)" font-size="7" font-family="Yu Gothic, YuGothic" font-weight="700"><tspan x="-16.835" y="0">700A</tspan></text><text transform="translate(313.736 69.088)" font-size="7" font-family="Yu Gothic, YuGothic" font-weight="700"><tspan x="-20.846" y="0">1000A</tspan></text><path fill="#c7ffff" d="M23.364 26.015h12.369v9.105H23.364z"/><path d="M24.364 27.015v7.105h10.369v-7.105H24.364m-1-1h12.369v9.105H23.364z"/><path fill="#5ed0cf" d="M23.364 34.471h87.958v16.91H23.364z"/><path d="M24.364 35.471v14.91h85.958v-14.91H24.364m-1-1h87.958v16.91H23.364z"/><path fill="#5ed07d" d="M23.364 50.73h184.163v11.707H23.364z"/><path d="M24.364 51.73v9.707h182.163V51.73H24.364m-1-1h184.163v11.707H23.364z"/></g><text transform="translate(9.49 492.471)" font-size="9" font-family="Yu Gothic, YuGothic" font-weight="700"><tspan x="0" y="0">【当社の主要認定仕様範囲】</tspan></text><g transform="translate(8.683 509.706)"><rect width="65.536" height="52.887" rx="10" transform="translate(122.104)" fill="#1ca5fc"/><text transform="translate(7.588 16.141)" font-size="8" font-family="Yu Gothic, YuGothic" font-weight="700"><tspan x="0" y="0">MPa</tspan></text><text transform="translate(127.623 10.918)" font-size="8" font-family="Yu Gothic, YuGothic" font-weight="700"><tspan x="0" y="0">炭素鋼</tspan></text><text transform="translate(14 22.976)" font-size="7" font-family="Yu Gothic, YuGothic" font-weight="700"><tspan x="-13.986" y="0">34.4</tspan></text><text transform="translate(169.243 19.711)" font-size="7" font-family="Yu Gothic, YuGothic" font-weight="700"><tspan x="-42.574" y="0">G2:-5~350℃</tspan></text><text transform="translate(173.243 29.505)" font-size="7" font-family="Yu Gothic, YuGothic" font-weight="700"><tspan x="-46.585" y="0">G3:-30~350℃</tspan></text><text transform="translate(173.243 38.646)" font-size="7" font-family="Yu Gothic, YuGothic" font-weight="700"><tspan x="-46.585" y="0">G4:-10~450℃</tspan></text><text transform="translate(175.318 48.294)" font-size="7" font-family="Yu Gothic, YuGothic" font-weight="700"><tspan x="-35.091" y="0">-10~350℃</tspan></text><text transform="translate(14 31.464)" font-size="7" font-family="Yu Gothic, YuGothic" font-weight="700"><tspan x="-13.986" y="0">24.6</tspan></text><text transform="translate(14.829 57.581)" font-size="7" font-family="Yu Gothic, YuGothic" font-weight="700"><tspan x="-9.975" y="0">3.0</tspan></text><text transform="translate(14.829 66.069)" font-size="7" font-family="Yu Gothic, YuGothic" font-weight="700"><tspan x="-9.975" y="0">2.0</tspan></text><path fill="#bccaca" d="M21.385 62.028H188.33v10.447H21.385z"/><path d="M22.385 63.028v8.447H187.33v-8.447H22.385m-1-1H188.33v10.447H21.385z"/><path fill="#81d0ff" d="M21.385 21.546h20.006v7.835H21.385z"/><path d="M22.385 22.546v5.835h18.006v-5.835H22.385m-1-1h20.006v7.835H21.385z"/><path fill="#0fa5ff" d="M21.385 28.729h40.701v28.076H21.385z"/><path d="M22.385 29.729v26.076h38.7V29.729h-38.7m-1-1h40.7v28.076h-40.7z"/><path fill="#0073bd" d="M21.385 56.151h121.414v5.876H21.385z"/><path d="M22.385 57.151v3.876h119.414v-3.876H22.385m-1-1h121.414v5.876H21.385z"/><text transform="translate(42.664 68.681)" font-size="7" font-family="Yu Gothic, YuGothic" font-weight="700"><tspan x="-12.824" y="0">80A</tspan></text><text transform="translate(69.429 68.681)" font-size="7" font-family="Yu Gothic, YuGothic" font-weight="700"><tspan x="-16.835" y="0">200A</tspan></text><text transform="translate(144.623 68.681)" font-size="7" font-family="Yu Gothic, YuGothic" font-weight="700"><tspan x="-16.835" y="0">350A</tspan></text><text transform="translate(182.565 68.681)" font-size="7" font-family="Yu Gothic, YuGothic" font-weight="700"><tspan x="-16.835" y="0">500A</tspan></text></g></svg>