<svg xmlns="http://www.w3.org/2000/svg" width="370.001" height="853.934" viewBox="0 0 370.001 853.934"><path d="M291.81 27.262H79.62V824.24h212.19V27.262m10 0V824.24a10 10 0 01-10 10H79.62a10 10 0 01-10-10V27.262a10 10 0 0110-10h212.19a10 10 0 0110 10z" fill="#1175ba" opacity=".503"/><path fill="#fff" d="M310.711 172.359v506.41h-27.975v-506.41zm-221.354-36.89v538.3H61.382v-538.3z"/><g transform="translate(219.259 47.306)"><rect width="150.741" height="141.676" rx="10" fill="#fff"/><path d="M10 5a5.006 5.006 0 00-5 5v121.676a5.006 5.006 0 005 5h130.741a5.006 5.006 0 005-5V10a5.006 5.006 0 00-5-5H10m0-5h130.741a10 10 0 0110 10v121.676a10 10 0 01-10 10H10a10 10 0 01-10-10V10A10 10 0 0110 0z" fill="#5eb03f"/><path d="M10 0h130.741a10 10 0 0110 10v26.367H0V10A10 10 0 0110 0z" fill="#5eb03f"/><text transform="translate(70.061 25.114)" fill="#fff" font-size="13" font-family="Yu Gothic, YuGothic" font-weight="700"><tspan x="-26" y="0">基本設計</tspan></text><text transform="translate(37.057 61.609)" font-size="9" font-family="Yu Gothic, YuGothic" font-weight="700"><tspan x="0" y="0">・P&amp;ID</tspan><tspan x="0" y="16">・UFD</tspan><tspan x="0" y="32">・配管レイアウト</tspan><tspan x="0" y="48">・配管スペック</tspan></text></g><g transform="translate(0 72.229)"><rect width="150.741" height="104.322" rx="10" fill="#fff"/><path d="M10 5a5.006 5.006 0 00-5 5v84.322a5.006 5.006 0 005 5h130.741a5.006 5.006 0 005-5V10a5.006 5.006 0 00-5-5H10m0-5h130.741a10 10 0 0110 10v84.322a10 10 0 01-10 10H10a10 10 0 01-10-10V10A10 10 0 0110 0z" fill="#d48c40"/><path d="M10 0h130.741a10 10 0 0110 10v26.367H0V10A10 10 0 0110 0z" fill="#d48c40"/><text transform="translate(70.188 25.114)" fill="#fff" font-size="13" font-family="Yu Gothic, YuGothic" font-weight="700"><tspan x="-29.25" y="0">製作/施工</tspan></text><text transform="translate(37.057 61.609)" font-size="9" font-family="Yu Gothic, YuGothic" font-weight="700"><tspan x="0" y="0">・PICS-M</tspan><tspan x="0" y="16">・PICS_P</tspan></text></g><g transform="translate(220.984 210.763)"><rect width="149.016" height="107.165" rx="10" fill="#fff"/><path d="M10 5a5.006 5.006 0 00-5 5v87.165a5.006 5.006 0 005 5h129.016a5.006 5.006 0 005-5V10a5.006 5.006 0 00-5-5H10m0-5h129.016a10 10 0 0110 10v87.165a10 10 0 01-10 10H10a10 10 0 01-10-10V10A10 10 0 0110 0z" fill="#5eb03f"/><path d="M10 0h129.016a10 10 0 0110 10v26.367H0V10A10 10 0 0110 0z" fill="#5eb03f"/><text transform="translate(69.368 25.114)" fill="#fff" font-size="13" font-family="Yu Gothic, YuGothic" font-weight="700"><tspan x="-26" y="0">計画設計</tspan></text><text transform="translate(36.196 61.582)" font-size="9" font-family="Yu Gothic, YuGothic" font-weight="700"><tspan x="0" y="0">・配管計画図</tspan><tspan x="0" y="16">・プロットプラン</tspan></text></g><g transform="translate(223.445 339.709)"><rect width="146.554" height="99.404" rx="10" fill="#fff"/><path d="M10 5a5.006 5.006 0 00-5 5v79.4a5.006 5.006 0 005 5h126.554a5.006 5.006 0 005-5V10a5.006 5.006 0 00-5-5H10m0-5h126.554a10 10 0 0110 10v79.4a10 10 0 01-10 10H10a10 10 0 01-10-10V10A10 10 0 0110 0z" fill="#d0c356"/><path d="M10 0h126.554a10 10 0 0110 10v26.367H0V10A10 10 0 0110 0z" fill="#d0c356"/><text transform="translate(71.146 25.114)" fill="#fff" font-size="13" font-family="Yu Gothic, YuGothic" font-weight="700"><tspan x="-13" y="0">解析</tspan></text><text transform="translate(37.951 57.702)" font-size="9" font-family="Yu Gothic, YuGothic" font-weight="700"><tspan x="0" y="0">・圧力損失計算</tspan><tspan x="0" y="16">・熱応力解析</tspan></text></g><g transform="translate(223.445 639.835)"><rect width="146.554" height="152.029" rx="10" fill="#fff"/><path d="M10 5a5.006 5.006 0 00-5 5v132.029a5.006 5.006 0 005 5h126.554a5.006 5.006 0 005-5V10a5.006 5.006 0 00-5-5H10m0-5h126.554a10 10 0 0110 10v132.029a10 10 0 01-10 10H10a10 10 0 01-10-10V10A10 10 0 0110 0z" fill="#d0c356"/><path d="M10 0h126.554a10 10 0 0110 10v26.367H0V10A10 10 0 0110 0z" fill="#d0c356"/><text transform="translate(69.044 25.114)" fill="#fff" font-size="13" font-family="Yu Gothic, YuGothic" font-weight="700"><tspan x="-38.805" y="0">チェック機能</tspan></text><text transform="translate(17.593 67.353)" font-size="9" font-family="Yu Gothic, YuGothic" font-weight="700"><tspan x="0" y="0">・自動干渉チェック</tspan><tspan x="0" y="16">・自動溶接脚長チェック</tspan><tspan x="0" y="32">・PIPE定尺チェック</tspan><tspan x="0" y="48">・配管材組合せチェック</tspan></text></g><g transform="translate(223.445 460.894)"><rect width="146.554" height="157.161" rx="10" fill="#fff"/><path d="M10 5a5.006 5.006 0 00-5 5v137.161a5.006 5.006 0 005 5h126.554a5.006 5.006 0 005-5V10a5.006 5.006 0 00-5-5H10m0-5h126.554a10 10 0 0110 10v137.161a10 10 0 01-10 10H10a10 10 0 01-10-10V10A10 10 0 0110 0z" fill="#d0c356"/><path d="M10 0h126.554a10 10 0 0110 10v26.367H0V10A10 10 0 0110 0z" fill="#d0c356"/><text transform="translate(68.047 25.114)" fill="#fff" font-size="13" font-family="Yu Gothic, YuGothic" font-weight="700"><tspan x="-26" y="0">図面作成</tspan></text><text transform="translate(28.157 63.017)" font-size="9" font-family="Yu Gothic, YuGothic" font-weight="700"><tspan x="0" y="0">・配管平面/詳細図</tspan><tspan x="0" y="16">・サポート図</tspan><tspan x="0" y="32">・サポート位置図</tspan><tspan x="0" y="48">・サポート詳細図</tspan><tspan x="0" y="64">・立面図/断面図</tspan></text></g><path d="M296.724 336.709l-17.718-15.764h35.435zm0-128.964l-17.718-15.764h35.435zm0 250.15l-17.718-15.764h35.435zm0 178.922l-17.718-15.764h35.435zm0 170.811l-17.718-15.764h35.435zM75.369 651.551l17.718 15.764H57.652zm0-159.127l17.718 15.764H57.652zm0-128.609l17.718 15.764H57.652zm0-185.045l17.718 15.764H57.652z" fill="#79abce"/><g transform="translate(.861 671.314)"><rect width="160.223" height="120.55" rx="10" fill="#fff"/><path d="M10 5a5.006 5.006 0 00-5 5v100.55a5.006 5.006 0 005 5h140.223a5.006 5.006 0 005-5V10a5.006 5.006 0 00-5-5H10m0-5h140.223a10 10 0 0110 10v100.55a10 10 0 01-10 10H10a10 10 0 01-10-10V10A10 10 0 0110 0z" fill="#d0c356"/><path d="M10 0h140.223a10 10 0 0110 10v26.367H0V10A10 10 0 0110 0z" fill="#d0c356"/><text transform="translate(79.294 22.479)" fill="#fff" font-size="13" font-family="Yu Gothic, YuGothic" font-weight="700"><tspan x="-26" y="0">集計機能</tspan></text><text transform="translate(26.206 60.533)" font-size="9" font-family="Yu Gothic, YuGothic" font-weight="700"><tspan x="0" y="0">・配管材集計</tspan><tspan x="0" y="16">・工事量集計</tspan><tspan x="0" y="32">・サポート材集計</tspan></text><text transform="translate(125.231 93.099)" font-size="9" font-family="Yu Gothic, YuGothic" font-weight="700"><tspan x="0" y="0">等</tspan></text></g><g transform="translate(.861 516.188)"><rect width="105.436" height="132.517" rx="10" fill="#fff"/><path d="M10 5a5.006 5.006 0 00-5 5v112.517a5.006 5.006 0 005 5h85.436a5.006 5.006 0 005-5V10a5.006 5.006 0 00-5-5H10m0-5h85.436a10 10 0 0110 10v112.517a10 10 0 01-10 10H10a10 10 0 01-10-10V10A10 10 0 0110 0z" fill="#0073bd"/><path d="M10 0h85.436a10 10 0 0110 10v26.367H0V10A10 10 0 0110 0z" fill="#0073bd"/><text transform="translate(45.554 22.479)" fill="#fff" font-size="13" font-family="Yu Gothic, YuGothic" font-weight="700"><tspan x="-38.74" y="0">３次元データ</tspan></text><text transform="translate(23.982 59.937)" font-size="9" font-family="Yu Gothic, YuGothic" font-weight="700"><tspan x="0" y="0">・全データの</tspan><tspan x="0" y="16">一元管理</tspan><tspan x="0" y="32">・各システム</tspan><tspan x="0" y="48">とのリンク</tspan></text><rect width="51.731" height="132.517" rx="10" transform="translate(108.492)" fill="#0073bd"/></g><g transform="translate(0 196.863)"><rect width="105.436" height="163.01" rx="10" fill="#fff"/><path d="M10 5a5.006 5.006 0 00-5 5v143.01a5.006 5.006 0 005 5h85.436a5.006 5.006 0 005-5V10a5.006 5.006 0 00-5-5H10m0-5h85.436a10 10 0 0110 10v143.01a10 10 0 01-10 10H10a10 10 0 01-10-10V10A10 10 0 0110 0z" fill="#d48c40"/><path d="M10 0h85.436a10 10 0 0110 10v26.367H0V10A10 10 0 0110 0z" fill="#d48c40"/><text transform="translate(51.406 22.479)" fill="#fff" font-size="13" font-family="Yu Gothic, YuGothic" font-weight="700"><tspan x="-37.128" y="0">３Dレビュー</tspan></text><text transform="translate(9.616 59.864)" font-size="9" font-family="Yu Gothic, YuGothic" font-weight="700"><tspan x="0" y="0">・顧客への説明]</tspan><tspan x="0" y="16">/検討/承認</tspan><tspan x="0" y="32">・計画の妥当性検討</tspan><tspan x="0" y="48">・施工計画</tspan><tspan x="0" y="64">・設計変更計画</tspan><tspan x="0" y="80">・干渉回避計画</tspan></text><rect width="51.731" height="163.01" rx="10" transform="translate(108.492)" fill="#d48c40"/></g><text transform="translate(133.062 567.556)" fill="#fff" font-size="7" font-family="Yu Gothic, YuGothic" font-weight="700"><tspan x="-6.202" y="0">３D</tspan><tspan x="-14" y="12">レーザー</tspan><tspan x="-17.5" y="24">スキャナー</tspan></text><text transform="translate(133.562 277.82)" fill="#fff" font-size="10" font-family="Yu Gothic, YuGothic" font-weight="700"><tspan x="-10" y="0">調達</tspan></text><g transform="translate(.861 384.578)"><rect width="160.223" height="101.219" rx="10" fill="#fff"/><path d="M10 5a5.006 5.006 0 00-5 5v81.219a5.006 5.006 0 005 5h140.223a5.006 5.006 0 005-5V10a5.006 5.006 0 00-5-5H10m0-5h140.223a10 10 0 0110 10v81.219a10 10 0 01-10 10H10a10 10 0 01-10-10V10A10 10 0 0110 0z" fill="#d0c356"/><path d="M10 0h140.223a10 10 0 0110 10v26.367H0V10A10 10 0 0110 0z" fill="#d0c356"/><text transform="translate(73.04 24.181)" fill="#fff" font-size="13" font-family="Yu Gothic, YuGothic" font-weight="700"><tspan x="-32.5" y="0">リスト出力</tspan></text><text transform="translate(18.719 52.4)" font-size="9" font-family="Yu Gothic, YuGothic" font-weight="700"><tspan x="0" y="0">・カッティングプラン</tspan><tspan x="0" y="16">・計装TAG No.リスト</tspan><tspan x="0" y="32">・ラインリスト</tspan></text></g><text transform="translate(125.575 469.027)" font-size="9" font-family="Yu Gothic, YuGothic" font-weight="700"><tspan x="0" y="0">等</tspan></text><path d="M172.41 830.781l25.177-23.153v46.306zm25.18-807.628l-25.178 23.153V0z" fill="#79abce"/></svg>