<svg xmlns="http://www.w3.org/2000/svg" width="934" height="447.841" viewBox="0 0 934 447.841"><path d="M27.487 100.542v222.419h879.026V100.542H27.487m0-10h879.026a10 10 0 0110 10v222.419a10 10 0 01-10 10H27.487a10 10 0 01-10-10V100.542a10 10 0 0110-10z" fill="#1175ba" opacity=".503"/><path fill="#fff" d="M183.097 75.938h528.718v29.207H183.097zm587.35 271.626H151.209v-29.207h619.238z"/><g transform="translate(43.203)"><rect width="157.381" height="181.084" rx="10" fill="#fff"/><path d="M10 5a5.006 5.006 0 00-5 5v161.084a5.006 5.006 0 005 5h137.381a5.006 5.006 0 005-5V10a5.006 5.006 0 00-5-5H10m0-5h137.381a10 10 0 0110 10v161.084a10 10 0 01-10 10H10a10 10 0 01-10-10V10A10 10 0 0110 0z" fill="#5eb03f"/><path d="M10 0h137.381a10 10 0 0110 10v27.969H0V10A10 10 0 0110 0z" fill="#5eb03f"/><text transform="translate(74.002 26.736)" fill="#fff" font-size="19" font-family="Yu Gothic, YuGothic" font-weight="700"><tspan x="-38" y="0">基本設計</tspan></text><text transform="translate(19.571 65.604)" font-size="10" font-family="Yu Gothic, YuGothic" font-weight="700"><tspan x="0" y="0">・P&amp;ID</tspan><tspan x="0" y="17">・UFD</tspan><tspan x="0" y="34">・配管レイアウト</tspan><tspan x="0" y="51">・配管スペック</tspan></text></g><g transform="translate(218.07)"><rect width="148.123" height="181.084" rx="10" fill="#fff"/><path d="M10 5a5.006 5.006 0 00-5 5v161.084a5.006 5.006 0 005 5h128.123a5.006 5.006 0 005-5V10a5.006 5.006 0 00-5-5H10m0-5h128.123a10 10 0 0110 10v161.084a10 10 0 01-10 10H10a10 10 0 01-10-10V10A10 10 0 0110 0z" fill="#5eb03f"/><path d="M10 0h128.123a10 10 0 0110 10v27.969H0V10A10 10 0 0110 0z" fill="#5eb03f"/><text transform="translate(69.888 26.736)" fill="#fff" font-size="19" font-family="Yu Gothic, YuGothic" font-weight="700"><tspan x="-38" y="0">計画設計</tspan></text><text transform="translate(19.744 65.772)" font-size="10" font-family="Yu Gothic, YuGothic" font-weight="700"><tspan x="0" y="0">・配管計画図</tspan><tspan x="0" y="17">・プロットプラン</tspan></text></g><g transform="translate(382.652)"><rect width="137.837" height="181.084" rx="10" fill="#fff"/><path d="M10 5a5.006 5.006 0 00-5 5v161.084a5.006 5.006 0 005 5h117.837a5.006 5.006 0 005-5V10a5.006 5.006 0 00-5-5H10m0-5h117.837a10 10 0 0110 10v161.084a10 10 0 01-10 10H10a10 10 0 01-10-10V10A10 10 0 0110 0z" fill="#d0c356"/><path d="M10 0h117.837a10 10 0 0110 10v27.969H0V10A10 10 0 0110 0z" fill="#d0c356"/><text transform="translate(67.346 26.736)" fill="#fff" font-size="19" font-family="Yu Gothic, YuGothic" font-weight="700"><tspan x="-19" y="0">解析</tspan></text><text transform="translate(20.185 66.482)" font-size="10" font-family="Yu Gothic, YuGothic" font-weight="700"><tspan x="0" y="0">・圧力損失計算</tspan><tspan x="0" y="17">・熱応力解析</tspan></text></g><g transform="translate(707.701)"><rect width="184.126" height="181.084" rx="10" fill="#fff"/><path d="M10 5a5.006 5.006 0 00-5 5v161.084a5.006 5.006 0 005 5h164.126a5.006 5.006 0 005-5V10a5.006 5.006 0 00-5-5H10m0-5h164.126a10 10 0 0110 10v161.084a10 10 0 01-10 10H10a10 10 0 01-10-10V10A10 10 0 0110 0z" fill="#d0c356"/><path d="M10 0h164.126a10 10 0 0110 10v27.969H0V10A10 10 0 0110 0z" fill="#d0c356"/><text transform="translate(84.773 26.736)" fill="#fff" font-size="19" font-family="Yu Gothic, YuGothic" font-weight="700"><tspan x="-56.715" y="0">チェック機能</tspan></text><text transform="translate(20.044 65.772)" font-size="10" font-family="Yu Gothic, YuGothic" font-weight="700"><tspan x="0" y="0">・自動干渉チェック</tspan><tspan x="0" y="17">・自動溶接脚長チェック</tspan><tspan x="0" y="34">・PIPE定尺チェック</tspan><tspan x="0" y="51">・配管材組合せチェック</tspan></text></g><g transform="translate(539.004)"><rect width="151.209" height="181.084" rx="10" fill="#fff"/><path d="M10 5a5.006 5.006 0 00-5 5v161.084a5.006 5.006 0 005 5h131.209a5.006 5.006 0 005-5V10a5.006 5.006 0 00-5-5H10m0-5h131.209a10 10 0 0110 10v161.084a10 10 0 01-10 10H10a10 10 0 01-10-10V10A10 10 0 0110 0z" fill="#d0c356"/><path d="M10 0h131.209a10 10 0 0110 10v27.969H0V10A10 10 0 0110 0z" fill="#d0c356"/><text transform="translate(70.916 26.736)" fill="#fff" font-size="19" font-family="Yu Gothic, YuGothic" font-weight="700"><tspan x="-38" y="0">図面作成</tspan></text><text transform="translate(19.544 66.441)" font-size="10" font-family="Yu Gothic, YuGothic" font-weight="700"><tspan x="0" y="0">・配管平面/詳細図</tspan><tspan x="0" y="17">・サポート図</tspan><tspan x="0" y="34">・サポート位置図</tspan><tspan x="0" y="51">・サポート詳細図</tspan><tspan x="0" y="68">・立面図/断面図</tspan></text></g><path d="M382.652 94.438l-16.458 18.5v-37zm167.667 238.523l11.315-12.657v25.313zM217.042 94.438l-16.458 18.5v-37zM742.674 332.96l10.286-11.683v23.366zM536.947 94.438l-16.458 18.5v-37zM362.079 332.96l10.286-11.683v23.366zM706.672 94.438l-16.458 18.5v-37zM160.467 429.344l10.286-12.657V442zm108.007-19.471l-13.372-9.736h26.744z" fill="#87b9dc"/><g transform="translate(32.916 220.026)"><g transform="translate(137.837)"><rect width="192.355" height="180.11" rx="10" fill="#fff"/><path d="M10 5a5.006 5.006 0 00-5 5v160.11a5.006 5.006 0 005 5h172.355a5.006 5.006 0 005-5V10a5.006 5.006 0 00-5-5H10m0-5h172.355a10 10 0 0110 10v160.11a10 10 0 01-10 10H10a10 10 0 01-10-10V10A10 10 0 0110 0z" fill="#d48c40"/><path d="M10 0h172.355a10 10 0 0110 10v27.969H0V10A10 10 0 0110 0z" fill="#d48c40"/><text transform="translate(87.945 25.762)" fill="#fff" font-size="19" font-family="Yu Gothic, YuGothic" font-weight="700"><tspan x="-54.264" y="0">３Dレビュー</tspan></text><text transform="translate(19.202 68.257)" font-size="10" font-family="Yu Gothic, YuGothic" font-weight="700"><tspan x="0" y="0">・顧客への説明/検討/承認</tspan><tspan x="0" y="17">・計画の妥当性検討</tspan><tspan x="0" y="34">・施工計画</tspan><tspan x="0" y="51">・設計変更計画</tspan><tspan x="0" y="68">・干渉回避計画</tspan></text></g><rect width="128.579" height="223.921" rx="10" fill="#fff"/><path d="M10 5a5.006 5.006 0 00-5 5v203.921a5.006 5.006 0 005 5h108.579a5.006 5.006 0 005-5V10a5.006 5.006 0 00-5-5H10m0-5h108.579a10 10 0 0110 10v203.921a10 10 0 01-10 10H10a10 10 0 01-10-10V10A10 10 0 0110 0z" fill="#d48c40"/><path d="M10 0h108.579a10 10 0 0110 10v27.969H0V10A10 10 0 0110 0z" fill="#d48c40"/><text transform="translate(56.458 24.762)" fill="#fff" font-size="18" font-family="Yu Gothic, YuGothic" font-weight="700"><tspan x="-40.5" y="0">製作/施工</tspan></text><text transform="translate(19.723 68.257)" font-size="10" font-family="Yu Gothic, YuGothic" font-weight="700"><tspan x="0" y="0">・PICS-M</tspan><tspan x="0" y="17">・PICS_P</tspan></text><g transform="translate(720.044 .974)"><rect width="148.123" height="223.921" rx="10" fill="#fff"/><path d="M10 5a5.006 5.006 0 00-5 5v203.921a5.006 5.006 0 005 5h128.123a5.006 5.006 0 005-5V10a5.006 5.006 0 00-5-5H10m0-5h128.123a10 10 0 0110 10v203.921a10 10 0 01-10 10H10a10 10 0 01-10-10V10A10 10 0 0110 0z" fill="#d0c356"/><path d="M10 0h128.123a10 10 0 0110 10v27.969H0V10A10 10 0 0110 0z" fill="#d0c356"/><text transform="translate(69.888 25.762)" fill="#fff" font-size="19" font-family="Yu Gothic, YuGothic" font-weight="700"><tspan x="-38" y="0">集計機能</tspan></text><text transform="translate(19.544 65.467)" font-size="10" font-family="Yu Gothic, YuGothic" font-weight="700"><tspan x="0" y="0">・配管材集計</tspan><tspan x="0" y="17">・工事量集計</tspan><tspan x="0" y="34">・サポート材集計</tspan></text><text transform="translate(110.064 132.643)" font-size="10" font-family="Yu Gothic, YuGothic" font-weight="700"><tspan x="0" y="0">等</tspan></text></g><g transform="translate(528.719 .974)"><rect width="182.068" height="176.216" rx="10" fill="#fff"/><path d="M10 5a5.006 5.006 0 00-5 5v156.216a5.006 5.006 0 005 5h162.068a5.006 5.006 0 005-5V10a5.006 5.006 0 00-5-5H10m0-5h162.068a10 10 0 0110 10v156.216a10 10 0 01-10 10H10a10 10 0 01-10-10V10A10 10 0 0110 0z" fill="#0073bd"/><path d="M10 0h162.068a10 10 0 0110 10v27.969H0V10A10 10 0 0110 0z" fill="#0073bd"/><text transform="translate(83.744 25.762)" fill="#fff" font-size="19" font-family="Yu Gothic, YuGothic" font-weight="700"><tspan x="-56.62" y="0">３次元データ</tspan></text><text transform="translate(19.544 65.467)" font-size="10" font-family="Yu Gothic, YuGothic" font-weight="700"><tspan x="0" y="0">・全データの一元管理</tspan><tspan x="0" y="17">・各システムとのリンク</tspan></text></g><rect width="182.068" height="37.969" rx="10" transform="translate(529.084 187.095)" fill="#0073bd"/><rect width="192.355" height="37.969" rx="10" transform="translate(137.837 189.846)" fill="#d48c40"/><text transform="translate(620.084 211.095)" fill="#fff" font-size="12" font-family="Yu Gothic, YuGothic" font-weight="700"><tspan x="-64.632" y="0">３Dレーザースキャナー</tspan></text><text transform="translate(231.099 211.555)" fill="#fff" font-size="12" font-family="Yu Gothic, YuGothic" font-weight="700"><tspan x="-12" y="0">調達</tspan></text><g transform="translate(339.45 .974)"><rect width="178.982" height="223.921" rx="10" fill="#fff"/><path d="M10 5a5.006 5.006 0 00-5 5v203.921a5.006 5.006 0 005 5h158.982a5.006 5.006 0 005-5V10a5.006 5.006 0 00-5-5H10m0-5h158.982a10 10 0 0110 10v203.921a10 10 0 01-10 10H10a10 10 0 01-10-10V10A10 10 0 0110 0z" fill="#d0c356"/><path d="M10 0h158.982a10 10 0 0110 10v27.969H0V10A10 10 0 0110 0z" fill="#d0c356"/><text transform="translate(83.002 25.762)" fill="#fff" font-size="19" font-family="Yu Gothic, YuGothic" font-weight="700"><tspan x="-47.5" y="0">リスト出力</tspan></text><text transform="translate(19.544 62.546)" font-size="10" font-family="Yu Gothic, YuGothic" font-weight="700"><tspan x="0" y="0">・カッティングプラン</tspan><tspan x="0" y="17">・計装TAG No.リスト</tspan><tspan x="0" y="34">・ラインリスト</tspan></text></g><text transform="translate(479.344 125.829)" font-size="10" font-family="Yu Gothic, YuGothic" font-weight="700"><tspan x="0" y="0">等</tspan></text></g><path d="M909.827 213.211l-24.173-26.286H934zM24 185.121l24 26H0z" fill="#87b9dc"/></svg>