<svg xmlns="http://www.w3.org/2000/svg" width="390" height="2125" viewBox="0 0 390 2125"><g transform="translate(0 -1725)"><rect width="105" height="390" rx="10" transform="rotate(90 -1647 2037)" fill="#dc903e" opacity=".099"/><rect width="134" height="390" rx="10" transform="rotate(90 -1568 1958)" fill="#d8ca55" opacity=".099"/><rect width="245" height="390" rx="10" transform="rotate(90 -1433.5 1823.5)" fill="#064285" opacity=".099"/><rect width="342" height="390" rx="10" transform="rotate(90 -1250.5 1640.5)" fill="#19a0c5" opacity=".099"/><rect width="260" height="390" rx="10" transform="rotate(90 -1108.5 1498.5)" fill="#52bca2" opacity=".099"/><rect width="338" height="390" rx="10" transform="rotate(90 -927.5 1317.5)" fill="#52bca2" opacity=".099"/><g opacity=".097" transform="rotate(90 -814.5 1204.5)" fill="#43d586"><rect width="202" height="390" rx="10"/><path d="M10 3a7.008 7.008 0 00-7 7v370a7.008 7.008 0 007 7h182a7.008 7.008 0 007-7V10a7.008 7.008 0 00-7-7H10m0-3h182a10 10 0 0110 10v370a10 10 0 01-10 10H10a10 10 0 01-10-10V10A10 10 0 0110 0z"/></g><path d="M25 1730v170h340v-170H25m-5-5h350v180H20z" fill="#e3eff6"/><path fill="#269be0" d="M20 1725h350v53H20z"/><text transform="translate(196 1757)" fill="#fff" font-size="14" font-family="Yu Gothic, YuGothic" font-weight="500"><tspan x="-55.72" y="0">プロジェクト管理</tspan></text><text transform="translate(90 1807)" font-size="10" font-family="YuGo-Medium, YuGothic" font-weight="500"><tspan x="0" y="0">・プロジェクト体制編成</tspan><tspan x="0" y="22">・プロジェクト遂行要領書作成</tspan><tspan x="0" y="44">・プロジェクト総合管理調整</tspan><tspan x="0" y="66">・工程管理・コスト管理・品質管理・安全管理</tspan></text><path fill="#e3eff6" d="M255 1905v1907H136V1905z"/><g transform="translate(138.182 2087)"><rect width="114" height="24" rx="10" transform="translate(.319)" fill="#fff"/><text transform="translate(10.318 17)" font-size="12" font-family="Yu Gothic, YuGothic" font-weight="500"><tspan x="0" y="0">総合企画</tspan><tspan y="0" font-family="Helvetica"> </tspan><tspan y="0">･</tspan><tspan y="0" font-family="Helvetica"> </tspan><tspan y="0">調査</tspan></text><text transform="translate(53.318 47)" font-size="12" font-family="Yu Gothic, YuGothic" font-weight="500"><tspan x="-42" y="0">土建設計データ</tspan><tspan x="-36" y="17">施設調査報告</tspan></text></g><path d="M135.501 2120l-11 9v-18z" fill="#5ed0cf"/><path d="M254.501 2120l11-9v18z" fill="#0073bd"/><g transform="translate(138.18 2373)"><rect width="114" height="24" rx="10" transform="translate(.319)" fill="#fff"/><text transform="translate(20.818 17)" font-size="12" font-family="Yu Gothic, YuGothic" font-weight="500"><tspan x="0" y="0">プロセス設計</tspan></text><text transform="translate(53.318 47)" font-size="12" font-family="Yu Gothic, YuGothic" font-weight="500"><tspan x="-47.76" y="0">プロジェクト計画</tspan><tspan x="-36" y="17">プロセス設計</tspan><tspan x="-42" y="34">レイアウト設計</tspan></text></g><path d="M135.499 2414l-11 9v-18z" fill="#5ed0cf"/><path d="M254.499 2414l11-9v18z" fill="#0073bd"/><g transform="translate(138.18 2696.5)"><rect width="114" height="24" rx="10" transform="translate(.319)" fill="#fff"/><text transform="translate(32.82 17)" font-size="12" font-family="Yu Gothic, YuGothic" font-weight="500"><tspan x="0" y="0">基本設計</tspan></text><text transform="translate(53.318 47)" font-size="12" font-family="Yu Gothic, YuGothic" font-weight="500"><tspan x="-36" y="0">基本設計図書</tspan><tspan x="-18" y="17">工程表</tspan><tspan x="-24" y="34">官庁申請</tspan></text></g><path d="M135.499 2737.5l-11 9v-18z" fill="#5ed0cf"/><path d="M254.499 2737.5l11-9v18z" fill="#0073bd"/><g transform="translate(138.18 2997)"><rect width="114" height="24" rx="10" transform="translate(.319)" fill="#fff"/><text transform="translate(32.82 17)" font-size="12" font-family="Yu Gothic, YuGothic" font-weight="500"><tspan x="0" y="0">詳細設計</tspan></text><text transform="translate(53.318 47)" font-size="12" font-family="Yu Gothic, YuGothic" font-weight="500"><tspan x="-36" y="0">詳細設計図書</tspan><tspan x="-36" y="17">各種申請図書</tspan><tspan x="-30" y="34">詳細見積書</tspan><tspan x="-30" y="51">詳細工程表</tspan></text></g><path d="M135.499 3038l-11 9v-18z" fill="#5ed0cf"/><path d="M254.499 3038l11-9v18z" fill="#0073bd"/><g transform="translate(138.18 3330)"><rect width="114" height="24" rx="10" transform="translate(.319)" fill="#fff"/><text transform="translate(32.82 17)" font-size="12" font-family="Yu Gothic, YuGothic" font-weight="500"><tspan x="0" y="0">詳細設計</tspan></text><text transform="translate(53.318 47)" font-size="12" font-family="Yu Gothic, YuGothic" font-weight="500"><tspan x="-36" y="0">詳細設計図書</tspan><tspan x="-36" y="17">各種申請図書</tspan><tspan x="-30" y="34">詳細見積書</tspan><tspan x="-30" y="51">詳細工程表</tspan></text></g><path d="M135.499 3371l-11 9v-18z" fill="#5ed0cf"/><path d="M254.499 3371l11-9v18z" fill="#0073bd"/><g transform="translate(138.18 3550.5)"><rect width="114" height="24" rx="10" transform="translate(.319)" fill="#fff"/><text transform="translate(38.82 17)" font-size="12" font-family="Yu Gothic, YuGothic" font-weight="500"><tspan x="0" y="0">試運転</tspan></text><text transform="translate(53.318 47)" font-size="12" font-family="Yu Gothic, YuGothic" font-weight="500"><tspan x="-30" y="0">検査報告書</tspan><tspan x="-30" y="17">取扱説明書</tspan><tspan x="-24" y="34">完成図書</tspan></text></g><path d="M135.499 3591.5l-11 9v-18z" fill="#5ed0cf"/><path d="M254.499 3591.5l11-9v18z" fill="#0073bd"/><g transform="translate(138.18 3695.5)"><rect width="114" height="24" rx="10" transform="translate(.319)" fill="#fff"/><text transform="translate(23.318 17)" font-size="12" font-family="Yu Gothic, YuGothic" font-weight="500"><tspan x="0" y="0">メンテナンス</tspan></text><text transform="translate(56.82 47)" font-size="12" font-family="Yu Gothic, YuGothic" font-weight="500"><tspan x="-35.76" y="0">メンテナンス</tspan><tspan x="-18" y="17">報告書</tspan></text></g><path d="M135.499 3736.5l-11 9v-18z" fill="#5ed0cf"/><path d="M254.499 3736.5l11-9v18z" fill="#0073bd"/><g font-weight="500"><text transform="translate(94 2059)" fill="#5ed0cf" font-size="12" font-family="Yu Gothic, YuGothic"><tspan x="-84" y="0">基本条件の提示</tspan></text><text transform="translate(10 2083)" font-size="10" font-family="YuGo-Medium, YuGothic"><tspan x="0" y="0">・基本方針</tspan><tspan x="0" y="20">・生産品目</tspan><tspan x="0" y="40">・生産量</tspan><tspan x="0" y="60">・設備規模</tspan><tspan x="0" y="80">・要員計画</tspan><tspan x="0" y="100">・概算予算</tspan><tspan x="0" y="120">・スケジュール</tspan></text></g><g font-weight="500"><text transform="translate(292 2053)" fill="#0073bd" font-size="12" font-family="Yu Gothic, YuGothic"><tspan x="0" y="0">基礎調査協力</tspan></text><text transform="translate(282 2077)" font-size="10" font-family="YuGo-Medium, YuGothic"><tspan x="0" y="0">・敷地条件(土質調査)</tspan><tspan x="0" y="20">・法令制約条件</tspan><tspan x="0" y="40">・自然環境条件</tspan><tspan x="0" y="60">・社会環境条件</tspan><tspan x="0" y="80">(交通・労働力・</tspan><tspan x="0" y="100">流通条件等)</tspan><tspan x="0" y="120">・現状分析</tspan></text></g><path d="M59.043 2011.366C37.307 2010.4 20 1993.461 20 1972.706 20 1951.329 38.354 1934 61 1934s41 17.329 41 38.706c0 20.494-16.877 37.269-38.227 38.617L61.4 2019z" fill="#5ed0cf"/><text transform="translate(41 1978)" font-size="13" font-family="YuGo-Medium, YuGothic" font-weight="500"><tspan x="0" y="0">お客様</tspan></text><g transform="translate(115.893 1960)"><rect width="158" height="33" rx="10" transform="translate(.108)" fill="#333"/><text transform="translate(31.108 22)" fill="#fff" font-size="12" font-family="Yu Gothic, YuGothic" font-weight="500"><tspan x="0" y="0">プロジェクト業務</tspan></text></g><path d="M327.044 2011.366c-21.736-.966-39.043-17.905-39.043-38.66 0-21.377 18.354-38.706 41-38.706s41 17.329 41 38.706c0 20.494-16.877 37.269-38.227 38.617l-2.373 7.677z" fill="#0073bd"/><text transform="translate(302.001 1978)" fill="#fff" font-size="13" font-family="YuGo-Medium, YuGothic" font-weight="500"><tspan x="0" y="0">TAKADA</tspan></text><g font-weight="500"><text transform="translate(11 2337)" fill="#5ed0cf" font-size="12" font-family="Yu Gothic, YuGothic"><tspan x="0" y="0">プロセス設計</tspan><tspan x="0" y="24">条件の決定</tspan></text><text transform="translate(10 2391)" font-size="10" font-family="YuGo-Medium, YuGothic"><tspan x="0" y="9">・基本設計データ</tspan><tspan x="0" y="29">の提示</tspan><tspan x="0" y="49">・プロセス設計条</tspan><tspan x="0" y="69">件の提示</tspan><tspan x="0" y="89">・プロセス設計図</tspan><tspan x="0" y="109">書の提示</tspan></text></g><g font-weight="500"><text transform="translate(11 2708)" fill="#5ed0cf" font-size="12" font-family="Yu Gothic, YuGothic"><tspan x="0" y="0">基本設計条件の決定</tspan></text><text transform="translate(10 2734)" font-size="10" font-family="YuGo-Medium, YuGothic"><tspan x="0" y="0">・基本設計条件の提示</tspan><tspan x="0" y="20">・基本設計図書の提示</tspan><tspan x="0" y="40">・予算調整</tspan></text></g><g font-weight="500"><text transform="translate(11 2989)" fill="#5ed0cf" font-size="12" font-family="Yu Gothic, YuGothic"><tspan x="0" y="0">詳細設計図書の作成</tspan></text><text transform="translate(10 3015)" font-size="10" font-family="YuGo-Medium, YuGothic"><tspan x="0" y="0">・詳細設計条件の提示</tspan><tspan x="0" y="20">・詳細設計図書の検討</tspan><tspan x="0" y="40">・承認</tspan><tspan x="0" y="60">・発注先検討</tspan><tspan x="0" y="80">・ペンダーの承認</tspan></text></g><text transform="translate(10 3378)" fill="#5ed0cf" font-size="12" font-family="Yu Gothic, YuGothic" font-weight="500"><tspan x="0" y="0">工事の検収</tspan></text><text transform="translate(10 3597)" fill="#5ed0cf" font-size="12" font-family="Yu Gothic, YuGothic" font-weight="500"><tspan x="0" y="0">試運転・調整</tspan></text><text transform="translate(10 3742)" fill="#5ed0cf" font-size="12" font-family="Yu Gothic, YuGothic" font-weight="500"><tspan x="0" y="0">保守・保全</tspan></text><g font-weight="500"><text transform="translate(284.5 2281)" fill="#0073bd" font-size="12" font-family="Yu Gothic, YuGothic"><tspan x="0" y="0">プロセス設計</tspan><tspan x="0" y="24">図書の作成協力</tspan></text><g font-size="10" font-family="YuGo-Medium, YuGothic"><text transform="translate(280 2334)"><tspan x="0" y="0">・プロセスフロー</tspan><tspan x="0" y="20">・マテリアルバランス</tspan><tspan x="0" y="40">・タイムスケジュール</tspan><tspan x="0" y="60">・制御システム計画</tspan><tspan x="0" y="80">・要員計画</tspan><tspan x="0" y="100">・機器選定</tspan></text><text transform="translate(279 2456)"><tspan x="0" y="0">・計器選定</tspan><tspan x="0" y="20">・レイアウトプラン</tspan><tspan x="0" y="40">・土木・建築設備</tspan><tspan x="0" y="60">・環境・公害対策設備</tspan><tspan x="0" y="80">・情報処理設備</tspan><tspan x="0" y="100">・安全対策</tspan></text></g></g><g font-weight="500"><text transform="translate(304.5 2646)" fill="#0073bd" font-size="12" font-family="Yu Gothic, YuGothic"><tspan x="0" y="0">基本設計図書</tspan><tspan x="0" y="24">の作成協力</tspan></text><text transform="translate(300 2699)" font-size="10" font-family="YuGo-Medium, YuGothic"><tspan x="0" y="0">・機器計画</tspan><tspan x="0" y="20">・配管計画</tspan><tspan x="0" y="40">・土木・建築設計</tspan><tspan x="0" y="60">・計装設備計画</tspan><tspan x="0" y="80">・電気設備計画</tspan><tspan x="0" y="100">・特殊設備計画</tspan><tspan x="0" y="120">・工程表</tspan><tspan x="0" y="140">・概算見積</tspan></text></g><g font-weight="500"><text transform="translate(303 2933)" fill="#0073bd" font-size="12" font-family="Yu Gothic, YuGothic"><tspan x="0" y="0">詳細設計</tspan><tspan x="0" y="24">図書の作成</tspan></text><text transform="translate(296 3177)" fill="#0073bd" font-size="12" font-family="Yu Gothic, YuGothic"><tspan x="0" y="0">調達計画および</tspan><tspan x="0" y="24">仕様書作成</tspan></text><text transform="translate(296.001 2986)" font-size="10" font-family="YuGo-Medium, YuGothic"><tspan x="0" y="0">・詳細設計</tspan><tspan x="0" y="20"> - 機器設計</tspan><tspan x="0" y="40"> - 配管設計</tspan><tspan x="0" y="60"> - 電気設計</tspan><tspan x="0" y="80"> - 計装設計</tspan><tspan x="0" y="100"> - 保温(冷)設計</tspan><tspan x="0" y="120"> - 土木設計</tspan><tspan x="0" y="140"> - 建築設計</tspan><tspan x="0" y="160">･ 詳細見積</tspan></text></g><text transform="translate(310 3293)" fill="#0073bd" font-size="10" font-family="Yu Gothic, YuGothic" font-weight="500"><tspan x="0" y="0">資機材の調達</tspan><tspan x="0" y="24">土木・建築工事</tspan><tspan x="0" y="48">機器製作</tspan><tspan x="0" y="72">機器設置工事</tspan><tspan x="0" y="96">機器設置工事</tspan><tspan x="0" y="120">配管工事</tspan><tspan x="0" y="144">電気・計装工事</tspan><tspan x="0" y="168">断熱工事</tspan></text><text transform="translate(310 3582)" fill="#0073bd" font-size="10" font-family="Yu Gothic, YuGothic" font-weight="500"><tspan x="0" y="0">試運転・調整</tspan><tspan x="0" y="24">完成・引き渡し</tspan></text><text transform="translate(300 3729)" fill="#0073bd" font-size="10" font-family="Yu Gothic, YuGothic" font-weight="500"><tspan x="0" y="0">メンテナンス契約</tspan><tspan x="0" y="24">メンテナンス実施</tspan></text><path d="M194.5 3850l-59.5-38h119z" fill="#e3eff6"/></g></svg>