<svg xmlns="http://www.w3.org/2000/svg" width="21" height="23.705" viewBox="0 0 21 23.705"><path d="M14.975 16.061a12.315 12.315 0 00-2.378.209 10.213 10.213 0 01-1.429-1.8c1.173-3.192.43-4.1-.57-4.1-.785 0-1.177.784-1.09 1.651a7.884 7.884 0 00.915 2.223 24.461 24.461 0 01-1.343 2.871 12.45 12.45 0 00-1.511.536c-1.874.825-2.024 1.926-1.634 2.393.74.886 2.318.122 3.9-2.557 1.084-.292 2.509-.68 2.638-.68a.22.22 0 01.059.012 6.113 6.113 0 002.491 1.513c1.111.145 1.743-.618 1.7-1.092s-.341-1.099-1.748-1.179zm-7.014 2.89c-.458.515-1.2 1.01-1.46.845s-.305-.639.283-1.176a5.034 5.034 0 011.721-.866c.175-.062.218 0 .218.083a4.074 4.074 0 01-.761 1.113zm2.005-6.93c-.044-.516.065-1.011.523-1.072s.676.433.5 1.237a6.331 6.331 0 01-.349 1.4c-.087.062-.174-.145-.174-.145a4.112 4.112 0 01-.499-1.421zm.174 4.847c.239-.372.85-1.877.85-1.877.131.227 1.154 1.381 1.154 1.381s-1.568.33-2.003.495zm4.749.659a5.911 5.911 0 01-1.764-.825 5.518 5.518 0 011.743-.206c.676.041.915.31.915.578s-.238.535-.893.452z" fill="#fff"/><path d="M20.547 4.985L15.734.431 15.278 0H4.823a4.1 4.1 0 00-4.2 3.977v.3H.001v4.761h.622v10.69a4.1 4.1 0 004.2 3.977h11.975a4.1 4.1 0 004.2-3.977V5.416zm-3.749 17.247H4.823a2.578 2.578 0 01-2.646-2.5V9.038h7.7V4.281h-7.7v-.3a2.578 2.578 0 012.646-2.5h9.438v2.811a2.149 2.149 0 002.205 2.086h2.981v13.35a2.578 2.578 0 01-2.649 2.504zM2.286 7.69v-2.2a.073.073 0 01.075-.071H3.1a.96.96 0 01.334.056.8.8 0 01.259.154.652.652 0 01.168.237.741.741 0 01.058.291.732.732 0 01-.058.293.678.678 0 01-.167.234.769.769 0 01-.26.154.978.978 0 01-.334.054h-.312v.8a.073.073 0 01-.075.071H2.36a.073.073 0 01-.074-.073zm2.279 0v-2.2a.073.073 0 01.075-.071h.817a1.055 1.055 0 01.407.073.836.836 0 01.31.232.678.678 0 01.109.181 1.019 1.019 0 01.058.2 1.63 1.63 0 01.022.23v.504a1.645 1.645 0 01-.022.23 1.014 1.014 0 01-.058.2.676.676 0 01-.109.181.827.827 0 01-.311.232 1.048 1.048 0 01-.407.073h-.817a.073.073 0 01-.073-.065zm3.893-1.3a.073.073 0 01.075.071v.3a.073.073 0 01-.075.071h-.892v.86a.073.073 0 01-.075.071h-.353a.073.073 0 01-.075-.071v-2.2a.073.073 0 01.075-.071h1.353a.073.073 0 01.075.071v.3a.073.073 0 01-.075.071h-.926v.53h.892z" fill="#fff"/><path d="M3.315 6.374a.317.317 0 000-.438.368.368 0 00-.248-.077h-.291v.592h.291a.368.368 0 00.248-.077zm2.298.914a.343.343 0 00.231-.3 4.161 4.161 0 000-.79.342.342 0 00-.231-.3.576.576 0 00-.2-.031h-.349v1.461h.349a.581.581 0 00.2-.04z" fill="#fff"/></svg>