<svg xmlns="http://www.w3.org/2000/svg" width="798" height="517.604" viewBox="0 0 798 517.604"><defs><clipPath id="a"><path data-name="長方形 2809" fill="none" d="M0 0h315.878v300H0z"/></clipPath></defs><g data-name="グループ 3443"><path data-name="合体 16" d="M394.798 60.968a10 10 0 01-10 10h-32.6l1.921 14.238c.122.914-.385 1.087-.971.333l-11.309-14.571h-38.774a10 10 0 01-10-10v-21.78a10 10 0 0110-10h81.733a10 10 0 0110 10z" fill="#e8e8e8" opacity=".996"/><text data-name="n=201" transform="translate(446.37 421.125)" font-size="19" font-family="Helvetica"><tspan x="0" y="0">n=201</tspan></text><text transform="translate(313.724 58.344)" font-size="19" font-family="HiraginoSans-W3, Hiragino Sans"><tspan x="0" y="0">その他</tspan></text><g data-name="グループ 3442"><g data-name="グループ 3441" clip-path="url(#a)" transform="translate(228.538 91.218)"><path data-name="パス 902" d="M158.221 149.826l-59-138.915a158.149 158.149 0 0159-10.912z" fill="#e8e8e8"/><path data-name="パス 903" d="M158.221 149.826L14.327 88.884C31.452 52.3 60.174 25.911 99.217 10.911z" fill="#95e0bb"/><path data-name="パス 904" d="M158.221 149.826L39.346 248.122c-41.49-45.4-50.74-104.28-25.018-159.236z" fill="#50ae82"/><path data-name="パス 905" d="M158.22 149.826L222.285 286.7c-64.212 27.193-136.827 11.881-182.941-38.579z" fill="#ce417e"/><path data-name="パス 906" d="M158.226 149.824l155.113-26.016c12.811 69.1-23.66 134.352-91.053 162.892z" fill="#3585b2"/><path data-name="パス 907" d="M158.226 149.826V-.001c77.249 0 141.7 51.448 155.118 123.81z" fill="#005ba3"/></g></g><path data-name="合体 11" d="M561.614 403.136a10 10 0 01-10-10v-118.4l-24.157-16.932a1.973 1.973 0 01.942-3.588l23.216-3.268v-4.812a10 10 0 0110-10h226.384a10 10 0 0110 10v147a10 10 0 01-10 10z" fill="#e0ecf3" opacity=".997"/><g data-name="グループ 3437" font-family="HiraginoSans-W3, Hiragino Sans"><text data-name="製造時の欠陥・損傷" transform="translate(582.151 273.138)" font-size="19"><tspan x="0" y="0">製造時の欠陥・損傷</tspan></text><text data-name="・溶接欠陥 ・低温割れ ・高温割れ ・鍛造欠陥" transform="translate(582.151 307.138)" font-size="17"><tspan x="0" y="0">・溶接欠陥</tspan><tspan x="0" y="24">・低温割れ</tspan><tspan x="0" y="48">・高温割れ</tspan><tspan x="0" y="72">・鍛造欠陥</tspan></text></g><path data-name="合体 12" d="M543.462 176.188a10 10 0 01-10-10v-3.04l-23.215-2.877c-1.859-.23-2.453-2.225-.941-3.157l24.157-14.906V39.188a10 10 0 0110-10h226.384a10 10 0 0110 10v127a10 10 0 01-10 10z" fill="#c8daea"/><g data-name="グループ 3436" font-family="HiraginoSans-W3, Hiragino Sans"><text transform="translate(567.155 69.188)" font-size="19"><tspan x="0" y="0">環境助長割れ</tspan></text><text data-name="・応力腐食割れ(SCC) ・苛性ぜい化割れ ・水素ぜい化割れ" transform="translate(567.155 103.188)" font-size="17"><tspan x="0" y="0">・応力腐食割れ</tspan><tspan y="0" font-family="Helvetica">(SCC)</tspan><tspan x="0" y="24">・苛性ぜい化割れ</tspan><tspan x="0" y="48">・水素ぜい化割れ</tspan></text></g><path data-name="合体 13" d="M324.064 355.373l-7.622 15.23h8.873a10 10 0 0110 10v127a10 10 0 01-10 10H9.999a10 10 0 01-10-10v-127a10 10 0 0110-10h281.658l29.178-16.967a3.59 3.59 0 011.78-.526c1.29.001 2.113.937 1.449 2.263z" fill="#f6d9e6"/><g data-name="グループ 3440" font-family="HiraginoSans-W3, Hiragino Sans"><text data-name="全面腐食・局部腐食" transform="translate(23.164 411.111)" font-size="19"><tspan x="0" y="0">全面腐食・局部腐食</tspan></text><text data-name="・粒界腐食 ・すき間腐食 ・孔食" transform="translate(23.164 445.111)" font-size="17"><tspan x="0" y="0">・粒界腐食</tspan><tspan x="0" y="24">・すき間腐食</tspan><tspan x="0" y="48">・孔食</tspan></text><text data-name="・微生物腐食 ・異種金属接触腐食" transform="translate(151.621 445.111)" font-size="17"><tspan x="0" y="0">・微生物腐食</tspan><tspan x="0" y="24">・異種金属接触腐食</tspan></text></g><path data-name="合体 14" d="M211.402 203.147a10 10 0 0110 10v46.362l20.069 2.728a1.634 1.634 0 01.814 2.993l-20.882 14.134v53.159a10 10 0 01-10 10H18.426a10 10 0 01-10-10V213.147a10 10 0 0110-10z" fill="#dff0e8"/><g data-name="グループ 3439" font-family="HiraginoSans-W3, Hiragino Sans"><text transform="translate(35.727 239.147)" font-size="19"><tspan x="0" y="0">疲労</tspan></text><text data-name="・低サイクル疲労 ・高サイクル疲労 ・熱疲労" transform="translate(35.727 273.147)" font-size="17"><tspan x="0" y="0">・低サイクル疲労</tspan><tspan x="0" y="24">・高サイクル疲労</tspan><tspan x="0" y="48">・熱疲労</tspan></text></g><path data-name="合体 15" d="M239.344 0a10 10 0 0110 10v122.46l16.416 15.517c1.111 1.049.673 3.294-.691 3.552l-15.725 2.984v.864a10 10 0 01-10 10H78.377a10 10 0 01-10-10V10a10 10 0 0110-10z" fill="#cdfce6"/><g data-name="グループ 3438" font-family="HiraginoSans-W3, Hiragino Sans"><text transform="translate(96.617 37.188)" font-size="19"><tspan x="0" y="0">高温損傷</tspan></text><text data-name="・σ相ぜい化 ・クリープ損傷 ・再熱割れ ・浸炭" transform="translate(96.617 71.188)" font-size="17"><tspan x="0" y="0">・</tspan><tspan y="0" font-family="Helvetica">σ</tspan><tspan y="0">相ぜい化</tspan><tspan x="0" y="24">・クリープ損傷</tspan><tspan x="0" y="48">・再熱割れ</tspan><tspan x="0" y="72">・浸炭</tspan></text></g></g></svg>