<svg xmlns="http://www.w3.org/2000/svg" width="19.793" height="23.606" viewBox="0 0 19.793 23.606"><g fill="#c42811"><path d="M14.127 15.962a11.048 11.048 0 00-2.25.209 10.146 10.146 0 01-1.353-1.8c1.11-3.192.407-4.1-.539-4.1-.743 0-1.114.784-1.032 1.651a8.146 8.146 0 00.866 2.223 25.126 25.126 0 01-1.271 2.871 11.375 11.375 0 00-1.43.536c-1.773.825-1.916 1.926-1.547 2.393.7.886 2.193.122 3.691-2.557 1.026-.292 2.375-.68 2.5-.68a.2.2 0 01.056.012 5.734 5.734 0 002.357 1.513 1.3 1.3 0 001.609-1.092c-.045-.476-.322-1.099-1.657-1.179zm-6.638 2.89c-.433.515-1.134 1.01-1.382.845s-.289-.639.268-1.176a4.663 4.663 0 011.629-.866c.166-.062.207 0 .207.083a4.1 4.1 0 01-.722 1.113zm1.9-6.93c-.041-.516.061-1.011.495-1.072s.639.433.475 1.237a6.619 6.619 0 01-.33 1.4c-.083.062-.164-.145-.164-.145a4.265 4.265 0 01-.478-1.421zm.165 4.847c.226-.372.8-1.877.8-1.877.124.227 1.093 1.381 1.093 1.381s-1.483.33-1.895.495zm4.495.659a5.474 5.474 0 01-1.67-.825 4.962 4.962 0 011.65-.206c.64.041.866.31.866.578s-.229.535-.848.452z"/><path d="M19.363 4.964L14.829.429 14.4 0H4.547A3.964 3.964 0 00.588 3.96v.3H.002V9h.586v10.646a3.964 3.964 0 003.959 3.96h11.285a3.964 3.964 0 003.96-3.96V5.393zm-3.531 17.175H4.547a2.493 2.493 0 01-2.5-2.493V9H9.3V4.263H2.047v-.3a2.494 2.494 0 012.5-2.497h8.9v2.808a2.078 2.078 0 002.078 2.078h2.802v13.293a2.494 2.494 0 01-2.495 2.494zM2.155 7.657V5.465a.07.07 0 01.07-.07h.7a.861.861 0 01.315.056.748.748 0 01.244.153.65.65 0 01.158.236.774.774 0 01.055.29.765.765 0 01-.055.292.676.676 0 01-.158.233.718.718 0 01-.245.153.877.877 0 01-.315.054H2.63v.795a.07.07 0 01-.07.07h-.332a.07.07 0 01-.073-.07zm2.148 0V5.465a.07.07 0 01.07-.07h.77a.947.947 0 01.384.072.793.793 0 01.293.231.684.684 0 01.1.181 1.059 1.059 0 01.055.2 1.712 1.712 0 01.021.229v.502a1.727 1.727 0 01-.021.229 1.054 1.054 0 01-.055.2.682.682 0 01-.1.18.784.784 0 01-.293.231.941.941 0 01-.384.072h-.77a.07.07 0 01-.07-.065zm3.669-1.3a.07.07 0 01.07.07v.3a.07.07 0 01-.07.07h-.841v.857a.07.07 0 01-.07.07h-.332a.07.07 0 01-.07-.07V5.465a.07.07 0 01.07-.07h1.275a.07.07 0 01.07.07v.3a.07.07 0 01-.07.07h-.872v.528h.841z"/><path d="M3.14 6.349a.33.33 0 000-.438.336.336 0 00-.235-.077H2.63v.592h.275a.336.336 0 00.235-.077zm2.151.913a.34.34 0 00.137-.1.371.371 0 00.082-.208 4.392 4.392 0 000-.79.372.372 0 00-.081-.208.343.343 0 00-.137-.1.519.519 0 00-.186-.031h-.33v1.461h.33a.523.523 0 00.185-.024z"/></g></svg>