<svg xmlns="http://www.w3.org/2000/svg" viewBox="0 0 43 56"><path d="M30.5 0h-29C.7 0 0 .7 0 1.9V55c0 .3.7 1 1.5 1h40.1c.8 0 1.5-.7 1.5-1V13c0-.7-.1-.9-.3-1.1L31.1.3c-.2-.2-.4-.3-.6-.3z" fill="#e8edf0"/><path d="M31.1.2V10c0 1.1.9 2 2 2h9.8L31.1.2z" fill="#cfdbe7"/><path d="M11.2 34.5c-.4 0-.7-.1-1-.4-1.1-.8-1.3-1.8-1.2-2.4.2-1.8 2.4-3.6 6.5-5.5 1.6-3.6 3.2-8 4.1-11.6-1.1-2.4-2.1-5.4-1.4-7.2.3-.6.6-1.1 1.2-1.3.2-.1.9-.2 1.1-.2.5 0 1 .7 1.4 1.1.3.4 1 1.3-.4 7.4 1.5 3 3.5 6.1 5.5 8.2 1.4-.3 2.6-.4 3.6-.4 1.7 0 2.7.4 3.1 1.2.3.7.2 1.5-.4 2.3-.6.8-1.4 1.3-2.4 1.3-1.3 0-2.9-.8-4.6-2.5-3.1.6-6.7 1.8-9.6 3.1-.9 1.9-1.8 3.5-2.6 4.6-1 1.6-1.9 2.3-2.9 2.3zm2.9-5.5c-2.3 1.3-3.3 2.4-3.3 3 0 .1 0 .4.5.7.1-.1 1.1-.5 2.8-3.7zm14.8-4.8c.9.7 1.1 1 1.7 1 .3 0 1 0 1.3-.5.2-.2.2-.4.2-.4-.1-.1-.3-.3-1.3-.3-.5 0-1.2.1-1.9.2zM20.8 17c-.8 2.7-1.8 5.6-2.9 8.2 2.3-.9 4.7-1.6 7-2.2-1.4-1.7-2.9-3.8-4.1-6zm-.7-9.1c-.1 0-1.4 1.9.1 3.5 1.1-2.3 0-3.6-.1-3.5zM41.5 56h-40C.7 56 0 55.3 0 54.5V39h43v15.5c0 .8-.7 1.5-1.5 1.5z" fill="#fb2132"/><path d="M13.1 49.3h-1.9V53h-2V43h3.9c2.1 0 3.3 1.4 3.3 3.1 0 1.8-1.3 3.2-3.3 3.2zm-.1-4.5h-1.8v2.7H13c.9 0 1.4-.5 1.4-1.4s-.6-1.3-1.4-1.3zm11.2 7.3c-.7.7-1.6 1-2.6 1H18v-10h3.6c1 0 2 .3 2.6 1 1.1 1.1 1 2.5 1 4 0 1.4.2 2.9-1 4zm-1.3-6.7c-.3-.4-.8-.6-1.5-.6h-1.5v6.5h1.5c.7 0 1.1-.2 1.5-.6.4-.4.4-1.2.4-2.7 0-1.5-.1-2.1-.4-2.6zm6.3-.6v2.5h3.9V49h-3.9v4h-1.9V43h6.6v1.7h-4.7z" fill="#fff"/></svg>