<svg version="1.1" id="レイヤー_1" xmlns="http://www.w3.org/2000/svg" x="0" y="0" viewBox="0 0 143 32.8" xml:space="preserve"><style>.st0{fill:#276fb7}</style><path class="st0" d="M51.6 14.2c-2.7 5.8-4.9 11.6-7.3 17.5-.3.8-.8 1.1-1.6 1.1-1.2-.1-2.3 0-3.7 0 4.2-10.4 8.6-20.6 12.8-31C52.2.5 52.8 0 54 .1h3.3c-1.8 4.5-3.6 8.6-5.3 12.8.1.1.2.1.2.2C57.1 9.2 61.8 4.9 66.6.9c.4-.4 1.1-.6 1.6-.6 1.7-.1 3.4 0 5.5 0C68.1 5.2 63 9.7 57.4 14.5c-.4.4-.8.7-.5 1.3 1.5 3.8 3 7.7 4.5 11.6.1.1.2.2.4.5 1.9-2.3 3.6-4.8 5.4-7.2.4-.6.9-.8 1.6-.8 1.4.1 2.8 0 4.5 0-3.1 4.2-5.8 8-8.9 12-.3.4-.9.7-1.4.7-1.4.1-3.2.4-4.3-.2-1-.6-1.2-2.4-1.7-3.7-1.8-4.9-3.4-9.7-5.4-14.5zM89 32.3c4.1-10.5 8.6-20.9 12.9-31.4.1-.3.6-.8.9-.8 3.6 0 7.3-.1 10.9.2 4.8.4 7.1 3.5 7.5 8.8.3 4-1.3 7.6-2.8 11.2-1.4 3.5-3.6 6.5-6.6 8.9-2.3 1.8-5 2.8-7.9 3-4.9.3-9.7.3-14.6.4-.1-.2-.2-.3-.3-.3zm6.5-4.1c.5.1.8.1 1.1.1 5.7.3 11.1-.4 14.9-5.2 2.5-3.2 4.1-6.9 4.9-10.8.3-1.5.2-3.2-.1-4.8-.4-2.1-1.8-3.4-4-3.6-1.8-.2-3.5-.1-5.3-.2-1.1-.1-1.7.3-2.1 1.4-3.1 7.8-6.4 15.3-9.4 23.1zM12 4.2H1.7C2.3 2.8 2.8 1.6 3.3.4c.1-.2.5-.3.7-.3h22.8c.1 0 .1.1.4.2-.5 1.2-1 2.5-1.6 3.7-.1.2-.7.3-1 .3-2.2 0-4.5.1-6.7 0-.9 0-1.4.3-1.7 1.1C12.7 13.9 9.1 22.5 5.5 31c-.9 2-.5 1.7-2.7 1.7H0c4-9.6 7.9-18.9 12-28.5z"/><path class="st0" d="M83.1 7c-2.2 2.5-4.1 5.2-6.1 7.8-.5.6-1 .9-1.7.8-1.3 0-2.6.1-4.1.2 3.7-5.1 7.4-9.9 11-14.9.3-.6.8-.9 1.5-.9 1 .1 2.1.1 3.1 0S88 .3 88 1.2v30.2c0 .9-.2 1.3-1.1 1.2-1.1-.1-2.6.3-3.3-.3-.6-.5-.2-2.1-.2-3.2v-22c-.1-.1-.2-.1-.3-.1zm-49.7.2c-2 2.6-3.9 5.3-5.9 7.8-.3.4-.9.7-1.4.7-1.3.1-2.7 0-4.2 0 3.7-5.1 7.3-9.8 11-14.8.5-.6.9-.9 1.7-.9 1 .1 2 0 3 0 .7 0 .9.2.9.9v30.3c0 1.1-.3 1.5-1.4 1.5-3.3 0-3.3 0-3.3-3.3V7.2c-.1.1-.2 0-.4 0zm93.1 8.3c3.6-4.9 7.2-9.7 10.8-14.6.5-.6.9-.9 1.7-.9.9.1 1.8.1 2.8 0 .9-.1 1.2.3 1.2 1.2v29.9c0 1.2-.3 1.5-1.5 1.5-3.1-.1-3.1 0-3.1-3.1-.1-7.7.1-15.2-.1-22.9-2.3 2.7-4 5.3-6.1 8-.5.6-1 .9-1.8.9-1.3 0-2.5.1-3.8.2 0 0 0-.1-.1-.2zM9.1 32.7c3.1-4.3 5.8-7.9 8.8-11.9.4-.6.9-.9 1.7-.9 1.3.1 2.7 0 4.3 0-2.9 4.1-5.8 7.9-8.7 12-.5.6-1 .9-1.7.9-1.4-.1-2.8-.1-4.4-.1zm119.3-12.8c-3.1 4.1-5.7 7.9-8.8 11.9-.3.4-1 .8-1.6.8-1.4.1-2.7 0-4.4 0 3-4.1 5.8-7.9 8.8-11.9.4-.6.9-.8 1.6-.8h4.4z"/></svg>