<svg version="1.1" id="レイヤー_1" xmlns="http://www.w3.org/2000/svg" x="0" y="0" viewBox="0 0 1366 311" xml:space="preserve"><style>.st0{fill:#fff}.st1{opacity:.4}.st1,.st2,.st3,.st4,.st5{fill:#fff;enable-background:new}.st2{opacity:.6}.st3{opacity:.502}.st4{opacity:.302}.st5{opacity:.8}</style><path class="st0" d="M1385.1 128.5l.8-.6 25.6 19.6-.8.6-25.6-19.6zM72.1 283.1l.4-.8 50.7 5-.4.8-50.7-5zm43.3 29.4l.5-.8L244 334.4l-.5.8-128.1-22.7z"/><path class="st0" d="M122.5 284l1 .3-11 29-1-.3 11-29z"/><path class="st1" d="M123.9 283.3l.9.5-78.6 97.4-.9-.5 78.6-97.4z"/><path class="st2" d="M1412.4 145.9l.5.8-84.8 35.3-.5-.8 84.8-35.3z"/><path class="st1" d="M1327.1 182.7l.9-.4 46.4 69.4-.9.4-46.4-69.4z"/><path class="st0" d="M1374.6 247.8l-.7-.6 41-30.9.7.6-41 30.9z"/><path class="st2" d="M1373 249.8l-1-.1 16.4-93.2 1 .1-16.4 93.2z"/><path class="st1" d="M1379.3 200.9l.7.7-65.8 44.6-.7-.7 65.8-44.6z"/><path class="st0" d="M1389.3 156.6h-1.1l-1.8-26.3h1.1l1.8 26.3z"/><path class="st0" d="M1386.6 130l.8.6-61.7 52.6-.8-.6 61.7-52.6z"/><path class="st0" d="M1325.8 182.7l-1 .3-34.6-65.2 1-.3 34.6 65.2z"/><path class="st0" d="M1290.6 118.2l.2-.9 96.1 13.4-.2.9-96.1-13.4zm34.7 63l1 .1-10.7 63.9-1-.1 10.7-63.9zm-9.8 64.1h1.1l-3.3 50.3h-1.1l3.3-50.3z"/><path class="st3" d="M1313.1 295.9l-.7-.6 61.7-49 .7.6-61.7 49z"/><path class="st0" d="M1318.6 244.5l.1-.9 55.6 3.4-.1.9-55.6-3.4zm-2.1-.4l-.3.8-100.4-24.2.3-.8 100.4 24.2z"/><path class="st0" d="M1216.2 220.7l-.6-.7 49.2-25.7.6.7-49.2 25.7z"/><path class="st3" d="M1264.8 196l.1-.9 116.1 5-.1.9-116.1-5z"/><path class="st0" d="M1289.1 117.4l1 .2L1263 196l-1-.2 27.1-78.4z"/><path class="st1" d="M1263 195.8l-.9.4-30.8-45.6.9-.4 30.8 45.6z"/><path class="st0" d="M1232.1 150.7l-.6-.7 57.9-32.8.6.7-57.9 32.8zm70.2-18.5l.3.8-72.2 19.2-.3-.8 72.2-19.2z"/><path class="st0" d="M1386.7 130.7v.9l-87.6 1.7v-.9l87.6-1.7z"/><path class="st3" d="M1388.8 130.4l.6.7-125 63.7-.6-.7 125-63.7z"/><path class="st0" d="M1408.8 150l1 .3-37.1 100.5-1-.3 37.1-100.5zm-178.4.5l.2.8-79.2 13.3-.2-.8 79.2-13.3z"/><path class="st3" d="M1150.9 164.5l.8-.6 68.4 57.8-.8.6-68.4-57.8z"/><path class="st2" d="M1314.9 244.7l.3.8-99.1 21.7-.3-.8 99.1-21.7z"/><path class="st2" d="M1215.9 266.4v.9l-116.1 2.1v-.9l116.1-2.1z"/><path class="st0" d="M1220.2 221.8l-.9.5-73.3-84.7.9-.5 73.3 84.7z"/><path class="st3" d="M1146.7 138.4h1.1l-1.5 101.6h-1.1l1.5-101.6zm.6 103.2l.5-.8 72 24.6-.5.8-72-24.6z"/><path class="st0" d="M1219.3 266.2l.4-.8 92.8 27.9-.4.8-92.8-27.9z"/><path class="st0" d="M1219.4 264.6l.7.7-90.7 58.3-.7-.7 90.7-58.3z"/><path class="st0" d="M1129.6 323.3l-1-.1 17.9-83.9 1 .1-17.9 83.9z"/><path class="st1" d="M1132.6 323.7l-1 .4-47.7-83 1-.4 47.7 83z"/><path class="st0" d="M1083.9 240.8l-.9-.5 65.6-75.9.9.5-65.6 75.9z"/><path class="st2" d="M1154 162.6l-.3.8-116.6-28.4.3-.8 116.6 28.4z"/><path class="st0" d="M1037.3 135l.1-.9 111.4 5.9-.1.9-111.4-5.9zm111.4 5.9l.2-.9 84.8 11.1-.2.9-84.8-11.1z"/><path class="st1" d="M1041 134.1l-.7.7L945.5 67l.7-.7 94.8 67.8z"/><path class="st1" d="M945.3 66.7l1.1-.1 6.4 68.3-1.1.1-6.4-68.3z"/><path class="st3" d="M952.1 135.5l.4-.8 98.1 31.7-.4.8-98.1-31.7z"/><path class="st2" d="M1050.6 167.2l-.4-.8 99.1-28.8.4.8-99.1 28.8z"/><path class="st0" d="M1149.2 137.6l.6.7-80.2 48.8-.6-.7 80.2-48.8z"/><path class="st3" d="M1069 186.4l.6.7-88.9 48.8-.6-.7 88.9-48.8z"/><path class="st0" d="M980 235.8l.9-.5 59.7 68.5-.9.5-59.7-68.5z"/><path class="st0" d="M1040.1 304.5l.2-.8 92.5 18.1-.2.8-92.5-18.1z"/><path class="st1" d="M1084.5 238.9l.9.5-47.9 64.4-.9-.5 47.9-64.4z"/><path class="st3" d="M1087.1 239.1l-.1.9-107.3-5 .1-.9 107.3 5z"/><path class="st1" d="M980.4 233.9l-.8-.6 70.4-66.9.8.6-70.4 66.9z"/><path class="st3" d="M978.5 234.7l.3-.8L1102 269l-.3.8-123.2-35.1z"/><path class="st0" d="M1038.4 133l1 .4-59.1 101.4-1-.4 59.1-101.4z"/><path class="st0" d="M980.1 234.3l-.9.5-46.6-54.2.9-.5 46.6 54.2z"/><path class="st1" d="M933.5 180.4l-1-.3 20.7-46.7 1 .3-20.7 46.7z"/><path class="st0" d="M953.3 133.7l1-.2 24.9 100.7-1 .2-24.9-100.7z"/><path class="st0" d="M935.4 181.1l-.5-.8 106-48 .5.8-106 48z"/><path class="st1" d="M936 182.2l-.2-.9 79.9-12.2.2.9-79.9 12.2z"/><path class="st2" d="M1015.4 169.8l.8-.5 67.7 71.1-.8.5-67.7-71.1z"/><path class="st0" d="M1013.3 170.4l.3-.8 55.3 14.9-.3.8-55.3-14.9z"/><path class="st0" d="M1068.5 185.2l.7-.7 77.6 56.1-.7.7-77.6-56.1zm78.4 55.4l-.3-.8 70.4-20.4.3.8-70.4 20.4z"/><path class="st1" d="M1147.2 240.8l.6.7-110.6 63.1-.6-.7 110.6-63.1z"/><path class="st0" d="M1036.8 303.1l.5.7-42.3 20.8-.5-.7 42.3-20.8z"/><path class="st0" d="M995.4 324.2l-1 .1-16.2-90 1-.1 16.2 90z"/><path class="st0" d="M994.3 322.9l-.5.8-101.7-41.4.5-.8 101.7 41.4z"/><path class="st4" d="M892.6 282.2l-.6-.7 91.4-46.5.6.7-91.4 46.5z"/><path class="st1" d="M830 95l1-.2 64.6 188.4-1 .2L830 95z"/><path class="st0" d="M897 282.8l-1-.2 36-100.8 1 .2-36 100.8z"/><path class="st0" d="M932.3 181.6l.4.8-85.8 31.6-.4-.8 85.8-31.6zm-81.6 31.6l.8.5-68.1 66.5-.8-.5 68.1-66.5z"/><path class="st3" d="M891.3 140.3l.9.4-40.4 72.1-.9-.4 40.4-72.1z"/><path class="st1" d="M831.3 94.8l.6.7-89.9 48.6-.6-.7 89.9-48.6z"/><path class="st4" d="M741 145.8l.2-.8 192.4 36.8-.2.8L741 145.8z"/><path class="st0" d="M830 94.8l1 .2-47.6 185.1-1-.2L830 94.8z"/><path class="st1" d="M408.4 262.6l.1-.9L589.1 280l-.1.9-180.6-18.3z"/><path class="st4" d="M476.4 319.8l.9.5-82.2 98.4-.9-.5 82.2-98.4z"/><path class="st3" d="M390.5 418.1l-.5.8-275.4-107.5.5-.8 275.4 107.5z"/><path class="st1" d="M69.9 282.6l.7-.7 42.8 27.5-.7.7-42.8-27.5z"/><path class="st3" d="M111.6 311.7l-.2-.8 168-40.6.2.8-168 40.6z"/><path class="st0" d="M5 285.4l.3-.8 106.3 26.3-.3.8L5 285.4zM832 94.7l-.3-.8L944.4 67l.3.8L832 94.7z"/><path class="st0" d="M944.3 66.3l.9.4-52.7 73.2-.9-.4 52.7-73.2zM783 280.4v-.9l113 .8v.9l-113-.8z"/><path class="st3" d="M784.5 280.1l-1 .3-36.2-88.7 1-.3 36.2 88.7z"/><path class="st1" d="M747.3 191.2l-1 .1-5.1-47.5 1.1-.1 5 47.5z"/><path class="st0" d="M741.3 144.1l.7-.7 65.3 42.9-.7.7-65.3-42.9zm65.4 42.9l.6-.7 43.6 25-.6.7-43.6-25z"/><path class="st0" d="M850.1 211.8l.9-.4 45.6 71.9-.9.4-45.6-71.9zm45.3-71.9l-.1-.9 57.9-4.2.1.9-57.9 4.2zm-4 .9l.8-.5 39.5 42-.8.5-39.5-42z"/><path class="st3" d="M894.2 140.6l-.7.7-65.3-46.5.7-.7 65.3 46.5z"/><path class="st0" d="M746.1 190.6l-.1-.9 61.5-5.3.1.9-61.5 5.3z"/><path class="st0" d="M807.5 185.4v-.9l50.2-.4v.9l-50.2.4zm50.2-.5v-.9l74.6-1.7v.9l-74.6 1.7z"/><path class="st3" d="M747.9 189.6l.9.4-59.1 87.1-.9-.4 59.1-87.1z"/><path class="st2" d="M688.9 278.9l-.5-.8 160.3-65.4.5.8-160.3 65.4z"/><path class="st0" d="M696.3 264.4l.2-.9 87.9 15.3-.2.8-87.9-15.2z"/><path class="st0" d="M783.9 279l.6.7-80.9 47.8-.6-.7 80.9-47.8z"/><path class="st3" d="M703.8 327l-1 .2-15.6-52.4 1-.2 15.6 52.4z"/><path class="st0" d="M688.1 274.5l-.9.5-40.8-48.6.9-.5 40.8 48.6z"/><path class="st1" d="M646.8 225.7l.7-.6 51.5 38.3-.7.6-51.5-38.3z"/><path class="st1" d="M646.1 226.4l-.4-.8 103.2-35.1.4.8-103.2 35.1z"/><path class="st0" d="M741.8 145.3l.8.6-96.8 82-.8-.6 96.8-82z"/><path class="st0" d="M644.8 227.6h1.1l-2.5 72.8h-1.1l2.5-72.8z"/><path class="st1" d="M643.1 300.8l-.5-.7 47.4-23.4.5.7-47.4 23.4z"/><path class="st0" d="M689.8 276.8l.9.5-55.1 70-.9-.5 55.1-70z"/><path class="st3" d="M635.6 347.4l-.8-.6 168.8-161.1.8.6-168.8 161.1z"/><path class="st1" d="M346.5 337.5l-.1-.9 65.1-2.7.1.9-65.1 2.7z"/><path class="st0" d="M633.8 349l-.4-.8 69.9-22.3.4.8-69.9 22.3zm9.3-49.9l.5-.8 62.5 27.1-.5.8-62.5-27.1z"/><path class="st1" d="M643 298.4l.7.7-64.3 43.1-.7-.7 64.3-43.1z"/><path class="st0" d="M634.3 348.5l.7.6-59.4 45-.7-.6 59.4-45z"/><path class="st1" d="M575.8 393.8h-1.1l2.8-52.1h1.1l-2.8 52.1zm654.4-243.7l1 .1-14.3 115-1.1-.1 14.4-115zm33.7 43.8l.8-.6 54.1 51.3-.8.6-54.1-51.3z"/><path class="st0" d="M578.6 341.7l-1-.1 11.5-62.9 1 .1-11.5 62.9z"/><path class="st2" d="M589.9 279.1l-.8-.6 59.4-52.2.8.6-59.4 52.2z"/><path class="st0" d="M649 226.2l-.2.9-95.6-11.5.2-.9 95.6 11.5z"/><path class="st0" d="M552.9 214.9l1 .2-28.2 78.2-1-.2 28.2-78.2z"/><path class="st3" d="M524.8 293.6l.8-.6 55.4 50.7-.8.6-55.4-50.7z"/><path class="st1" d="M578.9 341.4l.3.8-99.9 24.2-.3-.8 99.9-24.2z"/><path class="st3" d="M577.2 341l.1-.9 57.1 5.5-.1.9-57.1-5.5z"/><path class="st0" d="M634.7 345.7l-.5.7-108.9-53.6.5-.7 108.9 53.6z"/><path class="st5" d="M980.3 235.1l.3.8-197.2 43.6-.3-.8 197.2-43.6z"/><path class="st0" d="M479.2 365.6l.3-.8 97.4 27.1-.3.8-97.4-27.1z"/><path class="st3" d="M589.3 278.1l.9-.4 44.9 70.9-.9.4-44.9-70.9z"/><path class="st0" d="M552.7 216.1l1-.4 37.2 63.9-1 .4-37.2-63.9z"/><path class="st3" d="M588.8 280.9l.4-.8 58.7 18.3-.4.8-58.7-18.3z"/><path class="st2" d="M647.7 298.3l-.1.9-127.3-7.3.1-.9 127.3 7.3z"/><path class="st0" d="M525.3 291.4l1 .4-45.6 74.7-1-.4 45.6-74.7zm-45.9 74.3l-.5.8-70.2-30.5.5-.8 70.2 30.5z"/><path class="st0" d="M409.1 336l-.3-.8 72.2-15.6.3.8-72.2 15.6z"/><path class="st0" d="M481.5 320.4l-.6-.7 44.6-28.4.6.7-44.6 28.4z"/><path class="st1" d="M525.4 292.9l-.3.8-112.5-31.1.3-.8 112.5 31.1zm-112-32l-.3-.8L647.8 226l.3.8-234.7 34.1z"/><path class="st0" d="M552.6 216.4l.6.7-59.7 31.6-.6-.7 59.7-31.6z"/><path class="st0" d="M493.3 247.9l-.2.9-84.5-12 .2-.9 84.5 12z"/><path class="st3" d="M408.1 236.3h1.1l1.1 100.3h-1.1l-1.1-100.3zm-59.8 101.6l.3-.8L480 366.7l-.3.8-131.4-29.6z"/><path class="st4" d="M476.7 320.4l.3-.8 101.2 21.6-.3.8-101.2-21.6z"/><path class="st0" d="M409.2 336.6l1 .1-16.4 82.4-1-.1 16.4-82.4zm-14.8 83.9l-.6-.7 86.3-54.7.6.7-86.3 54.7z"/><path class="st0" d="M393.5 418.7l-.2.8-94.6-18.5.2-.8 94.6 18.5z"/><path class="st1" d="M298.2 400.6l-.9-.5 51.5-65.4.9.5-51.5 65.4z"/><path class="st3" d="M344.7 334.3l1-.3 47.2 84.7-1 .3-47.2-84.7z"/><path class="st0" d="M349.4 336.1l-.8-.5 60.4-73.4.8.5-60.4 73.4z"/><path class="st3" d="M414 261.1v.9l-98.4 1.3v-.9l98.4-1.3z"/><path class="st0" d="M307.9 264.3l-.3-.8 102-27.4.3.8-102 27.4z"/><path class="st3" d="M409.4 236.2l.6.7-87.9 41.9-.6-.7 87.9-41.9z"/><path class="st1" d="M212.9 232.4v-.9l90.9-1.9v.9l-90.9 1.9z"/><path d="M300.3 229.3l1 .3-21.3 41.2-1-.3 21.3-41.2z" opacity=".2" fill="#fff"/><path class="st4" d="M406.6 263.3l.6.7-165 69.9-.6-.7 165-69.9z"/><path class="st0" d="M241.5 333.8l.9-.5 58.7 68.3-.9.5-58.7-68.3z"/><path class="st1" d="M243.2 334.8l-1-.4 39.2-67.9 1 .4-39.2 67.9z"/><path class="st2" d="M279.1 269.2l-.1-.9 32-5.1.1.9-32 5.1z"/><path class="st3" d="M314 263.2l.8.5-71.7 71.1-.8-.5 71.7-71.1z"/><path class="st0" d="M242.4 334.2l.6.7-84.5 45.2-.6-.7 84.5-45.2z"/><path class="st0" d="M157.9 380.2l.5-.8 99.2 39.1-.5.8-99.2-39.1z"/><path class="st1" d="M257.1 417.8l-1 .1-13.6-87.7 1-.1 13.6 87.7z"/><path class="st0" d="M257.6 419.3l-.5-.8 42.8-18.9.5.8-42.8 18.9z"/><path d="M299 226.6l1-.3 46.2 106-1 .3-46.2-106z" opacity=".702" fill="#fff"/><path class="st3" d="M347.5 336.9v.9l-106.8-3.1v-.9l106.8 3.1z"/><path class="st0" d="M405.4 236.1l-.1.9-106.3-8.4.1-.9 106.3 8.4zm.5.9l.9-.5 70 84.9-.9.5-70-84.9z"/><path class="st1" d="M475 320.5l-1-.2 19.7-71.9 1 .2-19.7 71.9z"/><path class="st0" d="M299.6 227l-.7.7-92-62.6.7-.7 92 62.6z"/><path class="st0" d="M206.7 164.7l1.1-.1 8.2 69.6-1.1.1-8.2-69.6z"/><path class="st0" d="M215.2 234.6l.6-.7 63.5 34.5-.6.7-63.5-34.5z"/><path class="st0" d="M278.6 269l.8-.5 67.1 69.2-.8.5-67.1-69.2zm.9 1.2l.1.9-156.8 14.3-.1-.9 156.8-14.3z"/><path class="st0" d="M123.1 285.3l-.6-.7 94.5-53 .6.7-94.5 53z"/><path class="st1" d="M214.7 231.4l1 .3-22.5 49-1-.3 22.5-49zm-25 47.3l.4.8-78.1 31.3-.4-.8 78.1-31.3z"/><path class="st0" d="M111.5 309.8l.9-.4 44.9 70.9-.9.4-44.9-70.9z"/><path class="st0" d="M115.2 308.3l.8.5-67.6 71.9-.8-.5 67.6-71.9zm-69.5 70.8l-1-.2 25.3-94 1 .2-25.3 94z"/><path class="st1" d="M72.3 284.5l-1-.2 24.3-90.6 1 .2-24.3 90.6z"/><path class="st0" d="M95.2 193.9l-.3-.8 112.7-26.9.3.8-112.7 26.9z"/><path class="st3" d="M95.9 193.2l.8-.6 146.6 140.9-.8.6L95.9 193.2z"/><path class="st0" d="M70.5 282.6l-.6-.7 79.9-40.8.6.7-79.9 40.8z"/><path class="st4" d="M148.4 241.9l.9.4L123 286l-.9-.4 26.3-43.7z"/><path class="st0" d="M95 192.3l.6.7-97.1 54.3-.6-.7L95 192.3z"/><path class="st3" d="M-2 247.3l.5-.7 73.8 36.6-.5.7L-2 247.3z"/><path class="st3" d="M72 283.1l.1.9-66.4 3.4-.1-.9 66.4-3.4z"/><path class="st0" d="M6.2 286.9l-1.1.1-6.4-39.7 1.1-.1 6.4 39.7zm0 .3l1-.3 38.7 94.6-1 .3-38.7-94.6z"/><path class="st0" d="M45.6 381.3l-.3.8-59.2-13 .3-.8 59.2 13z"/><path class="st0" d="M49 379.4l.5.8L-4 402.3l-.5-.8L49 379.4zm990.7-241.6l-4.8-.3-1.1-3.9 4.1-2 3.6 2.6-1.8 3.6zm111.7 30.1l-4.8-.3-1.1-3.9 4.1-2 3.6 2.6-1.8 3.6zm-1.3-24.4l-4.8-.3-1.1-3.9 4.1-2 3.6 2.6-1.8 3.6z"/><path class="st5" d="M1085.7 242.3l-3.8-.3-.9-3.1 3.3-1.6 2.9 2.1-1.5 2.9zm16.1 29.3l-3.8-.3-.9-3.1 3.3-1.6 2.9 2.1-1.5 2.9z"/><path class="st4" d="M746.8 145.2v-.9l144-4.5v.9l-144 4.5z"/><path class="st0" d="M1131.3 323.7l-4.8-.3-1.1-3.9 4.1-2 3.6 2.6-1.8 3.6zm87.6-57.6l-3.8-.3-.9-3.1 3.3-1.6 2.9 2.1-1.5 2.9zm1.3-44.7l-3.4-.2-.8-2.7 2.9-1.4 2.5 1.8-1.2 2.5zm12.3-70.1l-2.9-.2-.6-2.3 2.5-1.2 2.2 1.6-1.2 2.1zm33.1 45.2l-2.9-.2-.6-2.3 2.5-1.2 2.2 1.6-1.2 2.1zm62.9-14.1l-2.7-.2-.6-2.2 2.3-1.1 2 1.5-1 2zm-12.5 64l-3.4-.2-.8-2.7 2.9-1.4 2.5 1.8-1.2 2.5zm1 50.1l-4.8-.3-1.1-3.9 4.1-2 3.6 2.6-1.8 3.6zm57.9-45.8l-3.8-.3-.9-3.1 3.3-1.6 2.9 2.1-1.5 2.9zm14.6-92l-3.4-.2-.8-2.7 2.9-1.4 2.5 1.8-1.2 2.5zm24.8-10.1l-2.8-.2-.6-2.2 2.4-1.2 2.1 1.5-1.1 2.1zm-28.2-14.9l-4.8-.3-1.1-3.9 4.1-2 3.6 2.6-1.8 3.6zm-94.5-13.6l-3.8-.3-.9-3.1 3.3-1.6 2.9 2.1-1.5 2.9zM947.7 71.6l-4.8-.3-1.1-3.9 4.1-2 3.6 2.6-1.8 3.6zm5.8 65.1l-2.4-.2-.5-1.9 2.1-1 1.8 1.3-1 1.8zm-20 47.6l-3.8-.3-.9-3.1 3.3-1.6 2.9 2.1-1.5 2.9z"/><path class="st0" d="M954.2 137.6l-3.8-.3-.9-3.1 3.3-1.6 2.9 2.1-1.5 2.9zm-58.1 146.8l-4.8-.3-1.1-3.9 4.1-2 3.6 2.6-1.8 3.6zm-43.4-68.7l-4.8-.3-1.1-3.9 4.1-2 3.6 2.6-1.8 3.6zm-45-27l-3.4-.2-.8-2.7 2.9-1.4 2.5 1.8-1.2 2.5zm-107.6 77.9l-4.8-.3-1.1-3.9 4.1-2 3.6 2.6-1.8 3.6zm448-23.5l-4.8-.3-1.1-3.9 4.1-2 3.6 2.6-1.8 3.6zm-107.7 61.2l-3.4-.2-.8-2.7 2.9-1.4 2.5 1.8-1.2 2.5zm32.5-116.4l-3.8-.3-.9-3.1 3.3-1.6 2.9 2.1-1.5 2.9zM894 142.3l-3.8-.3-.9-3.1 3.3-1.6 2.9 2.1-1.5 2.9zM411.4 336.5l-3.8-.3-.9-3.1 3.3-1.6 2.9 2.1-1.5 2.9zm971.9-132.7l-4.8-.3-1.1-3.9 4.1-2 3.6 2.6-1.8 3.6zM481.9 368.6l-3.4-.2-.8-2.7 2.9-1.4 2.5 1.8-1.2 2.5zm95.2 26.5l-4.8-.3-1.1-3.9 4.1-2 3.6 2.6-1.8 3.6zm-184.3 25.5l-2.9-.2-.6-2.3 2.5-1.2 2.2 1.6-1.2 2.1zM115.5 313l-4.8-.3-1.1-3.9 4.1-2 3.6 2.6-1.8 3.6zm100-78.8l-2.9-.2-.6-2.3 2.5-1.2 2.2 1.6-1.2 2.1zm-65.3 10.7l-2.9-.2-.6-2.3 2.5-1.2 2.2 1.6-1.2 2.1zm-67.9 1.3l-2.9-.2-.6-2.3 2.5-1.2 2.2 1.6-1.2 2.1zm913.4 79.2l-4.8-.3-1.1-3.9 4.1-2 3.6 2.6-1.8 3.6zm-14.1-89.6l-4.8-.3-1.1-3.9 4.1-2 3.6 2.6-1.8 3.6zm36.9-62.6l-3.8-.3-.9-3.1 3.3-1.6 2.9 2.1-1.5 2.9zm31.8-4.2l-3.8-.3-.9-3.1 3.3-1.6 2.9 2.1-1.5 2.9zM831 97.8l-3.4-.2-.8-2.7 2.9-1.4 2.5 1.8-1.2 2.5zm-47.3 182l-2.4-.2-.5-1.9 2.1-1 1.8 1.3-1 1.8zm-35.7-87l-3.8-.3-.9-3.1 3.3-1.6 2.9 2.1-1.5 2.9zm15.1 36.2l-3.8-.3-.9-3.1 3.3-1.6 2.9 2.1-1.5 2.9zm-71.9 50.4l-3.8-.3-.9-3.1 3.3-1.6 2.9 2.1-1.5 2.9z"/><path class="st4" d="M646.9 226.6v-.9l115.3.4v.9l-115.3-.4z"/><path class="st0" d="M746.4 146.5l-4.8-.3-1.1-3.9 4.1-2 3.6 2.6-1.8 3.6zm-98.5 82.1l-3.8-.3-.9-3.1 3.3-1.6 2.9 2.1-1.5 2.9zm-3.3 70.5l-3.4-.2-.8-2.7 2.9-1.4 2.5 1.8-1.2 2.5zm-53.1-17.7l-3.8-.3-.9-3.1 3.3-1.6 2.9 2.1-1.5 2.9zM704 329.2l-3.4-.2-.8-2.7 2.9-1.4 2.5 1.8-1.2 2.5zm-67.6 18.3l-3.4-.2-.8-2.7 2.9-1.4 2.5 1.8-1.2 2.5zm-57.6-3.8l-3.4-.2-.8-2.7 2.9-1.4 2.5 1.8-1.2 2.5zm-53.1-48.6l-2.9-.2-.6-2.3 2.5-1.2 2.2 1.6-1.2 2.1zm-115.8-30.9l-2.9-.2-.6-2.3 2.5-1.2 2.2 1.6-1.2 2.1zm146.4-44l-4.8-.3-1.1-3.9 4.1-2 3.6 2.6-1.8 3.6zM496.2 250l-3.4-.2-.8-2.7 2.9-1.4 2.5 1.8-1.2 2.5zm-5.6 22l-3.4-.2-.8-2.7 2.9-1.4 2.5 1.8-1.2 2.5zm-12.7 50.5l-2.4-.2-.5-1.9 2.1-1 1.8 1.3-1 1.8zm-67.1-82.1l-4.8-.4-1.1-3.9 4.1-2 3.6 2.6-1.8 3.7zM304.5 232l-4.8-.3-1.1-3.9 4.1-2 3.6 2.6-1.8 3.6zm12.8 33l-4.8-.3-1.1-3.9 4.1-2 3.6 2.6-1.8 3.6zm33.4 73.1l-3.4-.2-.8-2.7 2.9-1.4 2.5 1.8-1.2 2.5zm-50.1 63.6l-2.9-.2-.6-2.3 2.5-1.2 2.2 1.6-1.2 2.1zm-42.7 19.1l-4.8-.3-1.1-3.9 4.1-2 3.6 2.6-1.8 3.6zm-98.5-40.6l-3.4-.2-.8-2.7 2.9-1.4 2.5 1.8-1.2 2.5zm86.2-44.2l-3.1-.2-.7-2.5 2.6-1.3 2.3 1.7-1.1 2.3zM123 288.7l-3.4-.2-.8-2.7 2.9-1.4 2.5 1.8-1.2 2.5zM72.5 284l-3.8-.3-.9-3.1 3.3-1.6 2.9 2.1-1.5 2.9zm-64.8 4.3l-3.4-.2-.8-2.7 2.9-1.4 2.5 1.8-1.2 2.5zM47.5 382l-2.9-.2-.6-2.3 2.5-1.2 2.2 1.6-1.2 2.1zM1.8 248.1l-3.8-.3-.9-3.1 3.3-1.6 2.9 2.1-1.5 2.9zm96.3-52.9l-3.4-.2-.8-2.7 2.9-1.4 2.5 1.8-1.2 2.5zm185.4 77.2l-4.8-.3-1.1-3.9 4.1-2 3.6 2.6-1.8 3.6zm-74.3-102.8l-4.8-.3-1.1-3.9 4.1-2 3.6 2.6-1.8 3.6z"/><path class="st4" d="M207.6 165.5l.9.5-59.4 77.2-.9-.5 59.4-77.2zm-2.3.4l.9.5-124.5 79.9-.9-.5 124.5-79.9z"/><path class="st3" d="M1047.9 166.7l.8-.6 22.3 19.8-.8.6-22.3-19.8z"/><path class="st1" d="M214.6 232.8l.2.9-66.3 10.5-.2-.9 66.3-10.5z"/><path class="st4" d="M-.5 246.8v-.9l147.6-1.9v.9L-.5 246.8z"/></svg>