<svg xmlns="http://www.w3.org/2000/svg" viewBox="0 0 630 143"><style>.st0{fill:#fff}.st1{opacity:.4}.st1,.st2,.st3,.st4,.st5{fill:#fff;enable-background:new}.st2{opacity:.6}.st3{opacity:.502}.st4{opacity:.302}.st5{opacity:.8}</style><path class="st0" d="M638.2 58.9l.3-.3 11.8 9-.3.3-11.8-9zm-605 71.2l.2-.4 23.4 2.3-.2.4-23.4-2.3zm20 13.6l.2-.4 59 10.5-.2.4-59-10.5z"/><path class="st0" d="M56.5 130.6l.5.1-5.1 13.4-.5-.1 5.1-13.4z"/><path class="st1" d="M57.1 130.2l.4.2-36.2 44.9-.4-.2 36.2-44.9z"/><path class="st2" d="M650.8 66.9l.2.4-39 16.3-.2-.4 39-16.3z"/><path class="st1" d="M611.5 83.9l.4-.2 21.4 32-.4.2-21.4-32z"/><path class="st0" d="M633.4 113.9l-.3-.3L652 99.3l.3.3-18.9 14.3z"/><path class="st2" d="M632.7 114.8l-.5-.1 7.5-42.9.5.1-7.5 42.9z"/><path class="st1" d="M635.6 92.2l.3.3-30.3 20.5-.3-.3 30.3-20.5z"/><path class="st0" d="M640.2 71.8h-.5l-.8-12.1h.5l.8 12.1z"/><path class="st0" d="M638.9 59.6l.4.3-28.4 24.2-.4-.3 28.4-24.2z"/><path class="st0" d="M610.9 83.9l-.4.2-15.9-30 .4-.2 15.9 30z"/><path class="st0" d="M594.7 54.1l.1-.4 44.3 6.2-.1.4-44.3-6.2zm16 29.1l.5.1-4.9 29.5-.5-.1 4.9-29.5z"/><path class="st0" d="M606.2 112.7h.5l-1.5 23.2h-.5l1.5-23.2z"/><path class="st3" d="M605.1 136.1l-.3-.3 28.4-22.6.3.3-28.4 22.6z"/><path class="st0" d="M607.6 112.4v-.4l25.6 1.5v.4l-25.6-1.5zm-1-.2l-.1.4-46.3-11.1.1-.4 46.3 11.1z"/><path class="st0" d="M560.4 101.4l-.3-.3 22.7-11.8.3.3-22.7 11.8z"/><path class="st3" d="M582.8 90v-.4l53.5 2.3v.4L582.8 90z"/><path class="st0" d="M594 53.8l.5.1L582 90l-.5-.1L594 53.8z"/><path class="st1" d="M582 89.9l-.4.2-14.2-21 .4-.2 14.2 21z"/><path class="st0" d="M567.7 69.1l-.3-.3 26.7-15.1.3.3-26.7 15.1zm32.4-8.5l.1.4-33.2 8.8-.1-.4 33.2-8.8z"/><path class="st0" d="M639 59.9v.4l-40.4.8v-.4l40.4-.8z"/><path class="st3" d="M639.9 59.8l.3.3-57.6 29.4-.3-.3 57.6-29.4z"/><path class="st0" d="M649.2 68.8l.5.1-17.1 46.3-.5-.1 17.1-46.3zm-82.3.3l.1.4-36.5 6.1-.1-.4 36.5-6.1z"/><path class="st3" d="M530.3 75.5l.3-.3 31.5 26.6-.3.3-31.5-26.6z"/><path class="st2" d="M605.9 112.5l.1.4-45.7 10-.1-.4 45.7-10z"/><path class="st2" d="M560.3 122.4v.4l-53.5 1v-.4l53.5-1z"/><path class="st0" d="M562.2 101.9l-.4.2-33.8-39 .4-.2 33.8 39z"/><path class="st3" d="M528.4 63.5h.5l-.7 46.8h-.5l.7-46.8zm.3 47.5l.2-.4L562 122l-.2.4-33.1-11.4z"/><path class="st0" d="M561.9 122.3l.2-.4 42.7 12.9-.2.4-42.7-12.9z"/><path class="st0" d="M561.9 121.6l.3.3-41.8 26.8-.3-.3 41.8-26.8z"/><path class="st0" d="M520.5 148.7l-.5-.1 8.2-38.7.5.1-8.2 38.7z"/><path class="st1" d="M521.9 148.8l-.4.2-22-38.3.4-.2 22 38.3z"/><path class="st0" d="M499.4 110.7l-.4-.2 30.2-35 .4.2-30.2 35z"/><path class="st2" d="M531.8 74.6l-.1.4L478 61.9l.1-.4 53.7 13.1z"/><path class="st0" d="M478 61.9v-.4l51.4 2.7v.4L478 61.9z"/><path class="st0" d="M529.3 64.6l.1-.4 39.1 5.1-.1.4-39.1-5.1z"/><path class="st1" d="M479.7 61.5l-.3.3-43.7-31.2.3-.3 43.7 31.2z"/><path class="st1" d="M435.6 30.4h.5l3 31.5h-.5l-3-31.5z"/><path class="st3" d="M438.7 62.1l.2-.4 45.2 14.6-.2.4-45.2-14.6z"/><path class="st2" d="M484.1 76.7l-.2-.4L529.6 63l.2.4-45.7 13.3z"/><path class="st0" d="M529.5 63.1l.3.3-36.9 22.5-.3-.3 36.9-22.5z"/><path class="st3" d="M492.6 85.6l.3.3-41 22.5-.3-.3 41-22.5z"/><path class="st0" d="M451.6 108.4l.4-.2 27.5 31.6-.4.2-27.5-31.6z"/><path class="st0" d="M479.3 140l.1-.4 42.6 8.3-.1.4-42.6-8.3z"/><path class="st1" d="M499.8 109.8l.4.2-22.1 29.7-.4-.2 22.1-29.7z"/><path class="st3" d="M500.9 109.9v.4l-49.5-2.3v-.4l49.5 2.3z"/><path class="st1" d="M451.7 107.5l-.4-.3 32.5-30.8.4.3-32.5 30.8z"/><path class="st3" d="M450.9 107.8l.2-.4 56.8 16.2-.2.4-56.8-16.2z"/><path class="st0" d="M478.5 61l.4.2-27.3 46.7-.4-.2L478.5 61z"/><path class="st0" d="M451.6 107.6l-.4.2-21.5-25 .4-.2 21.5 25z"/><path class="st1" d="M430.2 82.8l-.5-.1 9.6-21.5.5.1-9.6 21.5z"/><path class="st0" d="M439.3 61.3l.5-.1 11.5 46.4-.5.1-11.5-46.4z"/><path class="st0" d="M431 83.1l-.2-.3 48.9-22.1.2.4-48.9 22z"/><path class="st1" d="M431.3 83.6l-.1-.4 36.8-5.6.1.4-36.8 5.6z"/><path class="st2" d="M467.9 77.9l.4-.2 31.2 32.7-.4.2-31.2-32.7z"/><path class="st0" d="M466.9 78.2l.2-.4 25.5 6.9-.2.4-25.5-6.9z"/><path class="st0" d="M492.4 85l.3-.3 35.8 25.9-.3.3L492.4 85zm36.1 25.5l-.1-.4 32.5-9.4.1.4-32.5 9.4z"/><path class="st1" d="M528.6 110.7l.3.3-51 29.1-.3-.3 51-29.1z"/><path class="st0" d="M477.8 139.4l.3.3-19.5 9.6-.3-.3 19.5-9.6z"/><path class="st0" d="M458.7 149.1l-.5.1-7.5-41.5.5-.1 7.5 41.5z"/><path class="st0" d="M458.2 148.5l-.2.4-46.9-19.1.2-.4 46.9 19.1z"/><path class="st4" d="M411.3 129.7l-.3-.3 42.1-21.4.3.3-42.1 21.4z"/><path class="st1" d="M382.5 43.5l.5-.1 29.8 86.8-.5.1-29.8-86.8z"/><path class="st0" d="M413.3 130l-.5-.1 16.6-46.4.5.1-16.6 46.4z"/><path class="st0" d="M429.6 83.4l.2.4-39.5 14.5-.2-.4 39.5-14.5zM392 98l.4.2-31.4 30.6-.4-.2L392 98z"/><path class="st3" d="M410.7 64.4l.4.2-18.6 33.2-.4-.2 18.6-33.2z"/><path class="st1" d="M383.1 43.4l.3.3L342 66.1l-.3-.3 41.4-22.4z"/><path class="st4" d="M341.5 66.9l.1-.4 88.7 16.9-.1.4-88.7-16.9z"/><path class="st0" d="M382.5 43.4l.5.1-22 85.2-.5-.1 22-85.2z"/><path class="st1" d="M188.2 120.7v-.4l83.2 8.4v.4l-83.2-8.4z"/><path class="st4" d="M219.5 147l.4.2-37.9 45.4-.4-.2 37.9-45.4z"/><path class="st3" d="M179.9 192.3l-.2.4-126.9-49.5.2-.4 126.9 49.5z"/><path class="st1" d="M32.2 129.9l.3-.3 19.7 12.7-.3.3-19.7-12.7z"/><path class="st3" d="M51.4 143.3l-.1-.4 77.4-18.7.1.4-77.4 18.7z"/><path class="st0" d="M2.3 131.2l.1-.4 49 12.1-.1.4-49-12.1zm381.1-87.9l-.1-.4 51.9-12.4.1.4-51.9 12.4z"/><path class="st0" d="M435.1 30.2l.4.2-24.3 33.7-.4-.2 24.3-33.7zm-74.3 98.7v-.4l52.1.4v.4l-52.1-.4z"/><path class="st3" d="M361.5 128.7l-.5.1L344.4 88l.5-.1 16.6 40.8z"/><path class="st1" d="M344.4 87.8h-.5l-2.4-21.9h.5l2.4 21.9z"/><path class="st0" d="M341.6 66.1l.3-.3L372 85.5l-.3.3-30.1-19.7z"/><path class="st0" d="M371.7 85.8l.3-.3L392.1 97l-.3.3-20.1-11.5z"/><path class="st0" d="M391.7 97.3l.4-.2 21 33.1-.4.2-21-33.1zm20.9-33.1v-.4l26.7-1.9v.4l-26.7 1.9zm-1.9.4l.4-.2 18.2 19.4-.4.2-18.2-19.4z"/><path class="st3" d="M412 64.5l-.3.3-30.1-21.4.3-.3L412 64.5z"/><path class="st0" d="M343.8 87.5l-.1-.4 28.3-2.4.1.4-28.3 2.4zm28.3-2.4v-.4l23.1-.2v.4l-23.1.2z"/><path class="st0" d="M395.2 84.9v-.4l34.4-.8v.4l-34.4.8z"/><path class="st3" d="M344.6 87l.4.2-27.3 40.1-.4-.2L344.6 87z"/><path class="st2" d="M317.5 128.2l-.2-.4 73.9-30.2.2.4-73.9 30.2z"/><path class="st0" d="M320.8 121.5l.1-.4 40.5 7.1-.1.4-40.5-7.1z"/><path class="st0" d="M361.2 128.3l.3.3-37.3 22-.3-.3 37.3-22z"/><path class="st3" d="M324.3 150.4l-.5.1-7.2-24.1.5-.1 7.2 24.1z"/><path class="st0" d="M317.1 126.2l-.4.2-18.8-22.4.4-.2 18.8 22.4z"/><path class="st1" d="M298 103.7l.3-.3L322 121l-.3.3-23.7-17.6z"/><path class="st1" d="M297.7 104l-.2-.4 47.6-16.2.2.4-47.6 16.2z"/><path class="st0" d="M341.8 66.7l.4.3-44.6 37.8-.4-.3 44.6-37.8z"/><path class="st0" d="M297.1 104.6h.5l-1.2 33.5h-.5l1.2-33.5z"/><path class="st1" d="M296.3 138.3l-.3-.3 21.8-10.8.2.3-21.7 10.8z"/><path class="st0" d="M317.9 127.3l.4.2-25.4 32.3-.4-.2 25.4-32.3z"/><path class="st3" d="M292.9 159.8l-.4-.3 77.8-74.2.4.3-77.8 74.2z"/><path class="st1" d="M159.6 155.2v-.4l30-1.3v.4l-30 1.3z"/><path class="st0" d="M292.1 160.5l-.2-.4 32.2-10.3.2.4-32.2 10.3zm4.2-23l.2-.4 28.8 12.5-.2.4-28.8-12.5z"/><path class="st1" d="M296.3 137.2l.3.3-29.6 19.9-.3-.3 29.6-19.9z"/><path class="st0" d="M292.3 160.3l.3.3-27.4 20.7-.3-.3 27.4-20.7z"/><path class="st1" d="M265.3 181.2h-.5l1.3-24h.5l-1.3 24zM566.9 68.8h.5l-6.6 53h-.5l6.6-53zm15.5 20.3l.4-.3 24.9 23.6-.4.3-24.9-23.6z"/><path class="st0" d="M266.6 157.2l-.5-.1 5.3-29 .5.1-5.3 29z"/><path class="st2" d="M271.8 128.3l-.4-.3 27.4-24 .4.3-27.4 24z"/><path class="st0" d="M299.1 103.9l-.1.4-44-5.3.1-.4 44 5.3z"/><path class="st0" d="M254.8 98.7l.5.1-13 36-.5-.1 13-36z"/><path class="st3" d="M241.8 135l.4-.3 25.5 23.3-.4.3-25.5-23.3z"/><path class="st1" d="M266.8 157l.1.4-46 11.2-.1-.4 46-11.2z"/><path class="st3" d="M266 156.8l.1-.4 26.3 2.5-.1.4-26.3-2.5z"/><path class="st0" d="M292.5 159l-.3.3-50.2-24.7.3-.3 50.2 24.7z"/><path class="st5" d="M451.7 108l.1.4-90.8 20.1-.1-.4 90.8-20.1z"/><path class="st0" d="M220.8 168.2l.2-.4 44.9 12.5-.2.4-44.9-12.5z"/><path class="st3" d="M271.6 127.9l.4-.2 20.7 32.6-.4.2-20.7-32.6z"/><path class="st0" d="M254.7 99.3l.4-.2 17.1 29.5-.4.2-17.1-29.5z"/><path class="st3" d="M271.3 129.1l.2-.4 27 8.4-.2.4-27-8.4z"/><path class="st2" d="M298.5 137.1v.4l-58.7-3.4v-.4l58.7 3.4z"/><path class="st0" d="M242 134l.4.2-21 34.4-.4-.2 21-34.4zm-21.1 34.2l-.2.4-32.4-14 .2-.4 32.4 14z"/><path class="st0" d="M188.5 154.5l-.1-.4 33.3-7.2.1.4-33.3 7.2z"/><path class="st0" d="M221.9 147.3l-.3-.3 20.5-13.1.3.3-20.5 13.1z"/><path class="st1" d="M242.1 134.7l-.1.3-51.8-14.3.2-.4 51.7 14.4zm-51.6-14.8l-.1-.4 108.1-15.7.1.4-108.1 15.7z"/><path class="st0" d="M254.6 99.4l.3.3-27.5 14.5-.3-.3 27.5-14.5z"/><path class="st0" d="M227.3 113.9l-.1.4-39-5.5.1-.4 39 5.5z"/><path class="st3" d="M188.1 108.6h.5l.5 46.2h-.5l-.5-46.2zm-27.6 46.8l.1-.4 60.6 13.6-.1.4-60.6-13.6z"/><path class="st4" d="M219.7 147.3l.1-.4 46.6 10-.1.4-46.6-10z"/><path class="st0" d="M188.6 154.8l.5.1-7.5 38-.5-.1 7.5-38zm-6.8 38.6l-.3-.3 39.8-25.2.3.3-39.8 25.2z"/><path class="st0" d="M181.3 192.6l-.1.4-43.6-8.5.1-.4 43.6 8.5z"/><path class="st1" d="M137.4 184.3l-.4-.2 23.7-30.1.4.2-23.7 30.1z"/><path class="st3" d="M158.8 153.7l.5-.2 21.7 39-.5.2-21.7-39z"/><path class="st0" d="M161 154.6l-.4-.2 27.8-33.8.4.2-27.8 33.8z"/><path class="st3" d="M190.8 120v.4l-45.3.6v-.4l45.3-.6z"/><path class="st0" d="M141.9 121.5l-.2-.4 47-12.6.2.4-47 12.6z"/><path class="st3" d="M188.6 108.5l.3.3-40.5 19.3-.3-.3 40.5-19.3z"/><path class="st1" d="M98.1 106.8v-.4l41.9-.9v.4l-41.9.9z"/><path d="M138.4 105.3l.4.2-9.8 19-.4-.2 9.8-19z" opacity=".2" fill="#fff"/><path class="st4" d="M187.4 121l.3.3-76 32.2-.3-.3 76-32.2z"/><path class="st0" d="M111.3 153.5l.4-.2 27 31.5-.4.2-27-31.5z"/><path class="st1" d="M112 153.9l-.4-.2 18.1-31.3.4.2-18.1 31.3z"/><path class="st2" d="M128.6 123.7v-.4l14.8-2.3v.4l-14.8 2.3z"/><path class="st3" d="M144.7 121l.4.2L112 154l-.4-.2 33.1-32.8z"/><path class="st0" d="M111.7 153.7l.3.3-39 20.9-.3-.3 39-20.9z"/><path class="st0" d="M72.8 174.9l.2-.4 45.7 18-.2.4-45.7-18z"/><path class="st1" d="M118.5 192.2l-.5.1-6.3-40.4.5-.1 6.3 40.4z"/><path class="st0" d="M118.7 192.9l-.2-.4 19.7-8.7.2.4-19.7 8.7z"/><path d="M137.8 104.1l.5-.1 21.3 48.8-.5.1-21.3-48.8z" opacity=".702" fill="#fff"/><path class="st3" d="M160.1 154.9v.4l-49.2-1.4v-.4l49.2 1.4z"/><path class="st0" d="M186.8 108.5v.4l-49-3.9v-.4l49 3.9zm.2.4l.4-.2 32.2 39.1-.4.2-32.2-39.1z"/><path class="st1" d="M218.9 147.4l-.5-.1 9.1-33.1.5.1-9.1 33.1z"/><path class="st0" d="M138.1 104.3l-.3.3-42.4-28.9.3-.3 42.4 28.9z"/><path class="st0" d="M95.3 75.6h.5l3.8 32.1h-.5l-3.8-32.1z"/><path class="st0" d="M99.2 107.8l.3-.3 29.3 15.9-.3.3-29.3-15.9z"/><path class="st0" d="M128.4 123.7l.4-.2 30.9 31.9-.4.2-30.9-31.9zm.4.5l.1.4-72.2 6.6-.1-.4 72.2-6.6z"/><path class="st0" d="M56.7 131.2l-.3-.3 43.6-24.4.3.3-43.6 24.4z"/><path class="st1" d="M98.9 106.3l.5.1L89 129l-.5-.1 10.4-22.6zm-11.5 21.8l.2.4-36 14.4-.2-.4 36-14.4z"/><path class="st0" d="M51.4 142.4l.4-.2 20.7 32.6-.4.2-20.7-32.6z"/><path class="st0" d="M53.1 141.7l.4.2L22.3 175l-.4-.2 31.2-33.1zm-32 32.7l-.5-.1L32.2 131l.5.1-11.6 43.3z"/><path class="st1" d="M33.3 130.8l-.5-.1L44 88.9l.5.1-11.2 41.8z"/><path class="st0" d="M43.9 89.1l-.1-.4 51.9-12.4.1.4-51.9 12.4z"/><path class="st3" d="M44.2 88.7l.4-.3 67.5 64.9-.4.3-67.5-64.9z"/><path class="st0" d="M32.5 129.9l-.3-.3L69 110.8l.3.3-36.8 18.8z"/><path class="st4" d="M68.4 111.2l.4.2-12.2 20.2-.4-.2 12.2-20.2z"/><path class="st0" d="M43.8 88.3l.3.3-44.7 25-.3-.3 44.7-25z"/><path class="st3" d="M-.9 113.7l.3-.3 34 16.9-.3.3-34-16.9z"/><path class="st3" d="M33.2 130.1v.4l-30.6 1.6v-.4l30.6-1.6z"/><path class="st0" d="M2.9 131.9h-.5l-3-18.3h.5l3 18.3zm0 .2l.5-.1 17.8 43.6-.5.1-17.8-43.6z"/><path class="st0" d="M21 175.4l-.1.4-27.3-6 .1-.4 27.3 6z"/><path class="st0" d="M22.6 174.5l.2.4-24.7 10.2-.2-.4 24.7-10.2zM479.1 63.2l-2.2-.2-.5-1.8 1.9-.9 1.7 1.2-.9 1.7zM530.6 77l-2.2-.2-.5-1.8 1.9-.9 1.7 1.2-.9 1.7zm-.6-11.2l-2.2-.2-.5-1.8 1.9-.9 1.7 1.2-.9 1.7z"/><path class="st5" d="M500.3 111.4l-1.8-.1-.4-1.4 1.5-.8 1.3 1-.6 1.3zm7.4 13.4l-1.8-.1-.4-1.4 1.5-.8 1.3 1-.6 1.3z"/><path class="st4" d="M344.1 66.6v-.4l66.3-2.1v.4l-66.3 2.1z"/><path class="st0" d="M521.3 148.8l-2.2-.2-.5-1.8 1.9-.9 1.7 1.2-.9 1.7zm40.4-26.5l-1.8-.1-.4-1.4 1.5-.8 1.3 1-.6 1.3zm.6-20.6l-1.5-.1-.3-1.2 1.3-.7 1.2.8-.7 1.2zm5.6-32.3l-1.3-.1-.3-1.1 1.1-.6 1 .7-.5 1.1zm15.3 20.8l-1.3-.1-.3-1.1 1.1-.6 1 .7-.5 1.1zm29-6.4l-1.2-.1-.3-1 1.1-.5.9.7-.5.9zm-5.8 29.4l-1.5-.1-.3-1.2 1.3-.7 1.2.8-.7 1.2zm.5 23.1l-2.2-.2-.5-1.8 1.9-.9 1.7 1.2-.9 1.7zm26.7-21.1l-1.8-.1-.4-1.4 1.5-.8 1.3 1-.6 1.3zm6.7-42.4l-1.5-.1-.3-1.2 1.3-.7 1.2.8-.7 1.2zm11.4-4.6l-1.3-.1-.3-1 1.1-.5 1 .7-.5.9zm-13-6.9l-2.2-.2-.5-1.8 1.9-.9 1.7 1.2-.9 1.7zM595.2 55l-1.8-.1-.4-1.4 1.5-.8 1.3 1-.6 1.3zM436.7 32.7l-2.2-.2-.5-1.8 1.9-.9 1.7 1.2-.9 1.7zm2.7 30l-1.1-.1-.2-.9 1-.5.8.6-.5.9zm-9.3 21.9l-1.8-.1-.4-1.4 1.5-.8 1.3 1-.6 1.3z"/><path class="st0" d="M439.7 63.1l-1.8-.1-.4-1.4 1.5-.8 1.3 1-.6 1.3zm-26.8 67.7l-2.2-.2-.5-1.8 1.9-.9 1.7 1.2-.9 1.7zm-20-31.7l-2.2-.2-.5-1.8 1.9-.9 1.7 1.2-.9 1.7zm-20.7-12.5l-1.5-.1-.3-1.2 1.3-.7 1.2.8-.7 1.2zm-49.6 35.9l-2.2-.2-.5-1.8 1.9-.9 1.7 1.2-.9 1.7zm206.5-10.8l-2.2-.2-.5-1.8 1.9-.9 1.7 1.2-.9 1.7zm-49.7 28.2l-1.5-.1-.3-1.2 1.3-.7 1.2.8-.7 1.2zm15-53.6l-1.8-.1-.4-1.4 1.5-.8 1.3 1-.6 1.3zm-82.4-21l-1.8-.1-.4-1.4 1.5-.8 1.3 1-.6 1.3zm-222.4 89.4l-1.8-.1-.4-1.4 1.5-.8 1.3 1-.6 1.3zm447.8-61.1l-2.2-.2-.5-1.8 1.9-.9 1.7 1.2-.9 1.7zm-415.3 75.9l-1.5-.1-.3-1.2 1.3-.7 1.2.8-.7 1.2zm43.8 12.3l-2.2-.2-.5-1.8 1.9-.9 1.7 1.2-.9 1.7zM181 193.5l-1.3-.1-.3-1.1 1.1-.6 1 .7-.5 1.1zM53.2 143.9l-2.2-.2-.5-1.8 1.9-.9 1.7 1.2-.9 1.7zm46.1-36.3l-1.3-.1-.3-1.1 1.1-.6 1 .7-.5 1.1zm-30.1 4.9l-1.3-.1-.3-1.1 1.1-.6 1 .7-.5 1.1zm-31.3.6l-1.3-.1-.3-1.1 1.1-.6 1 .7-.5 1.1zm420.9 36.5l-2.2-.2-.5-1.8 1.9-.9 1.7 1.2-.9 1.7zm-6.5-41.2l-2.2-.2-.5-1.8 1.9-.9 1.7 1.2-.9 1.7zm17-28.9l-1.8-.1-.4-1.4 1.5-.8 1.3 1-.6 1.3zm14.7-2l-1.8-.1-.4-1.4 1.5-.8 1.3 1-.6 1.3zM382.9 44.8l-1.5-.1-.3-1.2 1.3-.7 1.2.8-.7 1.2zm-21.8 83.8l-1.1-.1-.2-.9 1-.5.8.6-.5.9zm-16.4-40.1l-1.8-.1-.4-1.4 1.5-.8 1.3 1-.6 1.3zm7 16.7l-1.8-.1-.4-1.4 1.5-.8 1.3 1-.6 1.3zm-33.2 23.3l-1.8-.1-.4-1.4 1.5-.8 1.3 1-.6 1.3z"/><path class="st4" d="M298.1 104.1v-.4l53.1.2v.4l-53.1-.2z"/><path class="st0" d="M343.9 67.2l-2.2-.2-.5-1.8 1.9-.9 1.7 1.2-.9 1.7zM298.5 105l-1.8-.1-.4-1.4 1.5-.8 1.3 1-.6 1.3zm-1.5 32.5l-1.5-.1-.3-1.2 1.3-.7 1.2.8-.7 1.2zm-24.4-8.2l-1.8-.1-.4-1.4 1.5-.8 1.3 1-.6 1.3zm51.8 22.1l-1.5-.1-.3-1.2 1.3-.7 1.2.8-.7 1.2zm-31.1 8.4l-1.5-.1-.3-1.2 1.3-.7 1.2.8-.7 1.2zm-26.6-1.7l-1.5-.1-.3-1.2 1.3-.7 1.2.8-.7 1.2zm-24.4-22.4l-1.3-.1-.3-1.1 1.1-.6 1 .7-.5 1.1zm-53.4-14.3l-1.3-.1-.3-1.1 1.1-.6 1 .7-.5 1.1zm67.5-20.3l-2.2-.2-.5-1.8 1.9-.9 1.7 1.2-.9 1.7zm-27.7 13.8l-1.5-.1-.3-1.2 1.3-.7 1.2.8-.7 1.2zm-2.6 10.1l-1.5-.1-.3-1.2 1.3-.7 1.2.8-.7 1.2zm-5.9 23.3l-1.1-.1-.2-.9 1-.5.8.6-.5.9zm-30.9-37.8l-2.2-.2-.5-1.8 1.9-.9 1.7 1.2-.9 1.7zm-49-3.9l-2.2-.2-.5-1.8 1.9-.9 1.7 1.2-.9 1.7zm5.9 15.2l-2.2-.2-.5-1.8 1.9-.9 1.7 1.2-.9 1.7zm15.4 33.7l-1.5-.1-.3-1.2 1.3-.7 1.2.8-.7 1.2zm-23.1 29.3l-1.3-.1-.3-1.1 1.1-.6 1 .7-.5 1.1zm-19.6 8.8l-2.2-.2-.5-1.8 1.9-.9 1.7 1.2-.9 1.7zm-45.5-18.7l-1.5-.1-.3-1.2 1.3-.7 1.2.8-.7 1.2zm39.8-20.4l-1.4-.1-.3-1.1 1.2-.6 1.1.8-.6 1zm-56.5-21.8l-1.5-.1-.3-1.2 1.3-.7 1.2.8-.7 1.2zm-23.3-2.1l-1.8-.1-.4-1.4 1.5-.8 1.3 1-.6 1.3zm-29.9 2l-1.5-.2-.3-1.2 1.3-.7 1.2.8-.7 1.3zm18.4 43.1l-1.3-.1-.3-1.1 1.1-.6 1 .7-.5 1.1zM.8 114l-1.8-.1-.4-1.4 1.5-.8 1.3 1-.6 1.3zm44.4-24.4l-1.5-.1-.3-1.2 1.3-.7 1.2.8-.7 1.2zm85.4 35.6l-2.2-.2-.5-1.8 1.9-.9 1.7 1.2-.9 1.7zM96.4 77.8l-2.2-.2-.5-1.8 1.9-.9 1.7 1.2-.9 1.7z"/><path class="st4" d="M95.7 76l.4.2-27.4 35.6-.4-.2L95.7 76zm-1.1.1l.4.2-57.4 36.8-.4-.2 57.4-36.8z"/><path class="st3" d="M482.9 76.5l.4-.3 10.3 9.1-.4.3-10.3-9.1z"/><path class="st1" d="M98.9 107l.1.4-30.6 4.9-.1-.4 30.6-4.9z"/><path class="st4" d="M-.2 113.4v-.4l68-.9v.4l-68 .9z"/></svg>