<svg xmlns="http://www.w3.org/2000/svg" width="670" height="520" viewBox="0 0 670 520"><defs><linearGradient id="a" x1="1.205" y1=".5" x2="-.414" y2=".5" gradientUnits="objectBoundingBox"><stop offset="0" stop-color="#fbff8d"/><stop offset=".041" stop-color="#fbff8d"/><stop offset=".263" stop-color="#80ebc1"/><stop offset=".727" stop-color="#2da9e3"/><stop offset="1" stop-color="#2da9e3"/></linearGradient><linearGradient id="b" x1="1.136" y1="-.136" x2="-.133" y2="1.133" gradientUnits="objectBoundingBox"><stop offset="0" stop-color="#fbff8d"/><stop offset=".041" stop-color="#fbff8d"/><stop offset=".263" stop-color="#80ebc1"/><stop offset=".972" stop-color="#2da9e3"/><stop offset="1" stop-color="#2da9e3"/></linearGradient></defs><path d="M114 114v290h440V114H114m-5-5h450v300H109z" fill="#c9c9c9"/><circle cx="109.5" cy="109.5" r="109.5" fill="url(#a)"/><text transform="translate(109.21 108.597)" fill="#fff" font-size="60" font-family="Helvetica"><tspan x="-33.369" y="0">01</tspan></text><text transform="translate(109.5 144.598)" fill="#fff" font-size="25" font-family="YuGo-Bold, YuGothic" font-weight="700"><tspan x="-75" y="0">プラント事業</tspan></text><g transform="translate(0 301)"><circle cx="109.5" cy="109.5" r="109.5" fill="url(#a)"/><text transform="translate(109.21 105.597)" fill="#fff" font-size="60" font-family="Helvetica"><tspan x="-33.369" y="0">03</tspan></text><text transform="translate(109.5 141.598)" fill="#fff" font-size="25" font-family="YuGo-Bold, YuGothic" font-weight="700"><tspan x="-75" y="0">設備診断事業</tspan></text></g><g transform="translate(451)"><circle cx="109.5" cy="109.5" r="109.5" fill="url(#a)"/><text transform="translate(109.309 115.999)" fill="#fff" font-size="60" font-family="Helvetica"><tspan x="-33.369" y="0">02</tspan></text><text transform="translate(109.309 146.999)" fill="#fff" font-size="19" font-family="YuGo-Bold, YuGothic" font-weight="700"><tspan x="-75.62" y="0">プロジェクト事業</tspan></text></g><g transform="translate(451 300)"><circle cx="109.5" cy="109.5" r="109.5" transform="translate(0 1)" fill="url(#a)"/><text transform="translate(109.148 110.597)" fill="#fff" font-size="60" font-family="Helvetica"><tspan x="-33.369" y="0">04</tspan></text><text transform="translate(109.5 146.598)" fill="#fff" font-size="25" font-family="YuGo-Bold, YuGothic" font-weight="700"><tspan x="-50" y="0">装置事業</tspan></text></g><path transform="rotate(45 -14.222 478.238)" fill="url(#b)" d="M0 0h153.965v153.965H0z"/><text transform="translate(334 253.496)" fill="#fff" font-size="18" font-family="YuGo-Bold, YuGothic" font-weight="700"><tspan x="-46.341" y="0">TAKADAを</tspan><tspan x="-59.157" y="25">創り出す4事業</tspan></text></svg>