<svg version="1.1" id="レイヤー_1" xmlns="http://www.w3.org/2000/svg" x="0" y="0" viewBox="0 0 670 520" xml:space="preserve"><style>.st4{fill:#fff}</style><g id="長方形_2567" fill="none"><path d="M-969 17573h450v300h-450z" transform="translate(1078 -17464)"/><path stroke="#c9c9c9" stroke-width="5" d="M111.5 111.5h445v295h-445z"/></g><linearGradient id="楕円形_85_00000142147147371449050000000014496201405333634223_" gradientUnits="userSpaceOnUse" x1="31.415" y1=".619" x2="29.796" y2=".619" gradientTransform="matrix(219 0 0 219 -6165 -26)"><stop offset="0" stop-color="#fbff8d"/><stop offset=".041" stop-color="#fbff8d"/><stop offset=".263" stop-color="#80ebc1"/><stop offset=".727" stop-color="#2da9e3"/><stop offset="1" stop-color="#2da9e3"/></linearGradient><circle id="楕円形_85" cx="560.5" cy="109.5" r="109.5" fill="url(#楕円形_85_00000142147147371449050000000014496201405333634223_)"/><linearGradient id="楕円形_84_00000137103548573320435220000004148885346879179185_" gradientUnits="userSpaceOnUse" x1="31.416" y1=".619" x2="29.797" y2=".619" gradientTransform="matrix(219 0 0 219 -6616 -26)"><stop offset="0" stop-color="#fbff8d"/><stop offset=".041" stop-color="#fbff8d"/><stop offset=".263" stop-color="#80ebc1"/><stop offset=".727" stop-color="#2da9e3"/><stop offset="1" stop-color="#2da9e3"/></linearGradient><circle id="楕円形_84" cx="109.7" cy="109.5" r="109.5" fill="url(#楕円形_84_00000137103548573320435220000004148885346879179185_)"/><path class="st4" d="M43.2 128c1 .1 2.6.2 4.8.2h9c.6 0 1.1-.1 1.4-.3.1-.1.3-.1.4-.1.2 0 .3.1.4.2.7.6 1.3 1.2 1.7 1.7.1.2.2.3.2.5s-.1.3-.2.5c-.2.2-.4.5-.6 1-1.3 3.2-3 5.9-4.8 8.1-2.2 2.6-4.6 4.5-7.1 6-.2.1-.5.2-.7.2-.2 0-.4-.1-.6-.3-.5-.5-1.3-1-2.3-1.4 1.9-1 3.5-2 4.8-3 1.1-.9 2.2-2 3.3-3.2 1.9-2.1 3.3-4.5 4.2-7.1h-9c-.9 0-2.3 0-4.1.1-.3 0-.4-.2-.5-.5-.1-.5-.2-1.3-.3-2.6zm19.4-4.6c.8 0 1.5.3 2 .9.5.5.7 1.1.7 1.8 0 .8-.3 1.5-.9 2-.5.5-1.1.7-1.8.7-.8 0-1.5-.3-2-.9-.5-.5-.7-1.1-.7-1.8 0-.8.3-1.5.9-2 .5-.4 1.1-.7 1.8-.7zm0 1.2c-.5 0-.8.2-1.1.5-.2.3-.4.6-.4 1 0 .5.2.8.5 1.1.3.2.6.4 1 .4.5 0 .8-.2 1.1-.5.2-.3.4-.6.4-1 0-.5-.2-.8-.5-1.1-.2-.3-.6-.4-1-.4zm5.5 6.7c1.3.1 2.8.2 4.6.2h8.6c.6 0 1-.1 1.3-.3.1-.1.2-.1.3-.1.1 0 .2.1.4.2.7.5 1.2 1 1.7 1.5.2.2.2.3.2.5s-.1.3-.3.5c-.3.3-.6.7-.8 1.2-1.3 2.8-2.9 5.1-4.6 6.9-1.5 1.6-3.4 2.9-5.6 4.2-.2.1-.4.2-.5.2-.2 0-.3-.1-.5-.3-.5-.5-1.3-.9-2.3-1.3 2.6-1.2 4.9-2.7 6.7-4.6 1.7-1.8 3-3.7 3.8-5.9h-8.5c-1.4 0-2.6 0-3.7.1-.2 0-.3-.2-.4-.5-.2-.3-.3-1.2-.4-2.5zm2.1-5.4c1.2.1 2.6.2 4.1.2h4.5c1 0 2.3 0 3.9-.1.2 0 .3.1.3.4v2c0 .3-.1.5-.4.5h-8.5c-1.4 0-2.5 0-3.4.1-.2 0-.3-.2-.4-.5 0-.8-.1-1.6-.1-2.6zm19 3.7c.4-.5 1-1.2 1.7-2 .1-.1.2-.2.4-.2.1 0 .2 0 .3.1 1.6.8 3.1 2 4.8 3.6.1.1.2.3.2.4s0 .2-.1.3c-.5.7-1.1 1.4-1.6 1.9-.1.1-.2.2-.3.2-.1 0-.2-.1-.3-.2-1.5-1.6-3.2-3-5.1-4.1zm.5 12.4c1.3-.4 2.5-.8 3.4-1.2 1.6-.8 2.9-1.6 4-2.3.9-.6 2-1.4 3.2-2.3 1.7-1.4 3-2.5 4-3.5.9-.9 1.9-2 2.9-3.3.1 1.1.4 2.1.7 2.9.1.2.1.4.1.5 0 .2-.1.4-.4.8-1.5 1.7-3.4 3.5-5.7 5.3-2.1 1.6-4.6 3.3-7.5 4.9-.9.5-1.4.9-1.7 1.2-.2.2-.3.2-.5.2-.1 0-.3-.1-.4-.3-.8-1-1.5-1.9-2.1-2.9zm27.9-9.7c3.1 1 5.8 2.1 7.9 3.4.2.1.3.3.3.4v.2c-.3.8-.7 1.5-1.1 2.2-.1.2-.2.3-.3.3-.1 0-.2 0-.3-.1-2.3-1.5-4.5-2.6-6.6-3.2v5.5c0 .9 0 2.5.1 4.9v.1c0 .2-.2.3-.5.3h-2.2c-.3 0-.5-.1-.5-.4.1-1.6.1-3.3.1-4.9v-12.3c0-1.5-.1-2.8-.2-3.7 1.5.1 2.5.2 3.1.4.3.1.5.2.5.4 0 .1-.1.3-.2.6-.1.2-.2 1-.2 2.3v3.6zm14.5 7.7H129c-.2 0-.2-.1-.2-.3v-1.5c0-.2.1-.3.2-.3h9.8v-1.2h-7.5c-.2 0-.3-.1-.3-.2v-1.4c0-.1 0-.2.1-.2h7.7v-.9h-6.7c-.1 0-.2 0-.3-.1v-4.4h7v-1.1h-9.7v-2h9.7c0-.9-.1-1.6-.2-2.3 1.1 0 2 .1 2.6.1.3 0 .4.1.4.3 0 .1 0 .3-.1.5-.1.3-.2.7-.2 1.4h9.7v2h-9.7v1.1h6.8c.1 0 .2 0 .2.1v4.4h-7v1.1h7.7v3h2.2c.2 0 .3.1.3.3v1.5c0 .2-.1.3-.3.3h-2.1v3.8H147c-.1 0-.2 0-.2-.1v-.9h-5.3v1.2c0 1.1-.3 1.9-.9 2.2-.6.3-1.8.5-3.5.5-.4 0-.6 0-.7-.1-.1-.1-.2-.3-.3-.6-.3-.7-.6-1.4-1-1.9.7.1 1.3.1 1.9.1h.6c.6 0 .9-.1 1.1-.2.1-.1.2-.3.2-.7v-.5h-7.5c-.1 0-.2 0-.2-.1v-1.5c0-.1 0-.2.1-.3h7.7V140h-6.9zm2.2-7.6h4.5v-1.2h-4.5v1.2zm11.7 0v-1.2h-4.6v1.2h4.6zm.7 4.5h-5.3v1.2h5.3v-1.2zm-5.3 4.3h5.3V140h-5.3v1.2zm16.1-.2H154v-2h9.6v-1.3h-7.2v-2h7.2v-1.3h-8.2v-1.7c0-.1 0-.2.1-.2h5c-.3-.6-.5-1.1-.8-1.6-.1-.1-.1-.2-.1-.2 0-.1.1-.1.3-.2l1.6-.5H154v-2h3.6c-.3-.6-.8-1.4-1.4-2.1-.1-.1-.1-.1-.1-.2s.1-.2.3-.3l1.4-.7c.1 0 .2-.1.2-.1.1 0 .2.1.2.2.7.9 1.3 1.7 1.7 2.4 0 .1.1.2.1.2 0 .1-.1.1-.3.2l-.6.3h2.3v-1.6c0-1 0-1.7-.1-2.2 1 0 1.8.1 2.4.1.2 0 .3.1.3.2s0 .2-.1.4-.1.7-.1 1.4v1.6h2v-1.6c0-1-.1-1.7-.2-2.2 1.1 0 1.9.1 2.4.2.2 0 .3.1.3.2s0 .2-.1.4-.2.7-.2 1.4v1.6h1.6c.4-.7.8-1.4 1.1-2.1.2-.4.4-.9.4-1.3l2.4.6c.2.1.3.2.3.3 0 .1-.1.3-.2.4-.1.1-.3.3-.4.5-.2.3-.6.8-1 1.5h3.5c.1 0 .2 0 .2.1v1.9h-7.7c.7.1 1.4.3 2 .5.2.1.3.2.3.3 0 .2-.1.3-.3.4 0 0-.2.2-.3.5l-.5.8h5.1v1.7c0 .2-.1.2-.3.2h-8.4v1.3h7.4c.1 0 .2 0 .2.1v1.8h-7.6v1.3h9.7c.1 0 .2 0 .2.1v1.9h-7.8c1.9 1.4 4.7 2.4 8.3 3.2-.4.5-.7 1-1 1.6-.2.4-.4.6-.5.6-.1 0-.3 0-.6-.1-3.4-1-6.2-2.5-8.4-4.5l.1 4.9v.2h-2.3c-.2 0-.3-.1-.3-.3v-.8c0-1.3.1-2.7.1-4.1-2 1.9-4.7 3.4-8 4.5-.3.1-.5.1-.6.1-.2 0-.3-.2-.5-.6-.3-.7-.7-1.2-1-1.5 3.4-.9 6.1-2 8-3.5h-3.7zm10.3-9.9c.1-.2.2-.5.3-1h-6.4l.2.2c.4.8.8 1.5 1.1 2.3h4.1c.2-.5.5-1 .7-1.5zm-73.5-18c-3.5 0-6.5-.9-9-2.7-2.5-1.8-4.4-4.4-5.8-7.7s-2-7.4-2-12.2c0-4.8.7-8.8 2-12.2 1.3-3.3 3.3-5.9 5.8-7.7 2.5-1.8 5.5-2.6 9-2.6s6.5.9 9 2.6c2.5 1.8 4.4 4.3 5.8 7.7 1.3 3.4 2 7.4 2 12.1 0 4.8-.7 8.8-2 12.2-1.3 3.4-3.3 5.9-5.8 7.7-2.4 1.9-5.4 2.8-9 2.8zm0-6.6c2.7 0 4.9-1.3 6.5-4 1.6-2.7 2.4-6.7 2.4-11.9 0-3.5-.4-6.4-1.1-8.7-.7-2.4-1.7-4.1-3.1-5.3-1.3-1.2-2.9-1.8-4.7-1.8-2.7 0-4.9 1.3-6.4 4s-2.4 6.6-2.4 11.8c0 3.5.3 6.4 1.1 8.8s1.7 4.2 3.1 5.4c1.3 1.1 2.8 1.7 4.6 1.7zM136 68.7v43.6h-7.9V76.4h-.3l-10.2 6.5v-7.2l10.8-7h7.6z"/><linearGradient id="楕円形_87_00000070084003239009591210000012997187723581695630_" gradientUnits="userSpaceOnUse" x1="31.416" y1=".619" x2="29.797" y2=".619" gradientTransform="matrix(219 0 0 219 -6616 274)"><stop offset="0" stop-color="#fbff8d"/><stop offset=".041" stop-color="#fbff8d"/><stop offset=".263" stop-color="#80ebc1"/><stop offset=".727" stop-color="#2da9e3"/><stop offset="1" stop-color="#2da9e3"/></linearGradient><circle id="楕円形_87" cx="109.7" cy="409.5" r="109.5" fill="url(#楕円形_87_00000070084003239009591210000012997187723581695630_)"/><path class="st4" d="M89.2 408.9c-3.5 0-6.5-.9-9-2.7-2.5-1.8-4.4-4.4-5.8-7.7s-2-7.4-2-12.2c0-4.8.7-8.8 2-12.2 1.3-3.3 3.3-5.9 5.8-7.7 2.5-1.8 5.5-2.6 9-2.6s6.5.9 9 2.6c2.5 1.8 4.4 4.3 5.8 7.7 1.3 3.4 2 7.4 2 12.1 0 4.8-.7 8.8-2 12.2-1.3 3.4-3.3 5.9-5.8 7.7-2.4 1.9-5.5 2.8-9 2.8zm0-6.6c2.7 0 4.9-1.3 6.5-4 1.6-2.7 2.4-6.7 2.4-11.9 0-3.5-.4-6.4-1.1-8.7-.7-2.4-1.7-4.1-3.1-5.3-1.3-1.2-2.9-1.8-4.7-1.8-2.7 0-4.9 1.3-6.4 4s-2.4 6.6-2.4 11.8c0 3.5.3 6.4 1.1 8.8s1.7 4.2 3.1 5.4c1.3 1.1 2.8 1.7 4.6 1.7zm39.6 6.4c-3.1 0-5.8-.5-8.2-1.6-2.4-1.1-4.3-2.5-5.6-4.4s-2.1-4-2.2-6.5h8c.1 1.2.5 2.2 1.2 3.1.7.9 1.7 1.6 2.8 2 1.2.5 2.5.7 4 .7 1.6 0 2.9-.3 4.2-.8 1.2-.5 2.2-1.3 2.8-2.3.7-1 1-2.1 1-3.4 0-1.3-.3-2.5-1-3.5s-1.7-1.8-3-2.4-2.9-.9-4.7-.9h-3.9v-6.1h3.9c1.5 0 2.9-.3 4-.8s2-1.3 2.7-2.2 1-2.1 1-3.3c0-1.2-.3-2.3-.8-3.2-.6-.9-1.3-1.6-2.4-2.1-1-.5-2.2-.8-3.6-.8-1.3 0-2.6.2-3.7.7-1.1.5-2.1 1.2-2.7 2.1s-1.1 1.9-1.1 3.2h-7.6c.1-2.4.8-4.6 2.1-6.4 1.4-1.9 3.2-3.3 5.4-4.3 2.3-1 4.8-1.6 7.6-1.6 2.9 0 5.4.5 7.6 1.6 2.2 1.1 3.8 2.5 5 4.4 1.2 1.8 1.8 3.9 1.8 6.1 0 2.5-.7 4.5-2.2 6.2-1.5 1.7-3.4 2.7-5.7 3.3v.3c3.1.4 5.4 1.6 7.1 3.4s2.5 4.1 2.4 6.8c0 2.4-.7 4.6-2.1 6.6s-3.3 3.4-5.7 4.5c-2.5 1-5.3 1.6-8.4 1.6zm-90.1 22.4h6.1v2c0 .1 0 .2-.1.3H36c-.1 0-.2 0-.2-.1v-2.2h2.9zm20 15.9c-.4.6-.8 1.1-1.1 1.8-.2.4-.4.7-.5.7-.1 0-.3-.1-.6-.2-2-.8-3.7-1.8-5.1-2.9-1.5 1.2-3.2 2.2-5.1 3-.3.1-.4.2-.6.2-.1 0-.3-.2-.5-.6-.3-.6-.7-1.1-1.2-1.5v1.6h-2.2V448h-2.7v1.5h-2.4v-.2l.1-3.8V444l-.1-2.3c0-.1 0-.2.1-.2H44v6c2.1-.6 3.9-1.6 5.6-2.8-1.3-1.5-2.3-3.2-3-5.2h-1.1c-.1 0-.2 0-.2-.1v-2c0-.2.1-.2.3-.2h8.9c.2 0 .4 0 .5-.1.2-.1.3-.1.4-.1.2 0 .5.2.9.7.5.5.8.9.8 1 0 .2-.1.3-.3.5-.2.1-.4.4-.6.8-.7 1.7-1.7 3.2-3 4.7 1.6 1 3.4 1.8 5.5 2.3zm-19.3-19.3h4.9v2.1H37v-2.1h2.4zm.1 6.9h4.4v1.8c0 .1 0 .2-.1.2h-6.6v-1.8c0-.2.1-.3.3-.3l2 .1zm0 3.4h2l2.1-.1h.3v1.8c0 .1 0 .2-.1.2h-6.6v-1.8c0-.1 0-.2.1-.2h.2l2 .1zm2.3 5.5h-2.7v2.5h2.7v-2.5zm2.8-8.5c.9-.6 1.6-1.4 2-2.3.4-.8.6-1.9.6-3.2v-1.9c0-.1 0-.2.1-.2h7.3v4.8c0 .4.1.7.2.9.1.1.3.1.7.1.3 0 .5-.1.7-.4.1-.2.2-.9.2-2.2.5.3.9.5 1.5.7.3.1.4.2.5.2.1.1.1.2.1.4v.3c-.1 1.3-.4 2.2-.9 2.7-.4.4-1.3.6-2.5.6-1 0-1.8-.1-2.1-.4-.4-.3-.7-.9-.7-1.7v-3.7h-2.6c0 1.6-.3 3-.8 4-.4.9-.9 1.6-1.7 2.3-.3.3-.5.4-.6.4-.1 0-.3-.2-.6-.5-.4-.3-.9-.6-1.4-.9zm9.2 4.4h-4.6c.6 1.4 1.3 2.6 2.3 3.6.9-1.1 1.7-2.3 2.3-3.6zm6.2-3c1.8-2.1 3.3-4.7 4.4-8 .2-.6.4-1.2.4-1.7.8.2 1.5.4 2.2.7.3.1.4.2.4.4 0 .1-.1.3-.3.5-.1.1-.3.5-.5 1-.5 1.4-1 2.7-1.5 3.7v16.7h-2.4v-12.6c-.3.3-.7.9-1.3 1.6-.2.2-.3.4-.4.4-.1 0-.2-.2-.3-.5-.1-.9-.3-1.6-.7-2.2zm9.8-1.1v1.8c0 2.7-.2 4.9-.5 6.6-.3 1.8-.9 3.4-1.7 5-.2.3-.3.4-.4.4-.1 0-.3-.1-.4-.3-.4-.6-.9-1.1-1.5-1.5.8-1.3 1.4-2.8 1.7-4.5.3-1.3.4-3.2.4-5.8v-3.9h15.9v2.2H69.8zm1.2-8.5c.9 0 1.7.1 2.4.1.2 0 .3.1.3.2s0 .2-.1.4-.1.6-.1 1.4v.1h3.2v-.1c0-.8 0-1.5-.1-2.1.9 0 1.7.1 2.4.1.2 0 .4.1.4.2s0 .2-.1.4c-.1.1-.1.6-.1 1.4v.1h4v2H79l.1 1.4c0 .1 0 .2-.1.2h-2.3V431h-3.2v1.6h-2.3V431h-3.6v-2h3.6v-.1c-.1-.8-.2-1.5-.2-2.1zm7.2 20.5h1.3c.4 0 .6-.2.6-.6v-1.6h-2.7v3.7h-1.9c-.1 0-.2 0-.2-.1V445h-2.6v4.2h-2c-.1 0-.2 0-.2-.1v-12.9H82c.1 0 .2 0 .2.1v5l.1 5.2c0 .9-.2 1.6-.6 2-.4.3-1.2.5-2.4.5-.3 0-.5 0-.5-.1-.1-.1-.1-.2-.2-.5-.1-.1-.2-.6-.4-1.1zm-5.5-7.3h2.6v-1.5h-2.6v1.5zm0 3.4h2.6v-1.6h-2.6v1.6zm7.4-4.9h-2.7v1.5h2.7v-1.5zm-2.7 4.9h2.7v-1.6h-2.7v1.6zm11.3-12.3h5.7v2.1c1.9-1.3 3.5-2.9 4.7-4.9.3-.5.5-1 .7-1.6.6.1 1.5.2 2.6.5.2.1.4.2.4.4 0 .1-.1.3-.3.4l-.1.1c1.6 2.3 3.8 4.1 6.6 5.5-.4.5-.7 1.1-1 1.9-.2.4-.3.6-.4.6-.1 0-.2-.1-.5-.2-2.4-1.5-4.4-3.4-5.9-5.7-1.4 2.2-3.2 4-5.4 5.5-.3.2-.5.3-.6.3-.1 0-.3-.2-.5-.5-.3-.6-.7-1-1.2-1.5l.7-.5h-8.1c-.1 0-.2 0-.2-.1v-2.2h.2l2.6-.1zm5.2 17.8c0 .2-.1.3-.2.3h-2v-1H89v1.4h-2.3v-.2l.1-3.7V444l-.1-2.3c0-.1 0-.2.1-.2h6.8c.2 0 .2.1.2.3v3.6l.1 3.5zm-4.6-21.2h4.6v1.8c0 .1 0 .2-.1.2h-7v-2h2.5zm.1 6.9h4.2v2h-6.4v-1.8c0-.1 0-.2.1-.2h2.1zm0 3.4h1.8l2.1-.1h.3v2h-6.4v-1.8c0-.1 0-.2.1-.2h.2l1.9.1zm2.1 5.5H89v2.6h2.5v-2.6zm2.6 3.8c2.7-.7 5-1.5 6.8-2.6 1.6-.9 3-2.1 4.2-3.4.4-.5.8-1 1-1.4.7.5 1.3.9 1.9 1.4.2.2.3.3.3.4 0 .1-.1.2-.3.3-.1.1-.4.3-.8.8-2.7 3-6.3 5.2-10.8 6.6-.3.1-.5.1-.6.1-.1 0-.3-.2-.5-.6-.4-.7-.7-1.2-1.2-1.6zm.5-9.4c2.4-.9 4.4-2.2 5.8-3.7.3-.3.5-.6.7-1 .6.3 1.2.8 1.8 1.3.2.2.3.3.3.4s-.1.2-.3.3c-.2.1-.5.3-.8.7-1.3 1.5-3.1 2.7-5.2 3.7-.3.1-.5.2-.6.2-.1 0-.3-.2-.5-.5-.3-.5-.7-1-1.2-1.4zm.3 4.6c3.5-1.1 6.2-2.9 8.2-5.2.2-.2.4-.6.7-1 .8.5 1.4 1 1.8 1.3.2.1.3.3.3.4s-.1.3-.3.4c-.2.1-.4.3-.7.6-1.8 2.1-4.4 3.9-7.8 5.4-.3.1-.5.2-.6.2-.1 0-.3-.2-.5-.6-.3-.5-.7-1-1.1-1.5zm25.4-6.1c.6 1.3 1.7 2.5 3.2 3.7-.4.5-.8 1-1 1.7-.1.2-.2.3-.2.3-.1 0-.2-.1-.4-.4-.9-1.1-1.5-2.2-2-3.2 0 .9 0 2 .1 3.4v2.4h-2.2v-.2c0-.4 0-2.2.1-5.4-.5 1.3-1.3 2.6-2.4 3.9-.2.2-.3.3-.4.3-.1 0-.2-.1-.4-.4-.2-.3-.5-.6-.7-.8v3.5h7.7v2.3c1-1.4 1.7-3.1 2-5.2.2-1.5.3-3.6.3-6.4v-2.7c0-1.5 0-3-.1-4.4.8.1 1.5.3 2.2.5 1.5-.3 2.8-.8 3.9-1.5.5-.3.9-.6 1.3-.9.6.5 1.2 1.1 1.7 1.8.1.1.2.3.2.5s-.1.2-.4.3c-.4.1-.7.2-1 .3-1.3.7-3.1 1.2-5.5 1.7v3.2h7.1c.2 0 .3.1.3.3v1.9c0 .2-.1.3-.3.3h-2.3v12.4c0 .2-.1.3-.2.3h-2c-.1 0-.2 0-.3-.1v-12.6h-2.5c0 3.2-.2 5.5-.5 6.9-.4 1.8-1.1 3.6-2.1 5.1-.2.3-.4.5-.5.5-.1 0-.2-.2-.4-.5-.3-.5-.8-1-1.4-1.5l.1-.1h-7.7v1.3h-2.3v-17.3c0-1.4 0-2.6-.1-3.6.8 0 1.6.1 2.5.2.2 0 .3.1.3.2s0 .3-.1.5-.1 1-.1 2.2v10c1.4-1.3 2.5-2.8 3.3-4.6h-2.3c-.1 0-.2 0-.2-.1v-1.9c0-.1 0-.2.1-.2h3.1v-4.6c0-1 0-1.9-.1-2.8.8.1 1.5.1 2.1.2.3 0 .4.1.4.2s0 .2-.1.4c-.1.3-.2.9-.2 1.7v4.8h3.1v2.2h-2.7zm-4.1-7.5c.4 1.1.8 2.2 1 3.4v.2c0 .1-.1.2-.3.3l-1.2.3h-.2c-.1 0-.2-.1-.2-.3-.2-1.4-.6-2.6-.9-3.4v-.2c0-.1.1-.2.3-.2l1.1-.3h.2c.1-.1.1 0 .2.2zm3.9 3.6c.4-.8.7-1.8 1-3.1.1-.3.1-.6.1-1 .9.2 1.5.4 1.8.5.2.1.3.2.3.3 0 .1 0 .2-.1.2-.1.1-.2.3-.3.6-.3 1.1-.6 1.9-.9 2.6-.1.3-.2.4-.3.4-.1 0-.2 0-.4-.1s-.6-.2-1.2-.4zm18.9 9.9h-3.1c-.2 0-.2-.1-.2-.3v-1.5c0-.2.1-.3.2-.3h9.8v-1.2h-7.5c-.2 0-.3-.1-.3-.2v-1.4c0-.1 0-.2.1-.2h7.7v-1.1H139c-.1 0-.2 0-.3-.1v-4.4h7v-1.1H136v-2h9.7c0-.9-.1-1.6-.2-2.3 1.1 0 2 .1 2.6.1.3 0 .4.1.4.3 0 .1 0 .3-.1.5-.1.3-.2.7-.2 1.4h9.7v2h-9.7v1.1h6.8c.1 0 .2 0 .2.1v4.4h-7v1.1h7.7v3h2.2c.2 0 .3.1.3.3v1.5c0 .2-.1.3-.3.3H156v3.8h-2.1c-.1 0-.2 0-.2-.1v-.7h-5.3v1.2c0 1.1-.3 1.9-.9 2.2-.6.3-1.8.5-3.5.5-.4 0-.6 0-.7-.1-.1-.1-.2-.3-.3-.6-.3-.7-.6-1.4-1-1.9.7.1 1.3.1 1.9.1h.6c.6 0 .9-.1 1.1-.2.1-.1.2-.3.2-.7v-.6h-7.5c-.1 0-.2 0-.2-.1v-1.5c0-.1 0-.2.1-.3h7.7v-1.2H139zm2.2-7.6h4.5v-1.2h-4.5v1.2zm11.7 0v-1.2h-4.6v1.2h4.6zm.7 4.5h-5.3v1.2h5.3v-1.2zm-5.3 4.3h5.3v-1.2h-5.3v1.2zm16.1-.2h-3.5v-2h9.6v-1.3h-7.2v-1.9h7.2v-1.3h-8.3v-1.7c0-.1 0-.2.1-.2h5c-.3-.6-.5-1.1-.8-1.6-.1-.1-.1-.2-.1-.2 0-.1.1-.1.3-.2l1.6-.5h-7.5v-2h3.6c-.3-.6-.8-1.4-1.4-2.1-.1-.1-.1-.1-.1-.2s.1-.2.3-.3l1.4-.7c.1 0 .2-.1.2-.1.1 0 .2.1.2.2.7.9 1.3 1.7 1.7 2.4 0 .1.1.2.1.2 0 .1-.1.1-.3.2l-.6.3h2.3v-1.6c0-1 0-1.7-.1-2.2 1 0 1.8.1 2.4.1.2 0 .3.1.3.2s0 .2-.1.4-.1.7-.1 1.4v1.6h2v-1.6c0-1-.1-1.7-.2-2.2 1.1 0 1.9.1 2.4.2.2 0 .3.1.3.2s0 .2-.1.4-.2.7-.2 1.4v1.6h1.6c.4-.7.8-1.4 1.1-2.1.2-.4.4-.9.4-1.3l2.4.6c.2.1.3.2.3.3 0 .1-.1.3-.2.4-.1.1-.3.3-.4.5-.2.3-.6.8-1 1.5h3.5c.1 0 .2 0 .2.1v1.9H175c.7.1 1.4.3 2 .5.2.1.3.2.3.3 0 .2-.1.3-.3.4 0 0-.2.2-.3.5l-.5.8h5.1v1.7c0 .2-.1.2-.3.2h-8.4v1.3h7.4c.1 0 .2 0 .2.1v1.8h-7.6v1.3h9.7c.1 0 .2 0 .2.1v1.9h-7.8c1.9 1.4 4.7 2.4 8.3 3.2-.4.5-.7 1-1 1.6-.2.4-.4.6-.5.6-.1 0-.3 0-.6-.1-3.4-1-6.2-2.5-8.4-4.5l.1 4.9v.2h-2.3c-.2 0-.3-.1-.3-.3v-.8c0-1.3.1-2.7.1-4.1-2 1.9-4.7 3.4-8 4.5-.3.1-.5.1-.6.1-.2 0-.3-.2-.5-.6-.3-.7-.7-1.2-1-1.5 3.4-.9 6.1-2 8-3.5h-3.6zm10.3-9.9c.1-.2.2-.5.3-1h-6.4l.2.2c.4.8.8 1.5 1.1 2.3h4.1c.2-.4.5-.9.7-1.5zm364.8-320.4c-3.5 0-6.5-.9-9-2.7-2.5-1.8-4.4-4.4-5.8-7.7-1.3-3.4-2-7.4-2-12.2 0-4.8.7-8.8 2-12.2 1.3-3.3 3.3-5.9 5.8-7.7 2.5-1.8 5.5-2.6 9-2.6s6.5.9 9 2.6c2.5 1.8 4.4 4.3 5.8 7.7 1.3 3.4 2 7.4 2 12.1 0 4.8-.7 8.8-2 12.2-1.3 3.4-3.3 5.9-5.8 7.7-2.5 1.9-5.5 2.8-9 2.8zm0-6.6c2.7 0 4.9-1.3 6.5-4 1.6-2.7 2.4-6.7 2.4-11.9 0-3.5-.4-6.4-1.1-8.7-.7-2.4-1.7-4.1-3.1-5.3-1.3-1.2-2.9-1.8-4.7-1.8-2.7 0-4.9 1.3-6.4 4s-2.4 6.6-2.4 11.8c0 3.5.3 6.4 1.1 8.8.7 2.4 1.7 4.2 3.1 5.4 1.2 1.1 2.8 1.7 4.6 1.7zm23.9 5.8v-5.7l15.1-14.9c1.4-1.5 2.7-2.8 3.6-3.9s1.7-2.2 2.2-3.3c.5-1.1.7-2.2.7-3.4 0-1.4-.3-2.6-.9-3.5s-1.5-1.8-2.6-2.3-2.3-.8-3.7-.8c-1.4 0-2.7.3-3.8.9-1.1.6-1.9 1.4-2.5 2.5s-.9 2.4-.9 3.9h-7.5c0-2.8.6-5.2 1.9-7.2 1.3-2 3-3.6 5.2-4.8 2.2-1.1 4.8-1.7 7.7-1.7 2.9 0 5.5.5 7.7 1.6s3.9 2.6 5.2 4.5c1.2 1.9 1.8 4.1 1.8 6.5 0 1.6-.3 3.2-.9 4.8-.6 1.6-1.7 3.3-3.3 5.2-1.6 1.9-3.8 4.2-6.6 7l-7.5 7.6v.3h19v6.6h-29.9zM493.5 134c.8.1 2 .1 3.6.1h6.8c.5 0 .8-.1 1-.2.1-.1.2-.1.3-.1.1 0 .2 0 .3.1.6.5 1 .9 1.3 1.3.1.1.1.3.1.4 0 .1-.1.2-.2.4-.1.1-.3.4-.4.8-1 2.5-2.2 4.5-3.7 6.2-1.7 1.9-3.5 3.5-5.4 4.5-.2.1-.3.2-.5.2s-.3-.1-.5-.2c-.4-.4-1-.7-1.8-1 1.5-.7 2.7-1.5 3.7-2.3.9-.7 1.7-1.5 2.5-2.5 1.4-1.6 2.5-3.4 3.2-5.4h-6.9c-.7 0-1.8 0-3.1.1-.2 0-.3-.1-.4-.4.3-.4.2-1.1.1-2zm14.8-3.5c.6 0 1.1.2 1.5.7.4.4.5.8.5 1.4 0 .6-.2 1.1-.7 1.5-.4.3-.8.5-1.4.5-.6 0-1.1-.2-1.5-.7-.4-.4-.5-.8-.5-1.4 0-.6.2-1.1.7-1.5.4-.3.9-.5 1.4-.5zm0 .9c-.3 0-.6.1-.8.4-.2.2-.3.5-.3.8 0 .4.1.6.4.9.2.2.5.3.8.3.3 0 .6-.1.8-.4.2-.2.3-.5.3-.8 0-.3-.1-.6-.4-.8-.3-.3-.5-.4-.8-.4zm14.9 13.4h-7.4v1.1c0 .2 0 .3-.1.3 0 0-.2.1-.3.1h-1.6c-.3 0-.4-.1-.4-.2 0-2 .1-3.2.1-3.8v-7.8c0-.2.1-.3.2-.3.7 0 1.8.1 3.4.1h8.1c.2 0 .2.1.2.3v7.7c0 .7 0 1.9.1 3.6 0 .2-.1.3-.4.3h-1.8c-.1 0-.2 0-.2-.1v-1.3zm0-2v-6.5h-7.4v6.5h7.4zm6.2-4.1c0-.1.3-.4.6-1 .2-.3.3-.5.4-.6.1-.1.2-.2.3-.2h.1c1.3.4 2.5 1.1 3.7 1.9.1.1.2.2.2.3 0 0 0 .1-.1.2-.2.4-.4.9-.8 1.4l-.2.2c-.1 0-.1 0-.2-.1-1.2-.8-2.5-1.5-4-2.1zm1.5 6.4c.8-.2 1.7-.5 2.6-.9 2.1-1.1 3.8-2.2 5.2-3.3 2-1.5 3.8-3.3 5.5-5.3.1.6.3 1.3.6 2.1.1.1.1.3.1.4 0 .1-.1.3-.2.4-1.4 1.5-3.1 3-4.8 4.4-1.5 1.1-3.4 2.3-5.7 3.6-.7.4-1 .6-1.1.7-.1.1-.2.1-.3.1-.1 0-.3-.1-.4-.2-.4-.4-.9-1.1-1.5-2zm.8-10.8l1-1.5c.1-.1.2-.2.3-.2.1 0 .1 0 .2.1 1.4.6 2.6 1.3 3.6 2.1.1.1.1.1.1.2s0 .2-.1.3c-.4.7-.7 1.1-1 1.4 0 .1-.1.1-.2.1s-.2 0-.3-.1c-1.1-1.1-2.3-1.9-3.6-2.4zm8.7-1.4l1-.7h.1s.1 0 .2.1c.6.5 1.2 1.2 1.8 2 0 .1.1.1.1.1 0 .1 0 .1-.1.2l-.8.6c-.1 0-.1.1-.1.1-.1 0-.1 0-.2-.1-.7-1-1.3-1.8-2-2.3zm1.8-1.3l1-.7h.1s.1 0 .2.1c.7.6 1.3 1.2 1.8 2 0 .1.1.1.1.2s0 .1-.1.2l-.8.6c-.1 0-.1.1-.1.1-.1 0-.1 0-.2-.1-.7-1-1.3-1.8-2-2.4zm12.1 8.3v4.8h2c1.1 0 2.1 0 3.1-.1.2 0 .2.1.3.4v1.2c0 .2-.1.3-.3.3h-9c-.8 0-1.7 0-2.8.1-.2 0-.3-.1-.4-.4-.1-.3-.1-.9-.1-1.5.7 0 1.8.1 3.2.1h1.9V140h-3.3c-.1 0-.2-.1-.3-.4 0-.2-.1-.7-.1-1.5.5 0 1.4.1 2.6.1h6.8c.1 0 .2.1.3.3v1.2c0 .2-.1.4-.3.4h-3.6zm14.6-5l3.4-.1c.4 0 .7-.1 1-.2.1 0 .1-.1.2-.1s.2 0 .3.1c.4.3.9.6 1.3 1 .2.1.3.3.3.4 0 .1-.1.3-.2.4-.2.2-.4.5-.6.8-1.2 2.4-2.4 4.4-3.8 5.9-.9 1-1.9 1.9-3 2.8-1 .8-1.9 1.4-2.8 1.9-.1.1-.2.1-.3.1-.1 0-.3-.1-.4-.2-.5-.4-1.1-.7-1.8-.9 1.5-.9 2.8-1.7 3.8-2.4.8-.6 1.7-1.5 2.6-2.4.8-.9 1.5-1.8 2-2.6s1-1.7 1.5-2.8l-4.6.1c-1.5 1.9-2.7 3.2-3.6 3.9-.1.1-.3.2-.4.2-.1 0-.2 0-.3-.1-.6-.4-1.2-.7-1.8-.8 2.1-1.7 3.8-3.6 5.1-5.6.6-1 1-1.8 1.1-2.6 1.1.4 1.8.7 2.2 1 .1.1.2.2.2.3 0 .1-.1.2-.2.3-.1 0-.2.2-.5.5s-.5.6-.7 1.1zm14.3 2.3c2.4.7 4.4 1.6 6 2.6.2.1.2.2.2.3v.2c-.2.6-.5 1.1-.8 1.7l-.2.2c-.1 0-.1 0-.2-.1-1.8-1.1-3.4-2-5-2.4v4.2c0 .7 0 1.9.1 3.7v.1c0 .2-.1.2-.3.2h-1.6c-.2 0-.4-.1-.4-.3 0-1.2.1-2.5.1-3.7v-9.4c0-1.2-.1-2.1-.2-2.8 1.1.1 1.9.2 2.4.3.2 0 .4.2.4.3 0 .1-.1.3-.2.4-.1.2-.1.8-.1 1.8v2.7zm11.1 5.9H592c-.1 0-.2-.1-.2-.2v-1.1c0-.1.1-.2.2-.2h7.4v-.9h-5.7c-.1 0-.2-.1-.2-.2v-1.2h5.9v-.8h-5.2v-3.4h5.2v-.8H592v-1.6h7.4c0-.7 0-1.2-.1-1.7.9 0 1.5.1 2 .1.2 0 .3.1.3.2s0 .2-.1.4-.1.6-.1 1.1h7.4v1.6h-7.4v.8h5.4v3.4h-5.4v.8h5.9v2.3h1.7c.1 0 .2.1.2.2v1.1c0 .1-.1.2-.2.2h-1.7v3h-1.9v-.6h-4v.9c0 .9-.2 1.4-.7 1.7-.5.3-1.4.4-2.7.4-.3 0-.5 0-.5-.1 0 0-.1-.2-.2-.5-.2-.5-.4-1-.7-1.4.5.1 1 .1 1.4.1h.5c.4 0 .7-.1.8-.2.1-.1.2-.3.2-.5v-.4h-5.9v-1.4h5.9v-.9h-5.2zm1.7-5.8h3.4v-.9H596v.9zm8.8 0v-.9h-3.5v.9h3.5zm.5 3.4h-4v.9h4v-.9zm-4 3.3h4v-.9h-4v.9zm12.3-.2H611v-1.5h7.3v-1h-5.5v-1.5h5.5v-1H612v-1.4h3.9c-.2-.5-.4-.9-.6-1.2 0-.1-.1-.1-.1-.2s.1-.1.2-.1l1.2-.3H611V134h2.7c-.2-.5-.6-1-1.1-1.6l-.1-.1c0-.1.1-.1.2-.2l1.1-.5c.1 0 .1-.1.2-.1s.1 0 .2.1c.6.7 1 1.3 1.3 1.8 0 .1.1.1.1.1l-.2.2-.5.2h1.8v-1.3c0-.7 0-1.3-.1-1.7.8 0 1.4.1 1.8.1.2 0 .2.1.2.2s0 .2-.1.3c-.1.2-.1.5-.1 1v1.3h1.5v-1.2c0-.8 0-1.3-.1-1.7.8 0 1.4.1 1.8.1.2 0 .3.1.3.2s0 .2-.1.3c-.1.2-.1.5-.1 1v1.3h1.2c.3-.5.6-1 .9-1.6.2-.3.3-.7.3-1 .6.1 1.2.3 1.8.5.2.1.3.1.3.2s-.1.2-.2.3c-.1.1-.2.2-.3.4l-.8 1.2h2.9v1.6h-5.9l1.5.3c.2 0 .3.1.3.2s-.1.2-.2.3c0 0-.1.2-.3.4l-.3.6h3.9v1.3c0 .1-.1.2-.2.2h-6.3v1h5.8v1.5h-5.8v1h7.6v1.5h-6c1.5 1 3.6 1.9 6.3 2.5-.3.4-.5.8-.7 1.2-.1.3-.3.5-.4.5-.1 0-.2 0-.4-.1-2.6-.7-4.7-1.9-6.4-3.4l.1 3.8v.2h-1.8c-.1 0-.2-.1-.2-.2v-.6c0-1 0-2.1.1-3.1-1.5 1.4-3.5 2.6-6.1 3.4-.2.1-.4.1-.4.1-.1 0-.3-.2-.4-.5-.3-.5-.5-.9-.8-1.1 2.6-.6 4.6-1.5 6.1-2.6h-3.3zm7.8-7.5c.1-.1.1-.4.2-.8h-4.8l.1.1c.3.6.6 1.1.9 1.7h3.1c.2-.2.3-.6.5-1z"/><linearGradient id="楕円形_86_00000073694600809919903970000006428391879174992002_" gradientUnits="userSpaceOnUse" x1="31.415" y1=".623" x2="29.796" y2=".623" gradientTransform="matrix(219 0 0 219 -6165 274)"><stop offset="0" stop-color="#fbff8d"/><stop offset=".041" stop-color="#fbff8d"/><stop offset=".263" stop-color="#80ebc1"/><stop offset=".727" stop-color="#2da9e3"/><stop offset="1" stop-color="#2da9e3"/></linearGradient><circle id="楕円形_86" cx="560.5" cy="410.5" r="109.5" fill="url(#楕円形_86_00000073694600809919903970000006428391879174992002_)"/><path class="st4" d="M539.5 408.9c-3.5 0-6.5-.9-9-2.7-2.5-1.8-4.4-4.4-5.8-7.7-1.3-3.4-2-7.4-2-12.2 0-4.8.7-8.8 2-12.2 1.3-3.3 3.3-5.9 5.8-7.7 2.5-1.8 5.5-2.6 9-2.6s6.5.9 9 2.6c2.5 1.8 4.4 4.3 5.8 7.7 1.3 3.4 2 7.4 2 12.1 0 4.8-.7 8.8-2 12.2-1.3 3.4-3.3 5.9-5.8 7.7-2.5 1.9-5.5 2.8-9 2.8zm0-6.6c2.7 0 4.9-1.3 6.5-4 1.6-2.7 2.4-6.7 2.4-11.9 0-3.5-.4-6.4-1.1-8.7-.7-2.4-1.7-4.1-3.1-5.3-1.3-1.2-2.9-1.8-4.7-1.8-2.7 0-4.9 1.3-6.4 4-1.6 2.7-2.4 6.6-2.4 11.8 0 3.5.3 6.4 1.1 8.8.7 2.4 1.7 4.2 3.1 5.4 1.2 1.1 2.8 1.7 4.6 1.7zm23.1-2.3v-6.3l18.5-29.3h5.2v8.9h-3.2l-12.5 19.8v.3h25.8v6.5h-33.8zm20.8 8.1v-10l.1-2.8v-30.8h7.5v43.6h-7.6zm-57.8 37.4c-.1.5-.2 1.1-.2 1.6 0 .3-.1.4-.1.5-.1 0-.3.1-.7.2-2 .4-4.5.9-7.6 1.4-.5.1-.8.2-.9.3-.1.1-.3.1-.4.1-.2 0-.3-.1-.4-.4-.1-.4-.3-1.1-.5-2.1.2 0 1.1-.1 2.7-.3l.7-.1v-2.6c-1.4.7-2.9 1.4-4.6 1.9-.3.1-.5.1-.6.1-.2 0-.3-.2-.5-.6-.3-.6-.7-1.1-1-1.4 3.3-.7 5.9-1.8 7.8-3.1h-7.1c-.2 0-.2-.1-.2-.3v-1.8c0-.2.1-.3.2-.3h9.6c0-.4 0-1-.1-1.9 1 .1 1.8.1 2.5.2.3 0 .4.1.4.3 0 .1-.1.3-.2.5-.1.1-.1.4-.1.8h9.8v2.2h-3.3c.5.3 1 .7 1.4 1 .2.1.2.2.2.4s-.1.3-.3.3c-.2.1-.5.2-.8.5-.5.4-1.2.9-2.2 1.6 1.6 1 3.5 1.7 5.8 2.1-.4.5-.8 1.1-1.1 1.7-.2.4-.4.6-.5.6-.1 0-.3 0-.5-.1-4.8-1.5-8-4.2-9.7-8.1h-.4c-.5.5-1.2 1.1-2.1 1.7v3.7c1.9.1 3.6-.2 5-.6zm-8.7-18.8c1 0 1.8.1 2.6.2.3 0 .4.1.4.3 0 .1-.1.3-.2.5s-.1.8-.1 1.9v8.2c0 .2-.1.3-.3.3h-2.1c-.1 0-.2 0-.2-.1v-2.8c-1 .5-2.1 1-3.2 1.4-.4.1-.6.3-.8.4-.2.1-.3.2-.4.2-.1 0-.2-.1-.3-.3-.2-.5-.5-1.2-.8-2.2.5-.1 1.2-.2 2.1-.5 1.4-.5 2.5-.9 3.4-1.3v-3.3c0-1.2 0-2.2-.1-2.9zm-2.8 1.4c1.1 1 2 1.8 2.4 2.4.1.1.1.2.1.2 0 .1-.1.2-.2.3l-1.3 1.2c-.2.1-.3.2-.3.2l-.2-.2c-.7-1-1.4-1.8-2.2-2.6-.1-.1-.1-.1-.1-.2s.1-.1.2-.3l1.1-1.1c.1-.1.2-.2.3-.2 0 .2.1.2.2.3zm10.4 8.6h-3.4v-1.9c0-.1 0-.2.1-.2h4.5v-2.7h-5.1v-2.2h5.1v-.5c0-1-.1-1.8-.2-2.4.6 0 1.5.1 2.6.2.3 0 .4.1.4.3 0 .1 0 .3-.1.5s-.1.7-.1 1.4v.6h5.4c.1 0 .2 0 .2.1v2.1h-5.6v2.7h4.8c.1 0 0 .1 0 .2v1.7c0 .1 0 .2-.1.2h-8.5zm2.9 7c.9-.6 1.6-1.2 2.2-1.8.2-.2.4-.4.6-.7h-4.8c.5 1 1.2 1.8 2 2.5zm13.2-8.2h-3.4v-1.9h10.1s.1-.2.1-.6c0-.2.1-.4.1-.5h-9.4c-.2 0-.3-.1-.3-.2v-4.7h20.3v4.7c0 .2-.1.2-.3.2H550l-.3 1.1h9.2v1.9h-9.5s-.1.3-.1.6c0 .2-.1.4-.1.5h7.1v8.9h-13.1v-8.9h3.5l.3-1.1h-6.4zm-2.3 1.8c.9 0 1.8 0 2.6.1.3 0 .4.1.4.3 0 .1-.1.3-.2.6-.1.2-.1.8-.1 1.7v6.6h18.1v2H541v.8h-2.3c-.1 0-.2 0-.2-.1v-9.5c-.1-.8-.1-1.8-.2-2.5zm2.1-6.6h3.6v-1.4h-3.6v1.4zm5 7.6v1h8.3v-1h-8.3zm0 3.3h8.3v-.9h-8.3v.9zm8.4 2.4v-1h-8.3v1h8.3zm-4.1-13.3v-1.4h-3.6v1.4h3.6zm6 0v-1.4H552v1.4h3.7zm9.3 11.7h-3.1c-.2 0-.2-.1-.2-.3v-1.5c0-.2.1-.3.2-.3h9.8v-1.2h-7.5c-.2 0-.3-.1-.3-.2v-1.4c0-.1 0-.2.1-.2h7.7v-1.1H565c-.1 0-.2 0-.3-.1v-4.4h7v-1.1H562v-2h9.7c0-.9-.1-1.6-.2-2.3 1.1 0 2 .1 2.6.1.3 0 .4.1.4.3 0 .1 0 .3-.1.5-.1.3-.2.7-.2 1.4h9.7v2h-9.7v1.1h6.8c.1 0 .2 0 .2.1v4.4h-7v1.1h7.7v3h2.2c.2 0 .3.1.3.3v1.5c0 .2-.1.3-.3.3H582v3.8h-2.1c-.1 0-.2 0-.2-.1v-.7h-5.3v1.2c0 1.1-.3 1.9-.9 2.2-.6.3-1.8.5-3.5.5-.4 0-.6 0-.7-.1-.1-.1-.2-.3-.3-.6-.3-.7-.6-1.4-1-1.9.7.1 1.3.1 1.9.1h.6c.6 0 .9-.1 1.1-.2.1-.1.2-.3.2-.7v-.6h-7.5c-.1 0-.2 0-.2-.1v-1.5c0-.1 0-.2.1-.3h7.7v-1.2H565zm2.2-7.6h4.5v-1.2h-4.5v1.2zm11.7 0v-1.2h-4.6v1.2h4.6zm.7 4.5h-5.3v1.2h5.3v-1.2zm-5.3 4.3h5.3v-1.2h-5.3v1.2zm16.1-.2h-3.5v-2h9.6v-1.3h-7.2v-1.9h7.2v-1.3h-8.3v-1.7c0-.1 0-.2.1-.2h5c-.3-.6-.5-1.1-.8-1.6-.1-.1-.1-.2-.1-.2 0-.1.1-.1.3-.2l1.6-.5h-7.5v-2h3.6c-.3-.6-.8-1.4-1.4-2.1-.1-.1-.1-.1-.1-.2s.1-.2.3-.3l1.4-.7c.1 0 .2-.1.2-.1.1 0 .2.1.2.2.7.9 1.3 1.7 1.7 2.4 0 .1.1.2.1.2 0 .1-.1.1-.3.2l-.6.3h2.3v-1.6c0-1 0-1.7-.1-2.2 1 0 1.8.1 2.4.1.2 0 .3.1.3.2s0 .2-.1.4-.1.7-.1 1.4v1.6h2v-1.6c0-1-.1-1.7-.2-2.2 1.1 0 1.9.1 2.4.2.2 0 .3.1.3.2s0 .2-.1.4-.2.7-.2 1.4v1.6h1.6c.4-.7.8-1.4 1.1-2.1.2-.4.4-.9.4-1.3l2.4.6c.2.1.3.2.3.3 0 .1-.1.3-.2.4-.1.1-.3.3-.4.5-.2.3-.6.8-1 1.5h3.5c.1 0 .2 0 .2.1v1.9H601c.7.1 1.4.3 2 .5.2.1.3.2.3.3 0 .2-.1.3-.3.4 0 0-.2.2-.3.5l-.5.8h5.1v1.7c0 .2-.1.2-.3.2h-8.4v1.3h7.4c.1 0 .2 0 .2.1v1.8h-7.6v1.3h9.7c.1 0 .2 0 .2.1v1.9h-7.8c1.9 1.4 4.7 2.4 8.3 3.2-.4.5-.7 1-1 1.6-.2.4-.4.6-.5.6-.1 0-.3 0-.6-.1-3.4-1-6.2-2.5-8.4-4.5l.1 4.9v.2h-2.3c-.2 0-.3-.1-.3-.3v-.8c0-1.3.1-2.7.1-4.1-2 1.9-4.7 3.4-8 4.5-.3.1-.5.1-.6.1-.2 0-.3-.2-.5-.6-.3-.7-.7-1.2-1-1.5 3.4-.9 6.1-2 8-3.5h-3.6zm10.3-9.9c.1-.2.2-.5.3-1h-6.4l.2.2c.4.8.8 1.5 1.1 2.3h4.1c.2-.4.5-.9.7-1.5z"/><linearGradient id="長方形_2568_00000135693078350565814460000018382056191109348795_" gradientUnits="userSpaceOnUse" x1="31.467" y1="-.228" x2="30.198" y2="1.041" gradientTransform="rotate(45 2303.643 -5165.852) scale(153.965)"><stop offset="0" stop-color="#fbff8d"/><stop offset=".041" stop-color="#fbff8d"/><stop offset=".263" stop-color="#80ebc1"/><stop offset=".972" stop-color="#2da9e3"/><stop offset="1" stop-color="#2da9e3"/></linearGradient><path id="長方形_2568" fill="url(#長方形_2568_00000135693078350565814460000018382056191109348795_)" d="M334 150.1L442.9 259 334 367.9 225.1 259z"/><path class="st4" d="M302 240.1v2h-4.2v12h-2.5v-12h-4.1v-2H302zm7.5 0l4.3 14h-2.5l-1.2-4.1h-4.3l-1.2 4.1h-2.3l4.3-14h2.9zm.1 8.1l-.8-2.8c-.1-.4-.4-1.5-.8-3.4h-.2c-.3 1.3-.6 2.4-.9 3.4l-.8 2.8h3.5zm16.7-8.1l-4.8 5.6 5.3 8.4H324l-4.1-6.7-1.6 1.8v4.9h-2.4v-14h2.4v6.4l5.3-6.4h2.7zm8.4 0l4.3 14h-2.5l-1.2-4.1H331l-1.2 4.1h-2.3l4.3-14h2.9zm.2 8.1l-.8-2.8c-.1-.4-.4-1.5-.8-3.4h-.2c-.3 1.3-.6 2.4-.9 3.4l-.8 2.8h3.5zm6.2-8.1h4.7c2.3 0 4 .6 5.1 1.9 1 1.2 1.5 2.8 1.5 5 0 2.4-.7 4.3-2.2 5.5-1.2 1-2.8 1.5-4.8 1.5H341v-13.9zm2.4 1.9v10.2h1.9c1.5 0 2.6-.5 3.4-1.4.7-.9 1.1-2.1 1.1-3.8 0-3.4-1.4-5-4.3-5h-2.1zm17.2-1.9l4.3 14h-2.5l-1.2-4.1H357l-1.2 4.1h-2.3l4.3-14h2.9zm.1 8.1l-.8-2.8c-.1-.4-.4-1.5-.8-3.4h-.2c-.3 1.3-.6 2.4-.9 3.4l-.8 2.8h3.5zm11.2-9c.8.1 1.5.3 2 .5.1.1.2.2.2.3 0 .1 0 .2-.1.3-.1.1-.2.2-.3.4 0 .1-.1.1-.1.3-.1.3-.2.5-.3.7 1.2-.1 2.3-.3 3.3-.6h.1c.1 0 .2.1.2.2.1.4.2.8.2 1.3v.1c0 .1-.1.2-.3.2-1.4.2-2.8.4-4.2.5-.6.9-1 1.6-1.3 2 .6-.4 1.2-.6 1.8-.6 1.3 0 2 .6 2.2 1.9 1.2-.6 2.1-1 2.7-1.3.6-.3 1-.6 1.4-1 .6.6 1 1.1 1.3 1.6.1.1.1.3.1.4 0 .1-.1.2-.3.3-.4.1-.7.1-1.1.3-1.8.6-3.1 1.1-3.9 1.4v2.9c0 .2-.1.3-.3.3-.4.1-.8.1-1.3.1-.2 0-.2-.1-.2-.3v-2.2c-.8.4-1.4.8-1.7 1.3-.3.3-.4.7-.4 1.1 0 .8.8 1.2 2.5 1.2 1.3 0 2.8-.1 4.5-.4h.1c.1 0 .2.1.2.2.1.5.2 1 .2 1.5v.1c0 .2-.1.3-.2.3-1.2.2-2.7.2-4.5.2-3 0-4.5-1-4.5-3 0-.9.3-1.7 1-2.5.6-.6 1.5-1.3 2.8-1.9 0-.5-.1-.8-.3-1-.1-.2-.4-.3-.7-.3h-.1c-.7 0-1.5.5-2.5 1.3-.6.5-1.2 1.2-1.8 2l-.2.2s-.1 0-.2-.1c-.5-.5-.9-.9-1-1.2 0-.1-.1-.1-.1-.2s0-.1.1-.2c1.6-1.5 2.9-2.9 3.8-4.5-.8 0-1.8.1-2.9.1-.1 0-.2-.1-.3-.3 0-.2-.1-.7-.2-1.5h1.8c.8 0 1.5 0 2.3-.1.2-.5.4-1 .5-1.5v-.8zm-92.1 39.1c.7-1 1.2-2 1.5-3.1.3-1 .4-2.2.4-3.7v-2c0-.1.1-.2.2-.2h7.2v5.2h-5.9c-.1.8-.3 1.4-.4 2-.2.9-.6 1.8-1.2 2.8-.1.2-.2.3-.3.3-.1 0-.2-.1-.4-.3-.4-.5-.8-.8-1.1-1zm4.7-14.6c.6.1 1.1.2 1.7.3.2 0 .2.1.2.2s-.1.2-.2.2c.6.7 1.2 1.2 1.9 1.6.5.3 1.2.7 2 1-.2.3-.4.7-.6 1.2-.1.3-.2.4-.3.4-.1 0-.2-.1-.4-.2-.5-.3-1-.6-1.5-1v1.1h-3.8v-1c-.8.7-1.6 1.3-2.3 1.7l-.4.2c-.1 0-.2-.1-.3-.4-.2-.4-.4-.8-.7-1.1 1.8-.8 3.2-1.9 4.2-3.3.2-.3.4-.6.5-.9zm4.9 16.2c0 .1-.1.2-.2.2H288c-.1 0-.2-.1-.2-.2v-.4h-2.9v.7h-1.7v-4.8h6.4v2.4l-.1 2.1zm-2.1-6.7v-.7h-4l-.1.7h4.1zm0-2.7h-4v.7h4v-.7zm-3.4-3.3h3c-.6-.5-1.1-1-1.6-1.6-.4.6-.9 1.2-1.4 1.6zm3.7 9.5h-2.9v1.5h2.9v-1.5zm4.9-11s0 .1-.1.4c0 .2-.1.8-.1 1.9v7.6h-1.9V268c0-1.2 0-2.1-.1-2.7.6 0 1.3.1 1.8.1.3.1.4.1.4.3zm-1.3 12.3c.6.1 1.3.1 1.9.1.3 0 .5-.1.6-.2.1-.1.2-.3.2-.6v-10.8c0-1.1 0-1.9-.1-2.6.7 0 1.3.1 1.9.1.2 0 .3.1.3.2s0 .2-.1.4c-.1.1-.1.8-.1 1.8v11.2c0 .5 0 .9-.1 1.1s-.3.5-.5.6c-.3.2-.6.3-1 .4-.4.1-1 .1-1.7.1-.3 0-.5 0-.5-.1s-.1-.2-.2-.5l-.6-1.2zm9-13.5c.9.2 1.5.4 2 .6.2.1.3.2.3.4 0 .1 0 .2-.1.3-.1.1-.2.4-.3.8-.2.8-.3 1.9-.5 3.4 0 .8-.1 1.3-.1 1.5v.5c.4-.8.9-1.5 1.3-2.3.1.4.3.8.6 1.2.1.1.1.2.1.3 0 .1-.1.3-.2.4-.6 1.1-.9 1.8-1.1 2.3 0 .1-.1.3-.1.5s-.1.2-.2.3c-.2.1-.7.1-1.4.2-.1 0-.2-.1-.3-.2-.4-1-.5-2.2-.5-3.6 0-.8.1-2.3.4-4.5.1-.9.1-1.6.1-2.1zm5.8 0c1 0 1.7.1 2.1.2.2.1.4.2.4.3v1c.2 2.3.3 3.8.3 4.6 0 2.8-.5 4.8-1.4 6.2-.7 1.1-1.7 2.1-3 2.9-.1.1-.2.1-.4.1-.1 0-.2-.1-.4-.2-.5-.4-1-.7-1.5-.8 1.4-.8 2.4-1.6 3.1-2.4.6-.8 1-1.6 1.2-2.5.2-.8.3-1.9.3-3.2 0-1.5-.1-3-.2-4.3-.2-.7-.3-1.4-.5-1.9zm18.6 1.3c.7 0 1.3.1 1.9.1.2 0 .3.1.3.2s0 .2-.1.4-.1.8-.1 1.8v4.4h-1.9v-.9h-3.7v5.5h4.3V276c0-1 0-1.7-.1-2.3.7 0 1.3.1 1.9.1.2 0 .3.1.3.2s0 .2-.1.4-.1.8-.1 1.8v3.8c0 .1-.1.2-.2.2h-1.5c-.1 0-.2-.1-.2-.2v-.8h-10.2v.9c0 .1-.1.2-.2.2h-1.7V276c0-.9 0-1.7-.1-2.3.7 0 1.3.1 1.9.1.2 0 .3.1.3.2 0 0 0 .1-.1.4-.1.2-.1.7-.1 1.6v1.3h4v-5.5h-3.5v.9c0 .1-.1 0-.2 0h-1.7c-.1 0 0-.1 0-.2v-4.4c0-1 0-1.7-.1-2.3.7 0 1.3.1 1.9.1.2 0 .3.1.3.2v.2c0 .1 0 .1-.1.2-.1.2-.1.7-.1 1.6v2h3.5v-3.9c0-.9 0-1.7-.1-2.3.6 0 1.3.1 2 .1.2 0 .3.1.3.2 0 0 0 .2-.1.4s-.1.7-.1 1.7v3.9h3.7v-2c-.1-1.1-.2-1.8-.2-2.4zm13.3 1.3v-1.5c0-.5-.1-.9-.2-1.3.9.1 1.6.1 2.1.3.3.1.5.2.5.3 0 .1-.1.2-.2.4-.1.1-.1.3-.1.5v1.2c1.6-.1 3.5-.1 5.5-.1.1 0 .2 0 .2.1s0 .1.1.2v1.4c0 .2-.1.2-.2.2h-.1c-1.1 0-2.2-.1-3.5-.1h-2v3.3c.2.5.3 1.1.3 1.8 0 2.5-1.1 4.4-3.2 5.8-.4.2-.6.3-.7.3-.1 0-.3-.1-.5-.3-.4-.3-.8-.6-1.4-.7 1.1-.5 2-1.1 2.6-1.9.6-.6.9-1.3 1.1-2.1-.3.5-.9.7-1.7.7-.8 0-1.4-.3-1.9-.8-.4-.5-.6-1.1-.6-1.9 0-.9.3-1.6.9-2.1.5-.4 1.1-.6 1.8-.6.6 0 1.1.1 1.4.4v-1.8c-2.6.1-4.7.3-6.2.5-.1 0-.3.1-.5.1-.2.1-.3.1-.3.1-.2 0-.3-.1-.3-.3-.1-.3-.3-.9-.4-1.8h.6c.2 0 .7 0 1.6-.1.7 0 2.6-.1 5.3-.2zm-1.1 4.6c-.3 0-.6.1-.9.3s-.3.5-.3.8c0 .4.1.7.4 1 .2.2.5.3.8.3.4 0 .7-.1.9-.4.2-.2.3-.5.3-.9s-.1-.7-.4-.9c-.2-.1-.5-.2-.8-.2zm17.9-6.6v9h1.7v1.7h-1.7v3.1h-2.1v-3.1h-5.2v-1.6l4.5-9.1h2.8zm-2 9v-3c0-1 0-2.4.1-4.2h-.2c-.4 1.1-.9 2.3-1.5 3.6l-1.7 3.6h3.3zm7.7 1h-2.2c-.1 0-.2-.1-.2-.2v-1.1c0-.1.1-.2.2-.2h7v-.8h-5.4c-.1 0-.2-.1-.2-.2v-1.2h5.6v-.8h-5v-3.2h5v-.8h-7c-.1 0 0-.1 0-.2v-1.3c0-.1.1 0 .2 0h6.8c0-.6 0-1.2-.1-1.7.8 0 1.4.1 1.9.1.2 0 .3.1.3.2s0 .2-.1.3c-.1.2-.1.5-.1 1h7.1v1.5c0 .1-.1 0-.2 0h-6.9v.8h5.1v3.2h-5.1v.8h5.6v2.2h1.6c.1 0 .2.1.2.2v1.1c0 .1-.1.2-.2.2h-1.6v2.8H371v-.6h-3.8v.9c0 .8-.2 1.4-.7 1.6-.4.2-1.3.4-2.5.4-.3 0-.5 0-.5-.1l-.2-.4c-.2-.5-.4-1-.7-1.4.5.1.9.1 1.4.1h.4c.4 0 .7-.1.8-.2.1-.1.1-.2.1-.5v-.4h-5.7v-1.4h5.7v-.8h-4.8zm1.6-5.4h3.3v-.9h-3.3v.9zm8.4 0v-.9h-3.3v.9h3.3zm.5 3.2h-3.8v.8h3.8v-.8zm-3.9 3.1h3.8v-.8h-3.8v.8zm11.6-.2h-2.5v-1.5h6.9v-1h-5.2v-1.4h5.1v-.9h-6v-1.2h3.7c-.2-.4-.4-.8-.6-1.1 0-.1-.1-.1-.1-.2s.1-.1.2-.1l1.2-.3H376v-1.5h2.6c-.2-.5-.6-1-1-1.5l-.1-.1c0-.1.1-.1.2-.2l1-.5c.1 0 .1-.1.2-.1s.1 0 .2.1c.5.6.9 1.2 1.2 1.7 0 .1.1.1.1.1l-.2.2-.4.2h1.7v-1.2c0-.7 0-1.2-.1-1.6.7 0 1.3.1 1.7.1.1 0 .2.1.2.2s0 .2-.1.3c-.1.2-.1.5-.1 1v1.2h1.5v-1.2c0-.7 0-1.2-.1-1.6.8 0 1.3.1 1.7.1.2 0 .2.1.2.2s0 .2-.1.3c-.1.2-.1.5-.1 1v1.2h1.1c.3-.5.6-1 .8-1.5.2-.3.3-.6.3-1 .6.1 1.1.3 1.7.5.2.1.2.1.2.2s-.1.2-.2.3l-.3.3c-.2.2-.4.6-.7 1.1h2.8v1.5c0 .1-.1 0-.2 0h-5.5c.5.1 1 .2 1.4.3.2 0 .2.1.2.2s-.1.2-.2.3c0 0-.1.1-.2.4l-.3.6h3.8v1.3c0 .1-.1.2-.2.2H385v.9h5.6v1.4H385v1h7.2v1.5h-5.7c1.4 1 3.4 1.8 6 2.3-.3.3-.5.7-.7 1.2-.1.3-.3.5-.4.5-.1 0-.2 0-.4-.1-2.4-.7-4.4-1.8-6-3.2l.1 3.6v.2h-1.7c-.1 0-.2-.1-.2-.2v-.6c0-1 0-1.9.1-2.9-1.4 1.4-3.4 2.4-5.8 3.2-.2.1-.3.1-.4.1-.1 0-.2-.2-.4-.5-.2-.5-.5-.8-.7-1.1 2.5-.6 4.4-1.5 5.7-2.5h-3zm7.5-7.1c.1-.1.1-.4.2-.7h-4.6l.1.1c.3.5.6 1.1.8 1.6h3l.5-1z"/></svg>