<svg version="1.1" id="レイヤー_1" xmlns="http://www.w3.org/2000/svg" x="0" y="0" viewBox="0 0 1295.1 625.9" xml:space="preserve"><style>.st0{fill:#fff}.st1{opacity:.4}.st1,.st2,.st3,.st4,.st5{fill:#fff;enable-background:new}.st2{opacity:.6}.st3{opacity:.502}.st4{opacity:.302}.st5{opacity:.8}</style><path id="シェイプ_4" class="st0" d="M1242.5 1l.5-.9 29 16-.5.9-29-16z"/><path id="シェイプ_175" class="st0" d="M79.7 475l.1-1 48-6-.1 1-48 6z"/><path id="シェイプ_186" class="st0" d="M127.6 498l.2-1 124-4-.2 1-124 4z"/><path id="シェイプ_188" class="st0" d="M126.2 464.5l1 .1-2 35-1-.1 2-35z"/><path id="シェイプ_176" class="st1" d="M127.2 463.4l.9.3-45 127-.9-.3 45-127z"/><path id="シェイプ_5" class="st2" d="M1272.4 14.2l.7.8-68 59-.7-.8 68-59z"/><path id="シェイプ_6" class="st1" d="M1204.4 74.9l.7-.7 62 67-.7.7-62-67z"/><path id="シェイプ_7" class="st0" d="M1266.1 136.8l-.8-.6 29-44 .8.6-29 44z"/><path id="シェイプ_8" class="st2" d="M1265.2 139.5l-1 .1-11-108 1-.1 11 108z"/><path id="シェイプ_184" class="st1" d="M1257.3 83.2l.8.6-48 65-.8-.6 48-65z"/><path id="シェイプ_9" class="st0" d="M1254.2 31.4l-1 .3-9-29 1-.3 9 29z"/><path id="シェイプ_10" class="st0" d="M1244.3 2.3l.9.5-42 73-.9-.5 42-73z"/><path id="シェイプ_11" class="st0" d="M1203.1 75.2l-.8.6-50-65 .8-.6 50 65z"/><path id="シェイプ_12" class="st0" d="M1152.8 11l-.1-1 92-7 .1 1-92 7z"/><path id="シェイプ_13" class="st0" d="M1202.2 73.6l1-.1 8 74-1 .1-8-74z"/><path id="シェイプ_14" class="st0" d="M1211.2 147.6l1-.2 11 57-1 .2-11-57z"/><path id="シェイプ_15" class="st3" d="M1223.1 204.8l-.8-.5 43-69 .8.5-43 69z"/><path id="シェイプ_16" class="st0" d="M1213.8 146l-.2-1 52-9 .2 1-52 9z"/><path id="シェイプ_17" class="st0" d="M1211.7 146v1l-99-4v-1l99 4z"/><path id="シェイプ_18" class="st0" d="M1113.1 142.9l-.7-.7 38-40 .7.7-38 40z"/><path id="シェイプ_19" class="st3" d="M1150.8 104l-.2-1 108-21 .2 1-108 21z"/><path id="シェイプ_20" class="st0" d="M1151.2 10.5h1l-3 94h-1l3-94z"/><path id="シェイプ_21" class="st1" d="M1149.1 104.2l-.7.7-41-44 .7-.7 41 44z"/><path id="シェイプ_22" class="st0" d="M1108.1 60.9l-.8-.7 44-50 .8.7-44 50z"/><path id="シェイプ_23" class="st0" d="M1167.5 24.1l.5.9-61 38-.5-.9 61-38z"/><path id="シェイプ_160" class="st0" d="M1244.6 3.1l.3 1-80 22-.3-1 80-22z"/><path id="シェイプ_161" class="st3" d="M1246.4 2.2l.7.7-97 100-.7-.7 97-100z"/><path id="シェイプ_162" class="st0" d="M1270.2 19.5h1l-6 121h-1l6-121z"/><path id="シェイプ_24" class="st0" d="M1106.5 61.1l.4.9-69 33-.4-.9 69-33z"/><path id="シェイプ_25" class="st3" d="M1037.5 95l.5-.8 79 49-.5.9-79-49.1z"/><path id="シェイプ_158" class="st2" d="M1210.5 147.1l.5.9-85 47-.5-.9 85-47z"/><path id="シェイプ_159" class="st2" d="M1125.6 194.1l.3 1-106 29-.3-1 106-29z"/><path id="シェイプ_26" class="st0" d="M1117 143.2l-.7.8-91-78 .7-.8 91 78z"/><path id="シェイプ_27" class="st3" d="M1026.2 66.7l1-.3 27 114-1 .3-27-114z"/><path id="シェイプ_28" class="st3" d="M1055.6 182l.2-1 73 11-.2 1-73-11z"/><path id="シェイプ_29" class="st0" d="M1128.7 193l.1-1 93 10-.1 1-93-10z"/><path id="シェイプ_30" class="st0" d="M1128.3 191.2l.8.6-67 86-.8-.6 67-86z"/><path id="シェイプ_31" class="st0" d="M1062.2 277.5l-1 .1-7-98 1-.1 7 98z"/><path id="シェイプ_32" class="st1" d="M1065.1 277.2l-.8.6-67-82 .8-.6 67 82z"/><path id="シェイプ_33" class="st0" d="M997.2 195.7l-.9-.4 39-100 .9.4-39 100z"/><path id="シェイプ_34" class="st2" d="M1039.7 92v1l-115-5v-1l115 5z"/><path id="シェイプ_35" class="st0" d="M924.8 88l-.2-1 104-19 .2 1-104 19z"/><path id="シェイプ_36" class="st0" d="M1028.8 69l-.1-1 81-7 .1 1-81 7z"/><path id="シェイプ_37" class="st1" d="M927.9 86.1l-.5.9-106-54 .5-.9 106 54z"/><path id="シェイプ_38" class="st1" d="M821.2 32.7l.9-.3 25 75-.9.3-25-75z"/><path id="シェイプ_39" class="st3" d="M846.7 108l.1-1 99 13-.1 1-99-13z"/><path id="シェイプ_40" class="st2" d="M946 121l-.6-.8 83-55 .6.8-83 55z"/><path id="シェイプ_41" class="st0" d="M1028.3 65.2l.8.6-60 73-.8-.6 60-73z"/><path id="シェイプ_42" class="st3" d="M968.3 138.2l.7.7-68 75-.7-.7 68-75z"/><path id="シェイプ_43" class="st0" d="M900.4 213.9l.6-.8 74 63-.6.8-74-63z"/><path id="シェイプ_44" class="st0" d="M974.7 277v-1l90-1v1l-90 1z"/><path id="シェイプ_45" class="st1" d="M997.2 193.4l1 .3-26 83-1-.3 26-83z"/><path id="シェイプ_46" class="st3" d="M999.6 193l.2 1-100 19-.2-1 100-19z"/><path id="シェイプ_47" class="st1" d="M900.2 211.8l-.9-.4 46-91 .9.4-46 91z"/><path id="シェイプ_185" class="st3" d="M898.7 213l.1-1 123 11-.1 1-123-11z"/><path id="シェイプ_48" class="st0" d="M925.2 85.4l1 .2-26 127-1-.2 26-127z"/><path id="シェイプ_49" class="st0" d="M900 212.2l-.7.8-58-50 .7-.8 58 50z"/><path id="シェイプ_50" class="st1" d="M842.2 162.6l-1-.1 6-57 1 .1-6 57z"/><path id="シェイプ_198" class="st0" d="M847.3 105.8l.9-.4 51 107-.9.4-51-107z"/><path id="シェイプ_51" class="st0" d="M844.1 162.9l-.7-.7 84-78 .7.7-84 78z"/><path id="シェイプ_52" class="st1" d="M844.9 164l-.4-.9 70-32 .4.9-70 32z"/><path id="シェイプ_53" class="st2" d="M914.4 131.9l.6-.8 82 64-.6.8-82-64z"/><path id="シェイプ_54" class="st0" d="M912.7 133l.1-1 55 4-.1 1-55-4z"/><path id="シェイプ_55" class="st0" d="M967.5 137l.5-.9 87 45-.5.9-87-45z"/><path id="シェイプ_56" class="st0" d="M1055 181l-.5-.9 59-39 .5.9-59 39z"/><path id="シェイプ_57" class="st1" d="M1055.3 181.2l.8.7-84 96-.8-.7 84-96z"/><path id="シェイプ_58" class="st0" d="M971.4 276.2l.7.7-33 33-.7-.7 33-33z"/><path id="シェイプ_59" class="st0" d="M939.2 309.3l-.9.4-40-97 .9-.4 40 97z"/><path id="シェイプ_60" class="st0" d="M937.8 308.1l-.2 1-105-23 .2-1 105 23z"/><path id="シェイプ_61" class="st4" d="M833.1 285.9l-.7-.7 71-73 .7.7-71 73z"/><path id="シェイプ_62" class="st1" d="M723.3 90.8l.9-.5 112 196-.9.5-112-196z"/><path id="シェイプ_63" class="st0" d="M837.2 285.6h-1l5-121h1l-5 121z"/><path id="シェイプ_64" class="st0" d="M841.4 164.1l.6.8-70 55-.6-.8 70-55z"/><path id="シェイプ_65" class="st0" d="M775.3 218.3l.9.4-44 90-.9-.4 44-90z"/><path id="シェイプ_164" class="st3" d="M792.2 127.4l1 .2-17 90-1-.2 17-90z"/><path id="シェイプ_165" class="st1" d="M724.4 90.2l.7.7-69 75-.7-.7 69-75z"/><path id="シェイプ_166" class="st4" d="M655.7 168v-1l187-3v1l-187 3z"/><path id="シェイプ_177" class="st0" d="M723.2 90.6h1l8 218h-1l-8-218z"/><path id="シェイプ_178" class="st1" d="M382.8 375l-.1-1 171-21 .1 1-171 21z"/><path id="シェイプ_167" class="st4" d="M461.2 423.4l.9.3-48 129-.9-.3 48-129z"/><path id="シェイプ_168" class="st3" d="M409.8 553l-.2 1-283-57 .2-1 283 57z"/><path id="シェイプ_179" class="st1" d="M77.5 475l.4-.9 47 21-.4.9-47-21z"/><path id="シェイプ_180" class="st3" d="M123.9 498l-.4-.9 143-84 .4.9-143 84z"/><path id="シェイプ_181" class="st0" d="M18.7 493v-1l105 5v1l-105-5z"/><path id="シェイプ_169" class="st0" d="M725 90l-.5-.9 96-56 .5.9-96 56z"/><path id="シェイプ_170" class="st0" d="M820.2 32.4l1 .3-28 94-1-.3 28-94z"/><path id="シェイプ_66" class="st0" d="M731.8 309l-.2-1 104-25 .2 1-104 25z"/><path id="シェイプ_67" class="st3" d="M733.1 308.3l-.8.5-58-91 .8-.5 58 91z"/><path id="シェイプ_68" class="st1" d="M674.2 217.4l-.9.3-18-52 .9-.3 18 52z"/><path id="シェイプ_69" class="st0" d="M655.5 166l.4-.9 72 33-.4.9-72-33z"/><path id="シェイプ_70" class="st0" d="M727.5 199l.4-.9 47 18-.4.9-47-18z"/><path id="シェイプ_71" class="st0" d="M774.3 216.9l.7-.7 62 70-.7.7-62-70z"/><path id="シェイプ_72" class="st0" d="M795.9 126l-.3-.9 52-18 .3.9-52 18z"/><path id="シェイプ_73" class="st0" d="M792.4 127.9l.6-.8 48 38-.6.8-48-38z"/><path id="シェイプ_74" class="st3" d="M794.9 127.1l-.5.9-73-37 .5-.9 73 37z"/><path id="シェイプ_75" class="st0" d="M672.9 217l-.3-.9 55-20 .3.9-55 20z"/><path id="シェイプ_76" class="st0" d="M727.8 197l-.3-1 46-12 .3 1-46 12z"/><path id="シェイプ_77" class="st0" d="M773.9 185l-.3-1 68-19 .3 1-68 19z"/><path id="シェイプ_78" class="st3" d="M674.2 215.4l1 .3-30 111-1-.3 30-111z"/><path id="シェイプ_163" class="st2" d="M645 328.9l-.6-.8 129-110 .6.8-129 110z"/><path id="シェイプ_79" class="st0" d="M647.7 311v-1l85-3v1l-85 3z"/><path id="シェイプ_80" class="st0" d="M732.3 307.2l.8.6-61 72-.8-.6 61-72z"/><path id="シェイプ_81" class="st3" d="M672.2 379.3l-.9.5-29-55 .9-.5 29 55z"/><path id="シェイプ_82" class="st0" d="M643 324.2l-.7.8-51-45 .7-.8 51 45z"/><path id="シェイプ_83" class="st1" d="M591.5 279l.5-.9 58 31-.5.9-58-31z"/><path id="シェイプ_84" class="st1" d="M591 279.9l-.6-.8 85-63 .6.8-85 63z"/><path id="シェイプ_85" class="st0" d="M656.3 167.3l.9.5-66 114-.9-.5 66-114z"/><path id="シェイプ_86" class="st0" d="M590.2 281.6l1-.2 18 82-1 .2-18-82z"/><path id="シェイプ_87" class="st1" d="M609.1 363.9l-.7-.7 37-37 .7.7-37 37z"/><path id="シェイプ_88" class="st0" d="M645.2 326.4l.9.3-31 91-.9-.3 31-91z"/><path id="シェイプ_89" class="st3" d="M615.2 417.8l-.9-.5 110-219 .9.5-110 219z"/><path id="シェイプ_174" class="st1" d="M346.9 473l-.3-1 59-18 .3 1-59 18z"/><path id="シェイプ_90" class="st0" d="M614 419.9l-.6-.8 58-41 .6.8-58 41z"/><path id="シェイプ_189" class="st0" d="M608.6 362l.2-1 65 16-.2 1-65-16z"/><path id="シェイプ_190" class="st1" d="M608.3 361.2l.8.6-47 63-.8-.6 47-63z"/><path id="シェイプ_91" class="st0" d="M614.3 419.3l.8.5-42 64-.8-.5 42-64z"/><path id="シェイプ_92" class="st1" d="M573.2 483.4l-1 .2-12-59 1-.2 12 59z"/><path id="シェイプ_182" class="st1" d="M1106.2 60.6l1-.1 19 132-1 .1-19-132z"/><path id="シェイプ_183" class="st1" d="M1149.4 101.9l.6-.8 64 45-.6.8-64-45z"/><path id="シェイプ_93" class="st0" d="M561.2 424.5l-1 .1-7-73 1-.1 7 73z"/><path id="シェイプ_94" class="st2" d="M554.2 351.8l-.9-.5 40-72 .9.5-40 72z"/><path id="シェイプ_95" class="st0" d="M593.7 279l.1 1-91 9-.1-1 91-9z"/><path id="シェイプ_96" class="st0" d="M502.2 288.5h1l-4 94h-1l4-94z"/><path id="シェイプ_97" class="st3" d="M498.4 383l.6-.8 65 44-.6.8-65-44z"/><path id="シェイプ_98" class="st1" d="M561.5 424.1l.5.9-85 50-.5-.9 85-50z"/><path id="シェイプ_171" class="st3" d="M559.8 424l-.1-1 54-7 .1 1-54 7z"/><path id="シェイプ_172" class="st0" d="M613.9 416.1l-.3 1-115-35 .3-1 115 35z"/><path id="シェイプ_173" class="st5" d="M900.5 213.1l.5.9-169 94-.5-.9 169-94z"/><path id="シェイプ_99" class="st0" d="M476.7 474l.1-1 97 8-.1 1-97-8z"/><path id="シェイプ_100" class="st3" d="M553.3 350.9l.7-.7 61 69-.7.7-61-69z"/><path id="シェイプ_101" class="st0" d="M502.3 289.9l.8-.6 52 63-.8.6-52-63z"/><path id="シェイプ_102" class="st3" d="M553.7 354l.1-1 59 7-.1 1-59-7z"/><path id="シェイプ_103" class="st2" d="M612.6 360l.2 1-119 21-.2-1 119-21z"/><path id="シェイプ_104" class="st0" d="M498.2 380.4l1 .2-21 94-1-.2 21-94z"/><path id="シェイプ_105" class="st0" d="M476.8 474.1l-.2 1-73-18 .2-1 73 18z"/><path id="シェイプ_106" class="st0" d="M404 457l-.5-.9 62-34 .5.9-62 34z"/><path id="シェイプ_107" class="st0" d="M466.1 422.8l-.8-.6 33-42 .8.6-33 42z"/><path id="シェイプ_108" class="st1" d="M498.8 382l-.1 1-112-9 .1-1 112 9z"/><path id="シェイプ_109" class="st1" d="M387 372l-.5-.9 206-92 .5.9-206 92z"/><path id="シェイプ_110" class="st0" d="M502.4 290.2l.7.7-46 49-.7-.7 46-49z"/><path id="シェイプ_111" class="st0" d="M456.7 339l.1 1-81 6-.1-1 81-6z"/><path id="シェイプ_112" class="st3" d="M375.2 345.7l1-.3 29 112-1 .3-29-112z"/><path id="シェイプ_199" class="st3" d="M348.7 473v-1l129 3v1l-129-3z"/><path id="シェイプ_200" class="st4" d="M461.7 424v-1l99 1v1l-99-1z"/><path id="シェイプ_113" class="st0" d="M404.2 457.6l1-.1 8 96-1 .1-8-96z"/><path id="シェイプ_114" class="st0" d="M414.1 554.9l-.8-.6 64-81 .8.6-64 81z"/><path id="シェイプ_115" class="st0" d="M412.7 553v1l-92 1v-1l92-1z"/><path id="シェイプ_116" class="st1" d="M320.2 554.7l-.9-.3 29-85 .9.3-29 85z"/><path id="シェイプ_117" class="st3" d="M344.3 469.8l.8-.6 67 84-.8.6-67-84z"/><path id="シェイプ_118" class="st0" d="M349.2 470.7l-.9-.4 35-96 .9.4-35 96z"/><path id="シェイプ_119" class="st3" d="M387.6 372.1l.3 1-90 24-.3-1 90-24z"/><path id="シェイプ_120" class="st0" d="M291 400l-.5-.8 86-54 .5.8-86 54z"/><path id="シェイプ_121" class="st3" d="M376.3 345.2l.8.6-69 67-.8-.6 69-67z"/><path id="シェイプ_196" class="st1" d="M194.9 386l-.3-1 83-23 .3 1-83 23z"/><path id="シェイプ_197" d="M274.2 362.5l1 .2-8 51-1-.2 8-51z" opacity=".2" fill="#fff"/><path id="シェイプ_122" class="st4" d="M381.4 376.2l.7.7-132 116-.7-.7 132-116z"/><path id="シェイプ_123" class="st0" d="M249.4 492.9l.7-.8 73 63-.7.8-73-63z"/><path id="シェイプ_124" class="st1" d="M251.2 493.6l-1-.2 17-85 1 .2-17 85z"/><path id="シェイプ_125" class="st2" d="M265.9 412l-.3-1 28-13 .3 1-28 13z"/><path id="シェイプ_126" class="st3" d="M296.3 397.3l.9.4-46 96-.9-.4 46-96z"/><path id="シェイプ_127" class="st0" d="M250.4 493.2l.7.7-65 70-.7-.7 65-70z"/><path id="シェイプ_128" class="st0" d="M185.6 564l.2-1 102 21-.2 1-102-21z"/><path id="シェイプ_129" class="st1" d="M287.2 583.4l-.9.4-37-95 .9-.4 37 95z"/><path id="シェイプ_130" class="st0" d="M288.1 584.9l-.7-.7 34-31 .7.7-34 31z"/><path id="シェイプ_131" d="M272.3 359.8l.8-.6 72 108-.8.6-72-108z" opacity=".702" fill="#fff"/><path id="シェイプ_132" class="st3" d="M347.6 472l.2 1-99 21-.2-1 99-21z"/><path id="シェイプ_133" class="st0" d="M372.6 346l.1 1-100 15-.1-1 100-15z"/><path id="シェイプ_134" class="st0" d="M373.4 346.9l.7-.7 88 79-.7.7-88-79z"/><path id="シェイプ_135" class="st1" d="M460.2 424.5l-1 .1-2-85 1-.1 2 85z"/><path id="シェイプ_136" class="st0" d="M272.9 360.1l-.4.9-102-49 .4-.9 102 49z"/><path id="シェイプ_137" class="st0" d="M170.2 311.7l.9-.3 27 76-.9.3-27-76z"/><path id="シェイプ_138" class="st0" d="M197.6 388l.3-.9 68 24-.3.9-68-24z"/><path id="シェイプ_139" class="st0" d="M265.4 411.9l.6-.8 81 62-.6.8-81-62z"/><path id="シェイプ_140" class="st0" d="M266.5 413.1l.3.9-140 52-.3-.9 140-52z"/><path id="シェイプ_141" class="st0" d="M127.1 465.9l-.7-.7 72-81 .7.7-72 81z"/><path id="シェイプ_142" class="st1" d="M196.2 384.5l1 .1-7 60-1-.1 7-60z"/><path id="シェイプ_143" class="st1" d="M186.4 443.1l.6.8-63 53-.6-.8 63-53z"/><path id="シェイプ_144" class="st0" d="M123.3 495.9l.7-.7 61 69-.7.7-61-69z"/><path id="シェイプ_145" class="st0" d="M126.3 493.3l.9.4-42 96-.9-.4 42-96z"/><path id="シェイプ_146" class="st0" d="M82.2 588.5h-1l-3-111h1l3 111z"/><path id="シェイプ_147" class="st1" d="M80.2 476.5h-1l-3-107h1l3 107z"/><path id="シェイプ_148" class="st0" d="M76 370l-.5-.9 96-56 .5.9-96 56z"/><path id="シェイプ_149" class="st3" d="M76.4 368.9l.6-.8 174 124-.6.8-174-124z"/><path id="シェイプ_150" class="st0" d="M78.1 474.9l-.7-.7 62-64 .7.7-62 64z"/><path id="シェイプ_187" class="st4" d="M138.2 411.4l1 .2-12 55-1-.2 12-55z"/><path id="シェイプ_151" class="st0" d="M75.3 368.2l.7.7-74 83-.7-.7 74-83z"/><path id="シェイプ_152" class="st3" d="M1.6 452l.3-1 78 24-.3 1-78-24z"/><path id="シェイプ_153" class="st3" d="M79.6 475.1l.3 1-60 19-.3-1 60-19z"/><path id="シェイプ_154" class="st0" d="M20.2 494.4l-1 .3-17-43 1-.3 17 43z"/><path id="シェイプ_155" class="st0" d="M20.3 494.8l.9-.5 62 97-.9.5-62-97z"/><path id="シェイプ_156" class="st0" d="M82.7 591v1l-58-1v-1l58 1z"/><path id="シェイプ_157" class="st0" d="M85.4 588.2l.7.8-43 37-.7-.8 43-37z"/><path id="多角形_1" class="st0" d="M927.8 90.6l-4.5.7-2.1-4.1 3.2-3.2 4.1 2.1-.7 4.5z"/><path id="多角形_1_のコピー" class="st0" d="M1038.8 98.6l-4.5.7-2.1-4.1 3.2-3.2 4.1 2.1-.7 4.5z"/><path id="多角形_1_のコピー_67" class="st0" d="M1030.8 71.6l-4.5.7-2.1-4.1 3.2-3.2 4.1 2.1-.7 4.5z"/><path id="多角形_1_のコピー_2" class="st5" d="M999.3 197l-3.6.6-1.7-3.2 2.6-2.6 3.2 1.7-.5 3.5z"/><path id="多角形_1_のコピー_71" class="st5" d="M1022.3 226l-3.6.6-1.7-3.2 2.6-2.6 3.2 1.7-.5 3.5z"/><path id="シェイプ_195" class="st4" d="M660.9 166l-.3-1 131-38 .3 1-131 38z"/><path id="多角形_1_のコピー_3" class="st0" d="M1063.8 277.6l-4.5.7-2.1-4.1 3.2-3.2 4.1 2.1-.7 4.5z"/><path id="多角形_1_のコピー_4" class="st0" d="M1128.3 193l-3.6.6-1.7-3.2 2.6-2.6 3.2 1.7-.5 3.5z"/><path id="多角形_1_のコピー_5" class="st0" d="M1117 142.7l-3.2.5-1.4-2.8 2.3-2.3 2.8 1.4-.5 3.2z"/><path id="多角形_1_のコピー_6" class="st0" d="M1108.7 61.4l-2.7.4-1.2-2.4 1.9-1.9 2.4 1.2-.4 2.7z"/><path id="多角形_1_のコピー_7" class="st0" d="M1151.7 104.4l-2.7.4-1.2-2.4 1.9-1.9 2.4 1.2-.4 2.7z"/><path id="多角形_1_のコピー_8" class="st0" d="M1205.6 74.3l-2.5.4-1.2-2.3 1.8-1.8 2.3 1.2-.4 2.5z"/><path id="多角形_1_のコピー_9" class="st0" d="M1212 148.7l-3.2.5-1.4-2.8 2.3-2.3 2.8 1.4-.5 3.2z"/><path id="多角形_1_のコピー_10" class="st0" d="M1226.8 204.6l-4.5.7-2.1-4.1 3.2-3.2 4.1 2.1-.7 4.5z"/><path id="多角形_1_のコピー_11" class="st0" d="M1267.3 140l-3.6.6-1.7-3.2 2.6-2.6 3.2 1.7-.5 3.5z"/><path id="多角形_1_のコピー_12" class="st0" d="M1255 33.7l-3.2.5-1.4-2.8 2.3-2.3 2.8 1.4-.5 3.2z"/><path id="多角形_1_のコピー_13" class="st0" d="M1274.9 16.7l-2.6.4-1.2-2.3 1.9-1.9 2.3 1.2-.4 2.6z"/><path id="多角形_1_のコピー_14" class="st0" d="M1244.8 6.6l-4.5.7-2.1-4.1 3.2-3.2 4.1 2.1-.7 4.5z"/><path id="多角形_1_のコピー_15" class="st0" d="M1154.3 13l-3.6.6-1.7-3.2 2.6-2.6 3.2 1.7-.5 3.5z"/><path id="多角形_1_のコピー_16" class="st0" d="M824.8 37.6l-4.5.7-2.1-4.1 3.2-3.2 4.1 2.1-.7 4.5z"/><path id="多角形_1_のコピー_17" class="st0" d="M848.4 109.1l-2.3.4-1-2 1.6-1.6 2 1-.3 2.2z"/><path id="多角形_1_のコピー_18" class="st0" d="M843.3 167l-3.6.6-1.7-3.2 2.6-2.6 3.2 1.7-.5 3.5z"/><path id="多角形_1_のコピー_74" class="st0" d="M849.3 110l-3.6.6-1.7-3.2 2.6-2.6 3.2 1.7-.5 3.5z"/><path id="多角形_1_のコピー_19" class="st0" d="M836.8 287.6l-4.5.7-2.1-4.1 3.2-3.2 4.1 2.1-.7 4.5z"/><path id="多角形_1_のコピー_54" class="st0" d="M777.8 220.6l-4.5.7-2.1-4.1 3.2-3.2 4.1 2.1-.7 4.5z"/><path id="多角形_1_のコピー_55" class="st0" d="M729 200.7l-3.2.5-1.4-2.8 2.3-2.3 2.8 1.4-.5 3.2z"/><path id="多角形_1_のコピー_56" class="st0" d="M651.8 312.6l-4.5.7-2.1-4.1 3.2-3.2 4.1 2.1-.7 4.5z"/><path id="多角形_1_のコピー_57" class="st0" d="M1056.8 183.6l-4.5.7-2.1-4.1 3.2-3.2 4.1 2.1-.7 4.5z"/><path id="多角形_1_のコピー_58" class="st0" d="M975 276.7l-3.2.5-1.4-2.8 2.3-2.3 2.8 1.4-.5 3.2z"/><path id="多角形_1_のコピー_59" class="st0" d="M972.3 139l-3.6.6-1.7-3.2 2.6-2.6 3.2 1.7-.5 3.5z"/><path id="多角形_1_のコピー_69" class="st0" d="M795.3 129l-3.6.6-1.7-3.2 2.6-2.6 3.2 1.7-.5 3.5z"/><path id="多角形_1_のコピー_68" class="st0" d="M406.3 457l-3.6.6-1.7-3.2 2.6-2.6 3.2 1.7-.5 3.5z"/><path id="多角形_1_のコピー_60" class="st0" d="M1261.8 85.6l-4.5.7-2.1-4.1 3.2-3.2 4.1 2.1-.7 4.5z"/><path id="多角形_1_のコピー_61" class="st0" d="M480 476.7l-3.2.5-1.4-2.8 2.3-2.3 2.8 1.4-.5 3.2z"/><path id="多角形_1_のコピー_62" class="st0" d="M574.8 484.6l-4.5.7-2.1-4.1 3.2-3.2 4.1 2.1-.7 4.5z"/><path id="多角形_1_のコピー_63" class="st0" d="M412.7 555.4l-2.7.4-1.2-2.4 1.9-1.9 2.4 1.2-.4 2.7z"/><path id="多角形_1_のコピー_64" class="st0" d="M127.8 498.6l-4.5.7-2.1-4.1 3.2-3.2 4.1 2.1-.7 4.5z"/><path id="多角形_1_のコピー_65" class="st0" d="M197.7 387.4l-2.7.4-1.2-2.4 1.9-1.9 2.4 1.2-.4 2.7z"/><path id="多角形_1_のコピー_70" class="st0" d="M140.7 414.4l-2.7.4-1.2-2.4 1.9-1.9 2.4 1.2-.4 2.7z"/><path id="多角形_1_のコピー_72" class="st0" d="M78.7 431.4l-2.7.4-1.2-2.4 1.9-1.9 2.4 1.2-.4 2.7z"/><path id="多角形_1_のコピー_20" class="st0" d="M939.8 310.6l-4.5.7-2.1-4.1 3.2-3.2 4.1 2.1-.7 4.5z"/><path id="多角形_1_のコピー_21" class="st0" d="M901.8 213.6l-4.5.7-2.1-4.1 3.2-3.2 4.1 2.1-.7 4.5z"/><path id="多角形_1_のコピー_22" class="st0" d="M918.3 135l-3.6.6-1.7-3.2 2.6-2.6 3.2 1.7-.5 3.5z"/><path id="多角形_1_のコピー_23" class="st0" d="M946.3 123l-3.6.6-1.7-3.2 2.6-2.6 3.2 1.7-.5 3.5z"/><path id="多角形_1_のコピー_24" class="st0" d="M725 93.7l-3.2.5-1.4-2.8 2.3-2.3 2.8 1.4-.5 3.2z"/><path id="多角形_1_のコピー_25" class="st0" d="M732.4 308.1l-2.3.4-1-2 1.6-1.6 2 1-.3 2.2z"/><path id="多角形_1_のコピー_26" class="st0" d="M675.3 219l-3.6.6-1.7-3.2 2.6-2.6 3.2 1.7-.5 3.5z"/><path id="多角形_1_のコピー_75" class="st0" d="M699.3 256l-3.6.6-1.7-3.2 2.6-2.6 3.2 1.7-.5 3.5z"/><path id="多角形_1_のコピー_76" class="st0" d="M647.3 329l-3.6.6-1.7-3.2 2.6-2.6 3.2 1.7-.5 3.5z"/><path id="シェイプ_201" class="st4" d="M591.8 280l-.2-1 106-26 .2 1-106 26z"/><path id="多角形_1_のコピー_27" class="st0" d="M660.8 167.6l-4.5.7-2.1-4.1 3.2-3.2 4.1 2.1-.7 4.5z"/><path id="多角形_1_のコピー_28" class="st0" d="M593.3 282l-3.6.6-1.7-3.2 2.6-2.6 3.2 1.7-.5 3.5z"/><path id="多角形_1_のコピー_29" class="st0" d="M610 361.7l-3.2.5-1.4-2.8 2.3-2.3 2.8 1.4-.5 3.2z"/><path id="多角形_1_のコピー_66" class="st0" d="M556.3 354l-3.6.6-1.7-3.2 2.6-2.6 3.2 1.7-.5 3.5z"/><path id="多角形_1_のコピー_30" class="st0" d="M673 381.7l-3.2.5-1.4-2.8 2.3-2.3 2.8 1.4-.5 3.2z"/><path id="多角形_1_のコピー_31" class="st0" d="M616 417.7l-3.2.5-1.4-2.8 2.3-2.3 2.8 1.4-.5 3.2z"/><path id="多角形_1_のコピー_32" class="st0" d="M562 426.7l-3.2.5-1.4-2.8 2.3-2.3 2.8 1.4-.5 3.2z"/><path id="多角形_1_のコピー_33" class="st0" d="M499.7 384.4l-2.7.4-1.2-2.4 1.9-1.9 2.4 1.2-.4 2.7z"/><path id="多角形_1_のコピー_52" class="st0" d="M384.7 376.4l-2.7.4-1.2-2.4 1.9-1.9 2.4 1.2-.4 2.7z"/><path id="多角形_1_のコピー_34" class="st0" d="M506.8 293.6l-4.5.7-2.1-4.1 3.2-3.2 4.1 2.1-.7 4.5z"/><path id="多角形_1_のコピー_35" class="st0" d="M460 340.7l-3.2.5-1.4-2.8 2.3-2.3 2.8 1.4-.5 3.2z"/><path id="多角形_1_のコピー_73" class="st0" d="M461 366.7l-3.2.5-1.4-2.8 2.3-2.3 2.8 1.4-.5 3.2z"/><path id="多角形_1_のコピー_36" class="st0" d="M463.4 426.1l-2.3.4-1-2 1.6-1.6 2 1-.3 2.2z"/><path id="多角形_1_のコピー_37" class="st0" d="M378.8 349.6l-4.5.7-2.1-4.1 3.2-3.2 4.1 2.1-.7 4.5z"/><path id="多角形_1_のコピー_53" class="st0" d="M278.8 364.6l-4.5.7-2.1-4.1 3.2-3.2 4.1 2.1-.7 4.5z"/><path id="多角形_1_のコピー_39" class="st0" d="M299.8 398.6l-4.5.7-2.1-4.1 3.2-3.2 4.1 2.1-.7 4.5z"/><path id="多角形_1_のコピー_41" class="st0" d="M351 472.7l-3.2.5-1.4-2.8 2.3-2.3 2.8 1.4-.5 3.2z"/><path id="多角形_1_のコピー_42" class="st0" d="M322.7 555.4l-2.7.4-1.2-2.4 1.9-1.9 2.4 1.2-.4 2.7z"/><path id="多角形_1_のコピー_43" class="st0" d="M288.8 586.6l-4.5.7-2.1-4.1 3.2-3.2 4.1 2.1-.7 4.5z"/><path id="多角形_1_のコピー_44" class="st0" d="M187 563.7l-3.2.5-1.4-2.8 2.3-2.3 2.8 1.4-.5 3.2z"/><path id="多角形_1_のコピー_45" class="st0" d="M253.8 494.5l-2.9.5-1.3-2.6 2.1-2.1 2.6 1.3-.5 2.9z"/><path id="多角形_1_のコピー_46" class="st0" d="M128 469.7l-3.2.5-1.4-2.8 2.3-2.3 2.8 1.4-.5 3.2z"/><path id="多角形_1_のコピー_50" class="st0" d="M80.3 476l-3.6.6-1.7-3.2 2.6-2.6 3.2 1.7-.5 3.5z"/><path id="多角形_1_のコピー_51" class="st0" d="M22 495.7l-3.2.5-1.4-2.8 2.3-2.3 2.8 1.4-.5 3.2z"/><path id="多角形_1_のコピー_47" class="st0" d="M84.7 591.4l-2.7.4-1.2-2.4 1.9-1.9 2.4 1.2-.4 2.7z"/><path id="多角形_1_のコピー_48" class="st0" d="M5.3 452l-3.6.6-1.7-3.3 2.6-2.6 3.2 1.7-.5 3.6z"/><path id="多角形_1_のコピー_49" class="st0" d="M79 370.7l-3.2.5-1.4-2.8 2.3-2.3 2.8 1.4-.5 3.2z"/><path id="多角形_1_のコピー_40" class="st0" d="M270.8 414.6l-4.5.7-2.1-4.1 3.2-3.2 4.1 2.1-.7 4.5z"/><path id="多角形_1_のコピー_38" class="st0" d="M173.8 316.6l-4.5.7-2.1-4.1 3.2-3.2 4.1 2.1-.7 4.5z"/><path id="シェイプ_191" class="st4" d="M171.2 312.4l.9.3-33 100-.9-.3 33-100z"/><path id="シェイプ_191_のコピー" class="st4" d="M169.2 313.4l.9.3-92 118-.9-.3 92-118z"/><path id="シェイプ_194" class="st3" d="M943.4 121l.5-.8 26 17-.5.8-26-17z"/><path id="シェイプ_192" class="st1" d="M196.5 386.1l.4.9-58 27-.4-.9 58-27z"/><path id="シェイプ_193" class="st4" d="M2.8 451l-.3-1 135-36 .3 1-135 36z"/></svg>