<svg xmlns="http://www.w3.org/2000/svg" viewBox="0 0 437.4 94.5"><path d="M11.3 25.8c0 .7.1 4.5.1 6v.2c0 2.7-1.3 5-5.2 5-3.4 0-3.8-1.2-3.8-2.3 0-1 .6-1.9 1.6-1.9h.4c.6.1 1.1.2 1.5.2.9 0 1.5-.4 1.6-1.8v-8.4C7.2 23 4.4 24 3.4 24c-1.3 0-2-1-2-2 0-.8.5-1.6 1.6-1.9 1.6-.4 3.1-.8 4.5-1.3v-6.4H3.9c-1.2 0-1.8-.9-1.8-1.8s.6-1.8 1.8-1.8h3.6V2c0-1.3 1-2 2-2 .9 0 1.9.6 1.9 2v6.7h2.9c1.3 0 1.8.9 1.8 1.8s-.6 1.8-1.8 1.8h-2.9v5.1c.9-.3 1.8-.7 2.6-1.1.3-.1.5-.2.7-.2.9 0 1.6.8 1.6 1.8 0 1.5-1.5 2.1-4.8 3.4v4.5zm17.3-15.6v4.7h3.1c2.7 0 3.8 1.6 3.8 3.4 0 2.2-2.8 6.7-5.7 10.1 2.3 1.8 5 3.2 8.2 4.2 1 .3 1.5 1.1 1.5 1.9 0 1.1-.8 2.2-2.2 2.2-1.5 0-5.8-1.8-10-5.7-5.7 5.3-10.9 6.2-11.6 6.2-1.3 0-2.1-1.1-2.1-2.1 0-.8.5-1.5 1.6-1.8 3.5-.8 6.7-2.7 9.4-5.1-2.1-2.4-4.2-5.8-4.2-6.9 0-1.1 1-1.9 2-1.9.6 0 1.2.3 1.6 1 .9 1.9 1.9 3.6 3.2 5.1 2.8-3.3 4-6.1 4-6.8 0-.5-.7-.6-1-.6h-1.7c-2.6 0-5.5 0-8.8.1-1.3 0-1.9-.8-1.9-1.7 0-.9.6-1.8 1.9-1.8H25V10h-6.4c-1.3 0-1.9-.9-1.9-1.8s.6-1.8 1.9-1.8H25V1.7c0-1.2 1-1.8 2-1.8s2 .6 2 1.8v4.7h7.6c1.3 0 1.9.9 1.9 1.8s-.6 1.8-1.9 1.8h-8zM55 22.9c-2.5 0-4.5-2-4.5-4.5s2-4.5 4.5-4.5 4.5 2 4.5 4.5-2 4.5-4.5 4.5zm18.3-9.8c-1.3 0-1.9-.9-1.9-1.8s.6-1.8 1.8-1.8c.6 0 1.2 0 1.9-.1 1-1.8 2.6-5.5 3.2-7.6.3-.9.9-1.3 1.7-1.3 1 0 2.2.8 2.2 1.9 0 .2-.3 1.9-3.1 6.7 1.8-.2 3.7-.4 5.4-.7-.2-.2-.5-.4-.7-.5-.5-.3-.6-.7-.6-1.1 0-.8.8-1.5 1.8-1.5 1.2 0 5.3 3.7 5.3 5.6 0 1.1-.9 1.9-1.8 1.9-.8 0-1.1-.3-1.9-1.6-5 1.1-11.2 1.9-13.3 1.9zm4.3 16c0 2.4 0 4.6.1 6.3 0 1.2-.9 1.7-1.7 1.7-.9 0-1.8-.6-1.8-1.8V18.2c.1-3.7 2.1-3.7 6.9-3.7 1.3 0 2.6 0 3.4.1 2.4.1 3.5 1.4 3.6 3.7 0 .6 0 7.1.1 8.5v5.7c0 2.6-1.8 4.4-4.6 4.4-1.9 0-3.5-.4-3.5-2.1 0-.8.5-1.6 1.5-1.6h.4c.5.1 1 .2 1.4.2.9 0 1.4-.4 1.4-1.8v-2.4h-7.2zm0-5.6v2.7h7.2v-2.7h-7.2zm7.1-2.9v-1.5c0-1.3-.3-1.3-3.6-1.3-3 0-3.3.1-3.4 1.3v1.5h7zm10.4-8.3c0 2 1.8 2 3.9 2 3.9 0 4.7-1.2 4.7-3.1 0-1.2.9-1.7 1.8-1.7.3 0 2.2 0 2.2 2.1 0 4.6-3.3 6.1-8.9 6.1-5.7 0-7.7-1.5-7.7-4.8 0-2.5 0-8.2.1-10.4 0-1.2 1-1.8 2-1.8s1.9.6 1.9 1.7S95 5 95 6.5c2.6-.9 5.8-2.1 7.9-3.2.3-.2.6-.2.9-.2 1.1 0 2 1 2 2 0 .7-.4 1.3-1.3 1.8-2.5 1-6.4 2.3-9.4 3v2.4zm0 18.5c0 1.9 1.6 2 3.9 2 3.1 0 4.9-.6 4.9-3.1 0-1.2.9-1.7 1.9-1.7.2 0 2.3 0 2.3 2.1 0 4.6-3.2 6.2-9.2 6.2-3.5 0-7.7-.2-7.7-4.9 0-2.6 0-8.7.1-10.9 0-1.2 1-1.8 1.9-1.8 1 0 2 .6 2 1.8v4.1c2.6-1 5.6-2.2 7.7-3.4.3-.2.6-.3.9-.3 1.1 0 2 1 2 2.1 0 .7-.3 1.3-1.3 1.8-2.5 1.1-6.4 2.4-9.4 3.2v2.8zM130.8 6c.7-.3 1.3-.5 1.8-.8 2.3-1.4 4.6 2.1 1.5 3.7-1.1.5-2.9 1-4.6 1.4-.5 1.3-1.3 2.9-2 4.2 2.9-.5 5.7.5 7.1 3.7 1.7-.9 3.5-1.8 5.1-2.5 1-.4 2.1-.9 3.3-1.6 3.2-1.8 5 2.4 2.4 3.8-1.3.7-2.3.9-4.5 1.7-1.8.7-3.7 1.5-5.3 2.3.1 1.4.2 3.1.1 4.6-.1 1.7-1.2 2.6-2.2 2.6-1.1 0-2-.8-1.9-2.4 0-.9.1-1.8.1-2.7-.4.2-.8.4-1.1.6-5.2 3.4-4.6 5.9-2.2 7.1 2.2 1.1 6.3.3 8.3-.3 3.7-1.1 4.9 3.4 1 4.4-2.5.6-8.2 1.3-11.5-.6-5.7-3.2-4.7-8.9 2.9-13.9.6-.4 1.3-.8 2.1-1.3-1.1-3.5-4.4-3.1-7.1 0l-.2.2c-.4.5-.7.8-1 1.1-2.3 2.1-5.4-.3-2.9-2.6 1.1-1 2.5-2.5 3.4-3.9.7-1.2 1.4-2.4 2-3.7-2.3.3-3.9.2-5.2-.5-3-1.5-1-5.5 2-3.5.8.5 2.5.3 3.9.1.2 0 .4 0 .6-.1.3-1.2.4-2.1.5-3.5.2-2.5 4.1-2.3 4.2-.2 0 .8-.1 1.6-.3 2.4l-.3.2zM160 16c-2.5 3.1-3.5 3.7-4.4 3.7-1.1 0-2-.9-2-1.9 0-.5.2-1 .7-1.5 4-3.7 7-8.4 9.2-14.1.4-.9 1.1-1.3 1.8-1.3 1.1 0 2.3.9 2.3 2.1 0 1-2.4 5.1-3.7 7.3l-.5 25.3c0 1.3-1.1 1.9-2.1 1.9-1.1 0-2.1-.6-2.1-1.8v-.1L160 16zm18.7 2.5c-.9 3.7-2.4 8.4-4.1 12.1 3.5-.4 7-1 10.1-1.6-.9-1.3-1.8-2.6-2.9-3.8-.4-.4-.5-.9-.5-1.3 0-1 .9-1.7 1.9-1.7.5 0 1.2.3 1.7.8 5.1 5.8 6.5 9.1 6.5 10.2 0 1.4-1.2 2.4-2.4 2.4-.8 0-1.6-.5-1.9-1.5-.2-.6-.5-1.3-.7-1.8-8.9 2.1-18 3.1-19.2 3.1-1.2 0-1.8-1.1-1.8-2.2 0-1 .5-1.9 1.6-1.9s2.2-.1 3.4-.2c1.7-3.9 3.2-8.6 3.9-12.6h-6.9c-1.3 0-2-.9-2-1.8 0-1 .7-1.9 2-1.9h22c1.3 0 2 .9 2 1.8s-.7 1.8-2 1.8h-10.7zm-8-10.1c-1.3 0-2-.9-2-1.8 0-1 .7-2 2-2h15.8c1.3 0 2 1 2 1.9 0 1-.7 1.9-2 1.9h-15.8zm45.1 20.5c.7 1.6 1.7 2.9 3.7 2.8 1.8-.1 4.7-.5 6.6-1.3 3.2-1.4 4.7 2.9 1.3 4.2-2.5.9-6.5 1.4-9.5 1-2.8-.4-4.5-1.8-5.5-4.3-.9-2.3-4-2.6-6.8 1.8-1.5 2.4-2.7 2.6-3.5 2.6-1.4.1-3.3-1.3-1.4-3.4 1.4-1.6 3.6-4 5-5.3 1.5-1.3 2.6-2.6 4-3.9 1.9-1.9 4.7-4.7 6.8-7.1.5-.5.2-.5-.2-.3-3.1 1.5-6 2.7-8.7 3.3-3.6.8-4.2-3.6-1.3-4 1.9-.3 5.2-1.1 7.4-2 1.1-.4 2.1-.9 3.3-1.1 3.5-.5 6 2.7 3.9 5-2 2.1-8.3 7.9-10.4 10 1.7-.8 4.1-.7 5.3 2zm-5-23.7c-2.1-1.7.4-4.5 2.9-2.9 1.4.9 3.2 1.8 5.3 2.5 3.1 1 1 4.8-1.8 3.8-2.6-.8-5.5-2.7-6.4-3.4zm35.4 10c.4-.8.8-1.5 1.3-2.2.7-.9.5-.8-.3-.6-3.2 1-2.4 1-5.3 2.1-1.3.5-2.5.9-3.8 1.3-3.7 1-4.8-3.8-1.4-4.5.9-.2 3.3-.7 4.7-1 2.1-.5 5.7-1.3 10-2.6 4.3-1.2 7.8-2.2 11.5-2.5 2.6-.2 3.3 1.9 2.9 3.2-.3.7-1.2 1.6-4.1 1.4-2.1-.1-4.8.7-6.3 1.2-2.4.8-4.5 3.4-5.4 4.9-3.7 6.2-.9 15 8.5 14.7 4.4-.2 4.7 4.8.2 4.7-12.7-.1-17.1-11.7-12.5-20.1zm34.7 14.7c-3-3.3-4.4-8.1-4.7-13.4-.2-2.4-.3-3.2-.2-4.7.1-2.6 4.2-3.2 4.3 0 .1 1.6-.1 1.7 0 3.7.2 4.4 1 8.6 3.3 10.8 1.1 1 1.6 1.2 2.6-.1.5-.7 1.1-1.8 1.4-2.5 1.1-2.4 4.6-.7 3.8 1.5-.4 1.2-1.2 2.5-1.6 3.2-2.9 4.4-6.6 4-8.9 1.5zm22.7-7.4c-.7-3.4-2.4-6.6-4.7-8.1-2-1.4.3-4.5 2.8-2.6 3 2.2 5.9 6.2 6.3 9.7.3 3.1-3.8 3.9-4.4 1zm26.6 12.8c-2.4-4.8-6-10.2-8.9-13.7-2.8-3.2-2.8-6.2.5-9.6 2.9-3 6.1-6.1 8.6-9.5 1.9-2.6 5.7.4 3.7 2.9-2.1 2.6-6.6 6.2-9.2 8.8-1.8 1.8-1.9 3.1-.5 4.8 4.2 5.3 7.8 9.2 9.8 13.7 1.4 2.8-2.7 5.3-4 2.6zm34.9-22.5c-.7 5.3-4.5 13.3-8.5 17-3.2 3-6.8 1.3-8.6-2.3-2.6-5.2.2-13 5.8-16.9 5.2-3.6 12.9-4.2 18.1-1 6.5 3.9 7.6 11.6 3.9 17.6-2 3.2-6.1 5.8-10.2 6.9-3.7 1-5-3.3-1.4-4.1 3.2-.7 6.4-2.5 7.8-4.7 3-4.7 1.8-10.2-2.3-12.9-1.6-1.1-3.4-1.6-5.2-1.7.4.6.7 1.2.6 2.1zm-9.4.8c-3.9 3-6 8.6-4.2 11.8.6 1.2 1.7 1.8 2.8.9 3.2-2.8 6.1-9.5 6.5-14 0-.5.2-1 .4-1.3-2 .5-3.9 1.4-5.5 2.6zm33.6 20.1c-1.3-4.2-1.2-9.7-.7-14.7s1.5-9.8 1.7-12.5c.3-3.4 4.7-2.6 4.2.1-.3 1.9-1 5.5-1.6 9.1-.5 3.6-1 7.1-.8 8.8.1.8.1.9.5 0 .1-.3.4-1 .5-1.2 1-2 4.2-.6 2.6 2.6-.5 1.1-1 2.3-1.3 3.3-.3 1-.6 2-.8 2.6-.3 1.2.2 2.4-.8 3.4-.9.9-2.8.8-3.5-1.5zm13.1.9c-3.7-2.1-3.7-6.9.6-8.8 2.3-1 4.8-1.1 7.4-.5 0-.7-.1-1.3-.1-2.1-.1-1.7-.2-5-.3-8.3-2.3.3-4.5.5-6.9.3-2.9-.3-2.4-4.5.8-4 1.8.3 3.9.2 5.9-.1 0-2.4-.1-4.5 0-5.8.1-2.7 4.2-2.4 4-.1-.1 1.2-.1 2.9-.1 5 .7-.2 1.5-.4 2.1-.6 2.7-.8 4.5 3 .9 3.9-1 .3-2 .5-3 .7 0 3.3.2 6.6.3 8.6 0 1 .2 2.4.3 3.8 1.8.8 3.4 1.9 4.7 3.1 2.4 2.2-.6 5.8-2.7 3.6-.8-.8-1.6-1.5-2.6-2.2-1.6 3.3-6.8 6.1-11.3 3.5zm7.6-5.5c-2.1-.8-4.2-1-5.8-.3-1 .5-1.3 1.9-.3 2.5 2.1 1.1 5.5.2 6.1-2.2zm23.6 7.5c-1-1.6-3.4-3.5-5.2-4.4-.8-.4-1.1-1-1.1-1.7 0-1 .8-1.8 2-1.8 1.5 0 8.2 3.7 8.2 6.6 0 1.3-1.1 2.3-2.3 2.3-.6-.1-1.2-.4-1.6-1zm-423.1 54c.1-3.3.1-9.4.1-14.9 0-3.7 0-7.2-.1-9.4 0-.8-.1-.8-2.6-.8-1.6 0-3.6.1-5.5.1-1.6 0-2.4-1.1-2.4-2.3C0 62.1.8 61 2.3 61h.1c2.5 0 7 .1 11.3.1 3.6 0 7.1 0 9.5-.1 1.6 0 2.2 1.3 2.2 2.3 0 1.1-.7 2.2-2 2.2h-.2c-1.4-.1-2.6-.1-3.7-.1-4.2 0-4.2 0-4.2.8-.1 2.9-.1 6.9-.1 11 0 5 .1 10.2.2 13.3.1 1.5-1.2 2.2-2.5 2.2-1.1.1-2.4-.6-2.4-2.1zm40 2.1c-1 0-2-.5-2.4-1.6-.5-1.2-1.6-4.6-2.9-8.5-.1-.3-.2-.4-.5-.4H34.2c-.2 0-.4.1-.5.4-1.1 3.3-2 6.3-2.6 8.4-.4 1.2-1.3 1.7-2.4 1.7-1.2 0-2.4-.8-2.4-2.1 0-.8.1-1.1 9.3-27 .7-1.9 2.2-2.8 3.7-2.8 1.6 0 3.2 1 3.9 2.9 2.7 7.6 8.1 22.2 9.5 25.5.2.4.3.8.3 1.2.1 1.5-1.2 2.3-2.5 2.3zm-7-15.2c-1.3-3.9-2.6-7.8-3.2-9.8-.3-.8-.5-1.2-.7-1.2-.2 0-.5.4-.8 1.2-.6 1.7-3.4 9.5-3.4 9.9 0 .2.1.3.3.3h7.5c.3 0 .3 0 .3-.2.1 0 .1-.1 0-.2zM60 90.7c.1-4.5.1-10 .1-15.2 0-4.7 0-9.2-.1-12.4 0-1.3.9-2.3 2.4-2.3 1.2 0 2.4.8 2.4 2.2v.1c0 1.7-.1 3.3-.1 4.8 0 2.3 0 4.1.1 5.2 0 .4.1.8 1.1.8.9 0 1.5-.4 2.3-1.2 3-3.3 7.9-8.7 9.6-10.9.5-.6 1.1-.9 1.7-.9 1.3 0 2.7 1.2 2.7 2.6 0 .4-.1.9-.5 1.3-1.8 2.3-7 7.4-9.9 10.5-.3.3-.4.5-.4.7 0 .2.1.4.4.6 3.6 3.7 11.3 11 12 11.8.5.5.7 1.2.7 1.7 0 1.5-1.4 2.8-2.8 2.8-.7 0-1.3-.3-1.9-.8-1.4-1.5-8.5-9.1-11.6-12.6-.6-.7-1.1-.8-1.8-.8h-.9c-.4 0-.8 0-.8.7 0 1.1-.1 3.3-.1 6 0 1.7 0 3.5.1 5.5v.1c0 1.3-1.2 2-2.4 2-1.1-.2-2.3-.9-2.3-2.3zm53.2 2c-1 0-2-.5-2.4-1.6-.5-1.2-1.6-4.6-2.9-8.5-.1-.3-.2-.4-.5-.4H96.9c-.2 0-.4.1-.5.4-1.1 3.3-2 6.3-2.6 8.4-.4 1.2-1.3 1.7-2.4 1.7-1.2 0-2.4-.8-2.4-2.1 0-.8.1-1.1 9.3-27 .7-1.9 2.2-2.8 3.7-2.8 1.6 0 3.2 1 3.9 2.9 2.7 7.6 8.1 22.2 9.5 25.5.2.4.3.8.3 1.2.1 1.5-1.2 2.3-2.5 2.3zm-7-15.2c-1.3-3.9-2.6-7.8-3.2-9.8-.3-.8-.5-1.2-.7-1.2-.2 0-.5.4-.8 1.2-.6 1.7-3.4 9.5-3.4 9.9 0 .2.1.3.3.3h7.5c.3 0 .3 0 .3-.2.1 0 .1-.1 0-.2zm26.4 15.7c-3.4 0-9.3 0-9.7-5.9-.1-2.1-.2-5.5-.2-9 0-4.6.1-9.5.3-11.8.3-5.8 4.5-5.9 9.7-5.9 1.3 0 2.6 0 3.2.1 9.7.6 15 7.4 15 16.1 0 16.4-13.9 16.4-18.3 16.4zm-.6-28.1c-2 0-4.3 0-4.4 2.1-.1 1.8-.3 6.6-.3 11.1 0 3.3.1 6.4.3 8 .2 1.9 1.5 2.3 5 2.3 4.4 0 13.3 0 13.3-11.9 0-6.8-4.1-11.6-10.5-11.6 0 .1-1.8 0-3.4 0zm47.3 27.6c-1 0-2-.5-2.4-1.6-.5-1.2-1.6-4.6-2.9-8.5-.1-.3-.2-.4-.5-.4H163c-.2 0-.4.1-.5.4-1 3.3-2 6.3-2.6 8.4-.4 1.2-1.3 1.7-2.4 1.7-1.2 0-2.4-.8-2.4-2.1 0-.8.1-1.1 9.3-27 .7-1.9 2.2-2.8 3.7-2.8 1.6 0 3.2 1 3.9 2.9 2.7 7.6 8.1 22.2 9.5 25.5.2.4.3.8.3 1.2.1 1.5-1.2 2.3-2.5 2.3zm-7-15.2c-1.3-3.9-2.6-7.8-3.2-9.8-.3-.8-.5-1.2-.7-1.2-.2 0-.5.4-.8 1.2-.6 1.7-3.4 9.5-3.4 9.9 0 .2.1.3.3.3h7.5c.3 0 .3 0 .3-.2v-.2zm16.8 6.3c3.9-2.4 7.2-6.8 8.9-11.2 1.3-3.3 5.5-1.1 4.2 1.7-2.4 5.3-5.7 10-10.5 13.3-2.7 1.9-5.5-2-2.6-3.8zm28.5 1.7c-1.3-4-5.4-9.3-8.1-11.7-2-1.7.8-4.7 3.3-2.5 3.7 3.2 8.4 8.7 9.4 12.5.9 3.3-3.5 5-4.6 1.7zm1.4-13.3c-2.4 0-4.4-2-4.4-4.4s2-4.5 4.4-4.5c2.4 0 4.5 2 4.5 4.5s-2 4.4-4.5 4.4zm0-6.5c-1.2 0-2.1 1-2.1 2.1 0 1.2.9 2.1 2.1 2.1 1.2 0 2.2-1 2.2-2.1s-1-2.1-2.2-2.1zm14.9 12.8c-1.5 0-2.2-1-2.2-2s.8-2.1 2.2-2.1h26.4c1.4 0 2.1 1.1 2.1 2.1s-.7 2.1-2.1 2.1h-26.4zm45.7 13.4c.1 3.4-4.7 3.5-4.5.2.3-6.8.4-23.3.3-29.3-.1-2.9 4.5-2.8 4.4 0 0 2.1-.1 5.7-.1 9.8h.7c2.4.4 7.8 1.7 10.1 3.7 2.2 1.8-.2 5.5-2.6 3.7-1.8-1.3-6-3-8.2-3.4-.2 5.8-.2 11.9-.1 15.3zm27.9 1.8c-3.5 1.4-4.7-2.8-2-3.8 7.3-2.7 10.6-8.4 10.9-14.4-3.9 0-7.7.2-11.5.3-3 .1-3.4-3.9-.1-4 3.7-.1 7.6-.2 11.6-.3 0-2.4-.1-4.8-.2-6.2-.1-3.2 4.2-2.8 4.4-.3s.2 4.5.2 6.5h9.8c1.7 0 2.5 1.1 2.4 2.1 0 1-.9 2.1-2.6 2-3.1-.1-6.3-.2-9.6-.2-.2 7.9-4.7 14.9-13.3 18.3zm36.8-15.2c-1.5 0-2.2-1-2.2-2s.8-2.1 2.2-2.1h26.4c1.4 0 2.1 1.1 2.1 2.1s-.7 2.1-2.1 2.1h-26.4z" fill="#fff"/></svg>