<svg data-name="レイヤー 1" xmlns="http://www.w3.org/2000/svg" viewBox="0 0 293.63 68.52"><path d="M1.72 5.84c-.84 0-1.29-.6-1.29-1.23s.45-1.2 1.29-1.2h9.19V1.5c0-.99.78-1.5 1.56-1.5s1.56.51 1.56 1.5v1.92h9.16c.78 0 1.17.6 1.17 1.2 0 .63-.39 1.23-1.17 1.23H1.72zm19.1 14.37c0-.96 0-2.01-.06-2.81-.03-.69-.54-1.2-1.38-1.23-2.28-.06-4.82-.06-7.3-.06s-4.82 0-6.77.06c-.75.03-1.29.54-1.32 1.23-.03 1.2-.03 2.69-.03 4.19s0 2.96.03 4.1v.06c0 .81-.69 1.2-1.41 1.2s-1.47-.42-1.5-1.26c-.03-1.32-.03-2.87-.03-4.46s0-3.14.03-4.49c.03-1.65 1.35-2.84 3.5-2.87 2.27-.03 4.88-.06 7.57-.06s5.45.03 7.99.06c2.07.03 3.38 1.2 3.47 2.81.09 1.59.09 3.29.09 4.13 0 .36 0 1.8.03 2.6v.09c0 1.65-1.2 3.17-4.31 3.17-2.34 0-3.08-.45-3.08-1.47 0-.69.51-1.35 1.35-1.35.09 0 .21 0 .3.03.54.09 1.02.15 1.44.15.81 0 1.35-.24 1.35-1.11 0 0 .03-1.26.03-2.72zm-7.07-7.54c-1.95 0-4.04-.03-5.66-.06-2.36-.03-3.02-.66-3.02-2.69s.27-2.81 2.84-2.84c1.65-.03 3.62-.06 5.54-.06 5.78 0 6.5.06 6.5 2.66 0 2.87-.66 2.99-6.2 2.99zm-1.44 4.79c5.15 0 6.14 0 6.14 2.81s-.75 3.17-6.77 3.17c-5.06 0-5.3-.63-5.3-3.11 0-1.35.03-2.72 2.43-2.81.99-.06 2.25-.06 3.5-.06zm3.86-8.44c-1.11-.03-2.37-.03-3.62-.03s-2.54 0-3.77.03c-.81 0-.99.18-.99.78q0 .9 5.18.9c4.19 0 4.19-.03 4.19-.9 0-.48 0-.78-.99-.78zm-3.8 10.3c-.93 0-1.86.03-2.48.06-.36.03-.78.12-.78 1.05 0 1.02.21 1.05 3.26 1.05q3.26 0 3.26-1.08t-3.26-1.08zm41.6-13.6c-1.62-.03-4.52-.06-7.48-.06-3.62 0-7.36.03-9.16.06-1.05.03-1.44.51-1.44 1.35-.06 5.42.36 13.68-3.02 17.96-.39.51-.87.69-1.35.69-.81 0-1.59-.63-1.59-1.35 0-.24.09-.45.27-.69 2.48-3.08 2.87-7.9 2.87-12.3 0-1.59-.03-3.08-.06-4.46v-.09c0-2.4 1.17-3.62 3.89-3.68 1.47-.03 3.38-.06 5.48-.06V1.5c0-.99.78-1.47 1.56-1.47S45.5.51 45.5 1.5v1.59c3.35 0 6.65.03 8.5.06.96 0 1.41.63 1.41 1.26S54.93 5.73 54 5.73h-.03zM38.13 18.08c-.78 0-1.14-.57-1.14-1.17s.39-1.2 1.14-1.2h10.78c1.8.03 2.48.93 2.48 1.92 0 1.92-3.29 4.64-3.62 4.91 1.89.69 4.01 1.02 6.56 1.11.93.03 1.38.66 1.38 1.35s-.54 1.44-1.62 1.44c-.42 0-4.52-.18-8.8-2.28-3.95 2.19-8.98 2.51-9.19 2.51-1.05 0-1.56-.66-1.56-1.32 0-.6.45-1.2 1.29-1.26 2.84-.18 5.09-.75 6.86-1.5-.6-.42-2.75-2.01-2.75-2.87 0-.72.78-1.32 1.53-1.32.3 0 .6.09.84.36.87.99 1.8 1.8 2.84 2.45 1.77-1.29 2.72-2.69 2.72-2.93 0-.18-.21-.27-.39-.27h-2.25c-2.25 0-4.91.03-7.07.06h-.03zm11.83-7.27c0 3.2 0 3.83-5 3.83-4.04 0-4.52-.15-4.52-3.83h-3.08c-.75 0-1.08-.57-1.08-1.14s.36-1.17 1.08-1.17h3.05c0-.57.03-1.05.03-1.47 0-.69.66-1.05 1.32-1.05s1.32.36 1.32 1.08V8.5h4.22V7.09c0-.72.63-1.08 1.29-1.08s1.35.39 1.35 1.11V8.5h3.5c.75 0 1.11.57 1.11 1.14 0 .6-.36 1.17-1.11 1.17h-3.47zm-2.66-.12h-4.22c0 1.89 0 1.98 2.16 1.98 1.47 0 2.01-.09 2.07-.84v-1.14zm16.76-2.31c-1.83-.51-1.26-3.26.87-2.57.99.33 2.54.3 4.1-.09.3-.99.45-1.95.6-3.02.27-1.77 2.9-1.44 2.84.27-.03.45-.21 1.11-.42 1.83.36-.18.69-.33.96-.51 1.35-.96 3.23.9 1.32 2.27-.75.54-1.98 1.02-3.2 1.38-1.41 3.38-3.44 6.98-5.36 10.09-1.11 1.8-3.98.63-2.66-1.32 1.68-2.48 3.44-5.03 4.91-8.17-1.53.3-2.81.18-3.95-.15zm5.15 16.85c-2.78-1.41-3.11-4.64-.03-6.02 1.86-.84 3.89-.9 5.75-.57v-1.05c0-.75-.06-1.5-.09-2.25-.03-.6.03-1.44.15-2.01.36-1.65 2.99-1.26 2.69.54-.09.45-.18.78-.18 1.41 0 .69 0 1.44.03 2.31.03.57.09 1.2.12 1.86 1.59.66 2.9 1.59 3.65 2.4 1.71 1.89-.72 4.01-2.16 2.28a8.688 8.688 0 00-1.71-1.56c-.87 2.4-4.61 4.49-8.23 2.66zm.96-3.92c-.81.42-.87 1.29.03 1.74 1.8.9 4.22.03 4.55-1.59.03-.09 0-.21.03-.3-1.53-.51-3.14-.57-4.61.15zm6.68-11.05c-1.65.09-1.77-2.4.15-2.57 1.98-.18 4.07.18 5.51 1.05 2.04 1.23.48 3.71-.99 2.78-1.41-.9-2.93-1.35-4.67-1.26zm18.98 8.3c0 .48.06 3.2.09 4.25v.15c0 1.92-.96 3.59-3.68 3.59-2.45 0-2.72-.87-2.72-1.62s.42-1.38 1.14-1.38c.09 0 .18 0 .27.03.36.09.72.15 1.05.15.63 0 1.08-.27 1.11-1.29 0-.78.03-3.11.03-5.96-.24.09-2.22.81-2.93.81-.93 0-1.44-.69-1.44-1.41 0-.57.36-1.17 1.11-1.38 1.17-.3 2.22-.6 3.23-.9V9.02h-2.57c-.87 0-1.29-.66-1.29-1.32s.42-1.32 1.29-1.32h2.57V1.62c0-.93.69-1.41 1.41-1.41.66 0 1.35.45 1.35 1.41v4.79h2.04c.9 0 1.32.66 1.32 1.32s-.42 1.32-1.32 1.32h-2.04v3.62c.63-.24 1.26-.51 1.86-.81.18-.09.33-.12.48-.12.63 0 1.11.6 1.11 1.26 0 1.05-1.05 1.5-3.44 2.46v3.11zm12.33-11.08v3.35h2.19c1.95.03 2.72 1.14 2.72 2.4 0 1.56-1.98 4.79-4.07 7.21 1.62 1.32 3.53 2.31 5.84 3.02.72.21 1.05.81 1.05 1.38 0 .78-.57 1.59-1.59 1.59s-4.13-1.32-7.15-4.07c-4.07 3.8-7.78 4.43-8.23 4.43-.9 0-1.5-.78-1.5-1.53 0-.54.33-1.08 1.14-1.26 2.48-.54 4.79-1.92 6.68-3.62-1.47-1.74-3.02-4.1-3.02-4.91s.75-1.35 1.44-1.35c.45 0 .87.21 1.11.72.63 1.35 1.38 2.57 2.28 3.65 1.98-2.37 2.84-4.37 2.84-4.82 0-.39-.48-.42-.69-.42h-1.23c-1.89 0-3.89.03-6.29.09h-.03c-.9 0-1.35-.6-1.35-1.23s.45-1.29 1.35-1.29c1.29 0 2.52-.03 3.77-.03V7.47h-4.55c-.93 0-1.38-.66-1.38-1.32s.45-1.32 1.38-1.32h4.55l-.03-3.35c0-.87.69-1.29 1.41-1.29s1.41.42 1.41 1.29v3.35h5.45c.9 0 1.35.66 1.35 1.32s-.45 1.32-1.35 1.32h-5.48zm18.27 9.05c-1.77 0-3.17-1.41-3.17-3.17s1.41-3.17 3.17-3.17 3.17 1.41 3.17 3.17-1.41 3.17-3.17 3.17zm12.52-7.01c-.9 0-1.35-.63-1.35-1.26s.45-1.29 1.32-1.29c.42 0 .87-.03 1.35-.06.69-1.29 1.83-3.89 2.25-5.45.18-.63.66-.9 1.2-.9.75 0 1.56.54 1.56 1.35 0 .15-.18 1.35-2.22 4.79 1.32-.12 2.63-.3 3.83-.48-.15-.15-.33-.27-.48-.39-.33-.24-.45-.51-.45-.78 0-.57.63-1.11 1.32-1.11.87 0 3.8 2.6 3.8 3.98 0 .78-.63 1.38-1.29 1.38-.57 0-.81-.24-1.35-1.14-3.56.78-7.99 1.35-9.49 1.35zM142 20.96c0 1.68.03 3.29.06 4.49v.03c0 .84-.63 1.23-1.23 1.23-.66 0-1.29-.42-1.32-1.26 0-1.62-.03-3.86-.03-6.08s.03-4.49.03-6.14c.06-2.6 1.47-2.66 4.94-2.66.93 0 1.89.03 2.45.06 1.71.09 2.51 1.02 2.54 2.63 0 .45.03 5.09.06 6.08.03.51.03 1.29.03 2.04v2.01c0 1.89-1.26 3.11-3.29 3.11-1.35 0-2.51-.3-2.51-1.53 0-.6.36-1.17 1.05-1.17.09 0 .18 0 .3.03.39.09.72.15.99.15.63 0 .99-.3 1.02-1.29 0-.48.03-1.08.03-1.74H142zm0-3.98v1.92h5.12c0-.63-.03-1.29-.03-1.92H142zm5.06-2.1c0-.39-.03-.75-.03-1.08 0-.9-.21-.96-2.54-.96-2.16 0-2.37.06-2.42.96 0 .33-.03.69-.03 1.08h5.03zm7.42-5.9c0 1.41 1.26 1.41 2.78 1.41 2.81 0 3.38-.84 3.38-2.19 0-.84.63-1.2 1.32-1.2.18 0 1.59.03 1.59 1.5 0 3.29-2.33 4.34-6.38 4.34s-5.48-1.05-5.48-3.41c0-1.77.03-5.84.06-7.39 0-.84.72-1.26 1.41-1.26s1.38.42 1.38 1.23v.03c0 .75-.06 1.83-.06 2.93 1.89-.63 4.1-1.5 5.6-2.28.21-.12.42-.15.63-.15.78 0 1.41.69 1.41 1.41 0 .48-.27.96-.96 1.26-1.77.75-4.58 1.62-6.68 2.13v1.65zm0 13.17c0 1.35 1.14 1.41 2.81 1.41 2.19 0 3.5-.42 3.5-2.22 0-.84.66-1.23 1.35-1.23.15 0 1.62.03 1.62 1.53 0 3.26-2.31 4.43-6.56 4.43-2.51 0-5.51-.15-5.51-3.47 0-1.83.03-6.2.06-7.78 0-.87.69-1.29 1.38-1.29s1.41.42 1.41 1.26v.03c0 .72-.03 1.77-.03 2.9 1.89-.69 4.01-1.59 5.51-2.4.21-.12.45-.18.66-.18.78 0 1.41.72 1.41 1.47 0 .48-.24.96-.93 1.26-1.77.81-4.58 1.74-6.68 2.28v2.01zm23.18-11.13c.3-.57.57-1.05.96-1.56.48-.63.33-.6-.24-.42-2.25.72-1.74.72-3.77 1.5-.96.36-1.8.66-2.69.9-2.63.72-3.44-2.72-1.05-3.23.63-.15 2.37-.48 3.32-.72 1.47-.36 4.1-.96 7.16-1.83 3.08-.87 5.51-1.59 8.14-1.77 1.86-.12 2.36 1.35 2.04 2.31-.18.51-.84 1.11-2.93.99-1.53-.09-3.41.48-4.43.84-1.68.6-3.2 2.4-3.86 3.5-2.63 4.4-.63 10.69 6.08 10.45 3.14-.12 3.35 3.41.18 3.38-9.04-.03-12.15-8.32-8.89-14.34zm9.22 1.98c-1.59-.69-.39-2.54 1.08-2.01.84.3 2.45 1.14 3.14 1.89 1.23 1.32-.63 3.23-1.68 2.01-.42-.48-1.92-1.62-2.54-1.89zm3.02-2.6c-1.62-.63-.45-2.54 1.02-2.07.84.27 2.45 1.08 3.17 1.8 1.26 1.26-.51 3.23-1.59 2.04-.42-.48-1.98-1.53-2.6-1.77zm14.53 9.72c-1.44 1.77-3.74 4.04-4.79 4.04-.75 0-1.35-.6-1.35-1.26 0-.39.21-.78.72-1.08 1.59-.9 3.68-2.72 5.24-4.76l-3.89.09h-.03c-.81 0-1.23-.6-1.23-1.17 0-.6.39-1.17 1.23-1.17h.03l4.1.03-.03-1.32v-.03c0-.81.6-1.2 1.23-1.2s1.23.39 1.23 1.2v.03l-.03 1.32 3.71-.03h.03c.72 0 1.11.6 1.11 1.2s-.36 1.14-1.11 1.14h-.03l-3.74-.09.03 1.11c.18-.12.39-.21.57-.21.48 0 2.51.99 3.26 1.62.33.27.48.63.48.99 0 .72-.6 1.44-1.32 1.44-.24 0-.51-.09-.78-.33-.72-.66-1.56-1.32-2.22-1.65l.06 5.6c0 .75-.63 1.11-1.26 1.11s-1.26-.36-1.26-1.14l.03-5.48zm-4.55-7.93c-.78 0-1.2-.57-1.2-1.17s.42-1.14 1.2-1.14h3.02c-.15-.15-.27-.33-.36-.6-.3-.87-.66-1.47-.93-1.83a.982.982 0 01-.24-.63c0-.6.63-1.08 1.29-1.08 1.29 0 2.31 2.54 2.31 3.05 0 .48-.21.84-.54 1.08h1.41c.45-.9.99-2.33 1.26-3.32.18-.66.63-.93 1.11-.93.72 0 1.47.57 1.47 1.32 0 .42-.45 1.35-1.32 2.93h2.75c.81 0 1.2.57 1.2 1.14 0 .6-.39 1.17-1.2 1.17h-11.23zm.84-6.8c-.87 0-1.29-.57-1.29-1.14 0-.6.42-1.17 1.29-1.17h3.59l-.03-1.71c0-.84.69-1.26 1.38-1.26s1.38.42 1.38 1.26v1.71h3.38c.84 0 1.23.57 1.23 1.14 0 .6-.39 1.17-1.23 1.17h-9.7zm17.9 6.38h-3.02c-.12 4.82-.69 10.06-3.35 13.71-.39.54-.93.78-1.44.78-.81 0-1.56-.6-1.56-1.32 0-.27.09-.54.33-.81 2.84-3.35 3.38-8.11 3.38-12.69 0-1.5-.06-2.96-.12-4.37v-.36c0-2.01.75-2.87 2.75-3.47 1.17-.36 4.07-1.56 5.18-2.1.27-.12.51-.18.75-.18.87 0 1.53.75 1.53 1.5 0 .51-.27 1.02-.96 1.32-.99.45-4.34 1.53-5.15 1.77-.99.3-1.32.78-1.32 1.68v2.04l8.56-.06c.96 0 1.44.66 1.44 1.29s-.48 1.32-1.44 1.32h-2.84l.03 13.71c0 .84-.69 1.26-1.41 1.26s-1.38-.42-1.38-1.26l.03-13.74zm13.75 7.75c-.12-3.14.21-5.69.36-8.86.09-1.95.3-4.88.24-6.74-.06-2.22 3.32-2.04 3.26-.06-.06 1.89-.27 4.73-.42 6.74-.21 3.17-.66 5.9-.54 8.8.18 4.37 5.51 4.07 10.72-.03 1.95-1.53 3.77 1.23 2.07 2.6-5.84 4.76-15.42 5.63-15.69-2.45zm25.42 2.01c-2.16-2.34-3.14-5.81-3.38-9.58-.12-1.71-.18-2.25-.15-3.32.06-1.89 2.96-2.28 3.05-.03.06 1.17-.06 1.23 0 2.6.12 3.14.69 6.11 2.37 7.72.78.75 1.17.84 1.83-.06.36-.51.78-1.29.99-1.77.81-1.74 3.29-.48 2.72 1.08-.3.84-.84 1.77-1.17 2.31-1.92 3.11-4.58 2.84-6.26 1.05zm16.2-5.27c-.48-2.4-1.71-4.7-3.32-5.81-1.44-.99.18-3.2 1.98-1.86 2.13 1.59 4.19 4.4 4.49 6.95.24 2.19-2.72 2.78-3.14.72zM11.57 55.62c2.25.09 4.46.6 6.5 1.32.18-1.23.06-2.33-.42-3.14-.84-1.41 1.86-2.54 2.84-.69.66 1.2.75 2.99.3 4.97 1.56.75 2.96 1.65 4.13 2.54 1.89 1.47-.15 4.22-1.86 2.67-.99-.9-2.07-1.71-3.26-2.43-1.11 2.25-2.99 4.49-5.69 6.08-2.1 1.23-3.59-1.11-1.65-2.31 2.25-1.38 3.8-3.23 4.73-5.06-2.22-.93-4.58-1.47-6.98-1.5-1.11 2.31-2.13 4.16-3.83 5.48-1.8 1.41-4.43 1.59-5.72 0-1.53-1.92-.42-5.03 3.02-6.56 1.59-.69 3.26-1.11 4.91-1.29 1.05-2.25 2.42-4.97 3.26-6.86.18-.42.27-.66-.18-.54-1.17.3-2.31.69-3.53.72-1.98.06-1.89-2.72-.09-2.84 1.2-.06 3.02-.51 4.31-.75 2.72-.54 3.92 1.23 2.57 3.41-1.26 2.1-2.46 4.52-3.53 6.77h.15zm-7.04 3.59c-.78.39-2.19 1.65-1.68 2.4.36.51 1.44.33 1.98-.09.99-.75 1.8-1.98 2.48-3.2-.78.12-1.68.36-2.78.9zm34.77 9.2c-2.42.48-3.2-2.49-.66-2.99 1.56-.3 3.08-.75 4.01-1.29 3.29-1.92 4.19-3.98 3.56-5.18-.63-1.2-2.81-1.65-5.99-.21-1.77.81-3.65 2.21-4.01 2.57-1.77 1.71-2.96.87-3.5-.18s-.48-2.9-.24-5.09.63-4.49.87-6.02c.3-1.92 3.02-1.86 2.75.3-.15 1.26-.48 2.93-.72 4.37-.24 1.47-.39 2.58-.18 3.11.09.24.24.24.51.09.6-.33 2.01-1.11 3.41-1.71 9.04-3.92 15.42 4.16 5.3 10.36-1.26.78-3.14 1.47-5.12 1.86zm-.12-19.1c-1.44.36-2.52-1.56-1.26-2.25.15-.09.45-.24.24-.39-.63-.39-1.65-.87-2.13-1.41-1.29-1.41.69-2.99 2.19-1.92.54.39 1.56.84 2.42 1.41.87.57 1.65 1.29 1.71 2.19.06.87-.39 1.86-1.89 2.1-.39.06-.81.15-1.29.27zm20.87 14.22c-2.16-2.33-3.14-5.81-3.38-9.58-.12-1.71-.18-2.25-.15-3.32.06-1.89 2.96-2.28 3.05-.03.06 1.17-.06 1.23 0 2.6.12 3.14.69 6.11 2.37 7.72.78.75 1.17.84 1.83-.06.36-.51.78-1.29.99-1.77.81-1.74 3.29-.48 2.72 1.08-.3.84-.84 1.77-1.17 2.31-1.92 3.11-4.58 2.84-6.26 1.05zm16.2-5.27c-.48-2.39-1.71-4.7-3.32-5.81-1.44-.99.18-3.2 1.98-1.86 2.13 1.59 4.19 4.4 4.49 6.95.24 2.18-2.72 2.78-3.14.72zm19.37-11.77c.48-.18.93-.36 1.26-.54 1.65-.99 3.26 1.5 1.05 2.6-.75.36-2.04.72-3.29.99-.39.96-.9 2.04-1.44 3.02 2.07-.36 4.04.39 5.03 2.6 1.23-.63 2.48-1.26 3.65-1.77.72-.3 1.53-.66 2.33-1.11 2.25-1.26 3.59 1.74 1.68 2.69-.96.48-1.65.63-3.23 1.23-1.26.48-2.6 1.08-3.8 1.65.09.99.12 2.21.06 3.29-.06 1.2-.84 1.83-1.59 1.86-.75.03-1.44-.54-1.35-1.71.03-.63.06-1.32.06-1.95-.27.15-.54.3-.78.45-3.71 2.4-3.26 4.19-1.59 5.03 1.59.81 4.52.21 5.93-.24 2.63-.81 3.47 2.43.72 3.14-1.77.45-5.84.9-8.17-.42-4.04-2.28-3.32-6.32 2.1-9.88.42-.27.9-.6 1.47-.93-.81-2.51-3.11-2.21-5.06.03l-.12.12c-.27.33-.48.6-.69.78-1.65 1.47-3.83-.24-2.04-1.86.78-.72 1.8-1.8 2.42-2.81.51-.84.99-1.74 1.41-2.66-1.62.24-2.75.15-3.71-.33-2.16-1.08-.69-3.89 1.41-2.49.57.39 1.77.24 2.81.06.12-.03.3-.03.45-.06.21-.87.27-1.47.33-2.51.12-1.8 2.93-1.62 2.99-.15.03.6-.09 1.17-.24 1.74l-.06.12zm17.58 20.9c-.75 0-1.38-.6-1.38-1.32 0-.33.12-.66.42-.99 2.37-2.49 2.66-6.05 2.66-8.68 0-.96-.03-1.83-.03-2.46 0-1.89 1.44-2.49 2.81-2.51.9 0 1.74-.03 2.52-.03 1.14 0 2.25.03 3.53.06 1.8.06 2.87.69 2.96 2.19.03.57.06 1.26.06 1.98 0 3.11-.09 4.28-2.99 4.31-1.59.03-3.11.03-4.67.03h-1.98c-.57 4.1-2.33 7.42-3.92 7.42zm5.12-17.09c-.57 0-.93-.3-1.08-.69-2.66 2.75-3.56 2.81-3.83 2.81-.84 0-1.56-.72-1.56-1.44 0-.42.21-.84.72-1.17 2.22-1.41 4.55-4.01 5.51-5.42.66-.99 1.62-1.53 2.63-1.53.96 0 1.95.48 2.81 1.53.99 1.23 3.11 3.23 4.7 4.37.36.27.54.63.54.99 0 .75-.72 1.56-1.56 1.56-.48 0-.87-.12-2.75-2.01-.03.51-.42.99-1.14.99h-5zm3.53 18.02c-3.8 0-5.36 0-5.36-2.93 0-2.04.03-4.01 2.37-4.16.96-.06 1.95-.06 2.93-.06s2.04 0 3.02.06c1.14.06 2.28.87 2.36 1.98.03.42.06.87.06 1.35 0 1.5-.09 3.53-2.48 3.68-.99.06-1.95.09-2.9.09zm-4.46-11.71c0 .42-.03.87-.06 1.35 1.14 0 2.16.03 3.14.03s1.95-.03 2.84-.03c.48 0 .81-.27.84-.78 0-.18.03-.36.03-.57h-6.8zm6.8-1.83c0-.21-.03-.45-.03-.6-.03-.51-.36-.72-.84-.72-.9-.03-1.71-.03-2.51-.03s-1.53 0-2.37.03c-.84.03-1.02.48-1.02 1.11v.21h6.77zm-.81-6.65c-.63-.72-1.26-1.44-1.77-2.07-.3-.33-.54-.48-.78-.48-.27 0-.48.21-.72.54-.45.66-.96 1.35-1.53 2.01h4.79zm-1.29 15.18c-.72 0-1.41 0-2.1.03-.84 0-.9.69-.9 1.56 0 .99.03 1.11 2.75 1.11 2.37 0 2.72 0 2.72-1.26s-.03-1.44-2.48-1.44zm7.22-17.39c0-.9.69-1.35 1.38-1.35s1.38.45 1.38 1.35v15.27c0 .87-.69 1.29-1.38 1.29s-1.38-.42-1.38-1.29V45.92zm8.17 18.62v.06c0 1.8-1.14 3.92-4.58 3.92-2.48 0-3.29-.54-3.29-1.71 0-.75.45-1.5 1.23-1.5.09 0 .21 0 .3.03.57.12 1.26.33 1.86.33.81 0 1.5-.33 1.53-1.62.03-1.11.03-9.43.03-15v-4.73c0-.93.72-1.38 1.44-1.38s1.44.45 1.44 1.38v16.59l.06 3.62zm20.09-.98c2.19-1.95 2.1-4.79.39-5.93-1.56-1.05-4.79-1.26-7.81.51-1.2.69-1.83 1.23-2.51 2.25-1.08 1.59-4.07-.18-2.22-2.01 3.29-3.26 5.72-5.57 9.04-9.67.33-.42.03-.3-.21-.18-.84.45-2.81 1.05-5.03 1.53-2.36.51-2.81-2.45-.78-2.69 2.01-.24 4.88-.96 6.59-1.47 2.4-.69 4.37 1.44 2.87 3.11-.96 1.08-2.16 2.25-3.35 3.35-1.2 1.11-2.4 2.19-3.47 3.23 2.63-1.41 6.2-1.41 8.41-.09 4.31 2.57 2.9 7.84-.24 10.12-2.96 2.12-7.63 2.25-9.91.75-3.17-2.07-1.77-5.78 1.77-5.9 2.4-.09 4.64 1.35 4.73 4.04.57-.12 1.2-.48 1.74-.96zm-6.38-.9c-1.32.12-1.38 1.35-.42 1.86.69.36 1.68.48 2.51.45.03-1.38-.78-2.42-2.1-2.3zm22.97 2.78c.06-2.33.09-6.68.09-10.63 0-2.63 0-5.12-.06-6.71 0-.6-.09-.6-1.86-.6-1.14 0-2.54.06-3.95.06-1.14 0-1.71-.81-1.71-1.62s.54-1.59 1.65-1.59h.06c1.8.03 4.97.06 8.08.06 2.54 0 5.09-.03 6.8-.06 1.17-.03 1.56.96 1.56 1.62 0 .81-.48 1.59-1.44 1.59h-.12c-1.02-.06-1.89-.06-2.6-.06q-2.96 0-2.96.6c-.06 2.04-.09 4.94-.09 7.87 0 3.59.06 7.25.15 9.46.06 1.05-.87 1.56-1.8 1.56s-1.8-.51-1.8-1.53v-.03zm28 1.53c-.69 0-1.41-.33-1.71-1.11-.36-.87-1.14-3.26-2.07-6.05-.06-.18-.15-.27-.33-.27-.48-.03-1.71-.03-3.05-.03-1.8 0-3.8 0-4.43.03-.15 0-.3.09-.36.27-.75 2.37-1.44 4.52-1.89 5.96-.27.84-.96 1.23-1.68 1.23-.84 0-1.71-.57-1.71-1.5 0-.54.09-.78 6.65-19.22.48-1.38 1.56-2.01 2.63-2.01 1.14 0 2.31.72 2.78 2.07 1.92 5.39 5.81 15.81 6.8 18.14.12.3.18.6.18.87 0 1.02-.9 1.62-1.83 1.62zm-5-10.87c-.93-2.81-1.83-5.54-2.31-7.01-.18-.54-.33-.84-.51-.84-.15 0-.33.27-.54.87-.45 1.2-2.4 6.8-2.4 7.07 0 .12.06.18.24.18.6 0 1.71.03 2.75.03s2.13-.03 2.54-.03c.18 0 .24-.03.24-.12 0-.03 0-.09-.03-.15zm11.2 9.43c.06-3.17.09-7.12.09-10.87 0-3.35-.03-6.53-.09-8.8-.03-.96.66-1.62 1.71-1.62.87 0 1.74.54 1.74 1.56v.06c-.03 1.2-.06 2.36-.06 3.41 0 1.62.03 2.93.06 3.68 0 .27.06.6.78.6.63 0 1.08-.27 1.62-.87 2.16-2.33 5.63-6.17 6.86-7.78.33-.45.78-.63 1.23-.63.96 0 1.95.87 1.95 1.83 0 .3-.09.63-.33.93-1.32 1.62-4.97 5.27-7.07 7.48-.18.18-.27.33-.27.48 0 .12.09.27.27.45 2.54 2.6 8.02 7.81 8.53 8.38.36.39.51.84.51 1.23 0 1.05-.99 1.98-2.01 1.98-.48 0-.93-.18-1.35-.6-1.02-1.05-6.08-6.47-8.26-9.01-.45-.51-.81-.6-1.26-.6-.21 0-.39.03-.63.03s-.57.03-.57.48c-.03.78-.06 2.37-.06 4.31 0 1.2 0 2.52.06 3.89v.06c0 .96-.84 1.41-1.71 1.41s-1.74-.48-1.74-1.44v-.03zm37.42 1.44c-.69 0-1.41-.33-1.71-1.11-.36-.87-1.14-3.26-2.07-6.05-.06-.18-.15-.27-.33-.27-.48-.03-1.71-.03-3.05-.03-1.8 0-3.8 0-4.43.03-.15 0-.3.09-.36.27-.75 2.37-1.44 4.52-1.89 5.96-.27.84-.96 1.23-1.68 1.23-.84 0-1.71-.57-1.71-1.5 0-.54.09-.78 6.65-19.22.48-1.38 1.56-2.01 2.63-2.01 1.14 0 2.31.72 2.78 2.07 1.92 5.39 5.81 15.81 6.8 18.14.12.3.18.6.18.87 0 1.02-.9 1.62-1.83 1.62zm-5-10.87c-.93-2.81-1.83-5.54-2.31-7.01-.18-.54-.33-.84-.51-.84-.15 0-.33.27-.54.87-.45 1.2-2.39 6.8-2.39 7.07 0 .12.06.18.24.18.6 0 1.71.03 2.75.03s2.13-.03 2.54-.03c.18 0 .24-.03.24-.12 0-.03 0-.09-.03-.15zm18.3 11.2c-2.39 0-6.65-.03-6.95-4.22-.09-1.47-.15-3.89-.15-6.41 0-3.29.09-6.77.18-8.38.24-4.1 3.2-4.22 6.92-4.22.93 0 1.83.03 2.28.06 6.92.45 10.72 5.27 10.72 11.5 0 11.65-9.88 11.67-12.99 11.67zm-.42-20c-1.44 0-3.05.03-3.14 1.53-.09 1.26-.18 4.7-.18 7.93 0 2.37.06 4.58.18 5.72.15 1.38 1.08 1.62 3.56 1.62 3.14 0 9.46 0 9.46-8.47 0-4.82-2.9-8.29-7.48-8.29 0 0-1.29-.03-2.4-.03zm33.15 19.67c-.69 0-1.41-.33-1.71-1.11-.36-.87-1.14-3.26-2.07-6.05-.06-.18-.15-.27-.33-.27-.48-.03-1.71-.03-3.05-.03-1.8 0-3.8 0-4.43.03-.15 0-.3.09-.36.27-.75 2.37-1.44 4.52-1.89 5.96-.27.84-.96 1.23-1.68 1.23-.84 0-1.71-.57-1.71-1.5 0-.54.09-.78 6.65-19.22.48-1.38 1.56-2.01 2.63-2.01 1.14 0 2.31.72 2.78 2.07 1.92 5.39 5.81 15.81 6.8 18.14.12.3.18.6.18.87 0 1.02-.9 1.62-1.83 1.62zm-5-10.87c-.93-2.81-1.83-5.54-2.31-7.01-.18-.54-.33-.84-.51-.84-.15 0-.33.27-.54.87-.45 1.2-2.39 6.8-2.39 7.07 0 .12.06.18.24.18.6 0 1.71.03 2.75.03s2.13-.03 2.54-.03c.18 0 .24-.03.24-.12 0-.03 0-.09-.03-.15z" fill="#fff"/></svg>