<svg xmlns="http://www.w3.org/2000/svg" width="934" height="288" viewBox="0 0 934 288"><path fill="#fff" d="M0 1h934v287H0z"/><path fill="#00acff" d="M77 190h203v48H77z"/><path d="M110 227H89a2 2 0 01-2-2v-21a2 2 0 012-2h21a2 2 0 012 2v21a2 2 0 01-2 2zm-11.123-17.4h.089v12.48h2.744v-15.156H99.1l-3.766 2.419v2.516l3.543-2.259z" fill="#fff"/><text transform="translate(122 211)" fill="#fff" font-size="13" font-family="YuGo-Bold, YuGothic" font-weight="700"><tspan x="0" y="0">日常常駐メンテナンス</tspan><tspan x="0" y="15">[ 施工 ]</tspan></text><path fill="#eb8208" d="M77 127h203v48H77z"/><path d="M110 164H89a2 2 0 01-2-2v-21a2 2 0 012-2h21a2 2 0 012 2v21a2 2 0 01-2 2zm-10.641-17.953a2.893 2.893 0 011.3.282 2.178 2.178 0 01.895.795 2.267 2.267 0 01.326 1.232 2.837 2.837 0 01-.252 1.184 4.961 4.961 0 01-.754 1.147c-.334.393-.757.849-1.257 1.354L94.35 157.2v1.983h10.387v-2.297h-6.6v-.1l2.611-2.656a29.633 29.633 0 002.291-2.419 7.194 7.194 0 001.143-1.82 4.53 4.53 0 00.325-1.672 4.1 4.1 0 00-.64-2.264 4.413 4.413 0 00-1.793-1.565 6.007 6.007 0 00-2.674-.57 5.851 5.851 0 00-2.66.584 4.46 4.46 0 00-1.82 1.65 4.7 4.7 0 00-.659 2.508h2.612a2.775 2.775 0 01.307-1.339 2.16 2.16 0 01.869-.869 2.709 2.709 0 011.31-.307z" fill="#fff"/><text transform="translate(122 148)" fill="#fff" font-size="13" font-family="YuGo-Bold, YuGothic" font-weight="700"><tspan x="0" y="0">日常常駐メンテナンス</tspan><tspan x="0" y="15">[ 年間契約 ]</tspan></text><path fill="#eb8208" d="M295 127h203v48H295z"/><path d="M328 164h-21a2 2 0 01-2-2v-21a2 2 0 012-2h21a2 2 0 012 2v21a2 2 0 01-2 2zm-9.964-20.076l-6.428 10.158v2.182h7.228v2.811h2.619v-2.81h1.939v-2.258h-1.939v-10.083h-3.419zm.829 10.084h-4.446v-.118l4.327-6.858h.119v6.975z" fill="#fff"/><text transform="translate(340 148)" fill="#fff" font-size="13" font-family="YuGo-Bold, YuGothic" font-weight="700"><tspan x="0" y="0">定修メンテナンス</tspan><tspan x="0" y="15">[ 一括請負 ]</tspan></text><path fill="#00acff" d="M295 190h203v48H295z"/><path d="M328 227h-21a2 2 0 01-2-2v-21a2 2 0 012-2h21a2 2 0 012 2v21a2 2 0 01-2 2zm-16.075-9.045a3.969 3.969 0 00.762 2.256 4.759 4.759 0 001.957 1.524 6.984 6.984 0 002.838.548 6.986 6.986 0 002.889-.57 4.857 4.857 0 001.983-1.572 3.819 3.819 0 00.721-2.275 3.428 3.428 0 00-.847-2.379 3.889 3.889 0 00-2.453-1.18v-.117a3.583 3.583 0 001.986-1.132 3.12 3.12 0 00.751-2.146 3.834 3.834 0 00-.612-2.112 4.34 4.34 0 00-1.735-1.52 5.809 5.809 0 00-2.637-.566 6.33 6.33 0 00-2.658.546 4.76 4.76 0 00-1.89 1.51 3.861 3.861 0 00-.736 2.238h2.641a1.849 1.849 0 01.385-1.1 2.364 2.364 0 01.954-.714 3.28 3.28 0 011.287-.252 2.739 2.739 0 011.239.266 2.006 2.006 0 01.822.743 2.068 2.068 0 01.284 1.121 1.971 1.971 0 01-.333 1.157 2.23 2.23 0 01-.936.773 3.3 3.3 0 01-1.387.274h-1.339v2.116h1.339a4.157 4.157 0 011.646.3 2.384 2.384 0 011.047.822 2.053 2.053 0 01.356 1.213 1.981 1.981 0 01-.349 1.173 2.363 2.363 0 01-.985.8 3.48 3.48 0 01-1.443.284 3.623 3.623 0 01-1.376-.251 2.438 2.438 0 01-.984-.706 1.834 1.834 0 01-.407-1.069h-2.78z" fill="#fff"/><text transform="translate(340 211)" fill="#fff" font-size="13" font-family="YuGo-Bold, YuGothic" font-weight="700"><tspan x="0" y="0">定修メンテナンス</tspan><tspan x="0" y="15">[ 一括請負 ]</tspan></text><path fill="#00acff" d="M513 190h203v48H513z"/><path d="M546 227h-21a2 2 0 01-2-2v-21a2 2 0 012-2h21a2 2 0 012 2v21a2 2 0 01-2 2zm-10.181-20.283a5.406 5.406 0 00-2.461.555 5.283 5.283 0 00-1.875 1.609 7.73 7.73 0 00-1.191 2.578 13.317 13.317 0 00-.414 3.47 10.7 10.7 0 00.481 3.5 6.006 6.006 0 001.317 2.256 4.968 4.968 0 001.864 1.215 6.376 6.376 0 002.123.382h.037a5.761 5.761 0 002.831-.674 4.948 4.948 0 001.916-1.868 5.225 5.225 0 00.681-2.682 5.109 5.109 0 00-.615-2.549 4.64 4.64 0 00-1.683-1.75 4.586 4.586 0 00-2.393-.636 4.657 4.657 0 00-1.543.256 4.376 4.376 0 00-1.306.721 3.825 3.825 0 00-.94 1.117h-.1a7.19 7.19 0 01.852-3.756 2.7 2.7 0 012.423-1.369 2.385 2.385 0 012.463 1.916h2.7a4.91 4.91 0 00-.843-2.193 4.8 4.8 0 00-1.786-1.535 5.532 5.532 0 00-2.538-.563zm-.17 13.346a2.673 2.673 0 01-1.443-.4 2.847 2.847 0 01-1-1.066 3.064 3.064 0 01-.37-1.458 3.028 3.028 0 01.226-1.128 2.992 2.992 0 01.6-.932 2.817 2.817 0 01.9-.633 2.743 2.743 0 011.118-.229 2.7 2.7 0 011.435.385 2.746 2.746 0 01.988 1.043 3.261 3.261 0 01-.012 2.966 2.855 2.855 0 01-1.005 1.058 2.712 2.712 0 01-1.437.394z" fill="#fff"/><text transform="translate(558 211)" fill="#fff" font-size="13" font-family="YuGo-Bold, YuGothic" font-weight="700"><tspan x="0" y="0">設備診断サービス</tspan><tspan x="0" y="15">[ 個別 ]</tspan></text><path fill="#0cc10c" d="M77 1h857v48H77z"/><g fill="#fff"><path d="M370 38h-21a2 2 0 01-2-2V15a2 2 0 012-2h21a2 2 0 012 2v21a2 2 0 01-2 2zm-6.023-20.324a5.324 5.324 0 00-3.126.917 5.8 5.8 0 00-2.005 2.66 11.481 11.481 0 00-.707 4.221 11.507 11.507 0 00.7 4.235 5.86 5.86 0 002 2.686 5.292 5.292 0 003.134.929 5.3 5.3 0 003.137-.924 5.835 5.835 0 002.005-2.682 11.549 11.549 0 00.7-4.243 11.414 11.414 0 00-.7-4.217 5.783 5.783 0 00-2.009-2.664 5.342 5.342 0 00-3.129-.918zm-11.248 2.879h.089v12.48h2.746V17.883h-2.612l-3.766 2.417v2.518l3.543-2.263zm11.248 10.453a2.362 2.362 0 01-1.635-.625 4.047 4.047 0 01-1.062-1.86 10.6 10.6 0 01-.366-3.048 8.356 8.356 0 01.829-4.109 2.509 2.509 0 012.235-1.4 2.351 2.351 0 011.627.626 4.071 4.071 0 011.065 1.849 10.518 10.518 0 01.377 3.033 8.318 8.318 0 01-.825 4.132 2.522 2.522 0 01-2.245 1.402z"/><text transform="translate(382 30)" font-size="13" font-family="YuGo-Bold, YuGothic" font-weight="700"><tspan x="0" y="0">総合アウトソーシング・サービス [ 複数年契約 ]</tspan></text></g><path fill="#eb8208" d="M513 127h203v48H513z"/><path d="M546 164h-21a2 2 0 01-2-2v-21a2 2 0 012-2h21a2 2 0 012 2v21a2 2 0 01-2 2zm-15.661-20.076v2.294h7.48v.1l-6.444 12.757h2.848l6.437-12.806v-2.345z" fill="#fff"/><text transform="translate(558 156)" fill="#fff" font-size="13" font-family="YuGo-Bold, YuGothic" font-weight="700"><tspan x="0" y="0">設備診断サービス</tspan></text><path fill="#0cc10c" d="M513 64h203v48H513z"/><path d="M546 101h-21a2 2 0 01-2-2V78a2 2 0 012-2h21a2 2 0 012 2v21a2 2 0 01-2 2zm-10.5-20.283a6.21 6.21 0 00-2.619.529 4.493 4.493 0 00-1.802 1.446 3.463 3.463 0 00-.651 2.086 3.423 3.423 0 00.714 2.164 3.2 3.2 0 001.89 1.2v.1a3.691 3.691 0 00-1.608.684 3.942 3.942 0 00-1.143 1.334 3.652 3.652 0 00-.415 1.753 3.554 3.554 0 00.714 2.194 4.86 4.86 0 002 1.52 7.308 7.308 0 002.926.555 7.238 7.238 0 002.911-.555 4.887 4.887 0 001.994-1.52 3.575 3.575 0 00.725-2.194 3.691 3.691 0 00-.426-1.753 4.022 4.022 0 00-1.139-1.336 3.643 3.643 0 00-1.6-.684v-.1a3.22 3.22 0 001.876-1.2 3.436 3.436 0 00.729-2.164 3.486 3.486 0 00-.662-2.086 4.517 4.517 0 00-1.814-1.444 6.145 6.145 0 00-2.6-.529zm0 13.451a3.5 3.5 0 01-1.49-.3 2.324 2.324 0 01-.981-.825 2.152 2.152 0 01-.34-1.224 2.257 2.257 0 01.359-1.283 2.529 2.529 0 011-.877 3.219 3.219 0 011.45-.318 3.183 3.183 0 011.439.318 2.544 2.544 0 011 .877 2.346 2.346 0 01.373 1.283 2.249 2.249 0 01-.356 1.228 2.291 2.291 0 01-.976.825 3.5 3.5 0 01-1.478.295zm0-6.9a2.66 2.66 0 01-1.247-.284 2.149 2.149 0 01-.851-.785 2.119 2.119 0 01-.3-1.157 2.109 2.109 0 01.298-1.147 2.018 2.018 0 01.843-.762 2.817 2.817 0 011.262-.27 2.756 2.756 0 011.243.27 2.047 2.047 0 01.843.762 2.183 2.183 0 01.309 1.143 2.217 2.217 0 01-.318 1.161 2.162 2.162 0 01-.847.785 2.633 2.633 0 01-1.235.28z" fill="#fff"/><text transform="translate(558 93)" fill="#fff" font-size="13" font-family="YuGo-Bold, YuGothic" font-weight="700"><tspan x="0" y="0">遠隔診断サービス</tspan></text><path fill="#00acff" d="M731 64h203v174H731z"/><g fill="#fff"><path d="M843 145h-21a2 2 0 01-2-2v-21a2 2 0 012-2h21a2 2 0 012 2v21a2 2 0 01-2 2zm-15.978-9.053a4.912 4.912 0 00.836 2.235 4.8 4.8 0 001.787 1.539 5.561 5.561 0 002.542.563 5.4 5.4 0 002.463-.555 5.284 5.284 0 001.872-1.613 7.836 7.836 0 001.194-2.593 13.175 13.175 0 00.411-3.488 10.746 10.746 0 00-.489-3.478 5.923 5.923 0 00-1.317-2.245 5.008 5.008 0 00-1.861-1.212 6.363 6.363 0 00-2.12-.381h-.07a5.686 5.686 0 00-2.8.67 4.966 4.966 0 00-1.912 1.862 5.226 5.226 0 00-.684 2.659 5.208 5.208 0 00.626 2.538 4.632 4.632 0 001.679 1.746 4.583 4.583 0 002.393.636 4.717 4.717 0 001.543-.251 4.268 4.268 0 001.306-.722 3.848 3.848 0 00.94-1.12h.1a7.229 7.229 0 01-.851 3.8 2.71 2.71 0 01-2.426 1.369 2.462 2.462 0 01-1.616-.529 2.542 2.542 0 01-.848-1.432zm5.3-3.2a2.688 2.688 0 01-1.432-.384 2.76 2.76 0 01-.99-1.046 3.08 3.08 0 01-.366-1.465 3.017 3.017 0 01.366-1.477 2.788 2.788 0 011.006-1.05 2.729 2.729 0 011.439-.389 2.664 2.664 0 011.446.4 2.931 2.931 0 011.369 2.493 2.769 2.769 0 01-.211 1.11 3.072 3.072 0 01-.607.936 2.808 2.808 0 01-.906.64 2.74 2.74 0 01-1.117.229z"/><text transform="translate(833 166)" font-size="13" font-family="YuGo-Bold, YuGothic" font-weight="700"><tspan x="-51.545" y="0">コンサルティング</tspan><tspan x="-26" y="15">サービス</tspan></text></g><path fill="#0cc10c" d="M77 64h419v48H77z"/><g fill="#fff"><path d="M208 101h-21a2 2 0 01-2-2V78a2 2 0 012-2h21a2 2 0 012 2v21a2 2 0 01-2 2zm-15.835-9.148a4.073 4.073 0 00.729 2.234 4.685 4.685 0 001.853 1.535 6.094 6.094 0 002.649.559 5.83 5.83 0 002.83-.67 4.936 4.936 0 001.916-1.842 5.185 5.185 0 00.692-2.675 5.312 5.312 0 00-.622-2.589 4.655 4.655 0 00-1.7-1.779 4.709 4.709 0 00-2.456-.647 4.263 4.263 0 00-1.687.329 3.176 3.176 0 00-1.191.824h-.089l.436-4.017h6.518V80.82h-8.79l-.792 7.813 2.479.407a2.759 2.759 0 011.043-.68 3.552 3.552 0 011.3-.252h.035a2.865 2.865 0 011.48.382 2.748 2.748 0 011.013 1.047 3.047 3.047 0 01.363 1.524 3.022 3.022 0 01-.356 1.5 2.657 2.657 0 01-.991 1.029 2.791 2.791 0 01-1.436.37 2.733 2.733 0 01-1.76-.589 2.092 2.092 0 01-.806-1.52z"/><text transform="translate(220 93)" font-size="13" font-family="YuGo-Bold, YuGothic" font-weight="700"><tspan x="0" y="0">日常・定修一括メンテナンス</tspan></text></g><path fill="#acacac" d="M108 271h290v10H108zm293 0h9v10h-9zm12 0h6v10h-6z"/><path d="M77 275.5l32-12.5v25z" fill="#acacac"/><path d="M79.748 275.5L108 286.536v-22.072L79.748 275.5m-2.748 0l32-12.5v25z" fill="#acacac"/><g fill="#acacac"><path d="M613 271h290v10H613zm-12 0h9v10h-9zm-9 0h6v10h-6z"/><path d="M934 275.5L902 288v-25z"/><path d="M931.252 275.5L903 264.464v22.072l28.252-11.036m2.748 0L902 288v-25z"/></g><text transform="translate(441 280)" font-size="13" font-family="YuGo-Bold, YuGothic" font-weight="700"><tspan x="0" y="0">メンテナンス業務領域</tspan></text><text transform="translate(0 236)" font-size="13" font-family="YuGo-Bold, YuGothic" font-weight="700"><tspan x="0" y="0">個別要素</tspan></text><text transform="translate(6 12)" font-size="13" font-family="YuGo-Bold, YuGothic" font-weight="700"><tspan x="0" y="0">総合化</tspan></text><g fill="#acacac"><path d="M30.5 43.355v28.226h-10V43.355zm0 30.729v7.509h-10v-7.509zm0 10.012v5.006h-10v-5.006z"/><path d="M25.5 31L38 44.355H13z"/><path d="M25.5 32.463L15.306 43.355h20.388L25.5 32.463m0-1.463L38 44.355H13z"/></g><g fill="#acacac"><path d="M20.5 195.848v-28.226h10v28.226zm0-30.729v-7.509h10v7.509zm0-10.012v-5.006h10v5.006z"/><path d="M25.5 208.203L13 194.848h25z"/><path d="M25.5 206.74l10.194-10.892H15.306L25.5 206.74m0 1.463L13 194.848h25z"/></g><text transform="translate(19 110.102)" font-size="13" font-family="YuGo-Bold, YuGothic" font-weight="700"><tspan x="0" y="0">集</tspan><tspan x="0" y="14">積</tspan><tspan x="0" y="28">度</tspan></text></svg>