<svg xmlns="http://www.w3.org/2000/svg" width="372" height="283" viewBox="0 0 372 283"><path d="M180.684 6.556a127.155 127.155 0 0189.4 36.736l-17.756 17.964a101.9 101.9 0 00-71.644-29.443z" fill="#f7a79f"/><path d="M270.086 43.291a127.155 127.155 0 0130.1 133.867 127.155 127.155 0 01-109.044 83.277l-2.081-25.171a101.9 101.9 0 0087.388-66.736 101.9 101.9 0 00-24.121-107.277z" fill="#cedb8c"/><path d="M191.138 260.435a127.155 127.155 0 01-70.518-14.65l11.93-22.261a101.9 101.9 0 0056.511 11.74z" fill="#8bc9ee"/><path d="M120.62 245.786a127.155 127.155 0 01-63.264-143.039A127.155 127.155 0 01180.683 6.556v25.257a101.9 101.9 0 00-98.831 77.085 101.9 101.9 0 0050.698 114.627z" fill="#a79fc3"/><g font-family="YuGo-Bold, YuGothic" font-weight="700"><text transform="translate(181 130)" font-size="16"><tspan x="-40" y="0">所有株数別</tspan><tspan x="-32" y="27">分布状況</tspan></text><text transform="translate(232 12)" font-size="14"><tspan x="0" y="0">12.41%</tspan></text><text transform="translate(324 158)" font-size="14"><tspan x="0" y="0">37.47%</tspan></text><text transform="translate(128 281)" font-size="14"><tspan x="0" y="0">7.36%</tspan></text><text transform="translate(0 124)" font-size="14"><tspan x="0" y="0">42.75%</tspan></text></g></svg>