<svg xmlns="http://www.w3.org/2000/svg" width="428" height="165" viewBox="0 0 428 165"><g transform="translate(-2552 -4589)"><g fill="#606060"><path d="M2590 4715.5h-1v-105h1z"/><path d="M2979.5 4716h-390v-1h390zm-382-23h-8v-1h8zm0-24h-8v-1h8zm0-25h-8v-1h8zm0-24h-8v-1h8z"/></g><text transform="translate(2621 4736)" font-size="13" font-family="YuGo-Medium, YuGothic" font-weight="500"><tspan x="-20.215" y="0">第72期</tspan></text><text transform="translate(2622 4752)" font-size="12" font-family="YuGo-Medium, YuGothic" font-weight="500"><tspan x="-20.58" y="0">(H30.3)</tspan></text><text transform="translate(2579 4719)" font-size="12" font-family="YuGo-Medium, YuGothic" font-weight="500"><tspan x="-3.33" y="0">0</tspan></text><text transform="translate(2582 4699)" font-size="12" font-family="YuGo-Medium, YuGothic" font-weight="500"><tspan x="-19.98" y="0">400</tspan></text><text transform="translate(2633 4705)" fill="#0073bd" font-size="12" font-family="YuGo-Medium, YuGothic" font-weight="500"><tspan x="-19.98" y="0">492</tspan></text><text transform="translate(2712 4703)" fill="#0073bd" font-size="12" font-family="YuGo-Medium, YuGothic" font-weight="500"><tspan x="-19.98" y="0">531</tspan></text><text transform="translate(2791 4700)" fill="#0073bd" font-size="12" font-family="YuGo-Medium, YuGothic" font-weight="500"><tspan x="-19.98" y="0">556</tspan></text><text transform="translate(2870 4699)" fill="#0073bd" font-size="12" font-family="YuGo-Medium, YuGothic" font-weight="500"><tspan x="-19.98" y="0">560</tspan></text><text transform="translate(2633 4657)" fill="#f15519" font-size="12" font-family="YuGo-Medium, YuGothic" font-weight="500"><tspan x="-19.98" y="0">836</tspan></text><text transform="translate(2716 4620)" fill="#f15519" font-size="12" font-family="YuGo-Medium, YuGothic" font-weight="500"><tspan x="-29.748" y="0">1,457</tspan></text><text transform="translate(2791 4650)" fill="#f15519" font-size="12" font-family="YuGo-Medium, YuGothic" font-weight="500"><tspan x="-19.98" y="0">991</tspan></text><text transform="translate(2870 4656)" fill="#f15519" font-size="12" font-family="YuGo-Medium, YuGothic" font-weight="500"><tspan x="-19.98" y="0">886</tspan></text><text transform="translate(2957 4625)" fill="#f15519" font-size="12" font-family="YuGo-Medium, YuGothic" font-weight="500"><tspan x="-29.748" y="0">1,311</tspan></text><text transform="translate(2952 4689)" fill="#0073bd" font-size="12" font-family="YuGo-Medium, YuGothic" font-weight="500"><tspan x="-19.98" y="0">712</tspan></text><text transform="translate(2582 4674)" font-size="12" font-family="YuGo-Medium, YuGothic" font-weight="500"><tspan x="-19.98" y="0">800</tspan></text><text transform="translate(2582 4649)" font-size="12" font-family="YuGo-Medium, YuGothic" font-weight="500"><tspan x="-29.748" y="0">1,200</tspan></text><text transform="translate(2582 4624)" font-size="12" font-family="YuGo-Medium, YuGothic" font-weight="500"><tspan x="-29.748" y="0">1,600</tspan></text><text transform="translate(2702 4752)" font-size="12" font-family="YuGo-Medium, YuGothic" font-weight="500"><tspan x="-16.8" y="0">(R2.3)</tspan></text><text transform="translate(2782 4752)" font-size="12" font-family="YuGo-Medium, YuGothic" font-weight="500"><tspan x="-16.8" y="0">(R3.3)</tspan></text><text transform="translate(2862 4752)" font-size="12" font-family="YuGo-Medium, YuGothic" font-weight="500"><tspan x="-16.8" y="0">(R4.3)</tspan></text><text transform="translate(2942 4752)" font-size="12" font-family="YuGo-Medium, YuGothic" font-weight="500"><tspan x="-16.8" y="0">(R4.9)</tspan></text><text transform="translate(2701 4736)" font-size="13" font-family="YuGo-Medium, YuGothic" font-weight="500"><tspan x="-20.215" y="0">第73期</tspan></text><text transform="translate(2781 4736)" font-size="13" font-family="YuGo-Medium, YuGothic" font-weight="500"><tspan x="-20.215" y="0">第74期</tspan></text><text transform="translate(2861 4736)" font-size="13" font-family="YuGo-Medium, YuGothic" font-weight="500"><tspan x="-20.215" y="0">第75期</tspan></text><text transform="translate(2941 4736)" font-size="13" font-family="YuGo-Medium, YuGothic" font-weight="500"><tspan x="-33.215" y="0">第75期中間</tspan></text><circle cx="3.5" cy="3.5" r="3.5" transform="translate(2619 4685)" fill="#0073bd"/><circle cx="3.5" cy="3.5" r="3.5" transform="translate(2619 4661)" fill="#f15519"/><circle cx="3.5" cy="3.5" r="3.5" transform="translate(2698 4624)" fill="#f15519"/><circle cx="3.5" cy="3.5" r="3.5" transform="translate(2777 4654)" fill="#f15519"/><circle cx="3.5" cy="3.5" r="3.5" transform="translate(2856 4660)" fill="#f15519"/><circle cx="3.5" cy="3.5" r="3.5" transform="translate(2938 4629)" fill="#f15519"/><circle cx="3.5" cy="3.5" r="3.5" transform="translate(2698 4682)" fill="#0073bd"/><circle cx="3.5" cy="3.5" r="3.5" transform="translate(2777 4679)" fill="#0073bd"/><circle cx="3.5" cy="3.5" r="3.5" transform="translate(2856 4678)" fill="#0073bd"/><circle cx="3.5" cy="3.5" r="3.5" transform="translate(2938 4668)" fill="#0073bd"/><path d="M2622.519 4689l-.037-1 78.764-2.939 79.3-2.965 79.114-.875 82.128-10.084.122.992-82.183 10.091h-.028l-79.134.875-79.277 2.964z" fill="#0073bd"/><path d="M2622.712 4664.953l-.424-.905 80.01-37.512-.1.548 78.239 30.044 79.3 6.288 81.885-31.286.357.935-82.1 31.366-.113-.009-79.554-6.309-.068-.026-78.5-30.143z" fill="#f15519"/></g><g transform="translate(-2552 -4608)"><circle cx="3.5" cy="3.5" r="3.5" transform="translate(2812 4610)" fill="#f15519"/><circle cx="3.5" cy="3.5" r="3.5" transform="translate(2872 4610)" fill="#0073bd"/><text transform="translate(2842 4617)" font-size="10" font-family="YuGo-Medium, YuGothic" font-weight="500"><tspan x="-20" y="0">最高株価</tspan></text><text transform="translate(2902 4617)" font-size="10" font-family="YuGo-Medium, YuGothic" font-weight="500"><tspan x="-20" y="0">最低株価</tspan></text><text transform="translate(2932 4617)" font-size="10" font-family="YuGo-Medium, YuGothic" font-weight="500"><tspan x="0" y="0">(単位：円)</tspan></text></g></svg>