<svg xmlns="http://www.w3.org/2000/svg" width="365" height="272.867" viewBox="0 0 365 272.867"><path d="M186.251 18.556a126.946 126.946 0 01104.272 54.54l-20.711 14.382a101.731 101.731 0 00-83.561-43.707z" fill="#f7a79f"/><path d="M290.523 73.096a126.946 126.946 0 0114.979 115.933 126.946 126.946 0 01-86.134 79.025l-6.582-24.343a101.731 101.731 0 0069.029-63.328 101.731 101.731 0 00-12-92.9z" fill="#cedb8c"/><path d="M219.364 268.054A126.934 126.934 0 0162.7 180.39a126.946 126.946 0 0187.673-156.666l7.128 24.2a101.721 101.721 0 00-70.26 125.536 101.731 101.731 0 00125.547 70.258z" fill="#8bc9ee"/><path d="M150.375 23.731a126.947 126.947 0 0135.876-5.175v25.215a101.731 101.731 0 00-28.75 4.147z" fill="#a69ec2"/><text transform="translate(150 138)" font-size="16" font-family="YuGo-Bold, YuGothic" font-weight="700"><tspan x="0" y="0">所有者別</tspan><tspan x="0" y="27">分布状況</tspan></text><text transform="translate(147 12)" font-size="14" font-family="YuGo-Bold, YuGothic" font-weight="700"><tspan x="0" y="0">7.22%</tspan></text><text transform="translate(250 32)" font-size="14" font-family="YuGo-Bold, YuGothic" font-weight="700"><tspan x="0" y="0">15.80%</tspan></text><text transform="translate(0 155)" font-size="14" font-family="YuGo-Bold, YuGothic" font-weight="700"><tspan x="0" y="0">46.10%</tspan></text><text transform="translate(317 196)" font-size="14" font-family="YuGo-Bold, YuGothic" font-weight="700"><tspan x="0" y="0">30.88%</tspan></text></svg>