<svg xmlns="http://www.w3.org/2000/svg" width="428" height="147.5" viewBox="0 0 428 147.5"><g transform="translate(-3038 -4590.5)"><g fill="#606060"><path d="M3076 4715.5h-1v-105h1z"/><path d="M3465.5 4716h-390v-1h390zm-382-23h-8v-1h8zm0-24h-8v-1h8zm0-25h-8v-1h8zm0-24h-8v-1h8z"/></g><text transform="translate(3107 4736)" font-size="13" font-family="YuGo-Medium, YuGothic" font-weight="500"><tspan x="-13.26" y="0">R4.4</tspan></text><text transform="translate(3065 4719)" font-size="12" font-family="YuGo-Medium, YuGothic" font-weight="500"><tspan x="-3.33" y="0">0</tspan></text><text transform="translate(3068 4699)" font-size="12" font-family="YuGo-Medium, YuGothic" font-weight="500"><tspan x="-19.98" y="0">400</tspan></text><text transform="translate(3068 4674)" font-size="12" font-family="YuGo-Medium, YuGothic" font-weight="500"><tspan x="-19.98" y="0">800</tspan></text><text transform="translate(3068 4649)" font-size="12" font-family="YuGo-Medium, YuGothic" font-weight="500"><tspan x="-29.748" y="0">1,200</tspan></text><text transform="translate(3068 4624)" font-size="12" font-family="YuGo-Medium, YuGothic" font-weight="500"><tspan x="-29.748" y="0">1,600</tspan></text><text transform="translate(3178 4736)" font-size="13" font-family="YuGo-Medium, YuGothic" font-weight="500"><tspan x="-3.608" y="0">5</tspan></text><text transform="translate(3240 4736)" font-size="13" font-family="YuGo-Medium, YuGothic" font-weight="500"><tspan x="-3.608" y="0">6</tspan></text><text transform="translate(3303 4736)" font-size="13" font-family="YuGo-Medium, YuGothic" font-weight="500"><tspan x="-3.608" y="0">7</tspan></text><text transform="translate(3427 4736)" font-size="13" font-family="YuGo-Medium, YuGothic" font-weight="500"><tspan x="-3.608" y="0">9</tspan></text><text transform="translate(3365 4736)" font-size="13" font-family="YuGo-Medium, YuGothic" font-weight="500"><tspan x="-3.608" y="0">8</tspan></text><circle cx="3.5" cy="3.5" r="3.5" transform="translate(3104 4674)" fill="#0073bd"/><circle cx="3.5" cy="3.5" r="3.5" transform="translate(3104 4664)" fill="#f15519"/><circle cx="3.5" cy="3.5" r="3.5" transform="translate(3175 4667)" fill="#f15519"/><circle cx="3.5" cy="3.5" r="3.5" transform="translate(3237 4658)" fill="#f15519"/><circle cx="3.5" cy="3.5" r="3.5" transform="translate(3300 4647)" fill="#f15519"/><circle cx="3.5" cy="3.5" r="3.5" transform="translate(3361 4629)" fill="#f15519"/><circle cx="3.5" cy="3.5" r="3.5" transform="translate(3424 4626)" fill="#f15519"/><circle cx="3.5" cy="3.5" r="3.5" transform="translate(3175 4675)" fill="#0073bd"/><circle cx="3.5" cy="3.5" r="3.5" transform="translate(3237 4673)" fill="#0073bd"/><circle cx="3.5" cy="3.5" r="3.5" transform="translate(3300 4663)" fill="#0073bd"/><circle cx="3.5" cy="3.5" r="3.5" transform="translate(3361 4653)" fill="#0073bd"/><circle cx="3.5" cy="3.5" r="3.5" transform="translate(3424 4647)" fill="#0073bd"/><path d="M3178.657 4679.182h-.012l-71.153-1.182.017-1 71.142 1.182 62.1-1.92 63.125-10.106 61.069-9.981 63-5.969.094 1-62.987 5.968-61.021 9.975-63.19 10.116h-.032z" fill="#0073bd"/><path d="M3178.957 4671.3h-.048l-71.432-3.3.046-1 71.383 3.3 61.909-9.1 62.992-11.168 61.138-17.906h.06l62.807-2.876.046 1-62.747 2.873-61.075 17.877h-.027l-63.041 11.177z" fill="#f15519"/><text transform="translate(3428 4622)" fill="#f15519" font-size="12" font-family="YuGo-Medium, YuGothic" font-weight="500"><tspan x="-14.874" y="0">1,311</tspan></text><text transform="translate(3365 4625)" fill="#f15519" font-size="12" font-family="YuGo-Medium, YuGothic" font-weight="500"><tspan x="-14.874" y="0">1,300</tspan></text><text transform="translate(3304 4643)" fill="#f15519" font-size="12" font-family="YuGo-Medium, YuGothic" font-weight="500"><tspan x="-14.874" y="0">1,117</tspan></text><text transform="translate(3241 4654)" fill="#f15519" font-size="12" font-family="YuGo-Medium, YuGothic" font-weight="500"><tspan x="-9.99" y="0">957</tspan></text><text transform="translate(3179 4663)" fill="#f15519" font-size="12" font-family="YuGo-Medium, YuGothic" font-weight="500"><tspan x="-9.99" y="0">780</tspan></text><text transform="translate(3108 4660)" fill="#f15519" font-size="12" font-family="YuGo-Medium, YuGothic" font-weight="500"><tspan x="-9.99" y="0">808</tspan></text><text transform="translate(3108 4695)" fill="#0073bd" font-size="12" font-family="YuGo-Medium, YuGothic" font-weight="500"><tspan x="-9.99" y="0">712</tspan></text><text transform="translate(3179 4696)" fill="#0073bd" font-size="12" font-family="YuGo-Medium, YuGothic" font-weight="500"><tspan x="-9.99" y="0">731</tspan></text><text transform="translate(3241 4694)" fill="#0073bd" font-size="12" font-family="YuGo-Medium, YuGothic" font-weight="500"><tspan x="-9.99" y="0">757</tspan></text><text transform="translate(3304 4684)" fill="#0073bd" font-size="12" font-family="YuGo-Medium, YuGothic" font-weight="500"><tspan x="-9.99" y="0">870</tspan></text><text transform="translate(3365 4674)" fill="#0073bd" font-size="12" font-family="YuGo-Medium, YuGothic" font-weight="500"><tspan x="-14.874" y="0">1,000</tspan></text><text transform="translate(3428 4668)" fill="#0073bd" font-size="12" font-family="YuGo-Medium, YuGothic" font-weight="500"><tspan x="-14.874" y="0">1,100</tspan></text></g><g transform="translate(-2552 -4608)"><circle cx="3.5" cy="3.5" r="3.5" transform="translate(2812 4610)" fill="#f15519"/><circle cx="3.5" cy="3.5" r="3.5" transform="translate(2872 4610)" fill="#0073bd"/><text transform="translate(2842 4617)" font-size="10" font-family="YuGo-Medium, YuGothic" font-weight="500"><tspan x="-20" y="0">最高株価</tspan></text><text transform="translate(2902 4617)" font-size="10" font-family="YuGo-Medium, YuGothic" font-weight="500"><tspan x="-20" y="0">最低株価</tspan></text><text transform="translate(2932 4617)" font-size="10" font-family="YuGo-Medium, YuGothic" font-weight="500"><tspan x="0" y="0">(単位：円)</tspan></text></g></svg>